  0
SECTION
  2
HEADER
  9
$ACADVER
  1
AC1018
  9
$ACADMAINTVER
 70
     0
  9
$DWGCODEPAGE
  3
ANSI_1252
  9
$INSBASE
 10
0.0
 20
0.0
 30
0.0
  9
$EXTMIN
 10
-170.0
 20
-10.00000000000001
 30
-0.0000000000000071
  9
$EXTMAX
 10
170.0
 20
10.00000000000001
 30
320.0000000000001
  9
$LIMMIN
 10
0.0
 20
0.0
  9
$LIMMAX
 10
12.0
 20
9.0
  9
$ORTHOMODE
 70
     0
  9
$REGENMODE
 70
     1
  9
$FILLMODE
 70
     1
  9
$QTEXTMODE
 70
     0
  9
$MIRRTEXT
 70
     1
  9
$LTSCALE
 40
0.0393700787401575
  9
$ATTMODE
 70
     1
  9
$TEXTSIZE
 40
0.2
  9
$TRACEWID
 40
0.05
  9
$TEXTSTYLE
  7
Standard
  9
$CLAYER
  8
Default
  9
$CELTYPE
  6
ByLayer
  9
$CECOLOR
 62
   256
  9
$CELTSCALE
 40
1.0
  9
$DISPSILH
 70
     0
  9
$DIMSCALE
 40
1.0
  9
$DIMASZ
 40
0.18
  9
$DIMEXO
 40
0.0625
  9
$DIMDLI
 40
0.38
  9
$DIMRND
 40
0.0
  9
$DIMDLE
 40
0.0
  9
$DIMEXE
 40
0.18
  9
$DIMTP
 40
0.0
  9
$DIMTM
 40
0.0
  9
$DIMTXT
 40
0.18
  9
$DIMCEN
 40
0.09
  9
$DIMTSZ
 40
0.0
  9
$DIMTOL
 70
     0
  9
$DIMLIM
 70
     0
  9
$DIMTIH
 70
     1
  9
$DIMTOH
 70
     1
  9
$DIMSE1
 70
     0
  9
$DIMSE2
 70
     0
  9
$DIMTAD
 70
     0
  9
$DIMZIN
 70
     0
  9
$DIMBLK
  1

  9
$DIMASO
 70
     1
  9
$DIMSHO
 70
     1
  9
$DIMPOST
  1

  9
$DIMAPOST
  1

  9
$DIMALT
 70
     0
  9
$DIMALTD
 70
     2
  9
$DIMALTF
 40
25.4
  9
$DIMLFAC
 40
1.0
  9
$DIMTOFL
 70
     0
  9
$DIMTVP
 40
0.0
  9
$DIMTIX
 70
     0
  9
$DIMSOXD
 70
     0
  9
$DIMSAH
 70
     0
  9
$DIMBLK1
  1

  9
$DIMBLK2
  1

  9
$DIMSTYLE
  2
Standard
  9
$DIMCLRD
 70
     0
  9
$DIMCLRE
 70
     0
  9
$DIMCLRT
 70
     0
  9
$DIMTFAC
 40
1.0
  9
$DIMGAP
 40
0.09
  9
$DIMJUST
 70
     0
  9
$DIMSD1
 70
     0
  9
$DIMSD2
 70
     0
  9
$DIMTOLJ
 70
     1
  9
$DIMTZIN
 70
     0
  9
$DIMALTZ
 70
     0
  9
$DIMALTTZ
 70
     0
  9
$DIMUPT
 70
     0
  9
$DIMDEC
 70
     4
  9
$DIMTDEC
 70
     4
  9
$DIMALTU
 70
     2
  9
$DIMALTTD
 70
     2
  9
$DIMTXSTY
  7
Standard
  9
$DIMAUNIT
 70
     0
  9
$DIMADEC
 70
     0
  9
$DIMALTRND
 40
0.0
  9
$DIMAZIN
 70
     0
  9
$DIMDSEP
 70
    46
  9
$DIMATFIT
 70
     3
  9
$DIMFRAC
 70
     0
  9
$DIMLDRBLK
  1

  9
$DIMLUNIT
 70
     2
  9
$DIMLWD
 70
    -2
  9
$DIMLWE
 70
    -2
  9
$DIMTMOVE
 70
     2
  9
$LUNITS
 70
     2
  9
$LUPREC
 70
     3
  9
$SKETCHINC
 40
0.1
  9
$FILLETRAD
 40
0.5
  9
$AUNITS
 70
     0
  9
$AUPREC
 70
     0
  9
$MENU
  1
.
  9
$ELEVATION
 40
0.0
  9
$PELEVATION
 40
0.0
  9
$THICKNESS
 40
0.0
  9
$LIMCHECK
 70
     0
  9
$CHAMFERA
 40
0.5
  9
$CHAMFERB
 40
0.5
  9
$CHAMFERC
 40
1.0
  9
$CHAMFERD
 40
0.0
  9
$SKPOLY
 70
     0
  9
$TDCREATE
 40
2455656.848837755
  9
$TDUCREATE
 40
2455657.140504421
  9
$TDUPDATE
 40
2455656.848837766
  9
$TDUUPDATE
 40
2455657.140504433
  9
$TDINDWG
 40
0.0000000116
  9
$TDUSRTIMER
 40
0.0000000116
  9
$USRTIMER
 70
     1
  9
$ANGBASE
 50
0.0
  9
$ANGDIR
 70
     0
  9
$PDMODE
 70
     0
  9
$PDSIZE
 40
0.0
  9
$PLINEWID
 40
0.0
  9
$SPLFRAME
 70
     0
  9
$SPLINETYPE
 70
     6
  9
$SPLINESEGS
 70
     8
  9
$HANDSEED
  5
1AA
  9
$SURFTAB1
 70
     6
  9
$SURFTAB2
 70
     6
  9
$SURFTYPE
 70
     6
  9
$SURFU
 70
     6
  9
$SURFV
 70
     6
  9
$UCSBASE
  2

  9
$UCSNAME
  2

  9
$UCSORG
 10
0.0
 20
0.0
 30
0.0
  9
$UCSXDIR
 10
1.0
 20
0.0
 30
0.0
  9
$UCSYDIR
 10
0.0
 20
1.0
 30
0.0
  9
$UCSORTHOREF
  2

  9
$UCSORTHOVIEW
 70
     0
  9
$UCSORGTOP
 10
0.0
 20
0.0
 30
0.0
  9
$UCSORGBOTTOM
 10
0.0
 20
0.0
 30
0.0
  9
$UCSORGLEFT
 10
0.0
 20
0.0
 30
0.0
  9
$UCSORGRIGHT
 10
0.0
 20
0.0
 30
0.0
  9
$UCSORGFRONT
 10
0.0
 20
0.0
 30
0.0
  9
$UCSORGBACK
 10
0.0
 20
0.0
 30
0.0
  9
$PUCSBASE
  2

  9
$PUCSNAME
  2

  9
$PUCSORG
 10
0.0
 20
0.0
 30
0.0
  9
$PUCSXDIR
 10
1.0
 20
0.0
 30
0.0
  9
$PUCSYDIR
 10
0.0
 20
1.0
 30
0.0
  9
$PUCSORTHOREF
  2

  9
$PUCSORTHOVIEW
 70
     0
  9
$PUCSORGTOP
 10
0.0
 20
0.0
 30
0.0
  9
$PUCSORGBOTTOM
 10
0.0
 20
0.0
 30
0.0
  9
$PUCSORGLEFT
 10
0.0
 20
0.0
 30
0.0
  9
$PUCSORGRIGHT
 10
0.0
 20
0.0
 30
0.0
  9
$PUCSORGFRONT
 10
0.0
 20
0.0
 30
0.0
  9
$PUCSORGBACK
 10
0.0
 20
0.0
 30
0.0
  9
$USERI1
 70
     0
  9
$USERI2
 70
     0
  9
$USERI3
 70
     0
  9
$USERI4
 70
     0
  9
$USERI5
 70
     0
  9
$USERR1
 40
0.0
  9
$USERR2
 40
0.0
  9
$USERR3
 40
0.0
  9
$USERR4
 40
0.0
  9
$USERR5
 40
0.0
  9
$WORLDVIEW
 70
     1
  9
$SHADEDGE
 70
     3
  9
$SHADEDIF
 70
    70
  9
$TILEMODE
 70
     1
  9
$MAXACTVP
 70
    64
  9
$PINSBASE
 10
0.0
 20
0.0
 30
0.0
  9
$PLIMCHECK
 70
     0
  9
$PEXTMIN
 10
1.000000000000000E+20
 20
1.000000000000000E+20
 30
1.000000000000000E+20
  9
$PEXTMAX
 10
-1.000000000000000E+20
 20
-1.000000000000000E+20
 30
-1.000000000000000E+20
  9
$PLIMMIN
 10
0.0
 20
0.0
  9
$PLIMMAX
 10
12.0
 20
9.0
  9
$UNITMODE
 70
     0
  9
$VISRETAIN
 70
     1
  9
$PLINEGEN
 70
     0
  9
$PSLTSCALE
 70
     1
  9
$TREEDEPTH
 70
  3020
  9
$CMLSTYLE
  2
Standard
  9
$CMLJUST
 70
     0
  9
$CMLSCALE
 40
1.0
  9
$PROXYGRAPHICS
 70
     1
  9
$MEASUREMENT
 70
     0
  9
$CELWEIGHT
370
    -1
  9
$ENDCAPS
280
     0
  9
$JOINSTYLE
280
     0
  9
$LWDISPLAY
290
     0
  9
$INSUNITS
 70
     1
  9
$HYPERLINKBASE
  1

  9
$STYLESHEET
  1

  9
$XEDIT
290
     1
  9
$CEPSNTYPE
380
     0
  9
$PSTYLEMODE
290
     1
  9
$FINGERPRINTGUID
  2
{84CD1639-EA48-401E-87B3-7C05212F5E64}
  9
$VERSIONGUID
  2
{FAEB1C32-E019-11D5-929B-00C0DF256EC4}
  9
$EXTNAMES
290
     1
  9
$PSVPSCALE
 40
0.0
  9
$OLESTARTUP
290
     0
  9
$SORTENTS
280
   127
  9
$INDEXCTL
280
     0
  9
$HIDETEXT
280
     1
  9
$XCLIPFRAME
290
     0
  9
$HALOGAP
280
     0
  9
$OBSCOLOR
 70
   257
  9
$OBSLTYPE
280
     0
  9
$INTERSECTIONDISPLAY
280
     0
  9
$INTERSECTIONCOLOR
 70
   257
  9
$DIMASSOC
280
     2
  9
$PROJECTNAME
  1

  0
ENDSEC
  0
SECTION
  2
CLASSES
  0
CLASS
  1
ACDBDICTIONARYWDFLT
  2
AcDbDictionaryWithDefault
  3
ObjectDBX Classes
 90
        0
 91
        4
280
     0
281
     0
  0
CLASS
  1
VISUALSTYLE
  2
AcDbVisualStyle
  3
ObjectDBX Classes
 90
     4095
 91
        4
280
     0
281
     0
  0
ENDSEC
  0
SECTION
  2
TABLES
  0
TABLE
  2
VPORT
  5
8
330
0
100
AcDbSymbolTable
 70
     1
  0
VPORT
  5
29
330
8
100
AcDbSymbolTableRecord
100
AcDbViewportTableRecord
  2
*Active
 70
     0
 10
0.0
 20
0.0
 11
1.0
 21
1.0
 12
0.0
 22
0.0
 13
0.0
 23
0.0
 14
0.5
 24
0.5
 15
0.5
 25
0.5
 16
0.0
 26
0.0
 36
1.0
 17
0.0
 27
0.0
 37
0.0
 40
20.40000000000002
 41
16.99999999999998
 42
50.0
 43
0.0
 44
0.0
 50
0.0
 51
0.0
 71
     0
 72
   100
 73
     1
 74
     3
 75
     0
 76
     0
 77
     0
 78
     0
281
     0
 65
     1
110
0.0
120
0.0
130
0.0
111
1.0
121
0.0
131
0.0
112
0.0
122
1.0
132
0.0
 79
     0
146
0.0
  0
ENDTAB
  0
TABLE
  2
LTYPE
  5
5
330
0
100
AcDbSymbolTable
 70
     1
  0
LTYPE
  5
14
330
5
100
AcDbSymbolTableRecord
100
AcDbLinetypeTableRecord
  2
ByBlock
 70
     0
  3

 72
    65
 73
     0
 40
0.0
  0
LTYPE
  5
15
330
5
100
AcDbSymbolTableRecord
100
AcDbLinetypeTableRecord
  2
ByLayer
 70
     0
  3

 72
    65
 73
     0
 40
0.0
  0
LTYPE
  5
16
330
5
100
AcDbSymbolTableRecord
100
AcDbLinetypeTableRecord
  2
Continuous
 70
     0
  3
Solid line
 72
    65
 73
     0
 40
0.0
  0
ENDTAB
  0
TABLE
  2
LAYER
  5
2
330
0
100
AcDbSymbolTable
 70
     2
  0
LAYER
  5
10
330
2
100
AcDbSymbolTableRecord
100
AcDbLayerTableRecord
  2
0
 70
     0
 62
     7
  6
Continuous
370
    -3
390
F
  0
LAYER
  5
3B
330
2
100
AcDbSymbolTableRecord
100
AcDbLayerTableRecord
  2
Default
 70
     0
 62
     7
  6
Continuous
370
    -3
390
F
  0
ENDTAB
  0
TABLE
  2
STYLE
  5
3
330
0
100
AcDbSymbolTable
 70
     1
  0
STYLE
  5
11
330
3
100
AcDbSymbolTableRecord
100
AcDbTextStyleTableRecord
  2
Standard
 70
     0
 40
0.0
 41
1.0
 50
0.0
 71
     0
 42
0.2
  3
txt
  4

  0
ENDTAB
  0
TABLE
  2
VIEW
  5
6
330
0
100
AcDbSymbolTable
 70
     0
  0
ENDTAB
  0
TABLE
  2
UCS
  5
7
330
0
100
AcDbSymbolTable
 70
     0
  0
ENDTAB
  0
TABLE
  2
APPID
  5
9
330
0
100
AcDbSymbolTable
 70
     1
  0
APPID
  5
12
330
9
100
AcDbSymbolTableRecord
100
AcDbRegAppTableRecord
  2
ACAD
 70
     0
  0
ENDTAB
  0
TABLE
  2
DIMSTYLE
  5
A
330
0
100
AcDbSymbolTable
 70
     1
100
AcDbDimStyleTable
  0
DIMSTYLE
105
27
330
A
100
AcDbSymbolTableRecord
100
AcDbDimStyleTableRecord
  2
Standard
 70
     0
340
11
  0
ENDTAB
  0
TABLE
  2
BLOCK_RECORD
  5
1
330
0
100
AcDbSymbolTable
 70
     1
  0
BLOCK_RECORD
  5
1F
330
1
100
AcDbSymbolTableRecord
100
AcDbBlockTableRecord
  2
*Model_Space
340
22
  0
BLOCK_RECORD
  5
1B
330
1
100
AcDbSymbolTableRecord
100
AcDbBlockTableRecord
  2
*Paper_Space
340
1E
  0
BLOCK_RECORD
  5
23
330
1
100
AcDbSymbolTableRecord
100
AcDbBlockTableRecord
  2
*Paper_Space0
340
26
  0
ENDTAB
  0
ENDSEC
  0
SECTION
  2
BLOCKS
  0
BLOCK
  5
20
330
1F
100
AcDbEntity
  8
0
100
AcDbBlockBegin
  2
*Model_Space
 70
     0
 10
0.0
 20
0.0
 30
0.0
  3
*Model_Space
  1

  0
ENDBLK
  5
21
330
1F
100
AcDbEntity
  8
0
100
AcDbBlockEnd
  0
BLOCK
  5
1C
330
1B
100
AcDbEntity
 67
     1
  8
0
100
AcDbBlockBegin
  2
*Paper_Space
 70
     0
 10
0.0
 20
0.0
 30
0.0
  3
*Paper_Space
  1

  0
ENDBLK
  5
1D
330
1B
100
AcDbEntity
 67
     1
  8
0
100
AcDbBlockEnd
  0
BLOCK
  5
24
330
23
100
AcDbEntity
  8
0
100
AcDbBlockBegin
  2
*Paper_Space0
 70
     0
 10
0.0
 20
0.0
 30
0.0
  3
*Paper_Space0
  1

  0
ENDBLK
  5
25
330
23
100
AcDbEntity
  8
0
100
AcDbBlockEnd
  0
ENDSEC
  0
SECTION
  2
ENTITIES
  0
LINE
  5
3C
330
1F
100
AcDbEntity
  8
Default
100
AcDbLine
 10
0.0
 20
0.0
 30
280.0000000000001
 11
0.0
 21
9.999999999999991
 31
300.0
  0
LINE
  5
3D
330
1F
100
AcDbEntity
  8
Default
100
AcDbLine
 10
0.0
 20
-10.0
 30
300.0
 11
0.0
 21
-0.0000000000000089
 31
280.0000000000001
  0
LINE
  5
3E
330
1F
100
AcDbEntity
  8
Default
100
AcDbLine
 10
0.0
 20
0.0
 30
320.0
 11
0.0
 21
9.999999999999998
 31
300.0
  0
LINE
  5
3F
330
1F
100
AcDbEntity
  8
Default
100
AcDbLine
 10
0.0
 20
0.0
 30
320.0
 11
0.0
 21
-9.999999999999998
 31
300.0
  0
LINE
  5
40
330
1F
100
AcDbEntity
  8
Default
100
AcDbLine
 10
-130.0
 20
0.0
 30
0.0
 11
-150.0
 21
-9.999999999999998
 31
0.0
  0
LINE
  5
41
330
1F
100
AcDbEntity
  8
Default
100
AcDbLine
 10
-150.0
 20
10.0
 30
0.0
 11
-130.0
 21
0.0000000000000018
 31
0.0
  0
LINE
  5
42
330
1F
100
AcDbEntity
  8
Default
100
AcDbLine
 10
-106.0797650907069
 20
-10.0
 30
212.0881667310057
 11
-94.35973156974839
 21
-10.0
 31
233.1933599678726
  0
LINE
  5
43
330
1F
100
AcDbEntity
  8
Default
100
AcDbLine
 10
-94.35973156974839
 20
-10.0
 30
233.1933599678726
 11
-80.58906419885064
 21
-10.0
 31
253.0158892160246
  0
LINE
  5
44
330
1F
100
AcDbEntity
  8
Default
100
AcDbLine
 10
-80.58906419885062
 20
-10.0
 30
253.0158892160246
 11
-64.41719480434642
 21
-10.0
 31
270.921577440395
  0
LINE
  5
45
330
1F
100
AcDbEntity
  8
Default
100
AcDbLine
 10
-64.41719480434644
 20
-10.0
 30
270.921577440395
 11
-45.49557060432821
 21
-10.0
 31
285.8650720211106
  0
LINE
  5
46
330
1F
100
AcDbEntity
  8
Default
100
AcDbLine
 10
-23.75091046399477
 20
-10.0
 30
296.2145195715949
 11
-0.0000000000000036
 21
-10.0
 31
300.0
  0
LINE
  5
47
330
1F
100
AcDbEntity
  8
Default
100
AcDbLine
 10
-45.49557060432819
 20
-10.0
 30
285.8650720211106
 11
-23.75091046399476
 21
-10.0
 31
296.2145195715948
  0
LINE
  5
48
330
1F
100
AcDbEntity
  8
Default
100
AcDbLine
 10
-17.6673764482381
 20
0.0
 30
277.162207011721
 11
0.0
 21
0.0
 31
280.0000000000001
  0
LINE
  5
49
330
1F
100
AcDbEntity
  8
Default
100
AcDbLine
 10
-23.75091046399477
 20
-10.0
 30
296.2145195715949
 11
-17.66737644823809
 21
0.0
 31
277.162207011721
  0
LINE
  5
4A
330
1F
100
AcDbEntity
  8
Default
100
AcDbLine
 10
-23.75091046399477
 20
10.0
 30
296.2145195715949
 11
-0.0000000000000036
 21
10.0
 31
300.0
  0
LINE
  5
4B
330
1F
100
AcDbEntity
  8
Default
100
AcDbLine
 10
-17.6673764482381
 20
0.0
 30
277.162207011721
 11
-23.75091046399477
 21
10.0
 31
296.2145195715949
  0
LINE
  5
4C
330
1F
100
AcDbEntity
  8
Default
100
AcDbLine
 10
-149.458918209041
 20
10.0
 30
25.21458016025303
 11
-150.0
 21
10.0
 31
0.0
  0
LINE
  5
4D
330
1F
100
AcDbEntity
  8
Default
100
AcDbLine
 10
-149.458918209041
 20
-10.0
 30
25.21458016025303
 11
-150.0
 21
-10.0
 31
0.0
  0
LINE
  5
4E
330
1F
100
AcDbEntity
  8
Default
100
AcDbLine
 10
-149.458918209041
 20
-10.0
 30
25.21458016025303
 11
-147.9493531701653
 21
-10.0
 31
49.31522463278296
  0
LINE
  5
4F
330
1F
100
AcDbEntity
  8
Default
100
AcDbLine
 10
-147.9493531701653
 20
-10.0
 30
49.31522463278297
 11
-145.4397504340722
 21
-10.0
 31
73.33222085143883
  0
LINE
  5
50
330
1F
100
AcDbEntity
  8
Default
100
AcDbLine
 10
-145.4397504340722
 20
-10.0
 30
73.33222085143883
 11
-141.8957710541976
 21
-10.0
 31
97.21830689848787
  0
LINE
  5
51
330
1F
100
AcDbEntity
  8
Default
100
AcDbLine
 10
-141.8957710541976
 20
-10.0
 30
97.21830689848787
 11
-137.2666777912798
 21
-10.0
 31
120.9177217686617
  0
LINE
  5
52
330
1F
100
AcDbEntity
  8
Default
100
AcDbLine
 10
-124.4470553748524
 20
-10.0
 30
167.4600881769209
 11
-131.4820678867097
 21
-10.0
 31
144.3614457700254
  0
LINE
  5
53
330
1F
100
AcDbEntity
  8
Default
100
AcDbLine
 10
-137.2666777912798
 20
-10.0
 30
120.9177217686617
 11
-131.4820678867097
 21
-10.0
 31
144.3614457700254
  0
LINE
  5
54
330
1F
100
AcDbEntity
  8
Default
100
AcDbLine
 10
-116.0353639857387
 20
-10.0
 30
190.0926908973499
 11
-106.0797650907069
 21
-10.0
 31
212.0881667310057
  0
LINE
  5
55
330
1F
100
AcDbEntity
  8
Default
100
AcDbLine
 10
-116.0353639857387
 20
-10.0
 30
190.0926908973499
 11
-124.4470553748524
 21
-10.0
 31
167.4600881769209
  0
LINE
  5
56
330
1F
100
AcDbEntity
  8
Default
100
AcDbLine
 10
-106.0797650907069
 20
10.0
 30
212.0881667310057
 11
-116.0353639857387
 21
10.0
 31
190.0926908973499
  0
LINE
  5
57
330
1F
100
AcDbEntity
  8
Default
100
AcDbLine
 10
-116.0353639857387
 20
10.0
 30
190.0926908973499
 11
-124.4470553748524
 21
10.0
 31
167.4600881769209
  0
LINE
  5
58
330
1F
100
AcDbEntity
  8
Default
100
AcDbLine
 10
-124.4470553748524
 20
10.0
 30
167.4600881769209
 11
-131.4820678867097
 21
10.0
 31
144.3614457700254
  0
LINE
  5
59
330
1F
100
AcDbEntity
  8
Default
100
AcDbLine
 10
-131.4820678867097
 20
10.0
 30
144.3614457700254
 11
-137.2666777912798
 21
10.0
 31
120.9177217686617
  0
LINE
  5
5A
330
1F
100
AcDbEntity
  8
Default
100
AcDbLine
 10
-137.2666777912798
 20
10.0
 30
120.9177217686617
 11
-141.8957710541976
 21
10.0
 31
97.21830689848787
  0
LINE
  5
5B
330
1F
100
AcDbEntity
  8
Default
100
AcDbLine
 10
-141.8957710541976
 20
10.0
 30
97.21830689848787
 11
-145.4397504340722
 21
10.0
 31
73.33222085143883
  0
LINE
  5
5C
330
1F
100
AcDbEntity
  8
Default
100
AcDbLine
 10
-147.9493531701653
 20
10.0
 30
49.31522463278297
 11
-149.4589182090411
 21
10.0
 31
25.21458016025304
  0
LINE
  5
5D
330
1F
100
AcDbEntity
  8
Default
100
AcDbLine
 10
-145.4397504340722
 20
10.0
 30
73.33222085143883
 11
-147.9493531701653
 21
10.0
 31
49.31522463278297
  0
LINE
  5
5E
330
1F
100
AcDbEntity
  8
Default
100
AcDbLine
 10
-122.2195466520284
 20
0.0
 30
93.63414824191554
 11
-141.8957710541976
 21
10.0
 31
97.21830689848787
  0
LINE
  5
5F
330
1F
100
AcDbEntity
  8
Default
100
AcDbLine
 10
-141.8957710541976
 20
-10.0
 30
97.21830689848787
 11
-122.2195466520284
 21
0.0
 31
93.63414824191554
  0
LINE
  5
60
330
1F
100
AcDbEntity
  8
Default
100
AcDbLine
 10
-125.6245007621626
 20
0.0
 30
70.62004820946196
 11
-145.4397504340722
 21
9.999999999999998
 31
73.33222085143885
  0
LINE
  5
61
330
1F
100
AcDbEntity
  8
Default
100
AcDbLine
 10
-145.4397504340722
 20
-10.0
 30
73.33222085143883
 11
-125.6245007621626
 21
-0.0000000000000018
 31
70.62004820946194
  0
LINE
  5
62
330
1F
100
AcDbEntity
  8
Default
100
AcDbLine
 10
-122.2195466520284
 20
0.0
 30
93.63414824191554
 11
-125.6245007621626
 21
0.0
 31
70.62004820946196
  0
LINE
  5
63
330
1F
100
AcDbEntity
  8
Default
100
AcDbLine
 10
-128.0373461218405
 20
0.0
 30
47.4411981368488
 11
-147.9493531701653
 21
10.00000000000001
 31
49.31522463278298
  0
LINE
  5
64
330
1F
100
AcDbEntity
  8
Default
100
AcDbLine
 10
-147.9493531701653
 20
-10.0
 30
49.31522463278297
 11
-128.0373461218405
 21
0.0000000000000071
 31
47.4411981368488
  0
LINE
  5
65
330
1F
100
AcDbEntity
  8
Default
100
AcDbLine
 10
-125.6245007621626
 20
0.0
 30
70.62004820946196
 11
-128.0373461218405
 21
0.0
 31
47.4411981368488
  0
LINE
  5
66
330
1F
100
AcDbEntity
  8
Default
100
AcDbLine
 10
-129.486883804706
 20
0.0
 30
24.15729980383991
 11
-149.458918209041
 21
-10.0
 31
25.21458016025303
  0
LINE
  5
67
330
1F
100
AcDbEntity
  8
Default
100
AcDbLine
 10
-149.458918209041
 20
10.0
 30
25.21458016025303
 11
-129.486883804706
 21
0.0
 31
24.15729980383991
  0
LINE
  5
68
330
1F
100
AcDbEntity
  8
Default
100
AcDbLine
 10
-129.486883804706
 20
0.0
 30
24.15729980383991
 11
-130.0
 21
0.0
 31
0.0000000000000036
  0
LINE
  5
69
330
1F
100
AcDbEntity
  8
Default
100
AcDbLine
 10
-128.0373461218405
 20
0.0
 30
47.4411981368488
 11
-129.486883804706
 21
0.0
 31
24.15729980383991
  0
LINE
  5
6A
330
1F
100
AcDbEntity
  8
Default
100
AcDbLine
 10
-45.49557060432819
 20
10.0
 30
285.8650720211106
 11
-23.75091046399476
 21
10.0
 31
296.2145195715948
  0
LINE
  5
6B
330
1F
100
AcDbEntity
  8
Default
100
AcDbLine
 10
-45.49557060432819
 20
10.0
 30
285.8650720211106
 11
-64.41719480434642
 21
10.0
 31
270.921577440395
  0
LINE
  5
6C
330
1F
100
AcDbEntity
  8
Default
100
AcDbLine
 10
-64.41719480434644
 20
10.0
 30
270.921577440395
 11
-80.58906419885064
 21
10.0
 31
253.0158892160246
  0
LINE
  5
6D
330
1F
100
AcDbEntity
  8
Default
100
AcDbLine
 10
-94.35973156974839
 20
10.0
 30
233.1933599678726
 11
-106.0797650907069
 21
10.0
 31
212.0881667310057
  0
LINE
  5
6E
330
1F
100
AcDbEntity
  8
Default
100
AcDbLine
 10
-80.58906419885062
 20
10.0
 30
253.0158892160246
 11
-94.35973156974838
 21
10.0
 31
233.1933599678726
  0
LINE
  5
6F
330
1F
100
AcDbEntity
  8
Default
100
AcDbLine
 10
-64.94892168430394
 20
0.0
 30
240.550499445758
 11
-80.58906419885062
 21
-10.0
 31
253.0158892160246
  0
LINE
  5
70
330
1F
100
AcDbEntity
  8
Default
100
AcDbLine
 10
-80.58906419885062
 20
10.0
 30
253.0158892160246
 11
-64.94892168430394
 21
0.0
 31
240.550499445758
  0
LINE
  5
71
330
1F
100
AcDbEntity
  8
Default
100
AcDbLine
 10
-77.43484315997115
 20
0.0
 30
222.5374624309878
 11
-94.35973156974839
 21
-10.0
 31
233.1933599678726
  0
LINE
  5
72
330
1F
100
AcDbEntity
  8
Default
100
AcDbLine
 10
-94.35973156974839
 20
10.0
 30
233.1933599678726
 11
-77.43484315997114
 21
-0.0000000000000036
 31
222.5374624309878
  0
LINE
  5
73
330
1F
100
AcDbEntity
  8
Default
100
AcDbLine
 10
-64.94892168430394
 20
0.0
 30
240.550499445758
 11
-77.43484315997115
 21
0.0
 31
222.5374624309878
  0
LINE
  5
74
330
1F
100
AcDbEntity
  8
Default
100
AcDbLine
 10
-88.27270390819258
 20
0.0
 30
202.9827522955069
 11
-106.0797650907069
 21
9.999999999999996
 31
212.0881667310057
  0
LINE
  5
75
330
1F
100
AcDbEntity
  8
Default
100
AcDbLine
 10
-106.0797650907069
 20
-10.0
 30
212.0881667310057
 11
-88.27270390819258
 21
-0.0000000000000036
 31
202.9827522955069
  0
LINE
  5
76
330
1F
100
AcDbEntity
  8
Default
100
AcDbLine
 10
-77.43484315997115
 20
0.0
 30
222.5374624309878
 11
-88.27270390819257
 21
0.0
 31
202.9827522955069
  0
LINE
  5
77
330
1F
100
AcDbEntity
  8
Default
100
AcDbLine
 10
-97.60140656653056
 20
0.0
 30
182.334520116372
 11
-116.0353639857387
 21
-10.0
 31
190.0926908973499
  0
LINE
  5
78
330
1F
100
AcDbEntity
  8
Default
100
AcDbLine
 10
-116.0353639857387
 20
10.0
 30
190.0926908973499
 11
-97.60140656653056
 21
-0.0000000000000036
 31
182.334520116372
  0
LINE
  5
79
330
1F
100
AcDbEntity
  8
Default
100
AcDbLine
 10
-88.27270390819258
 20
0.0
 30
202.9827522955069
 11
-97.60140656653057
 21
0.0
 31
182.334520116372
  0
LINE
  5
7A
330
1F
100
AcDbEntity
  8
Default
100
AcDbLine
 10
-105.5555603113032
 20
0.0
 30
160.8941598903878
 11
-124.4470553748524
 21
-10.0
 31
167.4600881769209
  0
LINE
  5
7B
330
1F
100
AcDbEntity
  8
Default
100
AcDbLine
 10
-124.4470553748524
 20
10.0
 30
167.4600881769209
 11
-105.5555603113032
 21
-0.0000000000000036
 31
160.8941598903878
  0
LINE
  5
7C
330
1F
100
AcDbEntity
  8
Default
100
AcDbLine
 10
-97.60140656653056
 20
0.0
 30
182.334520116372
 11
-105.5555603113032
 21
0.0
 31
160.8941598903878
  0
LINE
  5
7D
330
1F
100
AcDbEntity
  8
Default
100
AcDbLine
 10
-112.2506124452024
 20
0.0
 30
138.870442072948
 11
-131.4820678867097
 21
9.999999999999996
 31
144.3614457700254
  0
LINE
  5
7E
330
1F
100
AcDbEntity
  8
Default
100
AcDbLine
 10
-131.4820678867097
 20
-10.0
 30
144.3614457700254
 11
-112.2506124452024
 21
-0.0000000000000036
 31
138.870442072948
  0
LINE
  5
7F
330
1F
100
AcDbEntity
  8
Default
100
AcDbLine
 10
-105.5555603113032
 20
0.0
 30
160.8941598903878
 11
-112.2506124452024
 21
0.0
 31
138.870442072948
  0
LINE
  5
80
330
1F
100
AcDbEntity
  8
Default
100
AcDbLine
 10
-117.7805486863987
 20
0.0
 30
116.4131937680933
 11
-137.2666777912798
 21
10.0
 31
120.9177217686617
  0
LINE
  5
81
330
1F
100
AcDbEntity
  8
Default
100
AcDbLine
 10
-137.2666777912798
 20
-10.0
 30
120.9177217686617
 11
-117.7805486863987
 21
0.0
 31
116.4131937680933
  0
LINE
  5
82
330
1F
100
AcDbEntity
  8
Default
100
AcDbLine
 10
-117.7805486863987
 20
0.0
 30
116.4131937680933
 11
-122.2195466520284
 21
0.0
 31
93.63414824191554
  0
LINE
  5
83
330
1F
100
AcDbEntity
  8
Default
100
AcDbLine
 10
-112.2506124452024
 20
0.0
 30
138.870442072948
 11
-117.7805486863987
 21
0.0
 31
116.4131937680933
  0
LINE
  5
84
330
1F
100
AcDbEntity
  8
Default
100
AcDbLine
 10
-50.72023871803304
 20
0.0
 30
256.3478547186742
 11
-64.41719480434645
 21
10.00000000000001
 31
270.921577440395
  0
LINE
  5
85
330
1F
100
AcDbEntity
  8
Default
100
AcDbLine
 10
-64.41719480434644
 20
-10.0
 30
270.921577440395
 11
-50.72023871803304
 21
0.0000000000000089
 31
256.3478547186742
  0
LINE
  5
86
330
1F
100
AcDbEntity
  8
Default
100
AcDbLine
 10
-50.72023871803304
 20
0.0
 30
256.3478547186742
 11
-64.94892168430394
 21
0.0
 31
240.550499445758
  0
LINE
  5
87
330
1F
100
AcDbEntity
  8
Default
100
AcDbLine
 10
-124.4470553748524
 20
-10.0
 30
167.4600881769209
 11
-143.3385504384016
 21
0.0
 31
174.0260164634541
  0
LINE
  5
88
330
1F
100
AcDbEntity
  8
Default
100
AcDbLine
 10
-143.3385504384016
 20
0.0
 30
174.0260164634541
 11
-124.4470553748524
 21
10.0
 31
167.4600881769209
  0
LINE
  5
89
330
1F
100
AcDbEntity
  8
Default
100
AcDbLine
 10
-150.7135233282171
 20
0.0
 30
149.8524494671029
 11
-131.4820678867097
 21
-10.0
 31
144.3614457700255
  0
LINE
  5
8A
330
1F
100
AcDbEntity
  8
Default
100
AcDbLine
 10
-131.4820678867097
 20
10.0
 30
144.3614457700254
 11
-150.7135233282171
 21
-0.0000000000000036
 31
149.8524494671029
  0
LINE
  5
8B
330
1F
100
AcDbEntity
  8
Default
100
AcDbLine
 10
-143.3385504384016
 20
0.0
 30
174.0260164634541
 11
-150.7135233282171
 21
0.0
 31
149.8524494671029
  0
LINE
  5
8C
330
1F
100
AcDbEntity
  8
Default
100
AcDbLine
 10
-156.7528068961609
 20
0.0
 30
125.4222497692302
 11
-137.2666777912798
 21
-9.99999999999999
 31
120.9177217686617
  0
LINE
  5
8D
330
1F
100
AcDbEntity
  8
Default
100
AcDbLine
 10
-137.2666777912798
 20
10.0
 30
120.9177217686617
 11
-156.7528068961609
 21
0.0000000000000107
 31
125.4222497692302
  0
LINE
  5
8E
330
1F
100
AcDbEntity
  8
Default
100
AcDbLine
 10
-150.7135233282171
 20
0.0
 30
149.8524494671029
 11
-156.7528068961609
 21
0.0
 31
125.4222497692302
  0
LINE
  5
8F
330
1F
100
AcDbEntity
  8
Default
100
AcDbLine
 10
-161.5719954563667
 20
0.0
 30
100.8024655550602
 11
-141.8957710541976
 21
-10.0
 31
97.21830689848787
  0
LINE
  5
90
330
1F
100
AcDbEntity
  8
Default
100
AcDbLine
 10
-141.8957710541976
 20
10.0
 30
97.21830689848787
 11
-161.5719954563667
 21
0.0
 31
100.8024655550602
  0
LINE
  5
91
330
1F
100
AcDbEntity
  8
Default
100
AcDbLine
 10
-156.7528068961609
 20
0.0
 30
125.4222497692302
 11
-161.5719954563667
 21
0.0
 31
100.8024655550602
  0
LINE
  5
92
330
1F
100
AcDbEntity
  8
Default
100
AcDbLine
 10
-165.2550001059818
 20
0.0
 30
76.04439349341574
 11
-145.4397504340722
 21
-10.0
 31
73.33222085143883
  0
LINE
  5
93
330
1F
100
AcDbEntity
  8
Default
100
AcDbLine
 10
-145.4397504340722
 20
10.0
 30
73.33222085143883
 11
-165.2550001059818
 21
-0.0000000000000036
 31
76.04439349341574
  0
LINE
  5
94
330
1F
100
AcDbEntity
  8
Default
100
AcDbLine
 10
-161.5719954563667
 20
0.0
 30
100.8024655550602
 11
-165.2550001059818
 21
0.0
 31
76.04439349341574
  0
LINE
  5
95
330
1F
100
AcDbEntity
  8
Default
100
AcDbLine
 10
-167.8613602184901
 20
0.0
 30
51.18925112871715
 11
-147.9493531701653
 21
-9.999999999999996
 31
49.31522463278297
  0
LINE
  5
96
330
1F
100
AcDbEntity
  8
Default
100
AcDbLine
 10
-147.9493531701653
 20
10.0
 30
49.31522463278297
 11
-167.8613602184901
 21
0.0000000000000036
 31
51.18925112871715
  0
LINE
  5
97
330
1F
100
AcDbEntity
  8
Default
100
AcDbLine
 10
-165.2550001059818
 20
0.0
 30
76.04439349341574
 11
-167.8613602184901
 21
0.0
 31
51.18925112871715
  0
LINE
  5
98
330
1F
100
AcDbEntity
  8
Default
100
AcDbLine
 10
-149.458918209041
 20
-10.0
 30
25.21458016025303
 11
-169.4309526133761
 21
0.0000000000000107
 31
26.27186051666616
  0
LINE
  5
99
330
1F
100
AcDbEntity
  8
Default
100
AcDbLine
 10
-169.4309526133761
 20
0.0
 30
26.27186051666616
 11
-149.458918209041
 21
10.00000000000001
 31
25.21458016025303
  0
LINE
  5
9A
330
1F
100
AcDbEntity
  8
Default
100
AcDbLine
 10
-167.8613602184901
 20
0.0
 30
51.18925112871715
 11
-169.4309526133761
 21
0.0
 31
26.27186051666616
  0
LINE
  5
9B
330
1F
100
AcDbEntity
  8
Default
100
AcDbLine
 10
-34.8189526214875
 20
0.0
 30
268.9532469141483
 11
-45.49557060432818
 21
-9.999999999999984
 31
285.8650720211106
  0
LINE
  5
9C
330
1F
100
AcDbEntity
  8
Default
100
AcDbLine
 10
-45.49557060432819
 20
10.0
 30
285.8650720211106
 11
-34.81895262148751
 21
0.000000000000016
 31
268.9532469141483
  0
LINE
  5
9D
330
1F
100
AcDbEntity
  8
Default
100
AcDbLine
 10
-34.8189526214875
 20
0.0
 30
268.9532469141483
 11
-17.6673764482381
 21
0.0
 31
277.162207011721
  0
LINE
  5
9E
330
1F
100
AcDbEntity
  8
Default
100
AcDbLine
 10
-34.8189526214875
 20
0.0
 30
268.9532469141483
 11
-50.72023871803307
 21
0.0
 31
256.3478547186742
  0
LINE
  5
9F
330
1F
100
AcDbEntity
  8
Default
100
AcDbLine
 10
-29.83444447975146
 20
0.0
 30
315.2668321314688
 11
-0.0000000000000036
 21
0.0
 31
320.0000000000001
  0
LINE
  5
A0
330
1F
100
AcDbEntity
  8
Default
100
AcDbLine
 10
-23.75091046399477
 20
10.0
 30
296.2145195715949
 11
-29.83444447975146
 21
0.0
 31
315.2668321314688
  0
LINE
  5
A1
330
1F
100
AcDbEntity
  8
Default
100
AcDbLine
 10
-29.83444447975146
 20
0.0
 30
315.2668321314688
 11
-23.75091046399477
 21
-10.0
 31
296.2145195715949
  0
LINE
  5
A2
330
1F
100
AcDbEntity
  8
Default
100
AcDbLine
 10
-45.49557060432819
 20
-10.0
 30
285.8650720211106
 11
-56.17218858716892
 21
0.0000000000000107
 31
302.776897128073
  0
LINE
  5
A3
330
1F
100
AcDbEntity
  8
Default
100
AcDbLine
 10
-56.17218858716891
 20
0.0
 30
302.776897128073
 11
-45.49557060432818
 21
10.00000000000001
 31
285.8650720211106
  0
LINE
  5
A4
330
1F
100
AcDbEntity
  8
Default
100
AcDbLine
 10
-29.83444447975146
 20
0.0
 30
315.2668321314688
 11
-56.17218858716892
 21
0.0
 31
302.776897128073
  0
LINE
  5
A5
330
1F
100
AcDbEntity
  8
Default
100
AcDbLine
 10
-78.11415089065983
 20
0.0
 30
285.4953001621159
 11
-64.41719480434644
 21
-10.0
 31
270.921577440395
  0
LINE
  5
A6
330
1F
100
AcDbEntity
  8
Default
100
AcDbLine
 10
-64.41719480434644
 20
10.0
 30
270.921577440395
 11
-78.11415089065983
 21
0.0
 31
285.4953001621159
  0
LINE
  5
A7
330
1F
100
AcDbEntity
  8
Default
100
AcDbLine
 10
-56.17218858716891
 20
0.0
 30
302.776897128073
 11
-78.11415089065983
 21
0.0
 31
285.4953001621159
  0
LINE
  5
A8
330
1F
100
AcDbEntity
  8
Default
100
AcDbLine
 10
-96.22920671339736
 20
0.0
 30
265.4812789862913
 11
-80.58906419885062
 21
9.999999999999996
 31
253.0158892160246
  0
LINE
  5
A9
330
1F
100
AcDbEntity
  8
Default
100
AcDbLine
 10
-80.58906419885062
 20
-10.0
 30
253.0158892160246
 11
-96.22920671339736
 21
-0.0000000000000036
 31
265.4812789862913
  0
LINE
  5
AA
330
1F
100
AcDbEntity
  8
Default
100
AcDbLine
 10
-78.11415089065983
 20
0.0
 30
285.4953001621159
 11
-96.22920671339739
 21
0.0
 31
265.4812789862913
  0
LINE
  5
AB
330
1F
100
AcDbEntity
  8
Default
100
AcDbLine
 10
-111.2846199795256
 20
0.0
 30
243.8492575047574
 11
-94.35973156974839
 21
9.999999999999998
 31
233.1933599678726
  0
LINE
  5
AC
330
1F
100
AcDbEntity
  8
Default
100
AcDbLine
 10
-94.35973156974839
 20
-10.0
 30
233.1933599678726
 11
-111.2846199795256
 21
-0.0000000000000018
 31
243.8492575047574
  0
LINE
  5
AD
330
1F
100
AcDbEntity
  8
Default
100
AcDbLine
 10
-96.22920671339736
 20
0.0
 30
265.4812789862913
 11
-111.2846199795256
 21
0.0
 31
243.8492575047574
  0
LINE
  5
AE
330
1F
100
AcDbEntity
  8
Default
100
AcDbLine
 10
-123.8868262732213
 20
0.0
 30
221.1935811665045
 11
-106.0797650907069
 21
-10.0
 31
212.0881667310057
  0
LINE
  5
AF
330
1F
100
AcDbEntity
  8
Default
100
AcDbLine
 10
-106.0797650907069
 20
10.0
 30
212.0881667310057
 11
-123.8868262732213
 21
-0.0000000000000018
 31
221.1935811665045
  0
LINE
  5
B0
330
1F
100
AcDbEntity
  8
Default
100
AcDbLine
 10
-111.2846199795256
 20
0.0
 30
243.8492575047574
 11
-123.8868262732213
 21
0.0
 31
221.1935811665045
  0
LINE
  5
B1
330
1F
100
AcDbEntity
  8
Default
100
AcDbLine
 10
-116.0353639857387
 20
-10.0
 30
190.0926908973499
 11
-134.469321404947
 21
0.0000000000000071
 31
197.8508616783278
  0
LINE
  5
B2
330
1F
100
AcDbEntity
  8
Default
100
AcDbLine
 10
-134.469321404947
 20
0.0
 30
197.8508616783278
 11
-116.0353639857387
 21
10.00000000000001
 31
190.0926908973499
  0
LINE
  5
B3
330
1F
100
AcDbEntity
  8
Default
100
AcDbLine
 10
-134.469321404947
 20
0.0
 30
197.8508616783278
 11
-143.3385504384016
 21
0.0
 31
174.0260164634541
  0
LINE
  5
B4
330
1F
100
AcDbEntity
  8
Default
100
AcDbLine
 10
-123.8868262732213
 20
0.0
 30
221.1935811665045
 11
-134.469321404947
 21
0.0
 31
197.8508616783278
  0
LINE
  5
B5
330
1F
100
AcDbEntity
  8
Default
100
AcDbLine
 10
-150.0
 20
-10.0
 30
0.0
 11
-170.0
 21
-0.0000000000000018
 31
0.0
  0
LINE
  5
B6
330
1F
100
AcDbEntity
  8
Default
100
AcDbLine
 10
-170.0
 20
0.0
 30
0.0
 11
-150.0
 21
9.999999999999998
 31
0.0
  0
LINE
  5
B7
330
1F
100
AcDbEntity
  8
Default
100
AcDbLine
 10
-169.4309526133761
 20
0.0
 30
26.27186051666616
 11
-170.0
 21
0.0
 31
-0.0000000000000036
  0
LINE
  5
B8
330
1F
100
AcDbEntity
  8
Default
100
AcDbLine
 10
130.0
 20
0.0
 30
0.0
 11
150.0
 21
9.999999999999998
 31
0.0
  0
LINE
  5
B9
330
1F
100
AcDbEntity
  8
Default
100
AcDbLine
 10
150.0
 20
-10.0
 30
0.0
 11
130.0
 21
-0.0000000000000018
 31
0.0
  0
LINE
  5
BA
330
1F
100
AcDbEntity
  8
Default
100
AcDbLine
 10
106.0797650907069
 20
10.0
 30
212.0881667310057
 11
94.35973156974839
 21
10.0
 31
233.1933599678726
  0
LINE
  5
BB
330
1F
100
AcDbEntity
  8
Default
100
AcDbLine
 10
94.35973156974839
 20
10.0
 30
233.1933599678726
 11
80.58906419885064
 21
10.0
 31
253.0158892160246
  0
LINE
  5
BC
330
1F
100
AcDbEntity
  8
Default
100
AcDbLine
 10
80.58906419885062
 20
10.0
 30
253.0158892160246
 11
64.41719480434642
 21
10.0
 31
270.921577440395
  0
LINE
  5
BD
330
1F
100
AcDbEntity
  8
Default
100
AcDbLine
 10
64.41719480434644
 20
10.0
 30
270.921577440395
 11
45.49557060432821
 21
10.0
 31
285.8650720211106
  0
LINE
  5
BE
330
1F
100
AcDbEntity
  8
Default
100
AcDbLine
 10
23.75091046399477
 20
10.0
 30
296.2145195715949
 11
0.0000000000000036
 21
10.0
 31
300.0
  0
LINE
  5
BF
330
1F
100
AcDbEntity
  8
Default
100
AcDbLine
 10
45.49557060432819
 20
10.0
 30
285.8650720211106
 11
23.75091046399476
 21
10.0
 31
296.2145195715948
  0
LINE
  5
C0
330
1F
100
AcDbEntity
  8
Default
100
AcDbLine
 10
17.6673764482381
 20
0.0
 30
277.162207011721
 11
0.0
 21
0.0
 31
280.0000000000001
  0
LINE
  5
C1
330
1F
100
AcDbEntity
  8
Default
100
AcDbLine
 10
23.75091046399477
 20
10.0
 30
296.2145195715949
 11
17.66737644823809
 21
0.0
 31
277.162207011721
  0
LINE
  5
C2
330
1F
100
AcDbEntity
  8
Default
100
AcDbLine
 10
23.75091046399477
 20
-10.0
 30
296.2145195715949
 11
0.0000000000000036
 21
-10.0
 31
300.0
  0
LINE
  5
C3
330
1F
100
AcDbEntity
  8
Default
100
AcDbLine
 10
17.6673764482381
 20
0.0
 30
277.162207011721
 11
23.75091046399477
 21
-10.0
 31
296.2145195715949
  0
LINE
  5
C4
330
1F
100
AcDbEntity
  8
Default
100
AcDbLine
 10
149.458918209041
 20
-10.0
 30
25.21458016025303
 11
150.0
 21
-10.0
 31
0.0
  0
LINE
  5
C5
330
1F
100
AcDbEntity
  8
Default
100
AcDbLine
 10
149.458918209041
 20
10.0
 30
25.21458016025303
 11
150.0
 21
10.0
 31
0.0
  0
LINE
  5
C6
330
1F
100
AcDbEntity
  8
Default
100
AcDbLine
 10
149.458918209041
 20
10.0
 30
25.21458016025303
 11
147.9493531701653
 21
10.0
 31
49.31522463278296
  0
LINE
  5
C7
330
1F
100
AcDbEntity
  8
Default
100
AcDbLine
 10
147.9493531701653
 20
10.0
 30
49.31522463278297
 11
145.4397504340722
 21
10.0
 31
73.33222085143883
  0
LINE
  5
C8
330
1F
100
AcDbEntity
  8
Default
100
AcDbLine
 10
145.4397504340722
 20
10.0
 30
73.33222085143883
 11
141.8957710541976
 21
10.0
 31
97.21830689848787
  0
LINE
  5
C9
330
1F
100
AcDbEntity
  8
Default
100
AcDbLine
 10
141.8957710541976
 20
10.0
 30
97.21830689848787
 11
137.2666777912798
 21
10.0
 31
120.9177217686617
  0
LINE
  5
CA
330
1F
100
AcDbEntity
  8
Default
100
AcDbLine
 10
124.4470553748524
 20
10.0
 30
167.4600881769209
 11
131.4820678867097
 21
10.0
 31
144.3614457700254
  0
LINE
  5
CB
330
1F
100
AcDbEntity
  8
Default
100
AcDbLine
 10
137.2666777912798
 20
10.0
 30
120.9177217686617
 11
131.4820678867097
 21
10.0
 31
144.3614457700254
  0
LINE
  5
CC
330
1F
100
AcDbEntity
  8
Default
100
AcDbLine
 10
116.0353639857387
 20
10.0
 30
190.0926908973499
 11
106.0797650907069
 21
10.0
 31
212.0881667310057
  0
LINE
  5
CD
330
1F
100
AcDbEntity
  8
Default
100
AcDbLine
 10
116.0353639857387
 20
10.0
 30
190.0926908973499
 11
124.4470553748524
 21
10.0
 31
167.4600881769209
  0
LINE
  5
CE
330
1F
100
AcDbEntity
  8
Default
100
AcDbLine
 10
106.0797650907069
 20
-10.0
 30
212.0881667310057
 11
116.0353639857387
 21
-10.0
 31
190.0926908973499
  0
LINE
  5
CF
330
1F
100
AcDbEntity
  8
Default
100
AcDbLine
 10
116.0353639857387
 20
-10.0
 30
190.0926908973499
 11
124.4470553748524
 21
-10.0
 31
167.4600881769209
  0
LINE
  5
D0
330
1F
100
AcDbEntity
  8
Default
100
AcDbLine
 10
124.4470553748524
 20
-10.0
 30
167.4600881769209
 11
131.4820678867097
 21
-10.0
 31
144.3614457700254
  0
LINE
  5
D1
330
1F
100
AcDbEntity
  8
Default
100
AcDbLine
 10
131.4820678867097
 20
-10.0
 30
144.3614457700254
 11
137.2666777912798
 21
-10.0
 31
120.9177217686617
  0
LINE
  5
D2
330
1F
100
AcDbEntity
  8
Default
100
AcDbLine
 10
137.2666777912798
 20
-10.0
 30
120.9177217686617
 11
141.8957710541976
 21
-10.0
 31
97.21830689848787
  0
LINE
  5
D3
330
1F
100
AcDbEntity
  8
Default
100
AcDbLine
 10
141.8957710541976
 20
-10.0
 30
97.21830689848787
 11
145.4397504340722
 21
-10.0
 31
73.33222085143883
  0
LINE
  5
D4
330
1F
100
AcDbEntity
  8
Default
100
AcDbLine
 10
147.9493531701653
 20
-10.0
 30
49.31522463278297
 11
149.4589182090411
 21
-10.0
 31
25.21458016025304
  0
LINE
  5
D5
330
1F
100
AcDbEntity
  8
Default
100
AcDbLine
 10
145.4397504340722
 20
-10.0
 30
73.33222085143883
 11
147.9493531701653
 21
-10.0
 31
49.31522463278297
  0
LINE
  5
D6
330
1F
100
AcDbEntity
  8
Default
100
AcDbLine
 10
122.2195466520284
 20
0.0
 30
93.63414824191554
 11
141.8957710541976
 21
-10.0
 31
97.21830689848787
  0
LINE
  5
D7
330
1F
100
AcDbEntity
  8
Default
100
AcDbLine
 10
141.8957710541976
 20
10.0
 30
97.21830689848787
 11
122.2195466520284
 21
0.0
 31
93.63414824191554
  0
LINE
  5
D8
330
1F
100
AcDbEntity
  8
Default
100
AcDbLine
 10
125.6245007621626
 20
0.0
 30
70.62004820946196
 11
145.4397504340722
 21
-9.999999999999998
 31
73.33222085143885
  0
LINE
  5
D9
330
1F
100
AcDbEntity
  8
Default
100
AcDbLine
 10
145.4397504340722
 20
10.0
 30
73.33222085143883
 11
125.6245007621626
 21
0.0000000000000018
 31
70.62004820946194
  0
LINE
  5
DA
330
1F
100
AcDbEntity
  8
Default
100
AcDbLine
 10
122.2195466520284
 20
0.0
 30
93.63414824191554
 11
125.6245007621626
 21
0.0
 31
70.62004820946196
  0
LINE
  5
DB
330
1F
100
AcDbEntity
  8
Default
100
AcDbLine
 10
128.0373461218405
 20
0.0
 30
47.4411981368488
 11
147.9493531701653
 21
-10.00000000000001
 31
49.31522463278298
  0
LINE
  5
DC
330
1F
100
AcDbEntity
  8
Default
100
AcDbLine
 10
147.9493531701653
 20
10.0
 30
49.31522463278297
 11
128.0373461218405
 21
-0.0000000000000071
 31
47.4411981368488
  0
LINE
  5
DD
330
1F
100
AcDbEntity
  8
Default
100
AcDbLine
 10
125.6245007621626
 20
0.0
 30
70.62004820946196
 11
128.0373461218405
 21
0.0
 31
47.4411981368488
  0
LINE
  5
DE
330
1F
100
AcDbEntity
  8
Default
100
AcDbLine
 10
129.486883804706
 20
0.0
 30
24.15729980383991
 11
149.458918209041
 21
10.0
 31
25.21458016025303
  0
LINE
  5
DF
330
1F
100
AcDbEntity
  8
Default
100
AcDbLine
 10
149.458918209041
 20
-10.0
 30
25.21458016025303
 11
129.486883804706
 21
0.0
 31
24.15729980383991
  0
LINE
  5
E0
330
1F
100
AcDbEntity
  8
Default
100
AcDbLine
 10
129.486883804706
 20
0.0
 30
24.15729980383991
 11
130.0
 21
0.0
 31
0.0000000000000036
  0
LINE
  5
E1
330
1F
100
AcDbEntity
  8
Default
100
AcDbLine
 10
128.0373461218405
 20
0.0
 30
47.4411981368488
 11
129.486883804706
 21
0.0
 31
24.15729980383991
  0
LINE
  5
E2
330
1F
100
AcDbEntity
  8
Default
100
AcDbLine
 10
45.49557060432819
 20
-10.0
 30
285.8650720211106
 11
23.75091046399476
 21
-10.0
 31
296.2145195715948
  0
LINE
  5
E3
330
1F
100
AcDbEntity
  8
Default
100
AcDbLine
 10
45.49557060432819
 20
-10.0
 30
285.8650720211106
 11
64.41719480434642
 21
-10.0
 31
270.921577440395
  0
LINE
  5
E4
330
1F
100
AcDbEntity
  8
Default
100
AcDbLine
 10
64.41719480434644
 20
-10.0
 30
270.921577440395
 11
80.58906419885064
 21
-10.0
 31
253.0158892160246
  0
LINE
  5
E5
330
1F
100
AcDbEntity
  8
Default
100
AcDbLine
 10
94.35973156974839
 20
-10.0
 30
233.1933599678726
 11
106.0797650907069
 21
-10.0
 31
212.0881667310057
  0
LINE
  5
E6
330
1F
100
AcDbEntity
  8
Default
100
AcDbLine
 10
80.58906419885062
 20
-10.0
 30
253.0158892160246
 11
94.35973156974838
 21
-10.0
 31
233.1933599678726
  0
LINE
  5
E7
330
1F
100
AcDbEntity
  8
Default
100
AcDbLine
 10
64.94892168430394
 20
0.0
 30
240.550499445758
 11
80.58906419885062
 21
10.0
 31
253.0158892160246
  0
LINE
  5
E8
330
1F
100
AcDbEntity
  8
Default
100
AcDbLine
 10
80.58906419885062
 20
-10.0
 30
253.0158892160246
 11
64.94892168430394
 21
0.0
 31
240.550499445758
  0
LINE
  5
E9
330
1F
100
AcDbEntity
  8
Default
100
AcDbLine
 10
77.43484315997115
 20
0.0
 30
222.5374624309878
 11
94.35973156974839
 21
10.0
 31
233.1933599678726
  0
LINE
  5
EA
330
1F
100
AcDbEntity
  8
Default
100
AcDbLine
 10
94.35973156974839
 20
-10.0
 30
233.1933599678726
 11
77.43484315997114
 21
0.0000000000000036
 31
222.5374624309878
  0
LINE
  5
EB
330
1F
100
AcDbEntity
  8
Default
100
AcDbLine
 10
64.94892168430394
 20
0.0
 30
240.550499445758
 11
77.43484315997115
 21
0.0
 31
222.5374624309878
  0
LINE
  5
EC
330
1F
100
AcDbEntity
  8
Default
100
AcDbLine
 10
88.27270390819258
 20
0.0
 30
202.9827522955069
 11
106.0797650907069
 21
-9.999999999999996
 31
212.0881667310057
  0
LINE
  5
ED
330
1F
100
AcDbEntity
  8
Default
100
AcDbLine
 10
106.0797650907069
 20
10.0
 30
212.0881667310057
 11
88.27270390819258
 21
0.0000000000000036
 31
202.9827522955069
  0
LINE
  5
EE
330
1F
100
AcDbEntity
  8
Default
100
AcDbLine
 10
77.43484315997115
 20
0.0
 30
222.5374624309878
 11
88.27270390819257
 21
0.0
 31
202.9827522955069
  0
LINE
  5
EF
330
1F
100
AcDbEntity
  8
Default
100
AcDbLine
 10
97.60140656653056
 20
0.0
 30
182.334520116372
 11
116.0353639857387
 21
10.0
 31
190.0926908973499
  0
LINE
  5
F0
330
1F
100
AcDbEntity
  8
Default
100
AcDbLine
 10
116.0353639857387
 20
-10.0
 30
190.0926908973499
 11
97.60140656653056
 21
0.0000000000000036
 31
182.334520116372
  0
LINE
  5
F1
330
1F
100
AcDbEntity
  8
Default
100
AcDbLine
 10
88.27270390819258
 20
0.0
 30
202.9827522955069
 11
97.60140656653057
 21
0.0
 31
182.334520116372
  0
LINE
  5
F2
330
1F
100
AcDbEntity
  8
Default
100
AcDbLine
 10
105.5555603113032
 20
0.0
 30
160.8941598903878
 11
124.4470553748524
 21
10.0
 31
167.4600881769209
  0
LINE
  5
F3
330
1F
100
AcDbEntity
  8
Default
100
AcDbLine
 10
124.4470553748524
 20
-10.0
 30
167.4600881769209
 11
105.5555603113032
 21
0.0000000000000036
 31
160.8941598903878
  0
LINE
  5
F4
330
1F
100
AcDbEntity
  8
Default
100
AcDbLine
 10
97.60140656653056
 20
0.0
 30
182.334520116372
 11
105.5555603113032
 21
0.0
 31
160.8941598903878
  0
LINE
  5
F5
330
1F
100
AcDbEntity
  8
Default
100
AcDbLine
 10
112.2506124452024
 20
0.0
 30
138.870442072948
 11
131.4820678867097
 21
-9.999999999999996
 31
144.3614457700254
  0
LINE
  5
F6
330
1F
100
AcDbEntity
  8
Default
100
AcDbLine
 10
131.4820678867097
 20
10.0
 30
144.3614457700254
 11
112.2506124452024
 21
0.0000000000000036
 31
138.870442072948
  0
LINE
  5
F7
330
1F
100
AcDbEntity
  8
Default
100
AcDbLine
 10
105.5555603113032
 20
0.0
 30
160.8941598903878
 11
112.2506124452024
 21
0.0
 31
138.870442072948
  0
LINE
  5
F8
330
1F
100
AcDbEntity
  8
Default
100
AcDbLine
 10
117.7805486863987
 20
0.0
 30
116.4131937680933
 11
137.2666777912798
 21
-10.0
 31
120.9177217686617
  0
LINE
  5
F9
330
1F
100
AcDbEntity
  8
Default
100
AcDbLine
 10
137.2666777912798
 20
10.0
 30
120.9177217686617
 11
117.7805486863987
 21
0.0
 31
116.4131937680933
  0
LINE
  5
FA
330
1F
100
AcDbEntity
  8
Default
100
AcDbLine
 10
117.7805486863987
 20
0.0
 30
116.4131937680933
 11
122.2195466520284
 21
0.0
 31
93.63414824191554
  0
LINE
  5
FB
330
1F
100
AcDbEntity
  8
Default
100
AcDbLine
 10
112.2506124452024
 20
0.0
 30
138.870442072948
 11
117.7805486863987
 21
0.0
 31
116.4131937680933
  0
LINE
  5
FC
330
1F
100
AcDbEntity
  8
Default
100
AcDbLine
 10
50.72023871803304
 20
0.0
 30
256.3478547186742
 11
64.41719480434645
 21
-10.00000000000001
 31
270.921577440395
  0
LINE
  5
FD
330
1F
100
AcDbEntity
  8
Default
100
AcDbLine
 10
64.41719480434644
 20
10.0
 30
270.921577440395
 11
50.72023871803304
 21
-0.0000000000000089
 31
256.3478547186742
  0
LINE
  5
FE
330
1F
100
AcDbEntity
  8
Default
100
AcDbLine
 10
50.72023871803304
 20
0.0
 30
256.3478547186742
 11
64.94892168430394
 21
0.0
 31
240.550499445758
  0
LINE
  5
FF
330
1F
100
AcDbEntity
  8
Default
100
AcDbLine
 10
124.4470553748524
 20
10.0
 30
167.4600881769209
 11
143.3385504384016
 21
0.0
 31
174.0260164634541
  0
LINE
  5
100
330
1F
100
AcDbEntity
  8
Default
100
AcDbLine
 10
143.3385504384016
 20
0.0
 30
174.0260164634541
 11
124.4470553748524
 21
-10.0
 31
167.4600881769209
  0
LINE
  5
101
330
1F
100
AcDbEntity
  8
Default
100
AcDbLine
 10
150.7135233282171
 20
0.0
 30
149.8524494671029
 11
131.4820678867097
 21
10.0
 31
144.3614457700255
  0
LINE
  5
102
330
1F
100
AcDbEntity
  8
Default
100
AcDbLine
 10
131.4820678867097
 20
-10.0
 30
144.3614457700254
 11
150.7135233282171
 21
0.0000000000000036
 31
149.8524494671029
  0
LINE
  5
103
330
1F
100
AcDbEntity
  8
Default
100
AcDbLine
 10
143.3385504384016
 20
0.0
 30
174.0260164634541
 11
150.7135233282171
 21
0.0
 31
149.8524494671029
  0
LINE
  5
104
330
1F
100
AcDbEntity
  8
Default
100
AcDbLine
 10
156.7528068961609
 20
0.0
 30
125.4222497692302
 11
137.2666777912798
 21
9.99999999999999
 31
120.9177217686617
  0
LINE
  5
105
330
1F
100
AcDbEntity
  8
Default
100
AcDbLine
 10
137.2666777912798
 20
-10.0
 30
120.9177217686617
 11
156.7528068961609
 21
-0.0000000000000107
 31
125.4222497692302
  0
LINE
  5
106
330
1F
100
AcDbEntity
  8
Default
100
AcDbLine
 10
150.7135233282171
 20
0.0
 30
149.8524494671029
 11
156.7528068961609
 21
0.0
 31
125.4222497692302
  0
LINE
  5
107
330
1F
100
AcDbEntity
  8
Default
100
AcDbLine
 10
161.5719954563667
 20
0.0
 30
100.8024655550602
 11
141.8957710541976
 21
10.0
 31
97.21830689848787
  0
LINE
  5
108
330
1F
100
AcDbEntity
  8
Default
100
AcDbLine
 10
141.8957710541976
 20
-10.0
 30
97.21830689848787
 11
161.5719954563667
 21
0.0
 31
100.8024655550602
  0
LINE
  5
109
330
1F
100
AcDbEntity
  8
Default
100
AcDbLine
 10
156.7528068961609
 20
0.0
 30
125.4222497692302
 11
161.5719954563667
 21
0.0
 31
100.8024655550602
  0
LINE
  5
10A
330
1F
100
AcDbEntity
  8
Default
100
AcDbLine
 10
165.2550001059818
 20
0.0
 30
76.04439349341574
 11
145.4397504340722
 21
10.0
 31
73.33222085143883
  0
LINE
  5
10B
330
1F
100
AcDbEntity
  8
Default
100
AcDbLine
 10
145.4397504340722
 20
-10.0
 30
73.33222085143883
 11
165.2550001059818
 21
0.0000000000000036
 31
76.04439349341574
  0
LINE
  5
10C
330
1F
100
AcDbEntity
  8
Default
100
AcDbLine
 10
161.5719954563667
 20
0.0
 30
100.8024655550602
 11
165.2550001059818
 21
0.0
 31
76.04439349341574
  0
LINE
  5
10D
330
1F
100
AcDbEntity
  8
Default
100
AcDbLine
 10
167.8613602184901
 20
0.0
 30
51.18925112871715
 11
147.9493531701653
 21
9.999999999999996
 31
49.31522463278297
  0
LINE
  5
10E
330
1F
100
AcDbEntity
  8
Default
100
AcDbLine
 10
147.9493531701653
 20
-10.0
 30
49.31522463278297
 11
167.8613602184901
 21
-0.0000000000000036
 31
51.18925112871715
  0
LINE
  5
10F
330
1F
100
AcDbEntity
  8
Default
100
AcDbLine
 10
165.2550001059818
 20
0.0
 30
76.04439349341574
 11
167.8613602184901
 21
0.0
 31
51.18925112871715
  0
LINE
  5
110
330
1F
100
AcDbEntity
  8
Default
100
AcDbLine
 10
149.458918209041
 20
10.0
 30
25.21458016025303
 11
169.4309526133761
 21
-0.0000000000000107
 31
26.27186051666616
  0
LINE
  5
111
330
1F
100
AcDbEntity
  8
Default
100
AcDbLine
 10
169.4309526133761
 20
0.0
 30
26.27186051666616
 11
149.458918209041
 21
-10.00000000000001
 31
25.21458016025303
  0
LINE
  5
112
330
1F
100
AcDbEntity
  8
Default
100
AcDbLine
 10
167.8613602184901
 20
0.0
 30
51.18925112871715
 11
169.4309526133761
 21
0.0
 31
26.27186051666616
  0
LINE
  5
113
330
1F
100
AcDbEntity
  8
Default
100
AcDbLine
 10
34.8189526214875
 20
0.0
 30
268.9532469141483
 11
45.49557060432818
 21
9.999999999999984
 31
285.8650720211106
  0
LINE
  5
114
330
1F
100
AcDbEntity
  8
Default
100
AcDbLine
 10
45.49557060432819
 20
-10.0
 30
285.8650720211106
 11
34.81895262148751
 21
-0.000000000000016
 31
268.9532469141483
  0
LINE
  5
115
330
1F
100
AcDbEntity
  8
Default
100
AcDbLine
 10
34.8189526214875
 20
0.0
 30
268.9532469141483
 11
17.6673764482381
 21
0.0
 31
277.162207011721
  0
LINE
  5
116
330
1F
100
AcDbEntity
  8
Default
100
AcDbLine
 10
34.8189526214875
 20
0.0
 30
268.9532469141483
 11
50.72023871803307
 21
0.0
 31
256.3478547186742
  0
LINE
  5
117
330
1F
100
AcDbEntity
  8
Default
100
AcDbLine
 10
29.83444447975146
 20
0.0
 30
315.2668321314688
 11
0.0000000000000036
 21
0.0
 31
320.0000000000001
  0
LINE
  5
118
330
1F
100
AcDbEntity
  8
Default
100
AcDbLine
 10
23.75091046399477
 20
-10.0
 30
296.2145195715949
 11
29.83444447975146
 21
0.0
 31
315.2668321314688
  0
LINE
  5
119
330
1F
100
AcDbEntity
  8
Default
100
AcDbLine
 10
29.83444447975146
 20
0.0
 30
315.2668321314688
 11
23.75091046399477
 21
10.0
 31
296.2145195715949
  0
LINE
  5
11A
330
1F
100
AcDbEntity
  8
Default
100
AcDbLine
 10
45.49557060432819
 20
10.0
 30
285.8650720211106
 11
56.17218858716892
 21
-0.0000000000000107
 31
302.776897128073
  0
LINE
  5
11B
330
1F
100
AcDbEntity
  8
Default
100
AcDbLine
 10
56.17218858716891
 20
0.0
 30
302.776897128073
 11
45.49557060432818
 21
-10.00000000000001
 31
285.8650720211106
  0
LINE
  5
11C
330
1F
100
AcDbEntity
  8
Default
100
AcDbLine
 10
29.83444447975146
 20
0.0
 30
315.2668321314688
 11
56.17218858716892
 21
0.0
 31
302.776897128073
  0
LINE
  5
11D
330
1F
100
AcDbEntity
  8
Default
100
AcDbLine
 10
78.11415089065983
 20
0.0
 30
285.4953001621159
 11
64.41719480434644
 21
10.0
 31
270.921577440395
  0
LINE
  5
11E
330
1F
100
AcDbEntity
  8
Default
100
AcDbLine
 10
64.41719480434644
 20
-10.0
 30
270.921577440395
 11
78.11415089065983
 21
0.0
 31
285.4953001621159
  0
LINE
  5
11F
330
1F
100
AcDbEntity
  8
Default
100
AcDbLine
 10
56.17218858716891
 20
0.0
 30
302.776897128073
 11
78.11415089065983
 21
0.0
 31
285.4953001621159
  0
LINE
  5
120
330
1F
100
AcDbEntity
  8
Default
100
AcDbLine
 10
96.22920671339736
 20
0.0
 30
265.4812789862913
 11
80.58906419885062
 21
-9.999999999999996
 31
253.0158892160246
  0
LINE
  5
121
330
1F
100
AcDbEntity
  8
Default
100
AcDbLine
 10
80.58906419885062
 20
10.0
 30
253.0158892160246
 11
96.22920671339736
 21
0.0000000000000036
 31
265.4812789862913
  0
LINE
  5
122
330
1F
100
AcDbEntity
  8
Default
100
AcDbLine
 10
78.11415089065983
 20
0.0
 30
285.4953001621159
 11
96.22920671339739
 21
0.0
 31
265.4812789862913
  0
LINE
  5
123
330
1F
100
AcDbEntity
  8
Default
100
AcDbLine
 10
111.2846199795256
 20
0.0
 30
243.8492575047574
 11
94.35973156974839
 21
-9.999999999999998
 31
233.1933599678726
  0
LINE
  5
124
330
1F
100
AcDbEntity
  8
Default
100
AcDbLine
 10
94.35973156974839
 20
10.0
 30
233.1933599678726
 11
111.2846199795256
 21
0.0000000000000018
 31
243.8492575047574
  0
LINE
  5
125
330
1F
100
AcDbEntity
  8
Default
100
AcDbLine
 10
96.22920671339736
 20
0.0
 30
265.4812789862913
 11
111.2846199795256
 21
0.0
 31
243.8492575047574
  0
LINE
  5
126
330
1F
100
AcDbEntity
  8
Default
100
AcDbLine
 10
123.8868262732213
 20
0.0
 30
221.1935811665045
 11
106.0797650907069
 21
10.0
 31
212.0881667310057
  0
LINE
  5
127
330
1F
100
AcDbEntity
  8
Default
100
AcDbLine
 10
106.0797650907069
 20
-10.0
 30
212.0881667310057
 11
123.8868262732213
 21
0.0000000000000018
 31
221.1935811665045
  0
LINE
  5
128
330
1F
100
AcDbEntity
  8
Default
100
AcDbLine
 10
111.2846199795256
 20
0.0
 30
243.8492575047574
 11
123.8868262732213
 21
0.0
 31
221.1935811665045
  0
LINE
  5
129
330
1F
100
AcDbEntity
  8
Default
100
AcDbLine
 10
116.0353639857387
 20
10.0
 30
190.0926908973499
 11
134.469321404947
 21
-0.0000000000000071
 31
197.8508616783278
  0
LINE
  5
12A
330
1F
100
AcDbEntity
  8
Default
100
AcDbLine
 10
134.469321404947
 20
0.0
 30
197.8508616783278
 11
116.0353639857387
 21
-10.00000000000001
 31
190.0926908973499
  0
LINE
  5
12B
330
1F
100
AcDbEntity
  8
Default
100
AcDbLine
 10
134.469321404947
 20
0.0
 30
197.8508616783278
 11
143.3385504384016
 21
0.0
 31
174.0260164634541
  0
LINE
  5
12C
330
1F
100
AcDbEntity
  8
Default
100
AcDbLine
 10
123.8868262732213
 20
0.0
 30
221.1935811665045
 11
134.469321404947
 21
0.0
 31
197.8508616783278
  0
LINE
  5
12D
330
1F
100
AcDbEntity
  8
Default
100
AcDbLine
 10
150.0
 20
10.0
 30
0.0
 11
170.0
 21
0.0000000000000018
 31
0.0
  0
LINE
  5
12E
330
1F
100
AcDbEntity
  8
Default
100
AcDbLine
 10
170.0
 20
0.0
 30
0.0
 11
150.0
 21
-9.999999999999998
 31
0.0
  0
LINE
  5
12F
330
1F
100
AcDbEntity
  8
Default
100
AcDbLine
 10
169.4309526133761
 20
0.0
 30
26.27186051666616
 11
170.0
 21
0.0
 31
-0.0000000000000036
  0
LINE
  5
130
330
1F
100
AcDbEntity
  8
Default
100
AcDbLine
 10
0.0
 20
-10.0
 30
300.0
 11
-29.83444447975146
 21
0.0000000000000018
 31
315.2668321314688
  0
LINE
  5
131
330
1F
100
AcDbEntity
  8
Default
100
AcDbLine
 10
-17.6673764482381
 20
0.0
 30
277.162207011721
 11
-0.0000000000000107
 21
-9.999999999999993
 31
300.0
  0
LINE
  5
132
330
1F
100
AcDbEntity
  8
Default
100
AcDbLine
 10
0.0
 20
10.0
 30
300.0
 11
-17.66737644823809
 21
0.0000000000000071
 31
277.162207011721
  0
LINE
  5
133
330
1F
100
AcDbEntity
  8
Default
100
AcDbLine
 10
-29.83444447975146
 20
0.0
 30
315.2668321314688
 11
0.0000000000000071
 21
10.0
 31
300.0
  0
LINE
  5
134
330
1F
100
AcDbEntity
  8
Default
100
AcDbLine
 10
-45.49557060432819
 20
-10.0
 30
285.8650720211106
 11
-50.72023871803304
 21
-0.0000000000000018
 31
256.3478547186742
  0
LINE
  5
135
330
1F
100
AcDbEntity
  8
Default
100
AcDbLine
 10
-78.11415089065983
 20
0.0
 30
285.4953001621159
 11
-45.4955706043282
 21
-10.0
 31
285.8650720211107
  0
LINE
  5
136
330
1F
100
AcDbEntity
  8
Default
100
AcDbLine
 10
-45.49557060432819
 20
10.0
 30
285.8650720211106
 11
-78.11415089065983
 21
0.0
 31
285.4953001621158
  0
LINE
  5
137
330
1F
100
AcDbEntity
  8
Default
100
AcDbLine
 10
-50.72023871803304
 20
0.0
 30
256.3478547186742
 11
-45.49557060432819
 21
9.999999999999998
 31
285.8650720211106
  0
LINE
  5
138
330
1F
100
AcDbEntity
  8
Default
100
AcDbLine
 10
-23.75091046399477
 20
10.0
 30
296.2145195715949
 11
-34.8189526214875
 21
0.0000000000000018
 31
268.9532469141483
  0
LINE
  5
139
330
1F
100
AcDbEntity
  8
Default
100
AcDbLine
 10
-56.17218858716891
 20
0.0
 30
302.776897128073
 11
-23.75091046399477
 21
9.999999999999998
 31
296.2145195715949
  0
LINE
  5
13A
330
1F
100
AcDbEntity
  8
Default
100
AcDbLine
 10
-23.75091046399477
 20
-10.0
 30
296.2145195715949
 11
-56.1721885871689
 21
-0.0000000000000018
 31
302.776897128073
  0
LINE
  5
13B
330
1F
100
AcDbEntity
  8
Default
100
AcDbLine
 10
-34.8189526214875
 20
0.0
 30
268.9532469141483
 11
-23.75091046399477
 21
-9.999999999999998
 31
296.2145195715949
  0
LINE
  5
13C
330
1F
100
AcDbEntity
  8
Default
100
AcDbLine
 10
-77.43484315997115
 20
0.0
 30
222.5374624309878
 11
-80.58906419885062
 21
-10.0
 31
253.0158892160246
  0
LINE
  5
13D
330
1F
100
AcDbEntity
  8
Default
100
AcDbLine
 10
-80.58906419885062
 20
10.0
 30
253.0158892160246
 11
-77.43484315997115
 21
0.0
 31
222.5374624309878
  0
LINE
  5
13E
330
1F
100
AcDbEntity
  8
Default
100
AcDbLine
 10
-111.2846199795256
 20
0.0
 30
243.8492575047574
 11
-80.58906419885062
 21
9.999999999999998
 31
253.0158892160246
  0
LINE
  5
13F
330
1F
100
AcDbEntity
  8
Default
100
AcDbLine
 10
-80.58906419885062
 20
-10.0
 30
253.0158892160246
 11
-111.2846199795256
 21
-0.0000000000000018
 31
243.8492575047574
  0
LINE
  5
140
330
1F
100
AcDbEntity
  8
Default
100
AcDbLine
 10
-64.41719480434644
 20
-10.0
 30
270.921577440395
 11
-64.94892168430395
 21
0.0000000000000071
 31
240.550499445758
  0
LINE
  5
141
330
1F
100
AcDbEntity
  8
Default
100
AcDbLine
 10
-96.22920671339736
 20
0.0
 30
265.4812789862913
 11
-64.41719480434642
 21
-9.999999999999998
 31
270.921577440395
  0
LINE
  5
142
330
1F
100
AcDbEntity
  8
Default
100
AcDbLine
 10
-64.41719480434644
 20
10.0
 30
270.921577440395
 11
-96.22920671339737
 21
0.0000000000000018
 31
265.4812789862913
  0
LINE
  5
143
330
1F
100
AcDbEntity
  8
Default
100
AcDbLine
 10
-64.94892168430394
 20
0.0
 30
240.550499445758
 11
-64.41719480434642
 21
10.00000000000001
 31
270.921577440395
  0
LINE
  5
144
330
1F
100
AcDbEntity
  8
Default
100
AcDbLine
 10
-106.0797650907069
 20
10.0
 30
212.0881667310057
 11
-134.4693214049469
 21
0.0
 31
197.8508616783278
  0
LINE
  5
145
330
1F
100
AcDbEntity
  8
Default
100
AcDbLine
 10
-97.60140656653056
 20
0.0
 30
182.334520116372
 11
-106.0797650907069
 21
9.999999999999998
 31
212.0881667310057
  0
LINE
  5
146
330
1F
100
AcDbEntity
  8
Default
100
AcDbLine
 10
-106.0797650907069
 20
-10.0
 30
212.0881667310057
 11
-97.60140656653056
 21
-0.0000000000000018
 31
182.334520116372
  0
LINE
  5
147
330
1F
100
AcDbEntity
  8
Default
100
AcDbLine
 10
-134.469321404947
 20
0.0
 30
197.8508616783278
 11
-106.0797650907069
 21
-10.0
 31
212.0881667310057
  0
LINE
  5
148
330
1F
100
AcDbEntity
  8
Default
100
AcDbLine
 10
-94.35973156974839
 20
-10.0
 30
233.1933599678726
 11
-88.27270390819257
 21
0.0000000000000036
 31
202.9827522955069
  0
LINE
  5
149
330
1F
100
AcDbEntity
  8
Default
100
AcDbLine
 10
-123.8868262732213
 20
0.0
 30
221.1935811665045
 11
-94.35973156974838
 21
-10.00000000000001
 31
233.1933599678726
  0
LINE
  5
14A
330
1F
100
AcDbEntity
  8
Default
100
AcDbLine
 10
-94.35973156974839
 20
10.0
 30
233.1933599678726
 11
-123.8868262732213
 21
-0.0000000000000071
 31
221.1935811665045
  0
LINE
  5
14B
330
1F
100
AcDbEntity
  8
Default
100
AcDbLine
 10
-88.27270390819258
 20
0.0
 30
202.9827522955069
 11
-94.3597315697484
 21
10.0
 31
233.1933599678726
  0
LINE
  5
14C
330
1F
100
AcDbEntity
  8
Default
100
AcDbLine
 10
-124.4470553748524
 20
-10.0
 30
167.4600881769209
 11
-150.7135233282171
 21
-0.0000000000000036
 31
149.8524494671029
  0
LINE
  5
14D
330
1F
100
AcDbEntity
  8
Default
100
AcDbLine
 10
-112.2506124452024
 20
0.0
 30
138.870442072948
 11
-124.4470553748524
 21
-10.0
 31
167.4600881769209
  0
LINE
  5
14E
330
1F
100
AcDbEntity
  8
Default
100
AcDbLine
 10
-124.4470553748524
 20
10.0
 30
167.4600881769209
 11
-112.2506124452024
 21
0.0
 31
138.870442072948
  0
LINE
  5
14F
330
1F
100
AcDbEntity
  8
Default
100
AcDbLine
 10
-150.7135233282171
 20
0.0
 30
149.8524494671029
 11
-124.4470553748524
 21
9.999999999999996
 31
167.4600881769209
  0
LINE
  5
150
330
1F
100
AcDbEntity
  8
Default
100
AcDbLine
 10
-116.0353639857387
 20
-10.0
 30
190.0926908973499
 11
-105.5555603113032
 21
-0.0000000000000036
 31
160.8941598903878
  0
LINE
  5
151
330
1F
100
AcDbEntity
  8
Default
100
AcDbLine
 10
-143.3385504384016
 20
0.0
 30
174.0260164634541
 11
-116.0353639857387
 21
-9.999999999999998
 31
190.0926908973499
  0
LINE
  5
152
330
1F
100
AcDbEntity
  8
Default
100
AcDbLine
 10
-116.0353639857387
 20
10.0
 30
190.0926908973499
 11
-143.3385504384016
 21
0.0000000000000018
 31
174.0260164634541
  0
LINE
  5
153
330
1F
100
AcDbEntity
  8
Default
100
AcDbLine
 10
-105.5555603113032
 20
0.0
 30
160.8941598903878
 11
-116.0353639857387
 21
9.999999999999996
 31
190.0926908973499
  0
LINE
  5
154
330
1F
100
AcDbEntity
  8
Default
100
AcDbLine
 10
-137.2666777912798
 20
-10.0
 30
120.9177217686617
 11
-122.2195466520284
 21
0.0
 31
93.63414824191553
  0
LINE
  5
155
330
1F
100
AcDbEntity
  8
Default
100
AcDbLine
 10
-161.5719954563667
 20
0.0
 30
100.8024655550602
 11
-137.2666777912798
 21
-9.999999999999998
 31
120.9177217686617
  0
LINE
  5
156
330
1F
100
AcDbEntity
  8
Default
100
AcDbLine
 10
-137.2666777912798
 20
10.0
 30
120.9177217686617
 11
-161.5719954563667
 21
0.0000000000000018
 31
100.8024655550602
  0
LINE
  5
157
330
1F
100
AcDbEntity
  8
Default
100
AcDbLine
 10
-122.2195466520284
 20
0.0
 30
93.63414824191554
 11
-137.2666777912798
 21
10.0
 31
120.9177217686617
  0
LINE
  5
158
330
1F
100
AcDbEntity
  8
Default
100
AcDbLine
 10
-131.4820678867097
 20
-10.0
 30
144.3614457700254
 11
-117.7805486863987
 21
-0.0000000000000036
 31
116.4131937680933
  0
LINE
  5
159
330
1F
100
AcDbEntity
  8
Default
100
AcDbLine
 10
-156.7528068961609
 20
0.0
 30
125.4222497692302
 11
-131.4820678867097
 21
-9.999999999999996
 31
144.3614457700254
  0
LINE
  5
15A
330
1F
100
AcDbEntity
  8
Default
100
AcDbLine
 10
-131.4820678867097
 20
10.0
 30
144.3614457700254
 11
-156.7528068961609
 21
0.0000000000000036
 31
125.4222497692302
  0
LINE
  5
15B
330
1F
100
AcDbEntity
  8
Default
100
AcDbLine
 10
-117.7805486863987
 20
0.0
 30
116.4131937680933
 11
-131.4820678867097
 21
9.999999999999996
 31
144.3614457700254
  0
LINE
  5
15C
330
1F
100
AcDbEntity
  8
Default
100
AcDbLine
 10
-128.0373461218405
 20
0.0
 30
47.4411981368488
 11
-145.4397504340722
 21
9.999999999999998
 31
73.33222085143883
  0
LINE
  5
15D
330
1F
100
AcDbEntity
  8
Default
100
AcDbLine
 10
-145.4397504340722
 20
-10.0
 30
73.33222085143883
 11
-128.0373461218405
 21
-0.0000000000000018
 31
47.4411981368488
  0
LINE
  5
15E
330
1F
100
AcDbEntity
  8
Default
100
AcDbLine
 10
-167.8613602184901
 20
0.0
 30
51.18925112871715
 11
-145.4397504340722
 21
-10.0
 31
73.33222085143885
  0
LINE
  5
15F
330
1F
100
AcDbEntity
  8
Default
100
AcDbLine
 10
-145.4397504340722
 20
10.0
 30
73.33222085143883
 11
-167.8613602184901
 21
0.0
 31
51.18925112871714
  0
LINE
  5
160
330
1F
100
AcDbEntity
  8
Default
100
AcDbLine
 10
-141.8957710541976
 20
-10.0
 30
97.21830689848787
 11
-125.6245007621626
 21
-0.0000000000000018
 31
70.62004820946196
  0
LINE
  5
161
330
1F
100
AcDbEntity
  8
Default
100
AcDbLine
 10
-165.2550001059818
 20
0.0
 30
76.04439349341574
 11
-141.8957710541976
 21
-10.0
 31
97.21830689848787
  0
LINE
  5
162
330
1F
100
AcDbEntity
  8
Default
100
AcDbLine
 10
-141.8957710541976
 20
10.0
 30
97.21830689848787
 11
-165.2550001059818
 21
0.0
 31
76.04439349341574
  0
LINE
  5
163
330
1F
100
AcDbEntity
  8
Default
100
AcDbLine
 10
-125.6245007621626
 20
0.0
 30
70.62004820946196
 11
-141.8957710541976
 21
9.999999999999998
 31
97.21830689848787
  0
LINE
  5
164
330
1F
100
AcDbEntity
  8
Default
100
AcDbLine
 10
-149.458918209041
 20
10.0
 30
25.21458016025303
 11
-170.0
 21
-0.0000000000000018
 31
-0.0000000000000071
  0
LINE
  5
165
330
1F
100
AcDbEntity
  8
Default
100
AcDbLine
 10
-130.0
 20
0.0
 30
0.0
 11
-149.458918209041
 21
9.999999999999998
 31
25.21458016025303
  0
LINE
  5
166
330
1F
100
AcDbEntity
  8
Default
100
AcDbLine
 10
-149.458918209041
 20
-10.0
 30
25.21458016025303
 11
-130.0
 21
-0.0000000000000018
 31
0.0000000000000036
  0
LINE
  5
167
330
1F
100
AcDbEntity
  8
Default
100
AcDbLine
 10
-170.0
 20
0.0
 30
0.0
 11
-149.458918209041
 21
-10.0
 31
25.21458016025304
  0
LINE
  5
168
330
1F
100
AcDbEntity
  8
Default
100
AcDbLine
 10
-147.9493531701653
 20
-10.0
 30
49.31522463278297
 11
-129.4868838047061
 21
0.0
 31
24.1572998038399
  0
LINE
  5
169
330
1F
100
AcDbEntity
  8
Default
100
AcDbLine
 10
-169.4309526133761
 20
0.0
 30
26.27186051666616
 11
-147.9493531701653
 21
-10.0
 31
49.31522463278297
  0
LINE
  5
16A
330
1F
100
AcDbEntity
  8
Default
100
AcDbLine
 10
-147.9493531701653
 20
10.0
 30
49.31522463278297
 11
-169.4309526133761
 21
0.0
 31
26.27186051666615
  0
LINE
  5
16B
330
1F
100
AcDbEntity
  8
Default
100
AcDbLine
 10
-129.486883804706
 20
0.0
 30
24.15729980383991
 11
-147.9493531701653
 21
10.0
 31
49.31522463278298
  0
LINE
  5
16C
330
1F
100
AcDbEntity
  8
Default
100
AcDbLine
 10
0.0
 20
10.0
 30
300.0
 11
29.83444447975146
 21
-0.0000000000000018
 31
315.2668321314688
  0
LINE
  5
16D
330
1F
100
AcDbEntity
  8
Default
100
AcDbLine
 10
17.6673764482381
 20
0.0
 30
277.162207011721
 11
0.0000000000000107
 21
9.999999999999993
 31
300.0
  0
LINE
  5
16E
330
1F
100
AcDbEntity
  8
Default
100
AcDbLine
 10
0.0
 20
-10.0
 30
300.0
 11
17.66737644823809
 21
-0.0000000000000071
 31
277.162207011721
  0
LINE
  5
16F
330
1F
100
AcDbEntity
  8
Default
100
AcDbLine
 10
29.83444447975146
 20
0.0
 30
315.2668321314688
 11
-0.0000000000000071
 21
-10.0
 31
300.0
  0
LINE
  5
170
330
1F
100
AcDbEntity
  8
Default
100
AcDbLine
 10
45.49557060432819
 20
10.0
 30
285.8650720211106
 11
50.72023871803304
 21
0.0000000000000018
 31
256.3478547186742
  0
LINE
  5
171
330
1F
100
AcDbEntity
  8
Default
100
AcDbLine
 10
78.11415089065983
 20
0.0
 30
285.4953001621159
 11
45.4955706043282
 21
10.0
 31
285.8650720211107
  0
LINE
  5
172
330
1F
100
AcDbEntity
  8
Default
100
AcDbLine
 10
45.49557060432819
 20
-10.0
 30
285.8650720211106
 11
78.11415089065983
 21
0.0
 31
285.4953001621158
  0
LINE
  5
173
330
1F
100
AcDbEntity
  8
Default
100
AcDbLine
 10
50.72023871803304
 20
0.0
 30
256.3478547186742
 11
45.49557060432819
 21
-9.999999999999998
 31
285.8650720211106
  0
LINE
  5
174
330
1F
100
AcDbEntity
  8
Default
100
AcDbLine
 10
23.75091046399477
 20
-10.0
 30
296.2145195715949
 11
34.8189526214875
 21
-0.0000000000000018
 31
268.9532469141483
  0
LINE
  5
175
330
1F
100
AcDbEntity
  8
Default
100
AcDbLine
 10
56.17218858716891
 20
0.0
 30
302.776897128073
 11
23.75091046399477
 21
-9.999999999999998
 31
296.2145195715949
  0
LINE
  5
176
330
1F
100
AcDbEntity
  8
Default
100
AcDbLine
 10
23.75091046399477
 20
10.0
 30
296.2145195715949
 11
56.1721885871689
 21
0.0000000000000018
 31
302.776897128073
  0
LINE
  5
177
330
1F
100
AcDbEntity
  8
Default
100
AcDbLine
 10
34.8189526214875
 20
0.0
 30
268.9532469141483
 11
23.75091046399477
 21
9.999999999999998
 31
296.2145195715949
  0
LINE
  5
178
330
1F
100
AcDbEntity
  8
Default
100
AcDbLine
 10
77.43484315997115
 20
0.0
 30
222.5374624309878
 11
80.58906419885062
 21
10.0
 31
253.0158892160246
  0
LINE
  5
179
330
1F
100
AcDbEntity
  8
Default
100
AcDbLine
 10
80.58906419885062
 20
-10.0
 30
253.0158892160246
 11
77.43484315997115
 21
0.0
 31
222.5374624309878
  0
LINE
  5
17A
330
1F
100
AcDbEntity
  8
Default
100
AcDbLine
 10
111.2846199795256
 20
0.0
 30
243.8492575047574
 11
80.58906419885062
 21
-9.999999999999998
 31
253.0158892160246
  0
LINE
  5
17B
330
1F
100
AcDbEntity
  8
Default
100
AcDbLine
 10
80.58906419885062
 20
10.0
 30
253.0158892160246
 11
111.2846199795256
 21
0.0000000000000018
 31
243.8492575047574
  0
LINE
  5
17C
330
1F
100
AcDbEntity
  8
Default
100
AcDbLine
 10
64.41719480434644
 20
10.0
 30
270.921577440395
 11
64.94892168430395
 21
-0.0000000000000071
 31
240.550499445758
  0
LINE
  5
17D
330
1F
100
AcDbEntity
  8
Default
100
AcDbLine
 10
96.22920671339736
 20
0.0
 30
265.4812789862913
 11
64.41719480434642
 21
9.999999999999998
 31
270.921577440395
  0
LINE
  5
17E
330
1F
100
AcDbEntity
  8
Default
100
AcDbLine
 10
64.41719480434644
 20
-10.0
 30
270.921577440395
 11
96.22920671339737
 21
-0.0000000000000018
 31
265.4812789862913
  0
LINE
  5
17F
330
1F
100
AcDbEntity
  8
Default
100
AcDbLine
 10
64.94892168430394
 20
0.0
 30
240.550499445758
 11
64.41719480434642
 21
-10.00000000000001
 31
270.921577440395
  0
LINE
  5
180
330
1F
100
AcDbEntity
  8
Default
100
AcDbLine
 10
106.0797650907069
 20
-10.0
 30
212.0881667310057
 11
134.4693214049469
 21
0.0
 31
197.8508616783278
  0
LINE
  5
181
330
1F
100
AcDbEntity
  8
Default
100
AcDbLine
 10
97.60140656653056
 20
0.0
 30
182.334520116372
 11
106.0797650907069
 21
-9.999999999999998
 31
212.0881667310057
  0
LINE
  5
182
330
1F
100
AcDbEntity
  8
Default
100
AcDbLine
 10
106.0797650907069
 20
10.0
 30
212.0881667310057
 11
97.60140656653056
 21
0.0000000000000018
 31
182.334520116372
  0
LINE
  5
183
330
1F
100
AcDbEntity
  8
Default
100
AcDbLine
 10
134.469321404947
 20
0.0
 30
197.8508616783278
 11
106.0797650907069
 21
10.0
 31
212.0881667310057
  0
LINE
  5
184
330
1F
100
AcDbEntity
  8
Default
100
AcDbLine
 10
94.35973156974839
 20
10.0
 30
233.1933599678726
 11
88.27270390819257
 21
-0.0000000000000036
 31
202.9827522955069
  0
LINE
  5
185
330
1F
100
AcDbEntity
  8
Default
100
AcDbLine
 10
123.8868262732213
 20
0.0
 30
221.1935811665045
 11
94.35973156974838
 21
10.00000000000001
 31
233.1933599678726
  0
LINE
  5
186
330
1F
100
AcDbEntity
  8
Default
100
AcDbLine
 10
94.35973156974839
 20
-10.0
 30
233.1933599678726
 11
123.8868262732213
 21
0.0000000000000071
 31
221.1935811665045
  0
LINE
  5
187
330
1F
100
AcDbEntity
  8
Default
100
AcDbLine
 10
88.27270390819258
 20
0.0
 30
202.9827522955069
 11
94.3597315697484
 21
-10.0
 31
233.1933599678726
  0
LINE
  5
188
330
1F
100
AcDbEntity
  8
Default
100
AcDbLine
 10
124.4470553748524
 20
10.0
 30
167.4600881769209
 11
150.7135233282171
 21
0.0000000000000036
 31
149.8524494671029
  0
LINE
  5
189
330
1F
100
AcDbEntity
  8
Default
100
AcDbLine
 10
112.2506124452024
 20
0.0
 30
138.870442072948
 11
124.4470553748524
 21
10.0
 31
167.4600881769209
  0
LINE
  5
18A
330
1F
100
AcDbEntity
  8
Default
100
AcDbLine
 10
124.4470553748524
 20
-10.0
 30
167.4600881769209
 11
112.2506124452024
 21
0.0
 31
138.870442072948
  0
LINE
  5
18B
330
1F
100
AcDbEntity
  8
Default
100
AcDbLine
 10
150.7135233282171
 20
0.0
 30
149.8524494671029
 11
124.4470553748524
 21
-9.999999999999996
 31
167.4600881769209
  0
LINE
  5
18C
330
1F
100
AcDbEntity
  8
Default
100
AcDbLine
 10
116.0353639857387
 20
10.0
 30
190.0926908973499
 11
105.5555603113032
 21
0.0000000000000036
 31
160.8941598903878
  0
LINE
  5
18D
330
1F
100
AcDbEntity
  8
Default
100
AcDbLine
 10
143.3385504384016
 20
0.0
 30
174.0260164634541
 11
116.0353639857387
 21
9.999999999999998
 31
190.0926908973499
  0
LINE
  5
18E
330
1F
100
AcDbEntity
  8
Default
100
AcDbLine
 10
116.0353639857387
 20
-10.0
 30
190.0926908973499
 11
143.3385504384016
 21
-0.0000000000000018
 31
174.0260164634541
  0
LINE
  5
18F
330
1F
100
AcDbEntity
  8
Default
100
AcDbLine
 10
105.5555603113032
 20
0.0
 30
160.8941598903878
 11
116.0353639857387
 21
-9.999999999999996
 31
190.0926908973499
  0
LINE
  5
190
330
1F
100
AcDbEntity
  8
Default
100
AcDbLine
 10
137.2666777912798
 20
10.0
 30
120.9177217686617
 11
122.2195466520284
 21
0.0
 31
93.63414824191553
  0
LINE
  5
191
330
1F
100
AcDbEntity
  8
Default
100
AcDbLine
 10
161.5719954563667
 20
0.0
 30
100.8024655550602
 11
137.2666777912798
 21
9.999999999999998
 31
120.9177217686617
  0
LINE
  5
192
330
1F
100
AcDbEntity
  8
Default
100
AcDbLine
 10
137.2666777912798
 20
-10.0
 30
120.9177217686617
 11
161.5719954563667
 21
-0.0000000000000018
 31
100.8024655550602
  0
LINE
  5
193
330
1F
100
AcDbEntity
  8
Default
100
AcDbLine
 10
122.2195466520284
 20
0.0
 30
93.63414824191554
 11
137.2666777912798
 21
-10.0
 31
120.9177217686617
  0
LINE
  5
194
330
1F
100
AcDbEntity
  8
Default
100
AcDbLine
 10
131.4820678867097
 20
10.0
 30
144.3614457700254
 11
117.7805486863987
 21
0.0000000000000036
 31
116.4131937680933
  0
LINE
  5
195
330
1F
100
AcDbEntity
  8
Default
100
AcDbLine
 10
156.7528068961609
 20
0.0
 30
125.4222497692302
 11
131.4820678867097
 21
9.999999999999996
 31
144.3614457700254
  0
LINE
  5
196
330
1F
100
AcDbEntity
  8
Default
100
AcDbLine
 10
131.4820678867097
 20
-10.0
 30
144.3614457700254
 11
156.7528068961609
 21
-0.0000000000000036
 31
125.4222497692302
  0
LINE
  5
197
330
1F
100
AcDbEntity
  8
Default
100
AcDbLine
 10
117.7805486863987
 20
0.0
 30
116.4131937680933
 11
131.4820678867097
 21
-9.999999999999996
 31
144.3614457700254
  0
LINE
  5
198
330
1F
100
AcDbEntity
  8
Default
100
AcDbLine
 10
128.0373461218405
 20
0.0
 30
47.4411981368488
 11
145.4397504340722
 21
-9.999999999999998
 31
73.33222085143883
  0
LINE
  5
199
330
1F
100
AcDbEntity
  8
Default
100
AcDbLine
 10
145.4397504340722
 20
10.0
 30
73.33222085143883
 11
128.0373461218405
 21
0.0000000000000018
 31
47.4411981368488
  0
LINE
  5
19A
330
1F
100
AcDbEntity
  8
Default
100
AcDbLine
 10
167.8613602184901
 20
0.0
 30
51.18925112871715
 11
145.4397504340722
 21
10.0
 31
73.33222085143885
  0
LINE
  5
19B
330
1F
100
AcDbEntity
  8
Default
100
AcDbLine
 10
145.4397504340722
 20
-10.0
 30
73.33222085143883
 11
167.8613602184901
 21
0.0
 31
51.18925112871714
  0
LINE
  5
19C
330
1F
100
AcDbEntity
  8
Default
100
AcDbLine
 10
141.8957710541976
 20
10.0
 30
97.21830689848787
 11
125.6245007621626
 21
0.0000000000000018
 31
70.62004820946196
  0
LINE
  5
19D
330
1F
100
AcDbEntity
  8
Default
100
AcDbLine
 10
165.2550001059818
 20
0.0
 30
76.04439349341574
 11
141.8957710541976
 21
10.0
 31
97.21830689848787
  0
LINE
  5
19E
330
1F
100
AcDbEntity
  8
Default
100
AcDbLine
 10
141.8957710541976
 20
-10.0
 30
97.21830689848787
 11
165.2550001059818
 21
0.0
 31
76.04439349341574
  0
LINE
  5
19F
330
1F
100
AcDbEntity
  8
Default
100
AcDbLine
 10
125.6245007621626
 20
0.0
 30
70.62004820946196
 11
141.8957710541976
 21
-9.999999999999998
 31
97.21830689848787
  0
LINE
  5
1A0
330
1F
100
AcDbEntity
  8
Default
100
AcDbLine
 10
149.458918209041
 20
-10.0
 30
25.21458016025303
 11
170.0
 21
0.0000000000000018
 31
-0.0000000000000071
  0
LINE
  5
1A1
330
1F
100
AcDbEntity
  8
Default
100
AcDbLine
 10
130.0
 20
0.0
 30
0.0
 11
149.458918209041
 21
-9.999999999999998
 31
25.21458016025303
  0
LINE
  5
1A2
330
1F
100
AcDbEntity
  8
Default
100
AcDbLine
 10
149.458918209041
 20
10.0
 30
25.21458016025303
 11
130.0
 21
0.0000000000000018
 31
0.0000000000000036
  0
LINE
  5
1A3
330
1F
100
AcDbEntity
  8
Default
100
AcDbLine
 10
170.0
 20
0.0
 30
0.0
 11
149.458918209041
 21
10.0
 31
25.21458016025304
  0
LINE
  5
1A4
330
1F
100
AcDbEntity
  8
Default
100
AcDbLine
 10
147.9493531701653
 20
10.0
 30
49.31522463278297
 11
129.4868838047061
 21
0.0
 31
24.1572998038399
  0
LINE
  5
1A5
330
1F
100
AcDbEntity
  8
Default
100
AcDbLine
 10
169.4309526133761
 20
0.0
 30
26.27186051666616
 11
147.9493531701653
 21
10.0
 31
49.31522463278297
  0
LINE
  5
1A6
330
1F
100
AcDbEntity
  8
Default
100
AcDbLine
 10
147.9493531701653
 20
-10.0
 30
49.31522463278297
 11
169.4309526133761
 21
0.0
 31
26.27186051666615
  0
LINE
  5
1A7
330
1F
100
AcDbEntity
  8
Default
100
AcDbLine
 10
129.486883804706
 20
0.0
 30
24.15729980383991
 11
147.9493531701653
 21
-10.0
 31
49.31522463278298
  0
ENDSEC
  0
SECTION
  2
OBJECTS
  0
DICTIONARY
  5
C
330
0
100
AcDbDictionary
281
     1
  3
ACAD_GROUP
350
D
  3
ACAD_LAYOUT
350
1A
  3
ACAD_MLEADERSTYLE
350
1A9
  3
ACAD_MLINESTYLE
350
17
  3
ACAD_PLOTSETTINGS
350
19
  3
ACAD_PLOTSTYLENAME
350
E
  3
ACAD_TABLESTYLE
350
1A8
  3
ACAD_VISUALSTYLE
350
2A
  0
DICTIONARY
  5
D
102
{ACAD_REACTORS
330
C
102
}
330
C
100
AcDbDictionary
281
     1
  0
DICTIONARY
  5
1A
102
{ACAD_REACTORS
330
C
102
}
330
C
100
AcDbDictionary
281
     1
  3
Layout1
350
1E
  3
Layout2
350
26
  3
Model
350
22
  0
DICTIONARY
  5
1A9
102
{ACAD_REACTORS
330
C
102
}
330
C
100
AcDbDictionary
281
     1
  0
DICTIONARY
  5
17
102
{ACAD_REACTORS
330
C
102
}
330
C
100
AcDbDictionary
281
     1
  3
Standard
350
18
  0
DICTIONARY
  5
19
102
{ACAD_REACTORS
330
C
102
}
330
C
100
AcDbDictionary
281
     1
  0
ACDBDICTIONARYWDFLT
  5
E
102
{ACAD_REACTORS
330
C
102
}
330
C
100
AcDbDictionary
281
     1
  3
Normal
350
F
100
AcDbDictionaryWithDefault
340
F
  0
DICTIONARY
  5
1A8
102
{ACAD_REACTORS
330
C
102
}
330
C
100
AcDbDictionary
281
     1
  0
DICTIONARY
  5
2A
102
{ACAD_REACTORS
330
C
102
}
330
C
100
AcDbDictionary
281
     1
  3
2dWireframe
350
2F
  3
3D Hidden
350
31
  3
3dWireframe
350
30
  3
Basic
350
32
  3
Brighten
350
36
  3
ColorChange
350
3A
  3
Conceptual
350
34
  3
Dim
350
35
  3
Facepattern
350
39
  3
Flat
350
2B
  3
FlatWithEdges
350
2C
  3
Gouraud
350
2D
  3
GouraudWithEdges
350
2E
  3
Linepattern
350
38
  3
Realistic
350
33
  3
Thicken
350
37
  0
LAYOUT
  5
1E
102
{ACAD_REACTORS
330
1A
102
}
330
1A
100
AcDbPlotSettings
  1

  2
none_device
  4

  6

 40
0.0
 41
0.0
 42
0.0
 43
0.0
 44
0.0
 45
0.0
 46
0.0
 47
0.0
 48
0.0
 49
0.0
140
0.0
141
0.0
142
1.0
143
1.0
 70
   688
 72
     0
 73
     0
 74
     5
  7

 75
    16
 76
     0
 77
     2
 78
   300
147
1.0
148
0.0
149
0.0
100
AcDbLayout
  1
Layout1
 70
     1
 71
     1
 10
0.0
 20
0.0
 11
12.0
 21
9.0
 12
0.0
 22
0.0
 32
0.0
 14
1.000000000000000E+20
 24
1.000000000000000E+20
 34
1.000000000000000E+20
 15
-1.000000000000000E+20
 25
-1.000000000000000E+20
 35
-1.000000000000000E+20
146
0.0
 13
0.0
 23
0.0
 33
0.0
 16
1.0
 26
0.0
 36
0.0
 17
0.0
 27
1.0
 37
0.0
 76
     0
330
1B
  0
LAYOUT
  5
26
102
{ACAD_REACTORS
330
1A
102
}
330
1A
100
AcDbPlotSettings
  1

  2
none_device
  4

  6

 40
0.0
 41
0.0
 42
0.0
 43
0.0
 44
0.0
 45
0.0
 46
0.0
 47
0.0
 48
0.0
 49
0.0
140
0.0
141
0.0
142
1.0
143
1.0
 70
   688
 72
     0
 73
     0
 74
     5
  7

 75
    16
 76
     0
 77
     2
 78
   300
147
1.0
148
0.0
149
0.0
100
AcDbLayout
  1
Layout2
 70
     1
 71
     2
 10
0.0
 20
0.0
 11
0.0
 21
0.0
 12
0.0
 22
0.0
 32
0.0
 14
0.0
 24
0.0
 34
0.0
 15
0.0
 25
0.0
 35
0.0
146
0.0
 13
0.0
 23
0.0
 33
0.0
 16
1.0
 26
0.0
 36
0.0
 17
0.0
 27
1.0
 37
0.0
 76
     0
330
23
  0
LAYOUT
  5
22
102
{ACAD_REACTORS
330
1A
102
}
330
1A
100
AcDbPlotSettings
  1

  2
none_device
  4

  6

 40
0.0
 41
0.0
 42
0.0
 43
0.0
 44
0.0
 45
0.0
 46
0.0
 47
0.0
 48
0.0
 49
0.0
140
0.0
141
0.0
142
1.0
143
1.0
 70
  1712
 72
     0
 73
     0
 74
     0
  7

 75
     0
 76
     0
 77
     2
 78
   300
147
1.0
148
0.0
149
0.0
100
AcDbLayout
  1
Model
 70
     1
 71
     0
 10
0.0
 20
0.0
 11
12.0
 21
9.0
 12
0.0
 22
0.0
 32
0.0
 14
-170.0
 24
-10.00000000000001
 34
-0.0000000000000071
 15
170.0
 25
10.00000000000001
 35
320.0000000000001
146
0.0
 13
0.0
 23
0.0
 33
0.0
 16
1.0
 26
0.0
 36
0.0
 17
0.0
 27
1.0
 37
0.0
 76
     0
330
1F
331
29
  0
MLINESTYLE
  5
18
102
{ACAD_REACTORS
330
17
102
}
330
17
100
AcDbMlineStyle
  2
Standard
 70
     0
  3

 62
   256
 51
90.0
 52
90.0
 71
     2
 49
0.5
 62
   256
  6
BYLAYER
 49
-0.5
 62
   256
  6
BYLAYER
  0
ACDBPLACEHOLDER
  5
F
102
{ACAD_REACTORS
330
E
102
}
330
E
  0
VISUALSTYLE
  5
2F
102
{ACAD_REACTORS
330
2A
102
}
330
2A
100
AcDbVisualStyle
  2
2dWireframe
 70
     4
 71
     0
 72
     2
 73
     0
 90
        0
 40
-0.6
 41
-30.0
 62
     5
 63
     7
421
 16777215
 74
     1
 91
        4
 64
     7
 65
   257
 75
     1
175
     1
 42
1.0
 92
        0
 66
   257
 43
1.0
 76
     1
 77
     6
 78
     2
 67
     7
 79
     5
170
     0
171
     0
290
     0
174
     0
 93
        1
 44
0.0
173
     0
291
     0
 45
0.0
1001
ACAD
1000
AcDbSavedByObjectVersion
1070
     0
  0
VISUALSTYLE
  5
31
102
{ACAD_REACTORS
330
2A
102
}
330
2A
100
AcDbVisualStyle
  2
3D Hidden
 70
     6
 71
     1
 72
     2
 73
     2
 90
        0
 40
-0.6
 41
-30.0
 62
     5
 63
     7
421
 16777215
 74
     2
 91
        2
 64
     7
 65
   257
 75
     2
175
     1
 42
40.0
 92
        0
 66
   257
 43
1.0
 76
     1
 77
     6
 78
     2
 67
     7
 79
     3
170
     0
171
     0
290
     0
174
     0
 93
        1
 44
0.0
173
     0
291
     0
 45
0.0
1001
ACAD
1000
AcDbSavedByObjectVersion
1070
     0
  0
VISUALSTYLE
  5
30
102
{ACAD_REACTORS
330
2A
102
}
330
2A
100
AcDbVisualStyle
  2
3dWireframe
 70
     5
 71
     0
 72
     2
 73
     0
 90
        0
 40
-0.6
 41
-30.0
 62
     5
 63
     7
421
 16777215
 74
     1
 91
        4
 64
     7
 65
   257
 75
     1
175
     1
 42
1.0
 92
        0
 66
   257
 43
1.0
 76
     1
 77
     6
 78
     2
 67
     7
 79
     5
170
     0
171
     0
290
     0
174
     0
 93
        1
 44
0.0
173
     0
291
     0
 45
0.0
1001
ACAD
1000
AcDbSavedByObjectVersion
1070
     0
  0
VISUALSTYLE
  5
32
102
{ACAD_REACTORS
330
2A
102
}
330
2A
100
AcDbVisualStyle
  2
Basic
 70
     7
 71
     1
 72
     0
 73
     1
 90
        0
 40
-0.6
 41
-30.0
 62
     5
 63
     7
421
 16777215
 74
     0
 91
        4
 64
     7
 65
   257
 75
     1
175
     1
 42
1.0
 92
        8
 66
     7
 43
1.0
 76
     1
 77
     6
 78
     2
 67
     7
 79
     5
170
     0
171
     0
290
     0
174
     0
 93
        1
 44
0.0
173
     0
291
     1
 45
0.0
1001
ACAD
1000
AcDbSavedByObjectVersion
1070
     0
  0
VISUALSTYLE
  5
36
102
{ACAD_REACTORS
330
2A
102
}
330
2A
100
AcDbVisualStyle
  2
Brighten
 70
    12
 71
     2
 72
     2
 73
     0
 90
        0
 40
-0.6
 41
-30.0
 62
     5
 63
     7
421
 16777215
 74
     1
 91
        4
 64
     7
 65
   257
 75
     1
175
     1
 42
1.0
 92
        8
 66
     7
 43
1.0
 76
     1
 77
     6
 78
     2
 67
     7
 79
     5
170
     0
171
     0
290
     0
174
     0
 93
        1
 44
50.0
173
     0
291
     1
 45
0.0
1001
ACAD
1000
AcDbSavedByObjectVersion
1070
     0
  0
VISUALSTYLE
  5
3A
102
{ACAD_REACTORS
330
2A
102
}
330
2A
100
AcDbVisualStyle
  2
ColorChange
 70
    16
 71
     2
 72
     2
 73
     3
 90
        0
 40
-0.6
 41
-30.0
 62
     5
 63
     8
421
  8421504
 74
     1
 91
        4
 64
     7
 65
   257
 75
     1
175
     1
 42
1.0
 92
        8
 66
     8
424
  8421504
 43
1.0
 76
     1
 77
     6
 78
     2
 67
     7
 79
     5
170
     0
171
     0
290
     0
174
     0
 93
        1
 44
0.0
173
     0
291
     1
 45
0.0
1001
ACAD
1000
AcDbSavedByObjectVersion
1070
     0
  0
VISUALSTYLE
  5
34
102
{ACAD_REACTORS
330
2A
102
}
330
2A
100
AcDbVisualStyle
  2
Conceptual
 70
     9
 71
     3
 72
     2
 73
     0
 90
        0
 40
-0.6
 41
-30.0
 62
     5
 63
     7
421
 16777215
 74
     2
 91
        2
 64
     7
 65
   257
 75
     1
175
     1
 42
40.0
 92
        8
 66
     7
 43
1.0
 76
     1
 77
     6
 78
     2
 67
     7
 79
     3
170
     0
171
     0
290
     0
174
     0
 93
        1
 44
0.0
173
     0
291
     0
 45
0.0
1001
ACAD
1000
AcDbSavedByObjectVersion
1070
     0
  0
VISUALSTYLE
  5
35
102
{ACAD_REACTORS
330
2A
102
}
330
2A
100
AcDbVisualStyle
  2
Dim
 70
    11
 71
     2
 72
     2
 73
     0
 90
        0
 40
-0.6
 41
-30.0
 62
     5
 63
     7
421
 16777215
 74
     1
 91
        4
 64
     7
 65
   257
 75
     1
175
     1
 42
1.0
 92
        8
 66
     7
 43
1.0
 76
     1
 77
     6
 78
     2
 67
     7
 79
     5
170
     0
171
     0
290
     0
174
     0
 93
        1
 44
-50.0
173
     0
291
     1
 45
0.0
1001
ACAD
1000
AcDbSavedByObjectVersion
1070
     0
  0
VISUALSTYLE
  5
39
102
{ACAD_REACTORS
330
2A
102
}
330
2A
100
AcDbVisualStyle
  2
Facepattern
 70
    15
 71
     2
 72
     2
 73
     0
 90
        0
 40
-0.6
 41
-30.0
 62
     5
 63
     7
421
 16777215
 74
     1
 91
        4
 64
     7
 65
   257
 75
     1
175
     1
 42
1.0
 92
        8
 66
     7
 43
1.0
 76
     1
 77
     6
 78
     2
 67
     7
 79
     5
170
     0
171
     0
290
     0
174
     0
 93
        1
 44
0.0
173
     0
291
     1
 45
0.0
1001
ACAD
1000
AcDbSavedByObjectVersion
1070
     0
  0
VISUALSTYLE
  5
2B
102
{ACAD_REACTORS
330
2A
102
}
330
2A
100
AcDbVisualStyle
  2
Flat
 70
     0
 71
     2
 72
     1
 73
     1
 90
        2
 40
-0.6
 41
30.0
 62
     5
 63
     7
421
 16777215
 74
     0
 91
        4
 64
     7
 65
   257
 75
     1
175
     1
 42
1.0
 92
        8
 66
     7
 43
1.0
 76
     1
 77
     6
 78
     2
 67
     7
 79
     5
170
     0
171
     0
290
     0
174
     0
 93
       13
 44
0.0
173
     0
291
     1
 45
0.0
1001
ACAD
1000
AcDbSavedByObjectVersion
1070
     0
  0
VISUALSTYLE
  5
2C
102
{ACAD_REACTORS
330
2A
102
}
330
2A
100
AcDbVisualStyle
  2
FlatWithEdges
 70
     1
 71
     2
 72
     1
 73
     1
 90
        2
 40
-0.6
 41
30.0
 62
     5
 63
     7
421
 16777215
 74
     1
 91
        4
 64
     7
 65
   257
 75
     1
175
     1
 42
1.0
 92
        0
 66
   257
 43
1.0
 76
     1
 77
     6
 78
     2
 67
     7
 79
     5
170
     0
171
     0
290
     0
174
     0
 93
       13
 44
0.0
173
     0
291
     1
 45
0.0
1001
ACAD
1000
AcDbSavedByObjectVersion
1070
     0
  0
VISUALSTYLE
  5
2D
102
{ACAD_REACTORS
330
2A
102
}
330
2A
100
AcDbVisualStyle
  2
Gouraud
 70
     2
 71
     2
 72
     2
 73
     1
 90
        2
 40
-0.6
 41
30.0
 62
     5
 63
     7
421
 16777215
 74
     0
 91
        4
 64
     7
 65
   257
 75
     1
175
     1
 42
1.0
 92
        0
 66
     7
 43
1.0
 76
     1
 77
     6
 78
     2
 67
     7
 79
     5
170
     0
171
     0
290
     0
174
     0
 93
       13
 44
0.0
173
     0
291
     1
 45
0.0
1001
ACAD
1000
AcDbSavedByObjectVersion
1070
     0
  0
VISUALSTYLE
  5
2E
102
{ACAD_REACTORS
330
2A
102
}
330
2A
100
AcDbVisualStyle
  2
GouraudWithEdges
 70
     3
 71
     2
 72
     2
 73
     1
 90
        2
 40
-0.6
 41
30.0
 62
     5
 63
     7
421
 16777215
 74
     1
 91
        4
 64
     7
 65
   257
 75
     1
175
     1
 42
1.0
 92
        0
 66
   257
 43
1.0
 76
     1
 77
     6
 78
     2
 67
     7
 79
     5
170
     0
171
     0
290
     0
174
     0
 93
       13
 44
0.0
173
     0
291
     1
 45
0.0
1001
ACAD
1000
AcDbSavedByObjectVersion
1070
     0
  0
VISUALSTYLE
  5
38
102
{ACAD_REACTORS
330
2A
102
}
330
2A
100
AcDbVisualStyle
  2
Linepattern
 70
    14
 71
     2
 72
     2
 73
     0
 90
        0
 40
-0.6
 41
-30.0
 62
     5
 63
     7
421
 16777215
 74
     1
 91
        4
 64
     7
 65
   257
 75
     7
175
     7
 42
1.0
 92
        8
 66
     7
 43
1.0
 76
     1
 77
     6
 78
     2
 67
     7
 79
     5
170
     0
171
     0
290
     0
174
     0
 93
        1
 44
0.0
173
     0
291
     1
 45
0.0
1001
ACAD
1000
AcDbSavedByObjectVersion
1070
     0
  0
VISUALSTYLE
  5
33
102
{ACAD_REACTORS
330
2A
102
}
330
2A
100
AcDbVisualStyle
  2
Realistic
 70
     8
 71
     2
 72
     2
 73
     0
 90
        0
 40
-0.6
 41
-30.0
 62
     5
 63
     7
421
 16777215
 74
     1
 91
        0
 64
     7
 65
   257
 75
     1
175
     1
 42
1.0
 92
        8
 66
     8
424
  7895160
 43
1.0
 76
     1
 77
     6
 78
     2
 67
     7
 79
     5
170
     0
171
     0
290
     0
174
     0
 93
       13
 44
0.0
173
     0
291
     0
 45
0.0
1001
ACAD
1000
AcDbSavedByObjectVersion
1070
     0
  0
VISUALSTYLE
  5
37
102
{ACAD_REACTORS
330
2A
102
}
330
2A
100
AcDbVisualStyle
  2
Thicken
 70
    13
 71
     2
 72
     2
 73
     0
 90
        0
 40
-0.6
 41
-30.0
 62
     5
 63
     7
421
 16777215
 74
     1
 91
        4
 64
     7
 65
   257
 75
     1
175
     1
 42
1.0
 92
       12
 66
     7
 43
1.0
 76
     1
 77
     6
 78
     2
 67
     7
 79
     5
170
     0
171
     0
290
     0
174
     0
 93
        1
 44
0.0
173
     0
291
     1
 45
0.0
1001
ACAD
1000
AcDbSavedByObjectVersion
1070
     0
  0
ENDSEC
  0
EOF
