  0
SECTION
  2
HEADER
  9
$ACADVER
  1
AC1012
  9
$DWGCODEPAGE
  3
ansi_1252
  9
$INSBASE
 10
0.0
 20
0.0
 30
0.0
  9
$EXTMIN
 10
0.0
 20
0.0
 30
0.0
  9
$EXTMAX
 10
48.0
 20
240.0
 30
0.0
  9
$LIMMIN
 10
0.0
 20
0.0
  9
$LIMMAX
 10
0.0
 20
0.0
  9
$ORTHOMODE
 70
         0
  9
$REGENMODE
 70
         1
  9
$FILLMODE
 70
         1
  9
$QTEXTMODE
 70
         0
  9
$MIRRTEXT
 70
         1
  9
$DRAGMODE
 70
         2
  9
$LTSCALE
 40
1.0
  9
$OSMODE
 70
         0
  9
$ATTMODE
 70
         1
  9
$TEXTSIZE
 40
0.1377952756
  9
$TRACEWID
 40
0.05
  9
$TEXTSTYLE
  7
STANDARD
  9
$CLAYER
  8
0
  9
$CELTYPE
  6
CONTINUOUS
  9
$CECOLOR
 62
       256
  9
$CELTSCALE
 40
1.0
  9
$DELOBJ
 70
         1
  9
$DISPSILH
 70
         0
  9
$DIMSCALE
 40
1.0
  9
$DIMASZ
 40
0.2362204724
  9
$DIMEXO
 40
0.0393700787
  9
$DIMDLI
 40
0.38
  9
$DIMRND
 40
0.0
  9
$DIMDLE
 40
0.0393700787
  9
$DIMEXE
 40
0.18
  9
$DIMTP
 40
0.0
  9
$DIMTM
 40
0.0
  9
$DIMTXT
 40
0.1377952756
  9
$DIMCEN
 40
0.09
  9
$DIMTSZ
 40
0.0
  9
$DIMTOL
 70
         0
  9
$DIMLIM
 70
         0
  9
$DIMTIH
 70
         1
  9
$DIMTOH
 70
         1
  9
$DIMSE1
 70
         0
  9
$DIMSE2
 70
         0
  9
$DIMTAD
 70
         1
  9
$DIMZIN
 70
         0
  9
$DIMBLK
  1

  9
$DIMASO
 70
         1
  9
$DIMSHO
 70
         1
  9
$DIMPOST
  1

  9
$DIMAPOST
  1

  9
$DIMALT
 70
         0
  9
$DIMALTD
 70
         2
  9
$DIMALTF
 40
25.4
  9
$DIMLFAC
 40
1.0
  9
$DIMTOFL
 70
         0
  9
$DIMTVP
 40
0.0
  9
$DIMTIX
 70
         0
  9
$DIMSOXD
 70
         0
  9
$DIMSAH
 70
         0
  9
$DIMBLK1
  1

  9
$DIMBLK2
  1

  9
$DIMSTYLE
  2
STANDARD
  9
$DIMCLRD
 70
         0
  9
$DIMCLRE
 70
         0
  9
$DIMCLRT
 70
         0
  9
$DIMTFAC
 40
1.0
  9
$DIMGAP
 40
0.0393700787
  9
$DIMJUST
 70
         0
  9
$DIMSD1
 70
         0
  9
$DIMSD2
 70
         0
  9
$DIMTOLJ
 70
         1
  9
$DIMTZIN
 70
         0
  9
$DIMALTZ
 70
         0
  9
$DIMALTTZ
 70
         0
  9
$DIMFIT
 70
         3
  9
$DIMUPT
 70
         0
  9
$DIMUNIT
 70
         2
  9
$DIMDEC
 70
         4
  9
$DIMTDEC
 70
         4
  9
$DIMALTU
 70
         2
  9
$DIMALTTD
 70
         2
  9
$DIMTXSTY
  7
STANDARD
  9
$DIMAUNIT
 70
         0
  9
$LUNITS
 70
         2
  9
$LUPREC
 70
         2
  9
$SKETCHINC
 40
0.1
  9
$FILLETRAD
 40
0.0
  9
$AUNITS
 70
         0
  9
$AUPREC
 70
         2
  9
$MENU
  1
acad
  9
$ELEVATION
 40
0.0
  9
$PELEVATION
 40
0.0
  9
$THICKNESS
 40
0.0
  9
$LIMCHECK
 70
         0
  9
$BLIPMODE
 70
         1
  9
$CHAMFERA
 40
0.0
  9
$CHAMFERB
 40
0.0
  9
$CHAMFERC
 40
0.0
  9
$CHAMFERD
 40
0.0
  9
$SKPOLY
 70
         0
  9
$TDCREATE
 40
0.000000000
  9
$TDUPDATE
 40
0.000000000
  9
$TDINDWG
 40
0.0000000000
  9
$TDUSRTIMER
 40
0.0000000000
  9
$USRTIMER
 70
         1
  9
$ANGBASE
 50
0.0
  9
$ANGDIR
 70
         0
  9
$PDMODE
 70
         0
  9
$PDSIZE
 40
-1.0
  9
$PLINEWID
 40
0.0
  9
$COORDS
 70
         0
  9
$SPLFRAME
 70
         0
  9
$SPLINETYPE
 70
         6
  9
$SPLINESEGS
 70
         8
  9
$ATTDIA
 70
         0
  9
$ATTREQ
 70
         1
  9
$HANDLING
 70
         1
  9
$HANDSEED
  5
8E
  9
$SURFTAB1
 70
         6
  9
$SURFTAB2
 70
         6
  9
$SURFTYPE
 70
         6
  9
$SURFU
 70
         6
  9
$SURFV
 70
         6
  9
$UCSNAME
  2

  9
$UCSORG
 10
0.0
 20
0.0
 30
0.0
  9
$UCSXDIR
 10
1.0
 20
0.0
 30
0.0
  9
$UCSYDIR
 10
0.0
 20
1.0
 30
0.0
  9
$PUCSNAME
  2

  9
$PUCSORG
 10
0.0
 20
0.0
 30
0.0
  9
$PUCSXDIR
 10
1.0
 20
0.0
 30
0.0
  9
$PUCSYDIR
 10
0.0
 20
1.0
 30
0.0
  9
$USERI1
 70
         0
  9
$USERI2
 70
         0
  9
$USERI3
 70
         0
  9
$USERI4
 70
         0
  9
$USERI5
 70
         0
  9
$USERR1
 40
0.0
  9
$USERR2
 40
0.0
  9
$USERR3
 40
0.0
  9
$USERR4
 40
0.0
  9
$USERR5
 40
0.0
  9
$WORLDVIEW
 70
         1
  9
$SHADEDGE
 70
         3
  9
$SHADEDIF
 70
        70
  9
$TILEMODE
 70
         1
  9
$MAXACTVP
 70
        16
  9
$PINSBASE
 10
0.0
 20
0.0
 30
0.0
  9
$PLIMCHECK
 70
         0
  9
$PEXTMIN
 10
1.0000000000E+20
 20
1.0000000000E+20
 30
1.0000000000E+20
  9
$PEXTMAX
 10
-1.0000000000E+20
 20
-1.0000000000E+20
 30
-1.0000000000E+20
  9
$PLIMMIN
 10
0.0
 20
0.0
  9
$PLIMMAX
 10
12.0
 20
9.0
  9
$UNITMODE
 70
         0
  9
$VISRETAIN
 70
         0
  9
$PLINEGEN
 70
         1
  9
$PSLTSCALE
 70
         1
  9
$TREEDEPTH
 70
      3020
  9
$PICKSTYLE
 70
         1
  9
$CMLSTYLE
  2
STANDARD
  9
$CMLJUST
 70
         0
  9
$CMLSCALE
 40
1.0
  9
$SAVEIMAGES
 70
         0
  0
ENDSEC
  0
SECTION
  2
CLASSES
  0
CLASS
  1
LWPOLYLINE
  2
AcDbPolyline
  3
"AutoCAD"
 90
        0
280
         0
281
         1
  0
CLASS
  1
IMAGE
  2
AcDbRasterImage
  3
ISM
 90
      127
280
         0
281
         1
  0
CLASS
  1
OLE2FRAME
  2
AcDbOle2Frame
  3
""
 90
        0
280
         0
281
         1
  0
CLASS
  1
HATCH
  2
AcDbHatch
  3
"ACAD_SEDONA"
 90
        0
280
         0
281
         1
  0
CLASS
  1
DICTIONARYVAR
  2
AcDbDictionaryVar
  3
"AutoCAD"
 90
        0
280
         0
281
         0
  0
CLASS
  1
RASTERVARIABLES
  2
AcDbRasterVariables
  3
ISM
 90
        0
280
         0
281
         0
  0
CLASS
  1
IMAGEDEF
  2
AcDbRasterImageDef
  3
ISM
 90
        0
280
         0
281
         0
  0
CLASS
  1
IMAGEDEF_REACTOR
  2
AcDbRasterImageDefReactor
  3
ISM
 90
        1
280
         0
281
         0
  0
CLASS
  1
IDBUFFER
  2
AcDbIdBuffer
  3
"Acad"
 90
        0
280
         0
281
         0
  0
CLASS
  1
SPATIAL_FILTER
  2
AcDbSpatialFilter
  3
"Acad"
 90
        0
280
         0
281
         0
  0
CLASS
  1
XRECORD
  2
AcDbXrecord
  3
"<Built In>"
 90
        0
280
         0
281
         0
  0
CLASS
  1
SORTENTSTABLE
  2
AcDbSortentsTable
  3
"AutoCAD"
 90
        0
280
         0
281
         0
  0
CLASS
  1
LAYER_INDEX
  2
AcDbLayerIndex
  3
"Acad"
 90
        0
280
         0
281
         0
  0
CLASS
  1
SPATIAL_INDEX
  2
AcDbSpatialIndex
  3
"Acad"
 90
        0
280
         0
281
         0
  0
CLASS
  1
OBJECT_PTR
  2
CAseDLPNTableRecord
  3
"ASE-LPNTableRecord"
 90
        1
280
         0
281
         0
  0
CLASS
  1
LAYOUT
  2
AcDbLayout
  3
"AutoCAD 2000"
 90
        1
280
         0
281
         0
  0
CLASS
  1
PLOTSETTINGS
  2
AcDbPlotSettings
  3
"AutoCAD 2000"
 90
        1
280
         0
281
         0
  0
CLASS
  1
ACDBDICTIONARYWDFLT
  2
AcDbDictionaryWithDefault
  3
"AutoCAD 2000"
 90
        1
280
         0
281
         0
  0
CLASS
  1
ACDBPLACEHOLDER
  2
AcDbPlaceHolder
  3
"AutoCAD 2000"
 90
        1
280
         0
281
         0
  0
CLASS
  1
VBA_PROJECT
  2
AcDbVbaProject
  3
"acadvba"
 90
        1
280
         0
281
         0
  0
CLASS
  1
WIPEOUT
  2
AcDbWipeout
  3
WipeOut|AutoCAD Express Tool|expresstools@autodesk.com
 90
      127
280
         0
281
         1
  0
CLASS
  1
WIPEOUTVARIABLES
  2
AcDbWipeoutVariables
  3
WipeOut|AutoCAD Express Tool|expresstools@autodesk.com
 90
        0
280
         0
281
         0
  0
CLASS
  1
RTEXT
  2
RText
  3
RText|AutoCAD Express Tool|expresstools@autodesk.com
 90
        0
280
         0
281
         1
  0
CLASS
  1
ARCALIGNEDTEXT
  2
AcDbArcAlignedText
  3
ATEXT|AutoCAD Express Tool|expresstools@autodesk.com
 90
        0
280
         0
281
         1
  0
ENDSEC
  0
SECTION
  2
TABLES
  0
TABLE
  2
VPORT
  5
7
100
AcDbSymbolTable
 70
         1
  0
VPORT
  5
15
100
AcDbSymbolTableRecord
100
AcDbViewportTableRecord
  2
*ACTIVE
 70
         0
 10
0.0
 20
0.0
 11
1.0
 21
1.0
 12
24.0
 22
120.0
 13
0.0
 23
0.0
 14
1.0
 24
1.0
 15
0.0
 25
0.0
 16
0.0
 26
0.0
 36
1.0
 17
0.0
 27
0.0
 37
0.0
 40
240.0
 41
5.0
 42
50.0
 43
0.0
 44
0.0
 50
0.0
 51
0.0
 71
         0
 72
      2000
 73
         1
 74
         1
 75
         0
 76
         0
 77
         0
 78
         0
  0
ENDTAB
  0
TABLE
  2
LTYPE
  5
4
100
AcDbSymbolTable
 70
         8
  0
LTYPE
  5
11
100
AcDbSymbolTableRecord
100
AcDbLinetypeTableRecord
  2
BYBLOCK
 70
        64
  3

 72
        65
 73
         0
 40
0.0
  0
LTYPE
  5
12
100
AcDbSymbolTableRecord
100
AcDbLinetypeTableRecord
  2
BYLAYER
 70
        64
  3

 72
        65
 73
         0
 40
0.0
  0
LTYPE
  5
13
100
AcDbSymbolTableRecord
100
AcDbLinetypeTableRecord
  2
CONTINUOUS
 70
        64
  3
Solid line
 72
        65
 73
         0
 40
0.0
  0
LTYPE
  5
1E
100
AcDbSymbolTableRecord
100
AcDbLinetypeTableRecord
  2
HIDDEN
 70
        64
  3
Hidden __ __ __ __ __ __ __ __ __ __ __ __ __ __
 72
        65
 73
         2
 40
0.075
 49
0.05
 74
         0
 49
-0.025
 74
         0
  0
LTYPE
  5
1F
100
AcDbSymbolTableRecord
100
AcDbLinetypeTableRecord
  2
PHANTOM
 70
        64
  3
Phantom ______  __  __  ______  __  __  ______
 72
        65
 73
         6
 40
0.5
 49
0.25
 74
         0
 49
-0.05
 74
         0
 49
0.05
 74
         0
 49
-0.05
 74
         0
 49
0.05
 74
         0
 49
-0.05
 74
         0
  0
LTYPE
  5
20
100
AcDbSymbolTableRecord
100
AcDbLinetypeTableRecord
  2
CENTER
 70
        64
  3
Center ____ _ ____ _ ____ _ ____ _ ____ _ ____
 72
        65
 73
         4
 40
0.4
 49
0.25
 74
         0
 49
-0.05
 74
         0
 49
0.05
 74
         0
 49
-0.05
 74
         0
  0
LTYPE
  5
21
100
AcDbSymbolTableRecord
100
AcDbLinetypeTableRecord
  2
CENTERX2
 70
        64
  3
Center (2x) ________  __  ________  __  _____
 72
        65
 73
         4
 40
0.8
 49
0.5
 74
         0
 49
-0.1
 74
         0
 49
0.1
 74
         0
 49
-0.1
 74
         0
  0
LTYPE
  5
22
100
AcDbSymbolTableRecord
100
AcDbLinetypeTableRecord
  2
DOT2
 70
        64
  3
Dot (.5x) ........................................
 72
        65
 73
         2
 40
0.025
 49
0.0
 74
         0
 49
-0.025
 74
         0
  0
ENDTAB
  0
TABLE
  2
LAYER
  5
2
100
AcDbSymbolTable
 70
         2
  0
LAYER
  5
14
100
AcDbSymbolTableRecord
100
AcDbLayerTableRecord
  2
0
 70
         0
 62
         7
  6
CONTINUOUS
  0
LAYER
  5
26
100
AcDbSymbolTableRecord
100
AcDbLayerTableRecord
  2
DEFPOINTS
 70
         0
 62
         7
  6
CONTINUOUS
  0
ENDTAB
  0
TABLE
  2
STYLE
  5
3
100
AcDbSymbolTable
 70
         1
  0
STYLE
  5
17
100
AcDbSymbolTableRecord
100
AcDbTextStyleTableRecord
  2
STANDARD
 70
         0
 40
0.0
 41
1.0
 50
0.0
 71
         0
 42
0.0
  3
txt
  4

  0
ENDTAB
  0
TABLE
  2
VIEW
  5
5
100
AcDbSymbolTable
 70
         0
  0
ENDTAB
  0
TABLE
  2
UCS
  5
6
100
AcDbSymbolTable
 70
         0
  0
ENDTAB
  0
TABLE
  2
APPID
  5
8
100
AcDbSymbolTable
 70
         1
  0
APPID
  5
16
100
AcDbSymbolTableRecord
100
AcDbRegAppTableRecord
  2
ACAD
 70
         0
  0
ENDTAB
  0
TABLE
  2
DIMSTYLE
  5
9
100
AcDbSymbolTable
 70
         1
  0
DIMSTYLE
105
18
100
AcDbSymbolTableRecord
100
AcDbDimStyleTableRecord
  2
STANDARD
 70
         0
  3

  4

  5

  6

  7

 40
1.0
 41
0.18
 42
0.0625
 43
0.38
 44
0.18
 45
0.0
 46
0.0
 47
0.0
 48
0.0
 71
         0
 72
         0
 73
         1
 74
         1
 75
         0
 76
         0
 77
         0
 78
         0
140
0.18
141
0.09
142
0.0
143
25.4
144
1.0
145
0.0
146
1.0
147
0.09
170
         0
171
         2
172
         0
173
         0
174
         0
175
         0
176
         0
177
         0
178
         0
270
         2
271
         4
272
         4
273
         2
274
         2
275
         0
280
         0
281
         0
282
         0
283
         1
284
         0
285
         0
286
         0
287
         0
288
         0
340
17
  0
ENDTAB
  0
TABLE
  2
BLOCK_RECORD
  5
1
100
AcDbSymbolTable
 70
         0
  0
BLOCK_RECORD
  5
A
100
AcDbSymbolTableRecord
100
AcDbBlockTableRecord
  2
*MODEL_SPACE
  0
BLOCK_RECORD
  5
B
100
AcDbSymbolTableRecord
100
AcDbBlockTableRecord
  2
*PAPER_SPACE
  0
ENDTAB
  0
ENDSEC
  0
SECTION
  2
BLOCKS
  0
BLOCK
  5
D
100
AcDbEntity
  8
0
100
AcDbBlockBegin
  2
*MODEL_SPACE
 70
         0
 10
0.0
 20
0.0
 30
0.0
  3
*MODEL_SPACE
  1

  0
ENDBLK
  5
E
100
AcDbEntity
  8
0
100
AcDbBlockEnd
  0
BLOCK
  5
F
100
AcDbEntity
 67
         1
  8
0
100
AcDbBlockBegin
  2
*PAPER_SPACE
 70
         0
 10
0.0
 20
0.0
 30
0.0
  3
*PAPER_SPACE
  1

  0
ENDBLK
  5
10
100
AcDbEntity
 67
         1
  8
0
100
AcDbBlockEnd
  0
ENDSEC
  0
SECTION
  2
ENTITIES
  0
LINE
  5
27
100
AcDbEntity
  8
0
  6
CONTINUOUS
 62
         7
100
AcDbLine
 10
24.3641301869
 20
184.84309572
 30
0.0
 11
24.4192298131
 21
184.84309572
 31
0.0
  0
LINE
  5
28
100
AcDbEntity
  8
0
  6
CONTINUOUS
 62
         7
100
AcDbLine
 10
6.3731432864
 20
3.06346428
 30
0.0
 11
42.4102167136
 21
3.06346428
 31
0.0
  0
POLYLINE
  5
29
100
AcDbEntity
  8
0
  6
CONTINUOUS
 62
         7
100
AcDb2dPolyline
 66
         1
 10
0.0
 20
0.0
 30
0.0
 70
       128
  0
VERTEX
  5
2A
100
AcDbEntity
  8
0
100
AcDbVertex
100
AcDb2dVertex
 10
24.3641301869
 20
184.84309572
 30
0.0
  0
VERTEX
  5
2B
100
AcDbEntity
  8
0
100
AcDbVertex
100
AcDb2dVertex
 10
24.3120537547
 20
184.5785691737
 30
0.0
  0
VERTEX
  5
2C
100
AcDbEntity
  8
0
100
AcDbVertex
100
AcDb2dVertex
 10
24.265888272
 20
184.3438893676
 30
0.0
  0
VERTEX
  5
2D
100
AcDbEntity
  8
0
100
AcDbVertex
100
AcDb2dVertex
 10
24.2256337388
 20
184.1390563016
 30
0.0
  0
VERTEX
  5
2E
100
AcDbEntity
  8
0
100
AcDbVertex
100
AcDb2dVertex
 10
24.1889172933
 20
183.9519847206
 30
0.0
  0
VERTEX
  5
2F
100
AcDbEntity
  8
0
100
AcDbVertex
100
AcDb2dVertex
 10
24.1502996079
 20
183.7549715114
 30
0.0
  0
VERTEX
  5
30
100
AcDbEntity
  8
0
100
AcDbVertex
100
AcDb2dVertex
 10
24.1095664106
 20
183.5469253621
 30
0.0
  0
VERTEX
  5
31
100
AcDbEntity
  8
0
100
AcDbVertex
100
AcDb2dVertex
 10
24.0670368811
 20
183.3294720574
 30
0.0
  0
VERTEX
  5
32
100
AcDbEntity
  8
0
100
AcDbVertex
100
AcDb2dVertex
 10
24.024362765
 20
183.1110249906
 30
0.0
  0
VERTEX
  5
33
100
AcDbEntity
  8
0
100
AcDbVertex
100
AcDb2dVertex
 10
23.758172232
 20
181.7424628302
 30
0.0
  0
VERTEX
  5
34
100
AcDbEntity
  8
0
100
AcDbVertex
100
AcDb2dVertex
 10
23.2886576251
 20
179.3029613758
 30
0.0
  0
VERTEX
  5
35
100
AcDbEntity
  8
0
100
AcDbVertex
100
AcDb2dVertex
 10
22.4656288435
 20
174.9441129506
 30
0.0
  0
VERTEX
  5
36
100
AcDbEntity
  8
0
100
AcDbVertex
100
AcDb2dVertex
 10
21.7472666288
 20
171.048221483
 30
0.0
  0
VERTEX
  5
37
100
AcDbEntity
  8
0
100
AcDbVertex
100
AcDb2dVertex
 10
21.0446646404
 20
167.1491083308
 30
0.0
  0
VERTEX
  5
38
100
AcDbEntity
  8
0
100
AcDbVertex
100
AcDb2dVertex
 10
19.829332242
 20
160.1787727528
 30
0.0
  0
VERTEX
  5
39
100
AcDbEntity
  8
0
100
AcDbVertex
100
AcDb2dVertex
 10
18.6654664814
 20
153.2024110319
 30
0.0
  0
VERTEX
  5
3A
100
AcDbEntity
  8
0
100
AcDbVertex
100
AcDb2dVertex
 10
17.6700967816
 20
146.9695041649
 30
0.0
  0
VERTEX
  5
3B
100
AcDbEntity
  8
0
100
AcDbVertex
100
AcDb2dVertex
 10
16.7160442117
 20
140.7328119456
 30
0.0
  0
VERTEX
  5
3C
100
AcDbEntity
  8
0
100
AcDbVertex
100
AcDb2dVertex
 10
15.8033961847
 20
134.4916625606
 30
0.0
  0
VERTEX
  5
3D
100
AcDbEntity
  8
0
100
AcDbVertex
100
AcDb2dVertex
 10
14.9323078928
 20
128.2448632786
 30
0.0
  0
VERTEX
  5
3E
100
AcDbEntity
  8
0
100
AcDbVertex
100
AcDb2dVertex
 10
14.0862860081
 20
121.8647304975
 30
0.0
  0
VERTEX
  5
3F
100
AcDbEntity
  8
0
100
AcDbVertex
100
AcDb2dVertex
 10
13.2835594307
 20
115.4787246852
 30
0.0
  0
VERTEX
  5
40
100
AcDbEntity
  8
0
100
AcDbVertex
100
AcDb2dVertex
 10
12.524525685
 20
109.0875604453
 30
0.0
  0
VERTEX
  5
41
100
AcDbEntity
  8
0
100
AcDbVertex
100
AcDb2dVertex
 10
11.8093442884
 20
102.6915245315
 30
0.0
  0
VERTEX
  5
42
100
AcDbEntity
  8
0
100
AcDbVertex
100
AcDb2dVertex
 10
11.1380152409
 20
96.2906169439
 30
0.0
  0
VERTEX
  5
43
100
AcDbEntity
  8
0
100
AcDbVertex
100
AcDb2dVertex
 10
10.510628057
 20
89.8850819933
 30
0.0
  0
VERTEX
  5
44
100
AcDbEntity
  8
0
100
AcDbVertex
100
AcDb2dVertex
 10
9.9274381464
 20
83.4756167666
 30
0.0
  0
VERTEX
  5
45
100
AcDbEntity
  8
0
100
AcDbVertex
100
AcDb2dVertex
 10
9.3884612511
 20
77.0622642277
 30
0.0
  0
VERTEX
  5
46
100
AcDbEntity
  8
0
100
AcDbVertex
100
AcDb2dVertex
 10
8.8936982827
 20
70.6450181723
 30
0.0
  0
VERTEX
  5
47
100
AcDbEntity
  8
0
100
AcDbVertex
100
AcDb2dVertex
 10
8.4431980454
 20
64.2235464806
 30
0.0
  0
VERTEX
  5
48
100
AcDbEntity
  8
0
100
AcDbVertex
100
AcDb2dVertex
 10
8.0369883054
 20
57.7976601982
 30
0.0
  0
VERTEX
  5
49
100
AcDbEntity
  8
0
100
AcDbVertex
100
AcDb2dVertex
 10
7.6750690627
 20
51.367359325
 30
0.0
  0
VERTEX
  5
4A
100
AcDbEntity
  8
0
100
AcDbVertex
100
AcDb2dVertex
 10
7.3574568641
 20
44.9328924951
 30
0.0
  0
VERTEX
  5
4B
100
AcDbEntity
  8
0
100
AcDbVertex
100
AcDb2dVertex
 10
7.0842191811
 20
38.4952735411
 30
0.0
  0
VERTEX
  5
4C
100
AcDbEntity
  8
0
100
AcDbVertex
100
AcDb2dVertex
 10
6.8498679411
 20
31.8828182232
 30
0.0
  0
VERTEX
  5
4D
100
AcDbEntity
  8
0
100
AcDbVertex
100
AcDb2dVertex
 10
6.6622959337
 20
25.2671822133
 30
0.0
  0
VERTEX
  5
4E
100
AcDbEntity
  8
0
100
AcDbVertex
100
AcDb2dVertex
 10
6.5213792158
 20
18.6515066978
 30
0.0
  0
VERTEX
  5
4F
100
AcDbEntity
  8
0
100
AcDbVertex
100
AcDb2dVertex
 10
6.4538855293
 20
14.2863122772
 30
0.0
  0
VERTEX
  5
50
100
AcDbEntity
  8
0
100
AcDbVertex
100
AcDb2dVertex
 10
6.4066298504
 20
9.9216993316
 30
0.0
  0
VERTEX
  5
51
100
AcDbEntity
  8
0
100
AcDbVertex
100
AcDb2dVertex
 10
6.38174152
 20
6.0801166624
 30
0.0
  0
VERTEX
  5
52
100
AcDbEntity
  8
0
100
AcDbVertex
100
AcDb2dVertex
 10
6.3794027372
 20
5.5162231554
 30
0.0
  0
VERTEX
  5
53
100
AcDbEntity
  8
0
100
AcDbVertex
100
AcDb2dVertex
 10
6.3773986002
 20
4.9515991888
 30
0.0
  0
VERTEX
  5
54
100
AcDbEntity
  8
0
100
AcDbVertex
100
AcDb2dVertex
 10
6.375731271
 20
4.3873255413
 30
0.0
  0
VERTEX
  5
55
100
AcDbEntity
  8
0
100
AcDbVertex
100
AcDb2dVertex
 10
6.3750866818
 20
4.1338475331
 30
0.0
  0
VERTEX
  5
56
100
AcDbEntity
  8
0
100
AcDbVertex
100
AcDb2dVertex
 10
6.3745463679
 20
3.8952837486
 30
0.0
  0
VERTEX
  5
57
100
AcDbEntity
  8
0
100
AcDbVertex
100
AcDb2dVertex
 10
6.3740834048
 20
3.6580585426
 30
0.0
  0
VERTEX
  5
58
100
AcDbEntity
  8
0
100
AcDbVertex
100
AcDb2dVertex
 10
6.3736174952
 20
3.3816850304
 30
0.0
  0
VERTEX
  5
59
100
AcDbEntity
  8
0
100
AcDbVertex
100
AcDb2dVertex
 10
6.3731432864
 20
3.06346428
 30
0.0
  0
SEQEND
  5
5A
100
AcDbEntity
  8
0
  0
POLYLINE
  5
5B
100
AcDbEntity
  8
0
  6
CONTINUOUS
 62
         7
100
AcDb2dPolyline
 66
         1
 10
0.0
 20
0.0
 30
0.0
 70
       128
  0
VERTEX
  5
5C
100
AcDbEntity
  8
0
100
AcDbVertex
100
AcDb2dVertex
 10
42.4102167136
 20
3.06346428
 30
0.0
  0
VERTEX
  5
5D
100
AcDbEntity
  8
0
100
AcDbVertex
100
AcDb2dVertex
 10
42.4097649698
 20
3.3673827291
 30
0.0
  0
VERTEX
  5
5E
100
AcDbEntity
  8
0
100
AcDbVertex
100
AcDb2dVertex
 10
42.4093207629
 20
3.6333698954
 30
0.0
  0
VERTEX
  5
5F
100
AcDbEntity
  8
0
100
AcDbVertex
100
AcDb2dVertex
 10
42.4088825688
 20
3.8621940795
 30
0.0
  0
VERTEX
  5
60
100
AcDbEntity
  8
0
100
AcDbVertex
100
AcDb2dVertex
 10
42.4083847719
 20
4.0869352091
 30
0.0
  0
VERTEX
  5
61
100
AcDbEntity
  8
0
100
AcDbVertex
100
AcDb2dVertex
 10
42.407792458
 20
4.3251951652
 30
0.0
  0
VERTEX
  5
62
100
AcDbEntity
  8
0
100
AcDbVertex
100
AcDb2dVertex
 10
42.4071072467
 20
4.5761573304
 30
0.0
  0
VERTEX
  5
63
100
AcDbEntity
  8
0
100
AcDbVertex
100
AcDb2dVertex
 10
42.4063488279
 20
4.8298939064
 30
0.0
  0
VERTEX
  5
64
100
AcDbEntity
  8
0
100
AcDbVertex
100
AcDb2dVertex
 10
42.4009725832
 20
6.2228142491
 30
0.0
  0
VERTEX
  5
65
100
AcDbEntity
  8
0
100
AcDbVertex
100
AcDb2dVertex
 10
42.3862905037
 20
8.7067002491
 30
0.0
  0
VERTEX
  5
66
100
AcDbEntity
  8
0
100
AcDbVertex
100
AcDb2dVertex
 10
42.3438293993
 20
13.1408995
 30
0.0
  0
VERTEX
  5
67
100
AcDbEntity
  8
0
100
AcDbVertex
100
AcDb2dVertex
 10
42.2882851471
 20
17.1003817743
 30
0.0
  0
VERTEX
  5
68
100
AcDbEntity
  8
0
100
AcDbVertex
100
AcDb2dVertex
 10
42.2160528194
 20
21.0605822262
 30
0.0
  0
VERTEX
  5
69
100
AcDbEntity
  8
0
100
AcDbVertex
100
AcDb2dVertex
 10
42.0455370167
 20
28.1339365294
 30
0.0
  0
VERTEX
  5
6A
100
AcDbEntity
  8
0
100
AcDbVertex
100
AcDb2dVertex
 10
41.8216103323
 20
35.2050672499
 30
0.0
  0
VERTEX
  5
6B
100
AcDbEntity
  8
0
100
AcDbVertex
100
AcDb2dVertex
 10
41.5764940159
 20
41.515482209
 30
0.0
  0
VERTEX
  5
6C
100
AcDbEntity
  8
0
100
AcDbVertex
100
AcDb2dVertex
 10
41.2887533816
 20
47.8229777223
 30
0.0
  0
VERTEX
  5
6D
100
AcDbEntity
  8
0
100
AcDbVertex
100
AcDb2dVertex
 10
40.9584196564
 20
54.1270837377
 30
0.0
  0
VERTEX
  5
6E
100
AcDbEntity
  8
0
100
AcDbVertex
100
AcDb2dVertex
 10
40.58554828
 20
60.4269657298
 30
0.0
  0
VERTEX
  5
6F
100
AcDbEntity
  8
0
100
AcDbVertex
100
AcDb2dVertex
 10
40.161219706
 20
66.8510459011
 30
0.0
  0
VERTEX
  5
70
100
AcDbEntity
  8
0
100
AcDbVertex
100
AcDb2dVertex
 10
39.6926031822
 20
73.2707283308
 30
0.0
  0
VERTEX
  5
71
100
AcDbEntity
  8
0
100
AcDbVertex
100
AcDb2dVertex
 10
39.1797521974
 20
79.6863773104
 30
0.0
  0
VERTEX
  5
72
100
AcDbEntity
  8
0
100
AcDbVertex
100
AcDb2dVertex
 10
38.6226882152
 20
86.0981390216
 30
0.0
  0
VERTEX
  5
73
100
AcDbEntity
  8
0
100
AcDbVertex
100
AcDb2dVertex
 10
38.0214112357
 20
92.5060134642
 30
0.0
  0
VERTEX
  5
74
100
AcDbEntity
  8
0
100
AcDbVertex
100
AcDb2dVertex
 10
37.3760107624
 20
98.9097563565
 30
0.0
  0
VERTEX
  5
75
100
AcDbEntity
  8
0
100
AcDbVertex
100
AcDb2dVertex
 10
36.686742173
 20
105.3086706946
 30
0.0
  0
VERTEX
  5
76
100
AcDbEntity
  8
0
100
AcDbVertex
100
AcDb2dVertex
 10
35.9536212077
 20
111.7027135194
 30
0.0
  0
VERTEX
  5
77
100
AcDbEntity
  8
0
100
AcDbVertex
100
AcDb2dVertex
 10
35.1766546393
 20
118.0918726731
 30
0.0
  0
VERTEX
  5
78
100
AcDbEntity
  8
0
100
AcDbVertex
100
AcDb2dVertex
 10
34.3562050103
 20
124.4754973757
 30
0.0
  0
VERTEX
  5
79
100
AcDbEntity
  8
0
100
AcDbVertex
100
AcDb2dVertex
 10
33.4924785839
 20
130.8532173753
 30
0.0
  0
VERTEX
  5
7A
100
AcDbEntity
  8
0
100
AcDbVertex
100
AcDb2dVertex
 10
32.5854753601
 20
137.2250326717
 30
0.0
  0
VERTEX
  5
7B
100
AcDbEntity
  8
0
100
AcDbVertex
100
AcDb2dVertex
 10
31.6352419155
 20
143.5912983572
 30
0.0
  0
VERTEX
  5
7C
100
AcDbEntity
  8
0
100
AcDbVertex
100
AcDb2dVertex
 10
30.6419681706
 20
149.9534623579
 30
0.0
  0
VERTEX
  5
7D
100
AcDbEntity
  8
0
100
AcDbVertex
100
AcDb2dVertex
 10
29.577451042
 20
156.4811779592
 30
0.0
  0
VERTEX
  5
7E
100
AcDbEntity
  8
0
100
AcDbVertex
100
AcDb2dVertex
 10
28.4675958044
 20
163.0047091806
 30
0.0
  0
VERTEX
  5
7F
100
AcDbEntity
  8
0
100
AcDbVertex
100
AcDb2dVertex
 10
27.3131873089
 20
169.5212863439
 30
0.0
  0
VERTEX
  5
80
100
AcDbEntity
  8
0
100
AcDbVertex
100
AcDb2dVertex
 10
26.5271651217
 20
173.8173816574
 30
0.0
  0
VERTEX
  5
81
100
AcDbEntity
  8
0
100
AcDbVertex
100
AcDb2dVertex
 10
25.722157441
 20
178.1090703766
 30
0.0
  0
VERTEX
  5
82
100
AcDbEntity
  8
0
100
AcDbVertex
100
AcDb2dVertex
 10
24.9980308949
 20
181.8825575799
 30
0.0
  0
VERTEX
  5
83
100
AcDbEntity
  8
0
100
AcDbVertex
100
AcDb2dVertex
 10
24.890486174
 20
182.4362924775
 30
0.0
  0
VERTEX
  5
84
100
AcDbEntity
  8
0
100
AcDbVertex
100
AcDb2dVertex
 10
24.7823616621
 20
182.9913123063
 30
0.0
  0
VERTEX
  5
85
100
AcDbEntity
  8
0
100
AcDbVertex
100
AcDb2dVertex
 10
24.6738804001
 20
183.5464810767
 30
0.0
  0
VERTEX
  5
86
100
AcDbEntity
  8
0
100
AcDbVertex
100
AcDb2dVertex
 10
24.625232819
 20
183.7949234747
 30
0.0
  0
VERTEX
  5
87
100
AcDbEntity
  8
0
100
AcDbVertex
100
AcDb2dVertex
 10
24.5796336897
 20
184.0274674077
 30
0.0
  0
VERTEX
  5
88
100
AcDbEntity
  8
0
100
AcDbVertex
100
AcDb2dVertex
 10
24.534316746
 20
184.2582017896
 30
0.0
  0
VERTEX
  5
89
100
AcDbEntity
  8
0
100
AcDbVertex
100
AcDb2dVertex
 10
24.4810321048
 20
184.5291442359
 30
0.0
  0
VERTEX
  5
8A
100
AcDbEntity
  8
0
100
AcDbVertex
100
AcDb2dVertex
 10
24.4192298131
 20
184.84309572
 30
0.0
  0
SEQEND
  5
8B
100
AcDbEntity
  8
0
  0
ENDSEC
  0
SECTION
  2
OBJECTS
  0
DICTIONARY
  5
19
100
AcDbDictionary
  3
ACAD_GROUP
350
1A
  3
ACAD_MLINESTYLE
350
1B
  0
DICTIONARY
  5
1A
102
{ACAD_REACTORS
330
19
102
}
100
AcDbDictionary
  0
DICTIONARY
  5
1B
102
{ACAD_REACTORS
330
19
102
}
100
AcDbDictionary
  3
STANDARD
350
1C
  0
MLINESTYLE
  5
1C
102
{ACAD_REACTORS
330
1B
102
}
100
AcDbMlineStyle
  2
STANDARD
 70
         0
  3

 62
         0
 51
90.0
 52
90.0
 71
         2
 49
0.5
 62
       256
  6
BYLAYER
 49
-0.5
 62
       256
  6
BYLAYER
  0
ENDSEC
  0
EOF
