  0
SECTION
  2
HEADER
  9
$ACADVER
  1
AC1018
  9
$ACADMAINTVER
 70
     0
  9
$DWGCODEPAGE
  3
ANSI_1252
  9
$INSBASE
 10
0.0
 20
0.0
 30
0.0
  9
$EXTMIN
 10
-31.38407880049053
 20
-17.91723917729924
 30
-10.48048287549987
  9
$EXTMAX
 10
339.5051804981701
 20
322.0133661009199
 30
394.1999110943895
  9
$LIMMIN
 10
0.0
 20
0.0
  9
$LIMMAX
 10
12.0
 20
9.0
  9
$ORTHOMODE
 70
     0
  9
$REGENMODE
 70
     1
  9
$FILLMODE
 70
     1
  9
$QTEXTMODE
 70
     0
  9
$MIRRTEXT
 70
     1
  9
$LTSCALE
 40
0.0393700787401575
  9
$ATTMODE
 70
     1
  9
$TEXTSIZE
 40
0.2
  9
$TRACEWID
 40
0.05
  9
$TEXTSTYLE
  7
Standard
  9
$CLAYER
  8
Default
  9
$CELTYPE
  6
ByLayer
  9
$CECOLOR
 62
   256
  9
$CELTSCALE
 40
1.0
  9
$DISPSILH
 70
     0
  9
$DIMSCALE
 40
1.0
  9
$DIMASZ
 40
0.18
  9
$DIMEXO
 40
0.0625
  9
$DIMDLI
 40
0.38
  9
$DIMRND
 40
0.0
  9
$DIMDLE
 40
0.0
  9
$DIMEXE
 40
0.18
  9
$DIMTP
 40
0.0
  9
$DIMTM
 40
0.0
  9
$DIMTXT
 40
0.18
  9
$DIMCEN
 40
0.09
  9
$DIMTSZ
 40
0.0
  9
$DIMTOL
 70
     0
  9
$DIMLIM
 70
     0
  9
$DIMTIH
 70
     1
  9
$DIMTOH
 70
     1
  9
$DIMSE1
 70
     0
  9
$DIMSE2
 70
     0
  9
$DIMTAD
 70
     0
  9
$DIMZIN
 70
     0
  9
$DIMBLK
  1

  9
$DIMASO
 70
     1
  9
$DIMSHO
 70
     1
  9
$DIMPOST
  1

  9
$DIMAPOST
  1

  9
$DIMALT
 70
     0
  9
$DIMALTD
 70
     2
  9
$DIMALTF
 40
25.4
  9
$DIMLFAC
 40
1.0
  9
$DIMTOFL
 70
     0
  9
$DIMTVP
 40
0.0
  9
$DIMTIX
 70
     0
  9
$DIMSOXD
 70
     0
  9
$DIMSAH
 70
     0
  9
$DIMBLK1
  1

  9
$DIMBLK2
  1

  9
$DIMSTYLE
  2
Standard
  9
$DIMCLRD
 70
     0
  9
$DIMCLRE
 70
     0
  9
$DIMCLRT
 70
     0
  9
$DIMTFAC
 40
1.0
  9
$DIMGAP
 40
0.09
  9
$DIMJUST
 70
     0
  9
$DIMSD1
 70
     0
  9
$DIMSD2
 70
     0
  9
$DIMTOLJ
 70
     1
  9
$DIMTZIN
 70
     0
  9
$DIMALTZ
 70
     0
  9
$DIMALTTZ
 70
     0
  9
$DIMUPT
 70
     0
  9
$DIMDEC
 70
     4
  9
$DIMTDEC
 70
     4
  9
$DIMALTU
 70
     2
  9
$DIMALTTD
 70
     2
  9
$DIMTXSTY
  7
Standard
  9
$DIMAUNIT
 70
     0
  9
$DIMADEC
 70
     0
  9
$DIMALTRND
 40
0.0
  9
$DIMAZIN
 70
     0
  9
$DIMDSEP
 70
    46
  9
$DIMATFIT
 70
     3
  9
$DIMFRAC
 70
     0
  9
$DIMLDRBLK
  1

  9
$DIMLUNIT
 70
     2
  9
$DIMLWD
 70
    -2
  9
$DIMLWE
 70
    -2
  9
$DIMTMOVE
 70
     2
  9
$LUNITS
 70
     2
  9
$LUPREC
 70
     3
  9
$SKETCHINC
 40
0.1
  9
$FILLETRAD
 40
0.5
  9
$AUNITS
 70
     0
  9
$AUPREC
 70
     0
  9
$MENU
  1
.
  9
$ELEVATION
 40
0.0
  9
$PELEVATION
 40
0.0
  9
$THICKNESS
 40
0.0
  9
$LIMCHECK
 70
     0
  9
$CHAMFERA
 40
0.5
  9
$CHAMFERB
 40
0.5
  9
$CHAMFERC
 40
1.0
  9
$CHAMFERD
 40
0.0
  9
$SKPOLY
 70
     0
  9
$TDCREATE
 40
2455662.08501309
  9
$TDUCREATE
 40
2455662.376679757
  9
$TDUPDATE
 40
2455662.085013102
  9
$TDUUPDATE
 40
2455662.376679768
  9
$TDINDWG
 40
0.0000000116
  9
$TDUSRTIMER
 40
0.0000000116
  9
$USRTIMER
 70
     1
  9
$ANGBASE
 50
0.0
  9
$ANGDIR
 70
     0
  9
$PDMODE
 70
     0
  9
$PDSIZE
 40
0.0
  9
$PLINEWID
 40
0.0
  9
$SPLFRAME
 70
     0
  9
$SPLINETYPE
 70
     6
  9
$SPLINESEGS
 70
     8
  9
$HANDSEED
  5
19A
  9
$SURFTAB1
 70
     6
  9
$SURFTAB2
 70
     6
  9
$SURFTYPE
 70
     6
  9
$SURFU
 70
     6
  9
$SURFV
 70
     6
  9
$UCSBASE
  2

  9
$UCSNAME
  2

  9
$UCSORG
 10
0.0
 20
0.0
 30
0.0
  9
$UCSXDIR
 10
1.0
 20
0.0
 30
0.0
  9
$UCSYDIR
 10
0.0
 20
1.0
 30
0.0
  9
$UCSORTHOREF
  2

  9
$UCSORTHOVIEW
 70
     0
  9
$UCSORGTOP
 10
0.0
 20
0.0
 30
0.0
  9
$UCSORGBOTTOM
 10
0.0
 20
0.0
 30
0.0
  9
$UCSORGLEFT
 10
0.0
 20
0.0
 30
0.0
  9
$UCSORGRIGHT
 10
0.0
 20
0.0
 30
0.0
  9
$UCSORGFRONT
 10
0.0
 20
0.0
 30
0.0
  9
$UCSORGBACK
 10
0.0
 20
0.0
 30
0.0
  9
$PUCSBASE
  2

  9
$PUCSNAME
  2

  9
$PUCSORG
 10
0.0
 20
0.0
 30
0.0
  9
$PUCSXDIR
 10
1.0
 20
0.0
 30
0.0
  9
$PUCSYDIR
 10
0.0
 20
1.0
 30
0.0
  9
$PUCSORTHOREF
  2

  9
$PUCSORTHOVIEW
 70
     0
  9
$PUCSORGTOP
 10
0.0
 20
0.0
 30
0.0
  9
$PUCSORGBOTTOM
 10
0.0
 20
0.0
 30
0.0
  9
$PUCSORGLEFT
 10
0.0
 20
0.0
 30
0.0
  9
$PUCSORGRIGHT
 10
0.0
 20
0.0
 30
0.0
  9
$PUCSORGFRONT
 10
0.0
 20
0.0
 30
0.0
  9
$PUCSORGBACK
 10
0.0
 20
0.0
 30
0.0
  9
$USERI1
 70
     0
  9
$USERI2
 70
     0
  9
$USERI3
 70
     0
  9
$USERI4
 70
     0
  9
$USERI5
 70
     0
  9
$USERR1
 40
0.0
  9
$USERR2
 40
0.0
  9
$USERR3
 40
0.0
  9
$USERR4
 40
0.0
  9
$USERR5
 40
0.0
  9
$WORLDVIEW
 70
     1
  9
$SHADEDGE
 70
     3
  9
$SHADEDIF
 70
    70
  9
$TILEMODE
 70
     1
  9
$MAXACTVP
 70
    64
  9
$PINSBASE
 10
0.0
 20
0.0
 30
0.0
  9
$PLIMCHECK
 70
     0
  9
$PEXTMIN
 10
1.000000000000000E+20
 20
1.000000000000000E+20
 30
1.000000000000000E+20
  9
$PEXTMAX
 10
-1.000000000000000E+20
 20
-1.000000000000000E+20
 30
-1.000000000000000E+20
  9
$PLIMMIN
 10
0.0
 20
0.0
  9
$PLIMMAX
 10
12.0
 20
9.0
  9
$UNITMODE
 70
     0
  9
$VISRETAIN
 70
     1
  9
$PLINEGEN
 70
     0
  9
$PSLTSCALE
 70
     1
  9
$TREEDEPTH
 70
  3020
  9
$CMLSTYLE
  2
Standard
  9
$CMLJUST
 70
     0
  9
$CMLSCALE
 40
1.0
  9
$PROXYGRAPHICS
 70
     1
  9
$MEASUREMENT
 70
     0
  9
$CELWEIGHT
370
    -1
  9
$ENDCAPS
280
     0
  9
$JOINSTYLE
280
     0
  9
$LWDISPLAY
290
     0
  9
$INSUNITS
 70
     1
  9
$HYPERLINKBASE
  1

  9
$STYLESHEET
  1

  9
$XEDIT
290
     1
  9
$CEPSNTYPE
380
     0
  9
$PSTYLEMODE
290
     1
  9
$FINGERPRINTGUID
  2
{BE8F08AB-4617-4C45-9E8E-E86A4F280B82}
  9
$VERSIONGUID
  2
{FAEB1C32-E019-11D5-929B-00C0DF256EC4}
  9
$EXTNAMES
290
     1
  9
$PSVPSCALE
 40
0.0
  9
$OLESTARTUP
290
     0
  9
$SORTENTS
280
   127
  9
$INDEXCTL
280
     0
  9
$HIDETEXT
280
     1
  9
$XCLIPFRAME
290
     0
  9
$HALOGAP
280
     0
  9
$OBSCOLOR
 70
   257
  9
$OBSLTYPE
280
     0
  9
$INTERSECTIONDISPLAY
280
     0
  9
$INTERSECTIONCOLOR
 70
   257
  9
$DIMASSOC
280
     2
  9
$PROJECTNAME
  1

  0
ENDSEC
  0
SECTION
  2
CLASSES
  0
CLASS
  1
ACDBDICTIONARYWDFLT
  2
AcDbDictionaryWithDefault
  3
ObjectDBX Classes
 90
        0
 91
        4
280
     0
281
     0
  0
CLASS
  1
VISUALSTYLE
  2
AcDbVisualStyle
  3
ObjectDBX Classes
 90
     4095
 91
        4
280
     0
281
     0
  0
ENDSEC
  0
SECTION
  2
TABLES
  0
TABLE
  2
VPORT
  5
8
330
0
100
AcDbSymbolTable
 70
     1
  0
VPORT
  5
29
330
8
100
AcDbSymbolTableRecord
100
AcDbViewportTableRecord
  2
*Active
 70
     0
 10
0.0
 20
0.0
 11
1.0
 21
1.0
 12
154.0605508488398
 22
152.0480634618103
 13
0.0
 23
0.0
 14
0.5
 24
0.5
 15
0.5
 25
0.5
 16
0.0
 26
0.0
 36
1.0
 17
0.0
 27
0.0
 37
0.0
 40
346.7292173837835
 41
1.091073453051111
 42
50.0
 43
0.0
 44
0.0
 50
0.0
 51
0.0
 71
     0
 72
   100
 73
     1
 74
     3
 75
     0
 76
     0
 77
     0
 78
     0
281
     0
 65
     1
110
0.0
120
0.0
130
0.0
111
1.0
121
0.0
131
0.0
112
0.0
122
1.0
132
0.0
 79
     0
146
0.0
  0
ENDTAB
  0
TABLE
  2
LTYPE
  5
5
330
0
100
AcDbSymbolTable
 70
     1
  0
LTYPE
  5
14
330
5
100
AcDbSymbolTableRecord
100
AcDbLinetypeTableRecord
  2
ByBlock
 70
     0
  3

 72
    65
 73
     0
 40
0.0
  0
LTYPE
  5
15
330
5
100
AcDbSymbolTableRecord
100
AcDbLinetypeTableRecord
  2
ByLayer
 70
     0
  3

 72
    65
 73
     0
 40
0.0
  0
LTYPE
  5
16
330
5
100
AcDbSymbolTableRecord
100
AcDbLinetypeTableRecord
  2
Continuous
 70
     0
  3
Solid line
 72
    65
 73
     0
 40
0.0
  0
ENDTAB
  0
TABLE
  2
LAYER
  5
2
330
0
100
AcDbSymbolTable
 70
     2
  0
LAYER
  5
10
330
2
100
AcDbSymbolTableRecord
100
AcDbLayerTableRecord
  2
0
 70
     0
 62
     7
  6
Continuous
370
    -3
390
F
  0
LAYER
  5
3B
330
2
100
AcDbSymbolTableRecord
100
AcDbLayerTableRecord
  2
Default
 70
     0
 62
     7
  6
Continuous
370
    -3
390
F
  0
ENDTAB
  0
TABLE
  2
STYLE
  5
3
330
0
100
AcDbSymbolTable
 70
     1
  0
STYLE
  5
11
330
3
100
AcDbSymbolTableRecord
100
AcDbTextStyleTableRecord
  2
Standard
 70
     0
 40
0.0
 41
1.0
 50
0.0
 71
     0
 42
0.2
  3
txt
  4

  0
ENDTAB
  0
TABLE
  2
VIEW
  5
6
330
0
100
AcDbSymbolTable
 70
     0
  0
ENDTAB
  0
TABLE
  2
UCS
  5
7
330
0
100
AcDbSymbolTable
 70
     0
  0
ENDTAB
  0
TABLE
  2
APPID
  5
9
330
0
100
AcDbSymbolTable
 70
     1
  0
APPID
  5
12
330
9
100
AcDbSymbolTableRecord
100
AcDbRegAppTableRecord
  2
ACAD
 70
     0
  0
ENDTAB
  0
TABLE
  2
DIMSTYLE
  5
A
330
0
100
AcDbSymbolTable
 70
     1
100
AcDbDimStyleTable
  0
DIMSTYLE
105
27
330
A
100
AcDbSymbolTableRecord
100
AcDbDimStyleTableRecord
  2
Standard
 70
     0
340
11
  0
ENDTAB
  0
TABLE
  2
BLOCK_RECORD
  5
1
330
0
100
AcDbSymbolTable
 70
     1
  0
BLOCK_RECORD
  5
1F
330
1
100
AcDbSymbolTableRecord
100
AcDbBlockTableRecord
  2
*Model_Space
340
22
  0
BLOCK_RECORD
  5
1B
330
1
100
AcDbSymbolTableRecord
100
AcDbBlockTableRecord
  2
*Paper_Space
340
1E
  0
BLOCK_RECORD
  5
23
330
1
100
AcDbSymbolTableRecord
100
AcDbBlockTableRecord
  2
*Paper_Space0
340
26
  0
ENDTAB
  0
ENDSEC
  0
SECTION
  2
BLOCKS
  0
BLOCK
  5
20
330
1F
100
AcDbEntity
  8
0
100
AcDbBlockBegin
  2
*Model_Space
 70
     0
 10
0.0
 20
0.0
 30
0.0
  3
*Model_Space
  1

  0
ENDBLK
  5
21
330
1F
100
AcDbEntity
  8
0
100
AcDbBlockEnd
  0
BLOCK
  5
1C
330
1B
100
AcDbEntity
 67
     1
  8
0
100
AcDbBlockBegin
  2
*Paper_Space
 70
     0
 10
0.0
 20
0.0
 30
0.0
  3
*Paper_Space
  1

  0
ENDBLK
  5
1D
330
1B
100
AcDbEntity
 67
     1
  8
0
100
AcDbBlockEnd
  0
BLOCK
  5
24
330
23
100
AcDbEntity
  8
0
100
AcDbBlockBegin
  2
*Paper_Space0
 70
     0
 10
0.0
 20
0.0
 30
0.0
  3
*Paper_Space0
  1

  0
ENDBLK
  5
25
330
23
100
AcDbEntity
  8
0
100
AcDbBlockEnd
  0
ENDSEC
  0
SECTION
  2
ENTITIES
  0
LINE
  5
3C
330
1F
100
AcDbEntity
  8
Default
100
AcDbLine
 10
0.5190295594427037
 20
9.91303498811477
 30
29.47905152148283
 11
7.315770742471345
 21
12.57994759738545
 31
7.025280496674565
  0
LINE
  5
3D
330
1F
100
AcDbEntity
  8
Default
100
AcDbLine
 10
-4.513915700646207
 20
7.945744256641019
 30
52.47742760742142
 11
0.5190295594427035
 21
9.913034988114772
 31
29.47905152148283
  0
LINE
  5
3E
330
1F
100
AcDbEntity
  8
Default
100
AcDbLine
 10
-7.792057853351802
 20
6.670497830651965
 30
75.84895700896762
 11
-4.513915700646207
 21
7.945744256641019
 31
52.47742760742142
  0
LINE
  5
3F
330
1F
100
AcDbEntity
  8
Default
100
AcDbLine
 10
-9.321263627116148
 20
6.080996491686837
 30
99.43295030156195
 11
-7.792057853351802
 21
6.670497830651966
 31
75.84895700896762
  0
LINE
  5
40
330
1F
100
AcDbEntity
  8
Default
100
AcDbLine
 10
-9.101162268813095
 20
6.173370679464979
 30
123.07469445435
 11
-9.321263627116146
 21
6.080996491686836
 31
99.43295030156195
  0
LINE
  5
41
330
1F
100
AcDbEntity
  8
Default
100
AcDbLine
 10
-7.123893492623922
 20
6.946673598629165
 30
146.6201057383907
 11
-9.101162268813095
 21
6.173370679464979
 31
123.07469445435
  0
LINE
  5
42
330
1F
100
AcDbEntity
  8
Default
100
AcDbLine
 10
-3.375309679053837
 20
8.402679997651399
 30
169.9109748354678
 11
-7.123893492623925
 21
6.946673598629165
 31
146.6201057383907
  0
LINE
  5
43
330
1F
100
AcDbEntity
  8
Default
100
AcDbLine
 10
2.115711343370414
 20
10.53964060359394
 30
192.7996357506636
 11
-3.375309679053835
 21
8.402679997651399
 31
169.9109748354678
  0
LINE
  5
44
330
1F
100
AcDbEntity
  8
Default
100
AcDbLine
 10
9.24051604639824
 20
13.34192689142915
 30
215.1658819371185
 11
2.115711343370415
 21
10.53964060359394
 31
192.7996357506636
  0
LINE
  5
45
330
1F
100
AcDbEntity
  8
Default
100
AcDbLine
 10
17.86328120697905
 20
16.78342386814581
 30
236.9167733404969
 11
9.240516046398241
 21
13.34192689142915
 31
215.1658819371185
  0
LINE
  5
46
330
1F
100
AcDbEntity
  8
Default
100
AcDbLine
 10
27.97004786755388
 20
20.8566624675685
 30
257.8368373195466
 11
17.86328120697904
 21
16.78342386814581
 31
236.9167733404969
  0
LINE
  5
47
330
1F
100
AcDbEntity
  8
Default
100
AcDbLine
 10
40.07899034340498
 20
25.67167398320958
 30
277.3248214334088
 11
27.9700478675539
 21
20.85666246756851
 31
257.8368373195466
  0
LINE
  5
48
330
1F
100
AcDbEntity
  8
Default
100
AcDbLine
 10
54.78079487134598
 20
31.34355515813551
 30
294.4401366106861
 11
40.07899034340497
 21
25.67167398320958
 31
277.3248214334088
  0
LINE
  5
49
330
1F
100
AcDbEntity
  8
Default
100
AcDbLine
 10
72.11215570040297
 20
37.92859019639777
 30
308.5170526737202
 11
54.78079487134598
 21
31.3435551581355
 31
294.4401366106861
  0
LINE
  5
4A
330
1F
100
AcDbEntity
  8
Default
100
AcDbLine
 10
90.07718735606123
 20
45.50699872574181
 30
321.4842724960166
 11
72.11215570040298
 21
37.92859019639778
 31
308.5170526737202
  0
LINE
  5
4B
330
1F
100
AcDbEntity
  8
Default
100
AcDbLine
 10
106.1212623338015
 20
54.59838903462137
 30
333.8248934635031
 11
90.07718735606123
 21
45.50699872574182
 31
321.4842724960166
  0
LINE
  5
4C
330
1F
100
AcDbEntity
  8
Default
100
AcDbLine
 10
120.4675080324561
 20
66.94540351451167
 30
344.736206224578
 11
106.1212623338015
 21
54.59838903462137
 31
333.8248934635031
  0
LINE
  5
4D
330
1F
100
AcDbEntity
  8
Default
100
AcDbLine
 10
132.9018456021404
 20
82.23677001736777
 30
354.2127563472011
 11
120.4675080324561
 21
66.94540351451165
 31
344.7362062245781
  0
LINE
  5
4E
330
1F
100
AcDbEntity
  8
Default
100
AcDbLine
 10
142.8625018462145
 20
100.052456570895
 30
361.8186171973015
 11
132.9018456021404
 21
82.23677001736777
 31
354.2127563472011
  0
LINE
  5
4F
330
1F
100
AcDbEntity
  8
Default
100
AcDbLine
 10
149.9930781878324
 20
119.6898779011697
 30
367.1675496961207
 11
142.8625018462145
 21
100.0524565708951
 31
361.8186171973014
  0
LINE
  5
50
330
1F
100
AcDbEntity
  8
Default
100
AcDbLine
 10
153.4758193747379
 20
141.1397212435818
 30
370.3604650206173
 11
149.9930781878324
 21
119.6898779011697
 31
367.1675496961208
  0
LINE
  5
51
330
1F
100
AcDbEntity
  8
Default
100
AcDbLine
 10
157.9124783045565
 20
164.2615302672412
 30
370.1981483852168
 11
153.4758193747379
 21
141.1397212435818
 31
370.3604650206173
  0
LINE
  5
52
330
1F
100
AcDbEntity
  8
Default
100
AcDbLine
 10
165.0749243275361
 20
186.1605224298823
 30
366.0855468960794
 11
157.9124783045565
 21
164.2615302672412
 31
370.1981483852168
  0
LINE
  5
53
330
1F
100
AcDbEntity
  8
Default
100
AcDbLine
 10
173.4332694692985
 20
206.3950918964284
 30
358.6745138626061
 11
165.0749243275361
 21
186.1605224298823
 31
366.0855468960794
  0
LINE
  5
54
330
1F
100
AcDbEntity
  8
Default
100
AcDbLine
 10
182.2537864872342
 20
225.1021312676443
 30
348.2810065766889
 11
173.4332694692985
 21
206.3950918964284
 31
358.6745138626061
  0
LINE
  5
55
330
1F
100
AcDbEntity
  8
Default
100
AcDbLine
 10
191.5547409669966
 20
242.0015681513097
 30
335.2210253733736
 11
182.2537864872342
 21
225.1021312676443
 31
348.2810065766889
  0
LINE
  5
56
330
1F
100
AcDbEntity
  8
Default
100
AcDbLine
 10
201.3353960525036
 20
256.7422057090077
 30
319.9135810774188
 11
191.5547409669966
 21
242.0015681513097
 31
335.2210253733736
  0
LINE
  5
57
330
1F
100
AcDbEntity
  8
Default
100
AcDbLine
 10
211.3880694245415
 20
269.1931835485176
 30
302.8105570180732
 11
201.3353960525036
 21
256.7422057090077
 31
319.9135810774188
  0
LINE
  5
58
330
1F
100
AcDbEntity
  8
Default
100
AcDbLine
 10
221.4950487871247
 20
279.3779079643935
 30
284.2763186641038
 11
211.3880694245415
 21
269.1931835485176
 31
302.8105570180732
  0
LINE
  5
59
330
1F
100
AcDbEntity
  8
Default
100
AcDbLine
 10
231.5073347399144
 20
287.3300153304056
 30
264.5961167980949
 11
221.4950487871247
 21
279.3779079643935
 31
284.2763186641038
  0
LINE
  5
5A
330
1F
100
AcDbEntity
  8
Default
100
AcDbLine
 10
241.3353403790296
 20
293.0719652908255
 30
244.0338483730212
 11
231.5073347399144
 21
287.3300153304056
 31
264.5961167980949
  0
LINE
  5
5B
330
1F
100
AcDbEntity
  8
Default
100
AcDbLine
 10
250.903140736164
 20
296.6375143447951
 30
222.8366260813519
 11
241.3353403790296
 21
293.0719652908255
 31
244.0338483730212
  0
LINE
  5
5C
330
1F
100
AcDbEntity
  8
Default
100
AcDbLine
 10
260.1309448114602
 20
298.0569343858917
 30
201.2285370733536
 11
250.9031407361639
 21
296.6375143447951
 31
222.8366260813519
  0
LINE
  5
5D
330
1F
100
AcDbEntity
  8
Default
100
AcDbLine
 10
268.9415653758074
 20
297.3622292241529
 30
179.4050265100178
 11
260.1309448114602
 21
298.0569343858917
 31
201.2285370733536
  0
LINE
  5
5E
330
1F
100
AcDbEntity
  8
Default
100
AcDbLine
 10
277.2612368992662
 20
294.5856875445774
 30
157.5540204878247
 11
268.9415653758074
 21
297.3622292241529
 31
179.4050265100178
  0
LINE
  5
5F
330
1F
100
AcDbEntity
  8
Default
100
AcDbLine
 10
285.0120672796265
 20
289.7325138110482
 30
135.8669042255553
 11
277.2612368992662
 21
294.5856875445774
 31
157.5540204878247
  0
LINE
  5
60
330
1F
100
AcDbEntity
  8
Default
100
AcDbLine
 10
292.1109197150819
 20
282.7925168249774
 30
114.5429547034877
 11
285.0120672796265
 21
289.7325138110482
 31
135.8669042255553
  0
LINE
  5
61
330
1F
100
AcDbEntity
  8
Default
100
AcDbLine
 10
298.473404385922
 20
273.7651784908709
 30
93.78954592785742
 11
292.1109197150819
 21
282.7925168249774
 31
114.5429547034877
  0
LINE
  5
62
330
1F
100
AcDbEntity
  8
Default
100
AcDbLine
 10
304.0261856904635
 20
262.6993436130493
 30
73.8134107889767
 11
298.473404385922
 21
273.7651784908709
 31
93.78954592785745
  0
LINE
  5
63
330
1F
100
AcDbEntity
  8
Default
100
AcDbLine
 10
308.7015922347177
 20
249.6795961923827
 30
54.82767090374016
 11
304.0261856904635
 21
262.6993436130493
 31
73.81341078897668
  0
LINE
  5
64
330
1F
100
AcDbEntity
  8
Default
100
AcDbLine
 10
312.3644045021396
 20
234.7473638212713
 30
37.18496997296757
 11
308.7015922347177
 21
249.6795961923827
 31
54.82767090374016
  0
LINE
  5
65
330
1F
100
AcDbEntity
  8
Default
100
AcDbLine
 10
314.7422100602864
 20
217.7685015066899
 30
21.46927875282567
 11
312.3644045021396
 21
234.7473638212713
 31
37.18496997296759
  0
LINE
  5
66
330
1F
100
AcDbEntity
  8
Default
100
AcDbLine
 10
315.5127279711323
 20
198.7095336039382
 30
8.444926357941037
 11
314.7422100602864
 21
217.7685015066899
 31
21.46927875282567
  0
LINE
  5
67
330
1F
100
AcDbEntity
  8
Default
100
AcDbLine
 10
326.2919191719377
 20
204.4784573357664
 30
39.30516234343902
 11
326.9766618636077
 21
187.6550189910565
 31
27.79733510903218
  0
LINE
  5
68
330
1F
100
AcDbEntity
  8
Default
100
AcDbLine
 10
324.1394906505517
 20
219.8204490310235
 30
53.51513712241604
 11
326.2919191719377
 21
204.4784573357664
 31
39.30516234343902
  0
LINE
  5
69
330
1F
100
AcDbEntity
  8
Default
100
AcDbLine
 10
320.758195620149
 20
233.5938943636316
 30
69.79524617730033
 11
324.1394906505517
 21
219.8204490310235
 31
53.51513712241604
  0
LINE
  5
6A
330
1F
100
AcDbEntity
  8
Default
100
AcDbLine
 10
316.3902670011198
 20
245.7559310782204
 30
87.53164912722009
 11
320.758195620149
 21
233.5938943636316
 31
69.79524617730033
  0
LINE
  5
6B
330
1F
100
AcDbEntity
  8
Default
100
AcDbLine
 10
311.1952937301085
 20
256.1081153031275
 30
106.2202116053295
 11
316.3902670011198
 21
245.7559310782204
 31
87.53164912722008
  0
LINE
  5
6C
330
1F
100
AcDbEntity
  8
Default
100
AcDbLine
 10
305.2369703739182
 20
264.561551094732
 30
125.6550418490716
 11
311.1952937301085
 21
256.1081153031275
 31
106.2202116053295
  0
LINE
  5
6D
330
1F
100
AcDbEntity
  8
Default
100
AcDbLine
 10
298.5771906532671
 20
271.0716055037987
 30
145.6596427134916
 11
305.2369703739182
 21
264.561551094732
 31
125.6550418490716
  0
LINE
  5
6E
330
1F
100
AcDbEntity
  8
Default
100
AcDbLine
 10
291.2902449267912
 20
275.6339061382935
 30
166.0485312670775
 11
298.5771906532671
 21
271.0716055037987
 31
145.6596427134916
  0
LINE
  5
6F
330
1F
100
AcDbEntity
  8
Default
100
AcDbLine
 10
283.4578546165283
 20
278.2476846582342
 30
186.619687333924
 11
291.2902449267912
 21
275.6339061382935
 31
166.0485312670775
  0
LINE
  5
70
330
1F
100
AcDbEntity
  8
Default
100
AcDbLine
 10
275.1658162817641
 20
278.9016580017053
 30
207.1587836621257
 11
283.4578546165283
 21
278.2476846582342
 31
186.619687333924
  0
LINE
  5
71
330
1F
100
AcDbEntity
  8
Default
100
AcDbLine
 10
266.4924692692597
 20
277.5677182374315
 30
227.4686354075036
 11
275.1658162817641
 21
278.9016580017053
 31
207.1587836621257
  0
LINE
  5
72
330
1F
100
AcDbEntity
  8
Default
100
AcDbLine
 10
257.5151994460215
 20
274.2224506758359
 30
247.3576650704858
 11
266.4924692692597
 21
277.5677182374315
 31
227.4686354075037
  0
LINE
  5
73
330
1F
100
AcDbEntity
  8
Default
100
AcDbLine
 10
248.3148062791769
 20
268.8474586334744
 30
266.607036112333
 11
257.5151994460215
 21
274.2224506758359
 31
247.3576650704858
  0
LINE
  5
74
330
1F
100
AcDbEntity
  8
Default
100
AcDbLine
 10
238.969527084744
 20
261.4254040838219
 30
284.9763263289655
 11
248.3148062791769
 21
268.8474586334744
 31
266.607036112333
  0
LINE
  5
75
330
1F
100
AcDbEntity
  8
Default
100
AcDbLine
 10
229.5763344830419
 20
251.9607585997623
 30
302.2019991867883
 11
238.969527084744
 21
261.4254040838219
 31
284.9763263289655
  0
LINE
  5
76
330
1F
100
AcDbEntity
  8
Default
100
AcDbLine
 10
220.3147762290131
 20
240.4908764274815
 30
317.9598096512554
 11
229.5763344830419
 21
251.9607585997623
 31
302.2019991867883
  0
LINE
  5
77
330
1F
100
AcDbEntity
  8
Default
100
AcDbLine
 10
211.4013764497887
 20
227.0586083432759
 30
331.9106159915247
 11
220.3147762290131
 21
240.4908764274815
 31
317.9598096512555
  0
LINE
  5
78
330
1F
100
AcDbEntity
  8
Default
100
AcDbLine
 10
202.9293011519698
 20
211.6623319976087
 30
343.8049941754298
 11
211.4013764497887
 21
227.0586083432759
 31
331.9106159915247
  0
LINE
  5
79
330
1F
100
AcDbEntity
  8
Default
100
AcDbLine
 10
194.8356652090615
 20
194.4946565780303
 30
353.3400135188093
 11
202.9293011519698
 21
211.6623319976087
 31
343.8049941754298
  0
LINE
  5
7A
330
1F
100
AcDbEntity
  8
Default
100
AcDbLine
 10
187.2233977701987
 20
176.0748807210448
 30
360.0968280374757
 11
194.8356652090615
 21
194.4946565780303
 31
353.3400135188093
  0
LINE
  5
7B
330
1F
100
AcDbEntity
  8
Default
100
AcDbLine
 10
181.0967273549909
 20
157.3746667443483
 30
363.6253632167175
 11
187.2233977701987
 21
176.0748807210448
 31
360.0968280374757
  0
LINE
  5
7C
330
1F
100
AcDbEntity
  8
Default
100
AcDbLine
 10
177.5106753866118
 20
138.5847046219678
 30
363.7319369307216
 11
181.0967273549909
 21
157.3746667443483
 31
363.6253632167175
  0
LINE
  5
7D
330
1F
100
AcDbEntity
  8
Default
100
AcDbLine
 10
173.6423980519851
 20
115.2231265409121
 30
360.1748677831922
 11
177.5106753866118
 21
138.5847046219678
 31
363.7319369307216
  0
LINE
  5
7E
330
1F
100
AcDbEntity
  8
Default
100
AcDbLine
 10
165.4177350774834
 20
92.4194836448776
 30
353.9994755384928
 11
173.6423980519851
 21
115.2231265409121
 31
360.1748677831922
  0
LINE
  5
7F
330
1F
100
AcDbEntity
  8
Default
100
AcDbLine
 10
154.2375109010794
 20
72.42042406621286
 30
345.462411410819
 11
165.4177350774834
 21
92.4194836448776
 31
353.9994755384928
  0
LINE
  5
80
330
1F
100
AcDbEntity
  8
Default
100
AcDbLine
 10
140.2321019336073
 20
55.17525946295088
 30
334.7881242478925
 11
154.2375109010794
 21
72.42042406621286
 31
345.462411410819
  0
LINE
  5
81
330
1F
100
AcDbEntity
  8
Default
100
AcDbLine
 10
124.1657382675971
 20
41.33803540312313
 30
322.5687969851918
 11
140.2321019336073
 21
55.17525946295088
 31
334.7881242478925
  0
LINE
  5
82
330
1F
100
AcDbEntity
  8
Default
100
AcDbLine
 10
106.3355315423457
 20
31.21505104160806
 30
308.8531096912284
 11
124.1657382675971
 21
41.33803540312312
 31
322.5687969851918
  0
LINE
  5
83
330
1F
100
AcDbEntity
  8
Default
100
AcDbLine
 10
87.4740301717479
 20
23.24332080061996
 30
295.2318927730324
 11
106.3355315423457
 21
31.21505104160807
 31
308.8531096912284
  0
LINE
  5
84
330
1F
100
AcDbEntity
  8
Default
100
AcDbLine
 10
71.64727188744868
 20
17.22733207602552
 30
282.4237312809648
 11
87.47403017174791
 21
23.24332080061996
 31
295.2318927730324
  0
LINE
  5
85
330
1F
100
AcDbEntity
  8
Default
100
AcDbLine
 10
58.88436138480522
 20
12.30263513226209
 30
267.5387794202202
 11
71.64727188744867
 21
17.22733207602552
 31
282.4237312809648
  0
LINE
  5
86
330
1F
100
AcDbEntity
  8
Default
100
AcDbLine
 10
47.90669811759985
 20
7.937067365279604
 30
249.8522373115922
 11
58.88436138480522
 21
12.30263513226209
 31
267.5387794202202
  0
LINE
  5
87
330
1F
100
AcDbEntity
  8
Default
100
AcDbLine
 10
38.41454754774114
 20
4.111482676255457
 30
230.1931466177302
 11
47.90669811759985
 21
7.937067365279604
 31
249.8522373115922
  0
LINE
  5
88
330
1F
100
AcDbEntity
  8
Default
100
AcDbLine
 10
30.18896644444494
 20
0.8284532644671658
 30
209.4461615073533
 11
38.41454754774114
 21
4.111482676255459
 31
230.1931466177302
  0
LINE
  5
89
330
1F
100
AcDbEntity
  8
Default
100
AcDbLine
 10
23.41989599893641
 20
-1.833905558775288
 30
188.1988891138626
 11
30.18896644444494
 21
0.8284532644671658
 31
209.4461615073533
  0
LINE
  5
8A
330
1F
100
AcDbEntity
  8
Default
100
AcDbLine
 10
18.22216226822666
 20
-3.856731576132343
 30
166.5352035994715
 11
23.41989599893641
 21
-1.833905558775289
 31
188.1988891138626
  0
LINE
  5
8B
330
1F
100
AcDbEntity
  8
Default
100
AcDbLine
 10
14.68196121967783
 20
-5.231796355764393
 30
144.53939241775
 11
18.22216226822666
 21
-3.856731576132343
 31
166.5352035994715
  0
LINE
  5
8C
330
1F
100
AcDbEntity
  8
Default
100
AcDbLine
 10
12.81282304404757
 20
-5.962801853325512
 30
122.2807410244569
 11
14.68196121967783
 21
-5.231796355764392
 31
144.53939241775
  0
LINE
  5
8D
330
1F
100
AcDbEntity
  8
Default
100
AcDbLine
 10
12.60456194973083
 20
-6.050199157775018
 30
99.91467945257048
 11
12.81282304404757
 21
-5.962801853325512
 31
122.2807410244569
  0
LINE
  5
8E
330
1F
100
AcDbEntity
  8
Default
100
AcDbLine
 10
14.05122093573729
 20
-5.492536684578154
 30
77.60154401400375
 11
12.60456194973083
 21
-6.050199157775018
 31
99.91467945257048
  0
LINE
  5
8F
330
1F
100
AcDbEntity
  8
Default
100
AcDbLine
 10
17.15076272486632
 20
-4.286756225479891
 30
55.50190091046356
 11
14.0512209357373
 21
-5.492536684578154
 31
77.60154401400375
  0
LINE
  5
90
330
1F
100
AcDbEntity
  8
Default
100
AcDbLine
 10
21.90393156000902
 20
-2.428825651427355
 30
33.78070707104354
 11
17.15076272486632
 21
-4.286756225479891
 31
55.50190091046356
  0
LINE
  5
91
330
1F
100
AcDbEntity
  8
Default
100
AcDbLine
 10
28.31169718459267
 20
0.0854442164074958
 30
12.61082041565569
 11
21.90393156000901
 21
-2.428825651427355
 31
33.78070707104354
  0
LINE
  5
92
330
1F
100
AcDbEntity
  8
Default
100
AcDbLine
 10
338.6794504169183
 20
218.7859952445449
 30
22.87399602055566
 11
339.5051804981701
 21
198.285395478132
 31
8.871925875591215
  0
LINE
  5
93
330
1F
100
AcDbEntity
  8
Default
100
AcDbLine
 10
336.1563890014056
 20
236.8205495120219
 30
39.56054878209006
 11
338.6794504169183
 21
218.7859952445449
 31
22.87399602055567
  0
LINE
  5
94
330
1F
100
AcDbEntity
  8
Default
100
AcDbLine
 10
332.3120496551098
 20
252.5001851749189
 30
58.08198775854197
 11
336.1563890014056
 21
236.8205495120219
 31
39.56054878209005
  0
LINE
  5
95
330
1F
100
AcDbEntity
  8
Default
100
AcDbLine
 10
327.438433173997
 20
266.0732920971769
 30
77.87335406397848
 11
332.3120496551098
 21
252.5001851749189
 31
58.08198775854196
  0
LINE
  5
96
330
1F
100
AcDbEntity
  8
Default
100
AcDbLine
 10
321.6550426429776
 20
277.5992880058712
 30
98.67945921400056
 11
327.4384331739969
 21
266.0732920971769
 31
77.8733540639785
  0
LINE
  5
97
330
1F
100
AcDbEntity
  8
Default
100
AcDbLine
 10
315.0321984315083
 20
286.9965255996006
 30
120.2824052195898
 11
321.6550426429776
 21
277.5992880058712
 31
98.67945921400057
  0
LINE
  5
98
330
1F
100
AcDbEntity
  8
Default
100
AcDbLine
 10
307.6502962699784
 20
294.2138024860633
 30
142.456945195957
 11
315.0321984315083
 21
286.9965255996006
 31
120.2824052195898
  0
LINE
  5
99
330
1F
100
AcDbEntity
  8
Default
100
AcDbLine
 10
299.5998600094575
 20
299.2549538855141
 30
164.9826051025562
 11
307.6502962699784
 21
294.2138024860633
 31
142.456945195957
  0
LINE
  5
9A
330
1F
100
AcDbEntity
  8
Default
100
AcDbLine
 10
290.9649164161386
 20
302.1369683883881
 30
187.6617737429093
 11
299.5998600094575
 21
299.2549538855142
 31
164.9826051025562
  0
LINE
  5
9B
330
1F
100
AcDbEntity
  8
Default
100
AcDbLine
 10
281.8201486102098
 20
302.8580897167335
 30
210.3129933622811
 11
290.9649164161386
 21
302.1369683883881
 31
187.6617737429093
  0
LINE
  5
9C
330
1F
100
AcDbEntity
  8
Default
100
AcDbLine
 10
272.2375387733631
 20
301.3841155372423
 30
232.75192927945
 11
281.8201486102098
 21
302.8580897167334
 31
210.3129933622811
  0
LINE
  5
9D
330
1F
100
AcDbEntity
  8
Default
100
AcDbLine
 10
262.2934196993828
 20
297.6782624493537
 30
254.7828454280547
 11
272.237538773363
 21
301.3841155372423
 31
232.75192927945
  0
LINE
  5
9E
330
1F
100
AcDbEntity
  8
Default
100
AcDbLine
 10
252.0575105078081
 20
291.697794849889
 30
276.1983914879071
 11
262.2934196993828
 21
297.6782624493537
 31
254.7828454280547
  0
LINE
  5
9F
330
1F
100
AcDbEntity
  8
Default
100
AcDbLine
 10
241.6013975386502
 20
283.3929594406732
 30
296.7508567928223
 11
252.0575105078081
 21
291.697794849889
 31
276.1983914879071
  0
LINE
  5
A0
330
1F
100
AcDbEntity
  8
Default
100
AcDbLine
 10
231.0213034752534
 20
272.7315669644489
 30
316.1528193266859
 11
241.6013975386502
 21
283.3929594406732
 31
296.7508567928223
  0
LINE
  5
A1
330
1F
100
AcDbEntity
  8
Default
100
AcDbLine
 10
220.4847654658753
 20
259.6814695738514
 30
334.0791159774163
 11
231.0213034752534
 21
272.7315669644489
 31
316.1528193266859
  0
LINE
  5
A2
330
1F
100
AcDbEntity
  8
Default
100
AcDbLine
 10
210.2114472298279
 20
244.1983656866588
 30
350.1576043662728
 11
220.4847654658753
 21
259.6814695738514
 31
334.0791159774163
  0
LINE
  5
A3
330
1F
100
AcDbEntity
  8
Default
100
AcDbLine
 10
200.3631390927135
 20
226.3022637868505
 30
363.9848605669285
 11
210.2114472298279
 21
244.1983656866588
 31
350.1576043662728
  0
LINE
  5
A4
330
1F
100
AcDbEntity
  8
Default
100
AcDbLine
 10
190.9081945761374
 20
206.2482281907808
 30
375.1246027244432
 11
200.3631390927135
 21
226.3022637868505
 31
363.9848605669285
  0
LINE
  5
A5
330
1F
100
AcDbEntity
  8
Default
100
AcDbLine
 10
181.9235716906007
 20
184.5043704582944
 30
383.0967268281742
 11
190.9081945761374
 21
206.2482281907808
 31
375.1246027244432
  0
LINE
  5
A6
330
1F
100
AcDbEntity
  8
Default
100
AcDbLine
 10
174.4133373553035
 20
161.5602246840579
 30
387.4151341473543
 11
181.9235716906007
 21
184.5043704582944
 31
383.0967268281742
  0
LINE
  5
A7
330
1F
100
AcDbEntity
  8
Default
100
AcDbLine
 10
169.8335326441346
 20
137.6455090650669
 30
387.5713830044937
 11
174.4133373553035
 21
161.5602246840579
 31
387.4151341473543
  0
LINE
  5
A8
330
1F
100
AcDbEntity
  8
Default
100
AcDbLine
 10
165.6789073122403
 20
112.2914048700774
 30
383.7572260488431
 11
169.8335326441346
 21
137.6455090650669
 31
387.5713830044937
  0
LINE
  5
A9
330
1F
100
AcDbEntity
  8
Default
100
AcDbLine
 10
156.993583161092
 20
88.28230512529079
 30
377.2386066856203
 11
165.6789073122403
 21
112.2914048700774
 31
383.7572260488431
  0
LINE
  5
AA
330
1F
100
AcDbEntity
  8
Default
100
AcDbLine
 10
145.0394356997738
 20
66.89000548256719
 30
368.1108038696129
 11
156.993583161092
 21
88.2823051252908
 31
377.2386066856203
  0
LINE
  5
AB
330
1F
100
AcDbEntity
  8
Default
100
AcDbLine
 10
130.2267560419063
 20
48.65035224136854
 30
356.8212456205878
 11
145.0394356997738
 21
66.89000548256719
 31
368.1108038696129
  0
LINE
  5
AC
330
1F
100
AcDbEntity
  8
Default
100
AcDbLine
 10
113.0944280242408
 20
33.90888511386348
 30
343.7908047498144
 11
130.2267560419063
 21
48.65035224136854
 31
356.8212456205878
  0
LINE
  5
AD
330
1F
100
AcDbEntity
  8
Default
100
AcDbLine
 10
94.48309704234178
 20
23.30829217261631
 30
329.4720999356001
 11
113.0944280242408
 21
33.90888511386349
 31
343.7908047498144
  0
LINE
  5
AE
330
1F
100
AcDbEntity
  8
Default
100
AcDbLine
 10
75.6289907796848
 20
15.35212060395174
 30
315.8610905117554
 11
94.48309704234177
 21
23.3082921726163
 31
329.4720999356001
  0
LINE
  5
AF
330
1F
100
AcDbEntity
  8
Default
100
AcDbLine
 10
57.25569927170463
 20
8.371475428966813
 30
300.9330867202899
 11
75.6289907796848
 21
15.35212060395174
 31
315.8610905117554
  0
LINE
  5
B0
330
1F
100
AcDbEntity
  8
Default
100
AcDbLine
 10
41.66080808486944
 20
2.355351933503628
 30
282.788060281124
 11
57.25569927170464
 21
8.371475428966814
 31
300.9330867202899
  0
LINE
  5
B1
330
1F
100
AcDbEntity
  8
Default
100
AcDbLine
 10
28.9913961546323
 20
-2.682374968360309
 30
262.405268589296
 11
41.66080808486945
 21
2.355351933503633
 31
282.788060281124
  0
LINE
  5
B2
330
1F
100
AcDbEntity
  8
Default
100
AcDbLine
 10
18.53672323273898
 20
-6.895802729215791
 30
240.769136717535
 11
28.99139615463229
 21
-2.682374968360312
 31
262.405268589296
  0
LINE
  5
B3
330
1F
100
AcDbEntity
  8
Default
100
AcDbLine
 10
9.66217677421616
 20
-10.43776667004361
 30
218.3827711725552
 11
18.53672323273898
 21
-6.895802729215793
 31
240.769136717535
  0
LINE
  5
B4
330
1F
100
AcDbEntity
  8
Default
100
AcDbLine
 10
2.324217088708625
 20
-13.32390197319304
 30
195.346763749025
 11
9.66217677421616
 21
-10.43776667004361
 31
218.3827711725552
  0
LINE
  5
B5
330
1F
100
AcDbEntity
  8
Default
100
AcDbLine
 10
-3.333406251326347
 20
-15.52569903776703
 30
171.7632493399873
 11
2.324217088708629
 21
-13.32390197319304
 31
195.346763749025
  0
LINE
  5
B6
330
1F
100
AcDbEntity
  8
Default
100
AcDbLine
 10
-7.195491527230994
 20
-17.02579246094099
 30
147.7671649104467
 11
-3.333406251326345
 21
-15.52569903776703
 31
171.7632493399873
  0
LINE
  5
B7
330
1F
100
AcDbEntity
  8
Default
100
AcDbLine
 10
-9.231707855483478
 20
-17.82215424146667
 30
123.5193759344565
 11
-7.195491527230995
 21
-17.02579246094099
 31
147.7671649104467
  0
LINE
  5
B8
330
1F
100
AcDbEntity
  8
Default
100
AcDbLine
 10
-9.4582532236436
 20
-17.91723917729924
 30
99.17620407228465
 11
-9.231707855483478
 21
-17.82215424146667
 31
123.5193759344565
  0
LINE
  5
B9
330
1F
100
AcDbEntity
  8
Default
100
AcDbLine
 10
-7.883307128945826
 20
-17.31009537668793
 30
74.8883202442185
 11
-9.4582532236436
 21
-17.91723917729924
 31
99.17620407228466
  0
LINE
  5
BA
330
1F
100
AcDbEntity
  8
Default
100
AcDbLine
 10
-4.505463615857958
 20
-15.99607018243037
 30
50.80726296663408
 11
-7.883307128945826
 21
-17.31009537668793
 31
74.8883202442185
  0
LINE
  5
BB
330
1F
100
AcDbEntity
  8
Default
100
AcDbLine
 10
0.6846890943224715
 20
-13.96732937354535
 30
27.09142615873073
 11
-4.505463615857957
 21
-15.99607018243037
 31
50.80726296663408
  0
LINE
  5
BC
330
1F
100
AcDbEntity
  8
Default
100
AcDbLine
 10
7.701410654013041
 20
-11.21409147748824
 30
3.911603191299073
 11
0.684689094322473
 21
-13.96732937354535
 31
27.09142615873072
  0
LINE
  5
BD
330
1F
100
AcDbEntity
  8
Default
100
AcDbLine
 10
276.448627175418
 20
321.2515129543069
 30
180.4471129190032
 11
285.5708519819327
 21
318.206735291798
 31
156.4880943233035
  0
LINE
  5
BE
330
1F
100
AcDbEntity
  8
Default
100
AcDbLine
 10
327.1297413052672
 20
232.0760394154684
 30
5.038112429942369
 11
328.0412466056949
 21
209.3399100910136
 31
-10.48048287549987
  0
LINE
  5
BF
330
1F
100
AcDbEntity
  8
Default
100
AcDbLine
 10
324.3813028529938
 20
251.7474643022697
 30
23.23038163264165
 11
327.1297413052673
 21
232.0760394154684
 31
5.038112429942366
  0
LINE
  5
C0
330
1F
100
AcDbEntity
  8
Default
100
AcDbLine
 10
320.2554462696787
 20
268.58588700367
 30
43.11441248498186
 11
324.3813028529937
 21
251.7474643022697
 31
23.23038163264164
  0
LINE
  5
C1
330
1F
100
AcDbEntity
  8
Default
100
AcDbLine
 10
315.0743518633409
 20
283.0167046320058
 30
64.15511572573516
 11
320.2554462696787
 21
268.58588700367
 31
43.11441248498186
  0
LINE
  5
C2
330
1F
100
AcDbEntity
  8
Default
100
AcDbLine
 10
308.9331532987914
 20
295.2563511936146
 30
86.24879353652858
 11
315.074351863341
 21
283.0167046320058
 31
64.15511572573517
  0
LINE
  5
C3
330
1F
100
AcDbEntity
  8
Default
100
AcDbLine
 10
301.9061477726723
 20
305.2274913298461
 30
109.170318074006
 11
308.9331532987914
 21
295.2563511936147
 31
86.24879353652855
  0
LINE
  5
C4
330
1F
100
AcDbEntity
  8
Default
100
AcDbLine
 10
294.0851728963382
 20
312.8747107933128
 30
132.6642067080208
 11
301.9061477726724
 21
305.2274913298461
 31
109.170318074006
  0
LINE
  5
C5
330
1F
100
AcDbEntity
  8
Default
100
AcDbLine
 10
285.5708519819327
 20
318.206735291798
 30
156.4880943233035
 11
294.0851728963382
 21
312.8747107933128
 31
132.6642067080208
  0
LINE
  5
C6
330
1F
100
AcDbEntity
  8
Default
100
AcDbLine
 10
266.7852771399062
 20
322.0133661009199
 30
204.382746773509
 11
276.448627175418
 21
321.2515129543069
 31
180.4471129190032
  0
LINE
  5
C7
330
1F
100
AcDbEntity
  8
Default
100
AcDbLine
 10
256.6482102402676
 20
320.453911644606
 30
228.1199199532984
 11
266.7852771399061
 21
322.0133661009199
 31
204.382746773509
  0
LINE
  5
C8
330
1F
100
AcDbEntity
  8
Default
100
AcDbLine
 10
246.1135606323912
 20
316.5277770643434
 30
251.4590287305903
 11
256.6482102402676
 21
320.453911644606
 31
228.1199199532984
  0
LINE
  5
C9
330
1F
100
AcDbEntity
  8
Default
100
AcDbLine
 10
235.2500389685459
 20
310.1803515468202
 30
274.1874721736692
 11
246.1135606323912
 21
316.5277770643434
 31
251.4590287305904
  0
LINE
  5
CA
330
1F
100
AcDbEntity
  8
Default
100
AcDbLine
 10
224.1269192410311
 20
301.3454633212447
 30
296.0508491279608
 11
235.2500389685459
 21
310.1803515468202
 31
274.1874721736692
  0
LINE
  5
CB
330
1F
100
AcDbEntity
  8
Default
100
AcDbLine
 10
212.8330384167533
 20
289.9639919132042
 30
316.7613771579709
 11
224.1269192410311
 21
301.3454633212447
 31
296.0508491279608
  0
LINE
  5
CC
330
1F
100
AcDbEntity
  8
Default
100
AcDbLine
 10
201.505385289366
 20
275.9327988553776
 30
336.0328874035798
 11
212.8330384167533
 21
289.9639919132042
 31
316.7613771579709
  0
LINE
  5
CD
330
1F
100
AcDbEntity
  8
Default
100
AcDbLine
 10
190.364811747036
 20
259.1413254946926
 30
353.4680137481219
 11
201.5053852893659
 21
275.9327988553776
 31
336.0328874035798
  0
LINE
  5
CE
330
1F
100
AcDbEntity
  8
Default
100
AcDbLine
 10
179.6876244279781
 20
239.7420630568862
 30
368.4608729681877
 11
190.364811747036
 21
259.1413254946926
 31
353.4680137481219
  0
LINE
  5
CF
330
1F
100
AcDbEntity
  8
Default
100
AcDbLine
 10
169.5057988363747
 20
218.148663509179
 30
380.4591030682402
 11
179.6876244279781
 21
239.7420630568862
 31
368.4608729681877
  0
LINE
  5
D0
330
1F
100
AcDbEntity
  8
Default
100
AcDbLine
 10
151.2290883048692
 20
168.4470882069507
 30
393.9879193158537
 11
159.7750982479383
 21
194.5900121671319
 31
389.0854456867781
  0
LINE
  5
D1
330
1F
100
AcDbEntity
  8
Default
100
AcDbLine
 10
145.7986766322609
 20
140.2005256866809
 30
394.1999110943895
 11
151.2290883048692
 21
168.4470882069507
 31
393.9879193158537
  0
LINE
  5
D2
330
1F
100
AcDbEntity
  8
Default
100
AcDbLine
 10
159.7750982479383
 20
194.5900121671319
 30
389.0854456867781
 11
169.5057988363747
 21
218.148663509179
 31
380.4591030682402
  0
LINE
  5
D3
330
1F
100
AcDbEntity
  8
Default
100
AcDbLine
 10
142.0295874480878
 20
116.7581562303348
 30
390.7499079617718
 11
145.7986766322609
 21
140.2005256866809
 31
394.1999110943895
  0
LINE
  5
D4
330
1F
100
AcDbEntity
  8
Default
100
AcDbLine
 10
134.4383499298232
 20
95.9152780513081
 30
385.057748344429
 11
142.0295874480877
 21
116.7581562303348
 31
390.7499079617718
  0
LINE
  5
D5
330
1F
100
AcDbEntity
  8
Default
100
AcDbLine
 10
123.703770400835
 20
76.70635143372193
 30
376.8611488059951
 11
134.4383499298232
 21
95.9152780513081
 31
385.057748344429
  0
LINE
  5
D6
330
1F
100
AcDbEntity
  8
Default
100
AcDbLine
 10
110.4621621407553
 20
60.42049629292913
 30
366.7693275972736
 11
123.703770400835
 21
76.70635143372192
 31
376.8611488059951
  0
LINE
  5
D7
330
1F
100
AcDbEntity
  8
Default
100
AcDbLine
 10
95.04995209044532
 20
47.16923874536148
 30
355.0469012281259
 11
110.4621621407553
 21
60.42049629292913
 31
366.7693275972736
  0
LINE
  5
D8
330
1F
100
AcDbEntity
  8
Default
100
AcDbLine
 10
78.22475285605744
 20
37.60023985674979
 30
342.1032627403884
 11
95.04995209044533
 21
47.16923874536148
 31
355.0469012281259
  0
LINE
  5
D9
330
1F
100
AcDbEntity
  8
Default
100
AcDbLine
 10
60.26711630833992
 20
30.03738999972929
 30
329.1462504124432
 11
78.22475285605742
 21
37.60023985674979
 31
342.1032627403884
  0
LINE
  5
DA
330
1F
100
AcDbEntity
  8
Default
100
AcDbLine
 10
40.389222255602
 20
22.48769851107653
 30
312.9494920500112
 11
60.26711630833992
 21
30.03738999972929
 31
329.1462504124432
  0
LINE
  5
DB
330
1F
100
AcDbEntity
  8
Default
100
AcDbLine
 10
22.85543704346924
 20
15.72439078445085
 30
292.5741022943126
 11
40.38922225560199
 21
22.48769851107653
 31
312.9494920500112
  0
LINE
  5
DC
330
1F
100
AcDbEntity
  8
Default
100
AcDbLine
 10
9.054745904586381
 20
10.23722013392832
 30
270.3898685972505
 11
22.85543704346926
 21
15.72439078445086
 31
292.5741022943126
  0
LINE
  5
DD
330
1F
100
AcDbEntity
  8
Default
100
AcDbLine
 10
-2.014543108023052
 20
5.776138462674298
 30
247.4927634403017
 11
9.054745904586376
 21
10.23722013392832
 31
270.3898685972505
  0
LINE
  5
DE
330
1F
100
AcDbEntity
  8
Default
100
AcDbLine
 10
-11.28627362383049
 20
2.075706956918106
 30
224.1024916023204
 11
-2.014543108023048
 21
5.7761384626743
 31
247.4927634403017
  0
LINE
  5
DF
330
1F
100
AcDbEntity
  8
Default
100
AcDbLine
 10
-18.97996756685732
 20
-0.9503558108240763
 30
199.9475103858259
 11
-11.28627362383049
 21
2.075706956918107
 31
224.1024916023204
  0
LINE
  5
E0
330
1F
100
AcDbEntity
  8
Default
100
AcDbLine
 10
-24.9308781986068
 20
-3.26628746398356
 30
175.1390205759836
 11
-18.97996756685732
 21
-0.9503558108240782
 31
199.9475103858259
  0
LINE
  5
E1
330
1F
100
AcDbEntity
  8
Default
100
AcDbLine
 10
-29.0013462395327
 20
-4.847322506547705
 30
149.8478782310874
 11
-24.9308781986068
 21
-3.26628746398356
 31
175.1390205759836
  0
LINE
  5
E2
330
1F
100
AcDbEntity
  8
Default
100
AcDbLine
 10
-31.1456931683441
 20
-5.68598170867645
 30
124.3133293643496
 11
-29.0013462395327
 21
-4.847322506547705
 31
149.8478782310874
  0
LINE
  5
E3
330
1F
100
AcDbEntity
  8
Default
100
AcDbLine
 10
-31.38407880049053
 20
-5.786043527837657
 30
98.69447492127611
 11
-31.1456931683441
 21
-5.68598170867645
 31
124.3133293643496
  0
LINE
  5
E4
330
1F
100
AcDbEntity
  8
Default
100
AcDbLine
 10
-29.72658591803487
 20
-5.147060861458081
 30
73.13573323918236
 11
-31.38407880049052
 21
-5.786043527837657
 31
98.69447492127611
  0
LINE
  5
E5
330
1F
100
AcDbEntity
  8
Default
100
AcDbLine
 10
-20.7002129062438
 20
-1.625468734003498
 30
22.78977060917001
 11
-26.17014204137044
 21
-3.763569700309731
 31
47.78278966359193
  0
LINE
  5
E6
330
1F
100
AcDbEntity
  8
Default
100
AcDbLine
 10
-26.17014204137044
 20
-3.763569700309731
 30
47.78278966359193
 11
-29.72658591803488
 21
-5.147060861458082
 31
73.13573323918237
  0
LINE
  5
E7
330
1F
100
AcDbEntity
  8
Default
100
AcDbLine
 10
-13.29451578810823
 20
1.280411903489448
 30
-1.673936727682071
 11
-20.7002129062438
 21
-1.625468734003498
 31
22.78977060917001
  0
LINE
  5
E8
330
1F
100
AcDbEntity
  8
Default
100
AcDbLine
 10
339.5051804981701
 20
198.285395478132
 30
8.871925875591216
 11
328.0412466056949
 21
209.3399100910136
 31
-10.48048287549986
  0
LINE
  5
E9
330
1F
100
AcDbEntity
  8
Default
100
AcDbLine
 10
326.9766618636077
 20
187.6550189910565
 30
27.79733510903217
 11
339.5051804981701
 21
198.285395478132
 31
8.87192587559122
  0
LINE
  5
EA
330
1F
100
AcDbEntity
  8
Default
100
AcDbLine
 10
315.5127279711323
 20
198.7095336039382
 30
8.444926357941037
 11
326.9766618636077
 21
187.6550189910565
 31
27.79733510903217
  0
LINE
  5
EB
330
1F
100
AcDbEntity
  8
Default
100
AcDbLine
 10
328.0412466056949
 20
209.3399100910136
 30
-10.48048287549987
 11
315.5127279711323
 21
198.7095336039382
 31
8.44492635794104
  0
LINE
  5
EC
330
1F
100
AcDbEntity
  8
Default
100
AcDbLine
 10
338.6794504169183
 20
218.7859952445449
 30
22.87399602055566
 11
327.1297413052672
 21
232.0760394154684
 31
5.038112429942373
  0
LINE
  5
ED
330
1F
100
AcDbEntity
  8
Default
100
AcDbLine
 10
326.2919191719377
 20
204.4784573357664
 30
39.30516234343902
 11
338.6794504169183
 21
218.7859952445449
 31
22.87399602055566
  0
LINE
  5
EE
330
1F
100
AcDbEntity
  8
Default
100
AcDbLine
 10
314.7422100602864
 20
217.7685015066899
 30
21.46927875282567
 11
326.2919191719377
 21
204.4784573357664
 31
39.305162343439
  0
LINE
  5
EF
330
1F
100
AcDbEntity
  8
Default
100
AcDbLine
 10
327.1297413052672
 20
232.0760394154684
 30
5.038112429942369
 11
314.7422100602863
 21
217.76850150669
 31
21.46927875282566
  0
LINE
  5
F0
330
1F
100
AcDbEntity
  8
Default
100
AcDbLine
 10
336.1563890014056
 20
236.8205495120219
 30
39.56054878209006
 11
324.3813028529938
 21
251.7474643022696
 31
23.23038163264165
  0
LINE
  5
F1
330
1F
100
AcDbEntity
  8
Default
100
AcDbLine
 10
324.1394906505517
 20
219.8204490310235
 30
53.51513712241604
 11
336.1563890014056
 21
236.8205495120219
 31
39.56054878209006
  0
LINE
  5
F2
330
1F
100
AcDbEntity
  8
Default
100
AcDbLine
 10
312.3644045021396
 20
234.7473638212713
 30
37.18496997296757
 11
324.1394906505517
 21
219.8204490310235
 31
53.51513712241604
  0
LINE
  5
F3
330
1F
100
AcDbEntity
  8
Default
100
AcDbLine
 10
324.3813028529938
 20
251.7474643022697
 30
23.23038163264165
 11
312.3644045021396
 21
234.7473638212713
 31
37.18496997296757
  0
LINE
  5
F4
330
1F
100
AcDbEntity
  8
Default
100
AcDbLine
 10
332.3120496551098
 20
252.5001851749189
 30
58.08198775854197
 11
320.2554462696787
 21
268.58588700367
 31
43.11441248498185
  0
LINE
  5
F5
330
1F
100
AcDbEntity
  8
Default
100
AcDbLine
 10
320.758195620149
 20
233.5938943636316
 30
69.79524617730033
 11
332.3120496551098
 21
252.5001851749189
 31
58.08198775854197
  0
LINE
  5
F6
330
1F
100
AcDbEntity
  8
Default
100
AcDbLine
 10
308.7015922347177
 20
249.6795961923827
 30
54.82767090374016
 11
320.758195620149
 21
233.5938943636316
 31
69.79524617730033
  0
LINE
  5
F7
330
1F
100
AcDbEntity
  8
Default
100
AcDbLine
 10
320.2554462696787
 20
268.58588700367
 30
43.11441248498186
 11
308.7015922347177
 21
249.6795961923827
 31
54.82767090374016
  0
LINE
  5
F8
330
1F
100
AcDbEntity
  8
Default
100
AcDbLine
 10
327.438433173997
 20
266.0732920971769
 30
77.87335406397848
 11
315.074351863341
 21
283.0167046320058
 31
64.15511572573516
  0
LINE
  5
F9
330
1F
100
AcDbEntity
  8
Default
100
AcDbLine
 10
316.3902670011198
 20
245.7559310782204
 30
87.53164912722009
 11
327.438433173997
 21
266.0732920971769
 31
77.87335406397847
  0
LINE
  5
FA
330
1F
100
AcDbEntity
  8
Default
100
AcDbLine
 10
304.0261856904635
 20
262.6993436130493
 30
73.8134107889767
 11
316.3902670011198
 21
245.7559310782204
 31
87.53164912722008
  0
LINE
  5
FB
330
1F
100
AcDbEntity
  8
Default
100
AcDbLine
 10
315.0743518633409
 20
283.0167046320058
 30
64.15511572573516
 11
304.0261856904634
 21
262.6993436130493
 31
73.8134107889767
  0
LINE
  5
FC
330
1F
100
AcDbEntity
  8
Default
100
AcDbLine
 10
321.6550426429776
 20
277.5992880058712
 30
98.67945921400056
 11
308.9331532987914
 21
295.2563511936146
 31
86.2487935365286
  0
LINE
  5
FD
330
1F
100
AcDbEntity
  8
Default
100
AcDbLine
 10
311.1952937301085
 20
256.1081153031275
 30
106.2202116053295
 11
321.6550426429776
 21
277.5992880058712
 31
98.67945921400056
  0
LINE
  5
FE
330
1F
100
AcDbEntity
  8
Default
100
AcDbLine
 10
298.473404385922
 20
273.7651784908709
 30
93.78954592785742
 11
311.1952937301085
 21
256.1081153031275
 31
106.2202116053295
  0
LINE
  5
FF
330
1F
100
AcDbEntity
  8
Default
100
AcDbLine
 10
308.9331532987914
 20
295.2563511936146
 30
86.24879353652858
 11
298.473404385922
 21
273.7651784908709
 31
93.78954592785742
  0
LINE
  5
100
330
1F
100
AcDbEntity
  8
Default
100
AcDbLine
 10
315.0321984315083
 20
286.9965255996006
 30
120.2824052195898
 11
301.9061477726723
 21
305.2274913298461
 31
109.170318074006
  0
LINE
  5
101
330
1F
100
AcDbEntity
  8
Default
100
AcDbLine
 10
305.2369703739182
 20
264.561551094732
 30
125.6550418490716
 11
315.0321984315083
 21
286.9965255996006
 31
120.2824052195898
  0
LINE
  5
102
330
1F
100
AcDbEntity
  8
Default
100
AcDbLine
 10
292.1109197150819
 20
282.7925168249774
 30
114.5429547034877
 11
305.2369703739182
 21
264.561551094732
 31
125.6550418490716
  0
LINE
  5
103
330
1F
100
AcDbEntity
  8
Default
100
AcDbLine
 10
301.9061477726723
 20
305.2274913298461
 30
109.170318074006
 11
292.1109197150818
 21
282.7925168249774
 31
114.5429547034877
  0
LINE
  5
104
330
1F
100
AcDbEntity
  8
Default
100
AcDbLine
 10
307.6502962699784
 20
294.2138024860633
 30
142.456945195957
 11
294.0851728963381
 21
312.8747107933128
 31
132.6642067080208
  0
LINE
  5
105
330
1F
100
AcDbEntity
  8
Default
100
AcDbLine
 10
298.5771906532671
 20
271.0716055037987
 30
145.6596427134916
 11
307.6502962699784
 21
294.2138024860633
 31
142.456945195957
  0
LINE
  5
106
330
1F
100
AcDbEntity
  8
Default
100
AcDbLine
 10
285.0120672796265
 20
289.7325138110482
 30
135.8669042255553
 11
298.5771906532671
 21
271.0716055037987
 31
145.6596427134916
  0
LINE
  5
107
330
1F
100
AcDbEntity
  8
Default
100
AcDbLine
 10
294.0851728963382
 20
312.8747107933128
 30
132.6642067080208
 11
285.0120672796265
 21
289.7325138110482
 31
135.8669042255553
  0
LINE
  5
108
330
1F
100
AcDbEntity
  8
Default
100
AcDbLine
 10
299.5998600094575
 20
299.2549538855141
 30
164.9826051025562
 11
285.5708519819327
 21
318.206735291798
 31
156.4880943233035
  0
LINE
  5
109
330
1F
100
AcDbEntity
  8
Default
100
AcDbLine
 10
291.2902449267912
 20
275.6339061382935
 30
166.0485312670775
 11
299.5998600094575
 21
299.2549538855141
 31
164.9826051025562
  0
LINE
  5
10A
330
1F
100
AcDbEntity
  8
Default
100
AcDbLine
 10
277.2612368992662
 20
294.5856875445774
 30
157.5540204878247
 11
291.2902449267912
 21
275.6339061382935
 31
166.0485312670775
  0
LINE
  5
10B
330
1F
100
AcDbEntity
  8
Default
100
AcDbLine
 10
285.5708519819327
 20
318.206735291798
 30
156.4880943233035
 11
277.2612368992662
 21
294.5856875445774
 31
157.5540204878247
  0
LINE
  5
10C
330
1F
100
AcDbEntity
  8
Default
100
AcDbLine
 10
290.9649164161386
 20
302.1369683883881
 30
187.6617737429093
 11
276.448627175418
 21
321.2515129543069
 31
180.4471129190032
  0
LINE
  5
10D
330
1F
100
AcDbEntity
  8
Default
100
AcDbLine
 10
283.4578546165283
 20
278.2476846582342
 30
186.619687333924
 11
290.9649164161386
 21
302.1369683883881
 31
187.6617737429093
  0
LINE
  5
10E
330
1F
100
AcDbEntity
  8
Default
100
AcDbLine
 10
268.9415653758074
 20
297.3622292241529
 30
179.4050265100178
 11
283.4578546165283
 21
278.2476846582342
 31
186.619687333924
  0
LINE
  5
10F
330
1F
100
AcDbEntity
  8
Default
100
AcDbLine
 10
276.448627175418
 20
321.2515129543069
 30
180.4471129190032
 11
268.9415653758074
 21
297.3622292241529
 31
179.4050265100178
  0
LINE
  5
110
330
1F
100
AcDbEntity
  8
Default
100
AcDbLine
 10
281.8201486102098
 20
302.8580897167335
 30
210.3129933622811
 11
266.7852771399062
 21
322.0133661009199
 31
204.382746773509
  0
LINE
  5
111
330
1F
100
AcDbEntity
  8
Default
100
AcDbLine
 10
275.1658162817641
 20
278.9016580017053
 30
207.1587836621257
 11
281.8201486102098
 21
302.8580897167335
 31
210.3129933622811
  0
LINE
  5
112
330
1F
100
AcDbEntity
  8
Default
100
AcDbLine
 10
260.1309448114602
 20
298.0569343858917
 30
201.2285370733536
 11
275.1658162817641
 21
278.9016580017053
 31
207.1587836621258
  0
LINE
  5
113
330
1F
100
AcDbEntity
  8
Default
100
AcDbLine
 10
266.7852771399062
 20
322.0133661009199
 30
204.382746773509
 11
260.1309448114602
 21
298.0569343858917
 31
201.2285370733536
  0
LINE
  5
114
330
1F
100
AcDbEntity
  8
Default
100
AcDbLine
 10
272.2375387733631
 20
301.3841155372423
 30
232.75192927945
 11
256.6482102402676
 21
320.453911644606
 31
228.1199199532984
  0
LINE
  5
115
330
1F
100
AcDbEntity
  8
Default
100
AcDbLine
 10
266.4924692692597
 20
277.5677182374315
 30
227.4686354075036
 11
272.2375387733631
 21
301.3841155372423
 31
232.75192927945
  0
LINE
  5
116
330
1F
100
AcDbEntity
  8
Default
100
AcDbLine
 10
250.903140736164
 20
296.6375143447951
 30
222.8366260813519
 11
266.4924692692597
 21
277.5677182374315
 31
227.4686354075036
  0
LINE
  5
117
330
1F
100
AcDbEntity
  8
Default
100
AcDbLine
 10
256.6482102402676
 20
320.453911644606
 30
228.1199199532984
 11
250.9031407361639
 21
296.6375143447951
 31
222.8366260813519
  0
LINE
  5
118
330
1F
100
AcDbEntity
  8
Default
100
AcDbLine
 10
262.2934196993828
 20
297.6782624493537
 30
254.7828454280547
 11
246.1135606323912
 21
316.5277770643434
 31
251.4590287305903
  0
LINE
  5
119
330
1F
100
AcDbEntity
  8
Default
100
AcDbLine
 10
257.5151994460215
 20
274.2224506758359
 30
247.3576650704858
 11
262.2934196993829
 21
297.6782624493537
 31
254.7828454280547
  0
LINE
  5
11A
330
1F
100
AcDbEntity
  8
Default
100
AcDbLine
 10
241.3353403790296
 20
293.0719652908255
 30
244.0338483730212
 11
257.5151994460215
 21
274.2224506758358
 31
247.3576650704858
  0
LINE
  5
11B
330
1F
100
AcDbEntity
  8
Default
100
AcDbLine
 10
246.1135606323912
 20
316.5277770643434
 30
251.4590287305903
 11
241.3353403790296
 21
293.0719652908255
 31
244.0338483730212
  0
LINE
  5
11C
330
1F
100
AcDbEntity
  8
Default
100
AcDbLine
 10
252.0575105078081
 20
291.697794849889
 30
276.1983914879071
 11
235.2500389685459
 21
310.1803515468202
 31
274.1874721736692
  0
LINE
  5
11D
330
1F
100
AcDbEntity
  8
Default
100
AcDbLine
 10
248.3148062791769
 20
268.8474586334744
 30
266.607036112333
 11
252.0575105078081
 21
291.697794849889
 31
276.1983914879071
  0
LINE
  5
11E
330
1F
100
AcDbEntity
  8
Default
100
AcDbLine
 10
231.5073347399144
 20
287.3300153304056
 30
264.5961167980949
 11
248.3148062791769
 21
268.8474586334744
 31
266.607036112333
  0
LINE
  5
11F
330
1F
100
AcDbEntity
  8
Default
100
AcDbLine
 10
235.2500389685459
 20
310.1803515468202
 30
274.1874721736692
 11
231.5073347399144
 21
287.3300153304056
 31
264.596116798095
  0
LINE
  5
120
330
1F
100
AcDbEntity
  8
Default
100
AcDbLine
 10
241.6013975386502
 20
283.3929594406732
 30
296.7508567928223
 11
224.1269192410311
 21
301.3454633212447
 31
296.0508491279608
  0
LINE
  5
121
330
1F
100
AcDbEntity
  8
Default
100
AcDbLine
 10
238.969527084744
 20
261.4254040838219
 30
284.9763263289655
 11
241.6013975386502
 21
283.3929594406732
 31
296.7508567928223
  0
LINE
  5
122
330
1F
100
AcDbEntity
  8
Default
100
AcDbLine
 10
221.4950487871247
 20
279.3779079643935
 30
284.2763186641038
 11
238.969527084744
 21
261.4254040838219
 31
284.9763263289655
  0
LINE
  5
123
330
1F
100
AcDbEntity
  8
Default
100
AcDbLine
 10
224.1269192410311
 20
301.3454633212447
 30
296.0508491279608
 11
221.4950487871247
 21
279.3779079643935
 31
284.2763186641038
  0
LINE
  5
124
330
1F
100
AcDbEntity
  8
Default
100
AcDbLine
 10
231.0213034752534
 20
272.7315669644489
 30
316.1528193266859
 11
212.8330384167533
 21
289.9639919132042
 31
316.7613771579709
  0
LINE
  5
125
330
1F
100
AcDbEntity
  8
Default
100
AcDbLine
 10
229.5763344830419
 20
251.9607585997623
 30
302.2019991867883
 11
231.0213034752535
 21
272.7315669644489
 31
316.1528193266859
  0
LINE
  5
126
330
1F
100
AcDbEntity
  8
Default
100
AcDbLine
 10
211.3880694245415
 20
269.1931835485176
 30
302.8105570180732
 11
229.5763344830419
 21
251.9607585997623
 31
302.2019991867883
  0
LINE
  5
127
330
1F
100
AcDbEntity
  8
Default
100
AcDbLine
 10
212.8330384167533
 20
289.9639919132042
 30
316.7613771579709
 11
211.3880694245415
 21
269.1931835485176
 31
302.8105570180732
  0
LINE
  5
128
330
1F
100
AcDbEntity
  8
Default
100
AcDbLine
 10
220.4847654658753
 20
259.6814695738514
 30
334.0791159774163
 11
201.505385289366
 21
275.9327988553776
 31
336.0328874035798
  0
LINE
  5
129
330
1F
100
AcDbEntity
  8
Default
100
AcDbLine
 10
220.3147762290131
 20
240.4908764274815
 30
317.9598096512554
 11
220.4847654658753
 21
259.6814695738514
 31
334.0791159774163
  0
LINE
  5
12A
330
1F
100
AcDbEntity
  8
Default
100
AcDbLine
 10
201.3353960525036
 20
256.7422057090077
 30
319.9135810774188
 11
220.3147762290131
 21
240.4908764274815
 31
317.9598096512555
  0
LINE
  5
12B
330
1F
100
AcDbEntity
  8
Default
100
AcDbLine
 10
201.505385289366
 20
275.9327988553776
 30
336.0328874035798
 11
201.3353960525036
 21
256.7422057090077
 31
319.9135810774188
  0
LINE
  5
12C
330
1F
100
AcDbEntity
  8
Default
100
AcDbLine
 10
210.2114472298279
 20
244.1983656866588
 30
350.1576043662728
 11
190.3648117470361
 21
259.1413254946926
 31
353.4680137481219
  0
LINE
  5
12D
330
1F
100
AcDbEntity
  8
Default
100
AcDbLine
 10
211.4013764497887
 20
227.0586083432759
 30
331.9106159915247
 11
210.2114472298279
 21
244.1983656866588
 31
350.1576043662728
  0
LINE
  5
12E
330
1F
100
AcDbEntity
  8
Default
100
AcDbLine
 10
191.5547409669966
 20
242.0015681513097
 30
335.2210253733736
 11
211.4013764497887
 21
227.0586083432759
 31
331.9106159915247
  0
LINE
  5
12F
330
1F
100
AcDbEntity
  8
Default
100
AcDbLine
 10
190.364811747036
 20
259.1413254946926
 30
353.4680137481219
 11
191.5547409669966
 21
242.0015681513097
 31
335.2210253733736
  0
LINE
  5
130
330
1F
100
AcDbEntity
  8
Default
100
AcDbLine
 10
200.3631390927135
 20
226.3022637868505
 30
363.9848605669285
 11
179.6876244279781
 21
239.7420630568862
 31
368.4608729681877
  0
LINE
  5
131
330
1F
100
AcDbEntity
  8
Default
100
AcDbLine
 10
202.9293011519698
 20
211.6623319976087
 30
343.8049941754298
 11
200.3631390927135
 21
226.3022637868506
 31
363.9848605669285
  0
LINE
  5
132
330
1F
100
AcDbEntity
  8
Default
100
AcDbLine
 10
182.2537864872342
 20
225.1021312676443
 30
348.2810065766889
 11
202.9293011519698
 21
211.6623319976087
 31
343.8049941754298
  0
LINE
  5
133
330
1F
100
AcDbEntity
  8
Default
100
AcDbLine
 10
179.6876244279781
 20
239.7420630568862
 30
368.4608729681877
 11
182.2537864872342
 21
225.1021312676443
 31
348.2810065766889
  0
LINE
  5
134
330
1F
100
AcDbEntity
  8
Default
100
AcDbLine
 10
190.9081945761374
 20
206.2482281907808
 30
375.1246027244432
 11
169.5057988363747
 21
218.148663509179
 31
380.4591030682402
  0
LINE
  5
135
330
1F
100
AcDbEntity
  8
Default
100
AcDbLine
 10
194.8356652090615
 20
194.4946565780303
 30
353.3400135188093
 11
190.9081945761374
 21
206.2482281907808
 31
375.1246027244432
  0
LINE
  5
136
330
1F
100
AcDbEntity
  8
Default
100
AcDbLine
 10
173.4332694692985
 20
206.3950918964284
 30
358.6745138626061
 11
194.8356652090615
 21
194.4946565780303
 31
353.3400135188092
  0
LINE
  5
137
330
1F
100
AcDbEntity
  8
Default
100
AcDbLine
 10
169.5057988363747
 20
218.148663509179
 30
380.4591030682402
 11
173.4332694692985
 21
206.3950918964284
 31
358.6745138626061
  0
LINE
  5
138
330
1F
100
AcDbEntity
  8
Default
100
AcDbLine
 10
181.9235716906007
 20
184.5043704582944
 30
383.0967268281742
 11
159.7750982479383
 21
194.5900121671319
 31
389.0854456867781
  0
LINE
  5
139
330
1F
100
AcDbEntity
  8
Default
100
AcDbLine
 10
187.2233977701987
 20
176.0748807210448
 30
360.0968280374757
 11
181.9235716906007
 21
184.5043704582944
 31
383.0967268281742
  0
LINE
  5
13A
330
1F
100
AcDbEntity
  8
Default
100
AcDbLine
 10
165.0749243275361
 20
186.1605224298823
 30
366.0855468960794
 11
187.2233977701987
 21
176.0748807210448
 31
360.0968280374757
  0
LINE
  5
13B
330
1F
100
AcDbEntity
  8
Default
100
AcDbLine
 10
159.7750982479383
 20
194.5900121671319
 30
389.0854456867781
 11
165.0749243275361
 21
186.1605224298823
 31
366.0855468960794
  0
LINE
  5
13C
330
1F
100
AcDbEntity
  8
Default
100
AcDbLine
 10
174.4133373553035
 20
161.5602246840579
 30
387.4151341473543
 11
151.2290883048692
 21
168.4470882069507
 31
393.9879193158537
  0
LINE
  5
13D
330
1F
100
AcDbEntity
  8
Default
100
AcDbLine
 10
181.0967273549909
 20
157.3746667443483
 30
363.6253632167175
 11
174.4133373553035
 21
161.5602246840579
 31
387.4151341473543
  0
LINE
  5
13E
330
1F
100
AcDbEntity
  8
Default
100
AcDbLine
 10
157.9124783045565
 20
164.2615302672412
 30
370.1981483852168
 11
181.0967273549909
 21
157.3746667443483
 31
363.6253632167175
  0
LINE
  5
13F
330
1F
100
AcDbEntity
  8
Default
100
AcDbLine
 10
151.2290883048692
 20
168.4470882069507
 30
393.9879193158537
 11
157.9124783045565
 21
164.2615302672412
 31
370.1981483852168
  0
LINE
  5
140
330
1F
100
AcDbEntity
  8
Default
100
AcDbLine
 10
169.8335326441346
 20
137.6455090650669
 30
387.5713830044937
 11
145.7986766322609
 21
140.2005256866809
 31
394.1999110943894
  0
LINE
  5
141
330
1F
100
AcDbEntity
  8
Default
100
AcDbLine
 10
177.5106753866118
 20
138.5847046219678
 30
363.7319369307216
 11
169.8335326441346
 21
137.6455090650669
 31
387.5713830044937
  0
LINE
  5
142
330
1F
100
AcDbEntity
  8
Default
100
AcDbLine
 10
153.4758193747379
 20
141.1397212435818
 30
370.3604650206173
 11
177.5106753866118
 21
138.5847046219678
 31
363.7319369307216
  0
LINE
  5
143
330
1F
100
AcDbEntity
  8
Default
100
AcDbLine
 10
145.7986766322609
 20
140.2005256866809
 30
394.1999110943895
 11
153.4758193747379
 21
141.1397212435818
 31
370.3604650206173
  0
LINE
  5
144
330
1F
100
AcDbEntity
  8
Default
100
AcDbLine
 10
165.6789073122403
 20
112.2914048700774
 30
383.7572260488431
 11
142.0295874480878
 21
116.7581562303348
 31
390.7499079617718
  0
LINE
  5
145
330
1F
100
AcDbEntity
  8
Default
100
AcDbLine
 10
173.6423980519851
 20
115.2231265409121
 30
360.1748677831922
 11
165.6789073122403
 21
112.2914048700773
 31
383.7572260488431
  0
LINE
  5
146
330
1F
100
AcDbEntity
  8
Default
100
AcDbLine
 10
149.9930781878324
 20
119.6898779011697
 30
367.1675496961207
 11
173.6423980519851
 21
115.2231265409122
 31
360.1748677831922
  0
LINE
  5
147
330
1F
100
AcDbEntity
  8
Default
100
AcDbLine
 10
142.0295874480878
 20
116.7581562303348
 30
390.7499079617718
 11
149.9930781878324
 21
119.6898779011697
 31
367.1675496961207
  0
LINE
  5
148
330
1F
100
AcDbEntity
  8
Default
100
AcDbLine
 10
156.993583161092
 20
88.28230512529079
 30
377.2386066856203
 11
134.4383499298232
 21
95.9152780513081
 31
385.057748344429
  0
LINE
  5
149
330
1F
100
AcDbEntity
  8
Default
100
AcDbLine
 10
165.4177350774834
 20
92.4194836448776
 30
353.9994755384928
 11
156.9935831610919
 21
88.28230512529079
 31
377.2386066856203
  0
LINE
  5
14A
330
1F
100
AcDbEntity
  8
Default
100
AcDbLine
 10
142.8625018462145
 20
100.052456570895
 30
361.8186171973015
 11
165.4177350774834
 21
92.4194836448776
 31
353.9994755384929
  0
LINE
  5
14B
330
1F
100
AcDbEntity
  8
Default
100
AcDbLine
 10
134.4383499298232
 20
95.9152780513081
 30
385.057748344429
 11
142.8625018462145
 21
100.0524565708951
 31
361.8186171973015
  0
LINE
  5
14C
330
1F
100
AcDbEntity
  8
Default
100
AcDbLine
 10
145.0394356997738
 20
66.89000548256719
 30
368.1108038696129
 11
123.703770400835
 21
76.70635143372193
 31
376.8611488059951
  0
LINE
  5
14D
330
1F
100
AcDbEntity
  8
Default
100
AcDbLine
 10
154.2375109010794
 20
72.42042406621286
 30
345.462411410819
 11
145.0394356997738
 21
66.89000548256719
 31
368.1108038696129
  0
LINE
  5
14E
330
1F
100
AcDbEntity
  8
Default
100
AcDbLine
 10
132.9018456021404
 20
82.23677001736777
 30
354.2127563472011
 11
154.2375109010794
 21
72.42042406621285
 31
345.462411410819
  0
LINE
  5
14F
330
1F
100
AcDbEntity
  8
Default
100
AcDbLine
 10
123.703770400835
 20
76.70635143372193
 30
376.8611488059951
 11
132.9018456021404
 21
82.23677001736777
 31
354.2127563472011
  0
LINE
  5
150
330
1F
100
AcDbEntity
  8
Default
100
AcDbLine
 10
130.2267560419063
 20
48.65035224136854
 30
356.8212456205878
 11
110.4621621407553
 21
60.42049629292913
 31
366.7693275972736
  0
LINE
  5
151
330
1F
100
AcDbEntity
  8
Default
100
AcDbLine
 10
140.2321019336073
 20
55.17525946295088
 30
334.7881242478925
 11
130.2267560419063
 21
48.65035224136854
 31
356.8212456205878
  0
LINE
  5
152
330
1F
100
AcDbEntity
  8
Default
100
AcDbLine
 10
120.4675080324561
 20
66.94540351451167
 30
344.736206224578
 11
140.2321019336073
 21
55.17525946295087
 31
334.7881242478925
  0
LINE
  5
153
330
1F
100
AcDbEntity
  8
Default
100
AcDbLine
 10
110.4621621407553
 20
60.42049629292913
 30
366.7693275972736
 11
120.4675080324561
 21
66.94540351451167
 31
344.736206224578
  0
LINE
  5
154
330
1F
100
AcDbEntity
  8
Default
100
AcDbLine
 10
113.0944280242408
 20
33.90888511386348
 30
343.7908047498144
 11
95.04995209044532
 21
47.16923874536148
 31
355.0469012281259
  0
LINE
  5
155
330
1F
100
AcDbEntity
  8
Default
100
AcDbLine
 10
124.1657382675971
 20
41.33803540312313
 30
322.5687969851918
 11
113.0944280242408
 21
33.90888511386348
 31
343.7908047498144
  0
LINE
  5
156
330
1F
100
AcDbEntity
  8
Default
100
AcDbLine
 10
106.1212623338015
 20
54.59838903462137
 30
333.8248934635031
 11
124.1657382675971
 21
41.33803540312314
 31
322.5687969851918
  0
LINE
  5
157
330
1F
100
AcDbEntity
  8
Default
100
AcDbLine
 10
95.04995209044532
 20
47.16923874536148
 30
355.0469012281259
 11
106.1212623338016
 21
54.59838903462138
 31
333.8248934635031
  0
LINE
  5
158
330
1F
100
AcDbEntity
  8
Default
100
AcDbLine
 10
94.48309704234178
 20
23.30829217261631
 30
329.4720999356001
 11
78.22475285605742
 21
37.60023985674979
 31
342.1032627403884
  0
LINE
  5
159
330
1F
100
AcDbEntity
  8
Default
100
AcDbLine
 10
106.3355315423457
 20
31.21505104160806
 30
308.8531096912284
 11
94.48309704234181
 21
23.30829217261631
 31
329.4720999356001
  0
LINE
  5
15A
330
1F
100
AcDbEntity
  8
Default
100
AcDbLine
 10
90.07718735606123
 20
45.50699872574181
 30
321.4842724960166
 11
106.3355315423457
 21
31.21505104160807
 31
308.8531096912284
  0
LINE
  5
15B
330
1F
100
AcDbEntity
  8
Default
100
AcDbLine
 10
78.22475285605744
 20
37.60023985674979
 30
342.1032627403884
 11
90.07718735606123
 21
45.5069987257418
 31
321.4842724960166
  0
LINE
  5
15C
330
1F
100
AcDbEntity
  8
Default
100
AcDbLine
 10
75.6289907796848
 20
15.35212060395174
 30
315.8610905117554
 11
60.26711630833993
 21
30.03738999972928
 31
329.1462504124432
  0
LINE
  5
15D
330
1F
100
AcDbEntity
  8
Default
100
AcDbLine
 10
87.4740301717479
 20
23.24332080061996
 30
295.2318927730324
 11
75.62899077968478
 21
15.35212060395174
 31
315.8610905117554
  0
LINE
  5
15E
330
1F
100
AcDbEntity
  8
Default
100
AcDbLine
 10
72.11215570040297
 20
37.92859019639777
 30
308.5170526737202
 11
87.47403017174791
 21
23.24332080061995
 31
295.2318927730324
  0
LINE
  5
15F
330
1F
100
AcDbEntity
  8
Default
100
AcDbLine
 10
60.26711630833992
 20
30.03738999972929
 30
329.1462504124432
 11
72.11215570040295
 21
37.92859019639776
 31
308.5170526737202
  0
LINE
  5
160
330
1F
100
AcDbEntity
  8
Default
100
AcDbLine
 10
57.25569927170463
 20
8.371475428966813
 30
300.9330867202899
 11
40.38922225560201
 21
22.48769851107653
 31
312.9494920500112
  0
LINE
  5
161
330
1F
100
AcDbEntity
  8
Default
100
AcDbLine
 10
71.64727188744868
 20
17.22733207602552
 30
282.4237312809648
 11
57.25569927170461
 21
8.3714754289668
 31
300.9330867202899
  0
LINE
  5
162
330
1F
100
AcDbEntity
  8
Default
100
AcDbLine
 10
54.78079487134598
 20
31.34355515813551
 30
294.4401366106861
 11
71.64727188744868
 21
17.22733207602552
 31
282.4237312809648
  0
LINE
  5
163
330
1F
100
AcDbEntity
  8
Default
100
AcDbLine
 10
40.389222255602
 20
22.48769851107653
 30
312.9494920500112
 11
54.78079487134599
 21
31.34355515813552
 31
294.4401366106861
  0
LINE
  5
164
330
1F
100
AcDbEntity
  8
Default
100
AcDbLine
 10
41.66080808486944
 20
2.355351933503628
 30
282.788060281124
 11
22.85543704346924
 21
15.72439078445086
 31
292.5741022943126
  0
LINE
  5
165
330
1F
100
AcDbEntity
  8
Default
100
AcDbLine
 10
58.88436138480522
 20
12.30263513226209
 30
267.5387794202202
 11
41.66080808486943
 21
2.355351933503622
 31
282.788060281124
  0
LINE
  5
166
330
1F
100
AcDbEntity
  8
Default
100
AcDbLine
 10
40.07899034340498
 20
25.67167398320958
 30
277.3248214334088
 11
58.88436138480522
 21
12.3026351322621
 31
267.5387794202202
  0
LINE
  5
167
330
1F
100
AcDbEntity
  8
Default
100
AcDbLine
 10
22.85543704346924
 20
15.72439078445085
 30
292.5741022943126
 11
40.078990343405
 21
25.67167398320959
 31
277.3248214334088
  0
LINE
  5
168
330
1F
100
AcDbEntity
  8
Default
100
AcDbLine
 10
28.9913961546323
 20
-2.682374968360309
 30
262.405268589296
 11
9.054745904586383
 21
10.23722013392833
 31
270.3898685972505
  0
LINE
  5
169
330
1F
100
AcDbEntity
  8
Default
100
AcDbLine
 10
47.90669811759985
 20
7.937067365279604
 30
249.8522373115922
 11
28.99139615463231
 21
-2.682374968360304
 31
262.405268589296
  0
LINE
  5
16A
330
1F
100
AcDbEntity
  8
Default
100
AcDbLine
 10
27.97004786755388
 20
20.8566624675685
 30
257.8368373195466
 11
47.90669811759986
 21
7.937067365279601
 31
249.8522373115923
  0
LINE
  5
16B
330
1F
100
AcDbEntity
  8
Default
100
AcDbLine
 10
9.054745904586381
 20
10.23722013392832
 30
270.3898685972505
 11
27.97004786755387
 21
20.85666246756849
 31
257.8368373195466
  0
LINE
  5
16C
330
1F
100
AcDbEntity
  8
Default
100
AcDbLine
 10
18.53672323273898
 20
-6.895802729215791
 30
240.769136717535
 11
-2.014543108023062
 21
5.776138462674301
 31
247.4927634403017
  0
LINE
  5
16D
330
1F
100
AcDbEntity
  8
Default
100
AcDbLine
 10
38.41454754774114
 20
4.111482676255457
 30
230.1931466177302
 11
18.53672323273899
 21
-6.895802729215786
 31
240.769136717535
  0
LINE
  5
16E
330
1F
100
AcDbEntity
  8
Default
100
AcDbLine
 10
17.86328120697905
 20
16.78342386814581
 30
236.9167733404969
 11
38.41454754774114
 21
4.111482676255461
 31
230.1931466177302
  0
LINE
  5
16F
330
1F
100
AcDbEntity
  8
Default
100
AcDbLine
 10
-2.014543108023052
 20
5.776138462674298
 30
247.4927634403017
 11
17.86328120697906
 21
16.78342386814582
 31
236.9167733404969
  0
LINE
  5
170
330
1F
100
AcDbEntity
  8
Default
100
AcDbLine
 10
9.66217677421616
 20
-10.43776667004361
 30
218.3827711725552
 11
-11.28627362383048
 21
2.075706956918102
 31
224.1024916023205
  0
LINE
  5
171
330
1F
100
AcDbEntity
  8
Default
100
AcDbLine
 10
30.18896644444494
 20
0.8284532644671658
 30
209.4461615073533
 11
9.662176774216153
 21
-10.43776667004361
 31
218.3827711725551
  0
LINE
  5
172
330
1F
100
AcDbEntity
  8
Default
100
AcDbLine
 10
9.24051604639824
 20
13.34192689142915
 30
215.1658819371185
 11
30.18896644444494
 21
0.8284532644671678
 31
209.4461615073533
  0
LINE
  5
173
330
1F
100
AcDbEntity
  8
Default
100
AcDbLine
 10
-11.28627362383049
 20
2.075706956918106
 30
224.1024916023204
 11
9.24051604639823
 21
13.34192689142914
 31
215.1658819371185
  0
LINE
  5
174
330
1F
100
AcDbEntity
  8
Default
100
AcDbLine
 10
2.324217088708625
 20
-13.32390197319304
 30
195.346763749025
 11
-18.97996756685732
 21
-0.9503558108240799
 31
199.9475103858259
  0
LINE
  5
175
330
1F
100
AcDbEntity
  8
Default
100
AcDbLine
 10
23.41989599893641
 20
-1.833905558775288
 30
188.1988891138626
 11
2.324217088708622
 21
-13.32390197319304
 31
195.3467637490249
  0
LINE
  5
176
330
1F
100
AcDbEntity
  8
Default
100
AcDbLine
 10
2.115711343370414
 20
10.53964060359394
 30
192.7996357506636
 11
23.41989599893641
 21
-1.833905558775294
 31
188.1988891138626
  0
LINE
  5
177
330
1F
100
AcDbEntity
  8
Default
100
AcDbLine
 10
-18.97996756685732
 20
-0.9503558108240763
 30
199.9475103858259
 11
2.11571134337041
 21
10.53964060359394
 31
192.7996357506636
  0
LINE
  5
178
330
1F
100
AcDbEntity
  8
Default
100
AcDbLine
 10
-3.333406251326347
 20
-15.52569903776703
 30
171.7632493399873
 11
-24.9308781986068
 21
-3.266287463983563
 31
175.1390205759836
  0
LINE
  5
179
330
1F
100
AcDbEntity
  8
Default
100
AcDbLine
 10
18.22216226822666
 20
-3.856731576132343
 30
166.5352035994715
 11
-3.333406251326352
 21
-15.52569903776703
 31
171.7632493399873
  0
LINE
  5
17A
330
1F
100
AcDbEntity
  8
Default
100
AcDbLine
 10
-3.375309679053837
 20
8.402679997651399
 30
169.9109748354678
 11
18.22216226822666
 21
-3.85673157613234
 31
166.5352035994715
  0
LINE
  5
17B
330
1F
100
AcDbEntity
  8
Default
100
AcDbLine
 10
-24.9308781986068
 20
-3.26628746398356
 30
175.1390205759836
 11
-3.375309679053839
 21
8.402679997651397
 31
169.9109748354678
  0
LINE
  5
17C
330
1F
100
AcDbEntity
  8
Default
100
AcDbLine
 10
-7.195491527230994
 20
-17.02579246094099
 30
147.7671649104467
 11
-29.0013462395327
 21
-4.847322506547707
 31
149.8478782310874
  0
LINE
  5
17D
330
1F
100
AcDbEntity
  8
Default
100
AcDbLine
 10
14.68196121967783
 20
-5.231796355764393
 30
144.53939241775
 11
-7.195491527230992
 21
-17.02579246094099
 31
147.7671649104467
  0
LINE
  5
17E
330
1F
100
AcDbEntity
  8
Default
100
AcDbLine
 10
-7.123893492623922
 20
6.946673598629165
 30
146.6201057383907
 11
14.68196121967783
 21
-5.231796355764394
 31
144.53939241775
  0
LINE
  5
17F
330
1F
100
AcDbEntity
  8
Default
100
AcDbLine
 10
-29.0013462395327
 20
-4.847322506547705
 30
149.8478782310874
 11
-7.123893492623921
 21
6.946673598629166
 31
146.6201057383907
  0
LINE
  5
180
330
1F
100
AcDbEntity
  8
Default
100
AcDbLine
 10
-9.231707855483478
 20
-17.82215424146667
 30
123.5193759344565
 11
-31.1456931683441
 21
-5.685981708676449
 31
124.3133293643496
  0
LINE
  5
181
330
1F
100
AcDbEntity
  8
Default
100
AcDbLine
 10
12.81282304404757
 20
-5.962801853325512
 30
122.2807410244569
 11
-9.231707855483478
 21
-17.82215424146667
 31
123.5193759344565
  0
LINE
  5
182
330
1F
100
AcDbEntity
  8
Default
100
AcDbLine
 10
-9.101162268813095
 20
6.173370679464979
 30
123.07469445435
 11
12.81282304404758
 21
-5.962801853325514
 31
122.2807410244569
  0
LINE
  5
183
330
1F
100
AcDbEntity
  8
Default
100
AcDbLine
 10
-31.1456931683441
 20
-5.68598170867645
 30
124.3133293643496
 11
-9.101162268813098
 21
6.173370679464978
 31
123.07469445435
  0
LINE
  5
184
330
1F
100
AcDbEntity
  8
Default
100
AcDbLine
 10
-9.4582532236436
 20
-17.91723917729924
 30
99.17620407228465
 11
-31.38407880049052
 21
-5.786043527837657
 31
98.6944749212761
  0
LINE
  5
185
330
1F
100
AcDbEntity
  8
Default
100
AcDbLine
 10
12.60456194973083
 20
-6.050199157775018
 30
99.91467945257048
 11
-9.458253223643593
 21
-17.91723917729924
 31
99.17620407228465
  0
LINE
  5
186
330
1F
100
AcDbEntity
  8
Default
100
AcDbLine
 10
-9.321263627116148
 20
6.080996491686837
 30
99.43295030156195
 11
12.60456194973083
 21
-6.050199157775018
 31
99.9146794525705
  0
LINE
  5
187
330
1F
100
AcDbEntity
  8
Default
100
AcDbLine
 10
-31.38407880049053
 20
-5.786043527837657
 30
98.69447492127611
 11
-9.32126362711615
 21
6.080996491686838
 31
99.43295030156195
  0
LINE
  5
188
330
1F
100
AcDbEntity
  8
Default
100
AcDbLine
 10
-7.883307128945826
 20
-17.31009537668793
 30
74.8883202442185
 11
-29.72658591803487
 21
-5.14706086145808
 31
73.13573323918236
  0
LINE
  5
189
330
1F
100
AcDbEntity
  8
Default
100
AcDbLine
 10
14.05122093573729
 20
-5.492536684578154
 30
77.60154401400375
 11
-7.883307128945827
 21
-17.31009537668793
 31
74.88832024421849
  0
LINE
  5
18A
330
1F
100
AcDbEntity
  8
Default
100
AcDbLine
 10
-7.792057853351802
 20
6.670497830651965
 30
75.84895700896762
 11
14.0512209357373
 21
-5.492536684578158
 31
77.60154401400375
  0
LINE
  5
18B
330
1F
100
AcDbEntity
  8
Default
100
AcDbLine
 10
-29.72658591803487
 20
-5.147060861458081
 30
73.13573323918236
 11
-7.792057853351803
 21
6.670497830651963
 31
75.84895700896762
  0
LINE
  5
18C
330
1F
100
AcDbEntity
  8
Default
100
AcDbLine
 10
-4.505463615857958
 20
-15.99607018243037
 30
50.80726296663408
 11
-26.17014204137044
 21
-3.763569700309732
 31
47.78278966359193
  0
LINE
  5
18D
330
1F
100
AcDbEntity
  8
Default
100
AcDbLine
 10
17.15076272486632
 20
-4.286756225479891
 30
55.50190091046356
 11
-4.505463615857959
 21
-15.99607018243037
 31
50.80726296663408
  0
LINE
  5
18E
330
1F
100
AcDbEntity
  8
Default
100
AcDbLine
 10
-4.513915700646207
 20
7.945744256641019
 30
52.47742760742142
 11
17.15076272486632
 21
-4.286756225479889
 31
55.50190091046356
  0
LINE
  5
18F
330
1F
100
AcDbEntity
  8
Default
100
AcDbLine
 10
-26.17014204137044
 20
-3.763569700309731
 30
47.78278966359193
 11
-4.513915700646212
 21
7.945744256641016
 31
52.47742760742142
  0
LINE
  5
190
330
1F
100
AcDbEntity
  8
Default
100
AcDbLine
 10
-13.29451578810823
 20
1.280411903489448
 30
-1.673936727682071
 11
7.701410654013042
 21
-11.21409147748824
 31
3.911603191299073
  0
LINE
  5
191
330
1F
100
AcDbEntity
  8
Default
100
AcDbLine
 10
28.31169718459267
 20
0.0854442164074958
 30
12.61082041565569
 11
7.315770742471351
 21
12.57994759738545
 31
7.025280496674563
  0
LINE
  5
192
330
1F
100
AcDbEntity
  8
Default
100
AcDbLine
 10
7.701410654013041
 20
-11.21409147748824
 30
3.911603191299073
 11
28.31169718459267
 21
0.0854442164074936
 31
12.61082041565569
  0
LINE
  5
193
330
1F
100
AcDbEntity
  8
Default
100
AcDbLine
 10
7.315770742471347
 20
12.57994759738546
 30
7.025280496674563
 11
-13.29451578810823
 21
1.280411903489448
 31
-1.673936727682072
  0
LINE
  5
194
330
1F
100
AcDbEntity
  8
Default
100
AcDbLine
 10
21.90393156000902
 20
-2.428825651427355
 30
33.78070707104354
 11
0.5190295594427035
 21
9.913034988114767
 31
29.47905152148284
  0
LINE
  5
195
330
1F
100
AcDbEntity
  8
Default
100
AcDbLine
 10
0.5190295594427037
 20
9.91303498811477
 30
29.47905152148283
 11
-20.7002129062438
 21
-1.625468734003498
 31
22.78977060917001
  0
LINE
  5
196
330
1F
100
AcDbEntity
  8
Default
100
AcDbLine
 10
-20.7002129062438
 20
-1.625468734003498
 30
22.78977060917001
 11
0.6846890943224686
 21
-13.96732937354535
 31
27.09142615873073
  0
LINE
  5
197
330
1F
100
AcDbEntity
  8
Default
100
AcDbLine
 10
0.6846890943224715
 20
-13.96732937354535
 30
27.09142615873073
 11
21.90393156000902
 21
-2.428825651427353
 31
33.78070707104354
  0
ENDSEC
  0
SECTION
  2
OBJECTS
  0
DICTIONARY
  5
C
330
0
100
AcDbDictionary
281
     1
  3
ACAD_GROUP
350
D
  3
ACAD_LAYOUT
350
1A
  3
ACAD_MLEADERSTYLE
350
199
  3
ACAD_MLINESTYLE
350
17
  3
ACAD_PLOTSETTINGS
350
19
  3
ACAD_PLOTSTYLENAME
350
E
  3
ACAD_TABLESTYLE
350
198
  3
ACAD_VISUALSTYLE
350
2A
  0
DICTIONARY
  5
D
102
{ACAD_REACTORS
330
C
102
}
330
C
100
AcDbDictionary
281
     1
  0
DICTIONARY
  5
1A
102
{ACAD_REACTORS
330
C
102
}
330
C
100
AcDbDictionary
281
     1
  3
Layout1
350
1E
  3
Layout2
350
26
  3
Model
350
22
  0
DICTIONARY
  5
199
102
{ACAD_REACTORS
330
C
102
}
330
C
100
AcDbDictionary
281
     1
  0
DICTIONARY
  5
17
102
{ACAD_REACTORS
330
C
102
}
330
C
100
AcDbDictionary
281
     1
  3
Standard
350
18
  0
DICTIONARY
  5
19
102
{ACAD_REACTORS
330
C
102
}
330
C
100
AcDbDictionary
281
     1
  0
ACDBDICTIONARYWDFLT
  5
E
102
{ACAD_REACTORS
330
C
102
}
330
C
100
AcDbDictionary
281
     1
  3
Normal
350
F
100
AcDbDictionaryWithDefault
340
F
  0
DICTIONARY
  5
198
102
{ACAD_REACTORS
330
C
102
}
330
C
100
AcDbDictionary
281
     1
  0
DICTIONARY
  5
2A
102
{ACAD_REACTORS
330
C
102
}
330
C
100
AcDbDictionary
281
     1
  3
2dWireframe
350
2F
  3
3D Hidden
350
31
  3
3dWireframe
350
30
  3
Basic
350
32
  3
Brighten
350
36
  3
ColorChange
350
3A
  3
Conceptual
350
34
  3
Dim
350
35
  3
Facepattern
350
39
  3
Flat
350
2B
  3
FlatWithEdges
350
2C
  3
Gouraud
350
2D
  3
GouraudWithEdges
350
2E
  3
Linepattern
350
38
  3
Realistic
350
33
  3
Thicken
350
37
  0
LAYOUT
  5
1E
102
{ACAD_REACTORS
330
1A
102
}
330
1A
100
AcDbPlotSettings
  1

  2
none_device
  4

  6

 40
0.0
 41
0.0
 42
0.0
 43
0.0
 44
0.0
 45
0.0
 46
0.0
 47
0.0
 48
0.0
 49
0.0
140
0.0
141
0.0
142
1.0
143
1.0
 70
   688
 72
     0
 73
     0
 74
     5
  7

 75
    16
 76
     0
 77
     2
 78
   300
147
1.0
148
0.0
149
0.0
100
AcDbLayout
  1
Layout1
 70
     1
 71
     1
 10
0.0
 20
0.0
 11
12.0
 21
9.0
 12
0.0
 22
0.0
 32
0.0
 14
1.000000000000000E+20
 24
1.000000000000000E+20
 34
1.000000000000000E+20
 15
-1.000000000000000E+20
 25
-1.000000000000000E+20
 35
-1.000000000000000E+20
146
0.0
 13
0.0
 23
0.0
 33
0.0
 16
1.0
 26
0.0
 36
0.0
 17
0.0
 27
1.0
 37
0.0
 76
     0
330
1B
  0
LAYOUT
  5
26
102
{ACAD_REACTORS
330
1A
102
}
330
1A
100
AcDbPlotSettings
  1

  2
none_device
  4

  6

 40
0.0
 41
0.0
 42
0.0
 43
0.0
 44
0.0
 45
0.0
 46
0.0
 47
0.0
 48
0.0
 49
0.0
140
0.0
141
0.0
142
1.0
143
1.0
 70
   688
 72
     0
 73
     0
 74
     5
  7

 75
    16
 76
     0
 77
     2
 78
   300
147
1.0
148
0.0
149
0.0
100
AcDbLayout
  1
Layout2
 70
     1
 71
     2
 10
0.0
 20
0.0
 11
0.0
 21
0.0
 12
0.0
 22
0.0
 32
0.0
 14
0.0
 24
0.0
 34
0.0
 15
0.0
 25
0.0
 35
0.0
146
0.0
 13
0.0
 23
0.0
 33
0.0
 16
1.0
 26
0.0
 36
0.0
 17
0.0
 27
1.0
 37
0.0
 76
     0
330
23
  0
LAYOUT
  5
22
102
{ACAD_REACTORS
330
1A
102
}
330
1A
100
AcDbPlotSettings
  1

  2
none_device
  4

  6

 40
0.0
 41
0.0
 42
0.0
 43
0.0
 44
0.0
 45
0.0
 46
0.0
 47
0.0
 48
0.0
 49
0.0
140
0.0
141
0.0
142
1.0
143
1.0
 70
  1712
 72
     0
 73
     0
 74
     0
  7

 75
     0
 76
     0
 77
     2
 78
   300
147
1.0
148
0.0
149
0.0
100
AcDbLayout
  1
Model
 70
     1
 71
     0
 10
0.0
 20
0.0
 11
12.0
 21
9.0
 12
0.0
 22
0.0
 32
0.0
 14
-31.38407880049053
 24
-17.91723917729924
 34
-10.48048287549987
 15
339.5051804981701
 25
322.0133661009199
 35
394.1999110943895
146
0.0
 13
0.0
 23
0.0
 33
0.0
 16
1.0
 26
0.0
 36
0.0
 17
0.0
 27
1.0
 37
0.0
 76
     0
330
1F
331
29
  0
MLINESTYLE
  5
18
102
{ACAD_REACTORS
330
17
102
}
330
17
100
AcDbMlineStyle
  2
Standard
 70
     0
  3

 62
   256
 51
90.0
 52
90.0
 71
     2
 49
0.5
 62
   256
  6
BYLAYER
 49
-0.5
 62
   256
  6
BYLAYER
  0
ACDBPLACEHOLDER
  5
F
102
{ACAD_REACTORS
330
E
102
}
330
E
  0
VISUALSTYLE
  5
2F
102
{ACAD_REACTORS
330
2A
102
}
330
2A
100
AcDbVisualStyle
  2
2dWireframe
 70
     4
 71
     0
 72
     2
 73
     0
 90
        0
 40
-0.6
 41
-30.0
 62
     5
 63
     7
421
 16777215
 74
     1
 91
        4
 64
     7
 65
   257
 75
     1
175
     1
 42
1.0
 92
        0
 66
   257
 43
1.0
 76
     1
 77
     6
 78
     2
 67
     7
 79
     5
170
     0
171
     0
290
     0
174
     0
 93
        1
 44
0.0
173
     0
291
     0
 45
0.0
1001
ACAD
1000
AcDbSavedByObjectVersion
1070
     0
  0
VISUALSTYLE
  5
31
102
{ACAD_REACTORS
330
2A
102
}
330
2A
100
AcDbVisualStyle
  2
3D Hidden
 70
     6
 71
     1
 72
     2
 73
     2
 90
        0
 40
-0.6
 41
-30.0
 62
     5
 63
     7
421
 16777215
 74
     2
 91
        2
 64
     7
 65
   257
 75
     2
175
     1
 42
40.0
 92
        0
 66
   257
 43
1.0
 76
     1
 77
     6
 78
     2
 67
     7
 79
     3
170
     0
171
     0
290
     0
174
     0
 93
        1
 44
0.0
173
     0
291
     0
 45
0.0
1001
ACAD
1000
AcDbSavedByObjectVersion
1070
     0
  0
VISUALSTYLE
  5
30
102
{ACAD_REACTORS
330
2A
102
}
330
2A
100
AcDbVisualStyle
  2
3dWireframe
 70
     5
 71
     0
 72
     2
 73
     0
 90
        0
 40
-0.6
 41
-30.0
 62
     5
 63
     7
421
 16777215
 74
     1
 91
        4
 64
     7
 65
   257
 75
     1
175
     1
 42
1.0
 92
        0
 66
   257
 43
1.0
 76
     1
 77
     6
 78
     2
 67
     7
 79
     5
170
     0
171
     0
290
     0
174
     0
 93
        1
 44
0.0
173
     0
291
     0
 45
0.0
1001
ACAD
1000
AcDbSavedByObjectVersion
1070
     0
  0
VISUALSTYLE
  5
32
102
{ACAD_REACTORS
330
2A
102
}
330
2A
100
AcDbVisualStyle
  2
Basic
 70
     7
 71
     1
 72
     0
 73
     1
 90
        0
 40
-0.6
 41
-30.0
 62
     5
 63
     7
421
 16777215
 74
     0
 91
        4
 64
     7
 65
   257
 75
     1
175
     1
 42
1.0
 92
        8
 66
     7
 43
1.0
 76
     1
 77
     6
 78
     2
 67
     7
 79
     5
170
     0
171
     0
290
     0
174
     0
 93
        1
 44
0.0
173
     0
291
     1
 45
0.0
1001
ACAD
1000
AcDbSavedByObjectVersion
1070
     0
  0
VISUALSTYLE
  5
36
102
{ACAD_REACTORS
330
2A
102
}
330
2A
100
AcDbVisualStyle
  2
Brighten
 70
    12
 71
     2
 72
     2
 73
     0
 90
        0
 40
-0.6
 41
-30.0
 62
     5
 63
     7
421
 16777215
 74
     1
 91
        4
 64
     7
 65
   257
 75
     1
175
     1
 42
1.0
 92
        8
 66
     7
 43
1.0
 76
     1
 77
     6
 78
     2
 67
     7
 79
     5
170
     0
171
     0
290
     0
174
     0
 93
        1
 44
50.0
173
     0
291
     1
 45
0.0
1001
ACAD
1000
AcDbSavedByObjectVersion
1070
     0
  0
VISUALSTYLE
  5
3A
102
{ACAD_REACTORS
330
2A
102
}
330
2A
100
AcDbVisualStyle
  2
ColorChange
 70
    16
 71
     2
 72
     2
 73
     3
 90
        0
 40
-0.6
 41
-30.0
 62
     5
 63
     8
421
  8421504
 74
     1
 91
        4
 64
     7
 65
   257
 75
     1
175
     1
 42
1.0
 92
        8
 66
     8
424
  8421504
 43
1.0
 76
     1
 77
     6
 78
     2
 67
     7
 79
     5
170
     0
171
     0
290
     0
174
     0
 93
        1
 44
0.0
173
     0
291
     1
 45
0.0
1001
ACAD
1000
AcDbSavedByObjectVersion
1070
     0
  0
VISUALSTYLE
  5
34
102
{ACAD_REACTORS
330
2A
102
}
330
2A
100
AcDbVisualStyle
  2
Conceptual
 70
     9
 71
     3
 72
     2
 73
     0
 90
        0
 40
-0.6
 41
-30.0
 62
     5
 63
     7
421
 16777215
 74
     2
 91
        2
 64
     7
 65
   257
 75
     1
175
     1
 42
40.0
 92
        8
 66
     7
 43
1.0
 76
     1
 77
     6
 78
     2
 67
     7
 79
     3
170
     0
171
     0
290
     0
174
     0
 93
        1
 44
0.0
173
     0
291
     0
 45
0.0
1001
ACAD
1000
AcDbSavedByObjectVersion
1070
     0
  0
VISUALSTYLE
  5
35
102
{ACAD_REACTORS
330
2A
102
}
330
2A
100
AcDbVisualStyle
  2
Dim
 70
    11
 71
     2
 72
     2
 73
     0
 90
        0
 40
-0.6
 41
-30.0
 62
     5
 63
     7
421
 16777215
 74
     1
 91
        4
 64
     7
 65
   257
 75
     1
175
     1
 42
1.0
 92
        8
 66
     7
 43
1.0
 76
     1
 77
     6
 78
     2
 67
     7
 79
     5
170
     0
171
     0
290
     0
174
     0
 93
        1
 44
-50.0
173
     0
291
     1
 45
0.0
1001
ACAD
1000
AcDbSavedByObjectVersion
1070
     0
  0
VISUALSTYLE
  5
39
102
{ACAD_REACTORS
330
2A
102
}
330
2A
100
AcDbVisualStyle
  2
Facepattern
 70
    15
 71
     2
 72
     2
 73
     0
 90
        0
 40
-0.6
 41
-30.0
 62
     5
 63
     7
421
 16777215
 74
     1
 91
        4
 64
     7
 65
   257
 75
     1
175
     1
 42
1.0
 92
        8
 66
     7
 43
1.0
 76
     1
 77
     6
 78
     2
 67
     7
 79
     5
170
     0
171
     0
290
     0
174
     0
 93
        1
 44
0.0
173
     0
291
     1
 45
0.0
1001
ACAD
1000
AcDbSavedByObjectVersion
1070
     0
  0
VISUALSTYLE
  5
2B
102
{ACAD_REACTORS
330
2A
102
}
330
2A
100
AcDbVisualStyle
  2
Flat
 70
     0
 71
     2
 72
     1
 73
     1
 90
        2
 40
-0.6
 41
30.0
 62
     5
 63
     7
421
 16777215
 74
     0
 91
        4
 64
     7
 65
   257
 75
     1
175
     1
 42
1.0
 92
        8
 66
     7
 43
1.0
 76
     1
 77
     6
 78
     2
 67
     7
 79
     5
170
     0
171
     0
290
     0
174
     0
 93
       13
 44
0.0
173
     0
291
     1
 45
0.0
1001
ACAD
1000
AcDbSavedByObjectVersion
1070
     0
  0
VISUALSTYLE
  5
2C
102
{ACAD_REACTORS
330
2A
102
}
330
2A
100
AcDbVisualStyle
  2
FlatWithEdges
 70
     1
 71
     2
 72
     1
 73
     1
 90
        2
 40
-0.6
 41
30.0
 62
     5
 63
     7
421
 16777215
 74
     1
 91
        4
 64
     7
 65
   257
 75
     1
175
     1
 42
1.0
 92
        0
 66
   257
 43
1.0
 76
     1
 77
     6
 78
     2
 67
     7
 79
     5
170
     0
171
     0
290
     0
174
     0
 93
       13
 44
0.0
173
     0
291
     1
 45
0.0
1001
ACAD
1000
AcDbSavedByObjectVersion
1070
     0
  0
VISUALSTYLE
  5
2D
102
{ACAD_REACTORS
330
2A
102
}
330
2A
100
AcDbVisualStyle
  2
Gouraud
 70
     2
 71
     2
 72
     2
 73
     1
 90
        2
 40
-0.6
 41
30.0
 62
     5
 63
     7
421
 16777215
 74
     0
 91
        4
 64
     7
 65
   257
 75
     1
175
     1
 42
1.0
 92
        0
 66
     7
 43
1.0
 76
     1
 77
     6
 78
     2
 67
     7
 79
     5
170
     0
171
     0
290
     0
174
     0
 93
       13
 44
0.0
173
     0
291
     1
 45
0.0
1001
ACAD
1000
AcDbSavedByObjectVersion
1070
     0
  0
VISUALSTYLE
  5
2E
102
{ACAD_REACTORS
330
2A
102
}
330
2A
100
AcDbVisualStyle
  2
GouraudWithEdges
 70
     3
 71
     2
 72
     2
 73
     1
 90
        2
 40
-0.6
 41
30.0
 62
     5
 63
     7
421
 16777215
 74
     1
 91
        4
 64
     7
 65
   257
 75
     1
175
     1
 42
1.0
 92
        0
 66
   257
 43
1.0
 76
     1
 77
     6
 78
     2
 67
     7
 79
     5
170
     0
171
     0
290
     0
174
     0
 93
       13
 44
0.0
173
     0
291
     1
 45
0.0
1001
ACAD
1000
AcDbSavedByObjectVersion
1070
     0
  0
VISUALSTYLE
  5
38
102
{ACAD_REACTORS
330
2A
102
}
330
2A
100
AcDbVisualStyle
  2
Linepattern
 70
    14
 71
     2
 72
     2
 73
     0
 90
        0
 40
-0.6
 41
-30.0
 62
     5
 63
     7
421
 16777215
 74
     1
 91
        4
 64
     7
 65
   257
 75
     7
175
     7
 42
1.0
 92
        8
 66
     7
 43
1.0
 76
     1
 77
     6
 78
     2
 67
     7
 79
     5
170
     0
171
     0
290
     0
174
     0
 93
        1
 44
0.0
173
     0
291
     1
 45
0.0
1001
ACAD
1000
AcDbSavedByObjectVersion
1070
     0
  0
VISUALSTYLE
  5
33
102
{ACAD_REACTORS
330
2A
102
}
330
2A
100
AcDbVisualStyle
  2
Realistic
 70
     8
 71
     2
 72
     2
 73
     0
 90
        0
 40
-0.6
 41
-30.0
 62
     5
 63
     7
421
 16777215
 74
     1
 91
        0
 64
     7
 65
   257
 75
     1
175
     1
 42
1.0
 92
        8
 66
     8
424
  7895160
 43
1.0
 76
     1
 77
     6
 78
     2
 67
     7
 79
     5
170
     0
171
     0
290
     0
174
     0
 93
       13
 44
0.0
173
     0
291
     0
 45
0.0
1001
ACAD
1000
AcDbSavedByObjectVersion
1070
     0
  0
VISUALSTYLE
  5
37
102
{ACAD_REACTORS
330
2A
102
}
330
2A
100
AcDbVisualStyle
  2
Thicken
 70
    13
 71
     2
 72
     2
 73
     0
 90
        0
 40
-0.6
 41
-30.0
 62
     5
 63
     7
421
 16777215
 74
     1
 91
        4
 64
     7
 65
   257
 75
     1
175
     1
 42
1.0
 92
       12
 66
     7
 43
1.0
 76
     1
 77
     6
 78
     2
 67
     7
 79
     5
170
     0
171
     0
290
     0
174
     0
 93
        1
 44
0.0
173
     0
291
     1
 45
0.0
1001
ACAD
1000
AcDbSavedByObjectVersion
1070
     0
  0
ENDSEC
  0
EOF
