  0
SECTION
  2
HEADER
  9
$ACADVER
  1
AC1018
  9
$ACADMAINTVER
 70
     0
  9
$DWGCODEPAGE
  3
ANSI_1252
  9
$INSBASE
 10
0.0
 20
0.0
 30
0.0
  9
$EXTMIN
 10
-2.615339900040877
 20
-1.493103264774937
 30
-0.8733735729583232
  9
$EXTMAX
 10
28.29209837484751
 20
26.83444717507665
 30
32.84999259119913
  9
$LIMMIN
 10
0.0
 20
0.0
  9
$LIMMAX
 10
12.0
 20
9.0
  9
$ORTHOMODE
 70
     0
  9
$REGENMODE
 70
     1
  9
$FILLMODE
 70
     1
  9
$QTEXTMODE
 70
     0
  9
$MIRRTEXT
 70
     1
  9
$LTSCALE
 40
0.0032808398950131
  9
$ATTMODE
 70
     1
  9
$TEXTSIZE
 40
0.2
  9
$TRACEWID
 40
0.05
  9
$TEXTSTYLE
  7
Standard
  9
$CLAYER
  8
Default
  9
$CELTYPE
  6
ByLayer
  9
$CECOLOR
 62
   256
  9
$CELTSCALE
 40
1.0
  9
$DISPSILH
 70
     0
  9
$DIMSCALE
 40
1.0
  9
$DIMASZ
 40
0.18
  9
$DIMEXO
 40
0.0625
  9
$DIMDLI
 40
0.38
  9
$DIMRND
 40
0.0
  9
$DIMDLE
 40
0.0
  9
$DIMEXE
 40
0.18
  9
$DIMTP
 40
0.0
  9
$DIMTM
 40
0.0
  9
$DIMTXT
 40
0.18
  9
$DIMCEN
 40
0.09
  9
$DIMTSZ
 40
0.0
  9
$DIMTOL
 70
     0
  9
$DIMLIM
 70
     0
  9
$DIMTIH
 70
     1
  9
$DIMTOH
 70
     1
  9
$DIMSE1
 70
     0
  9
$DIMSE2
 70
     0
  9
$DIMTAD
 70
     0
  9
$DIMZIN
 70
     0
  9
$DIMBLK
  1

  9
$DIMASO
 70
     1
  9
$DIMSHO
 70
     1
  9
$DIMPOST
  1

  9
$DIMAPOST
  1

  9
$DIMALT
 70
     0
  9
$DIMALTD
 70
     2
  9
$DIMALTF
 40
25.4
  9
$DIMLFAC
 40
1.0
  9
$DIMTOFL
 70
     0
  9
$DIMTVP
 40
0.0
  9
$DIMTIX
 70
     0
  9
$DIMSOXD
 70
     0
  9
$DIMSAH
 70
     0
  9
$DIMBLK1
  1

  9
$DIMBLK2
  1

  9
$DIMSTYLE
  2
Standard
  9
$DIMCLRD
 70
     0
  9
$DIMCLRE
 70
     0
  9
$DIMCLRT
 70
     0
  9
$DIMTFAC
 40
1.0
  9
$DIMGAP
 40
0.09
  9
$DIMJUST
 70
     0
  9
$DIMSD1
 70
     0
  9
$DIMSD2
 70
     0
  9
$DIMTOLJ
 70
     1
  9
$DIMTZIN
 70
     0
  9
$DIMALTZ
 70
     0
  9
$DIMALTTZ
 70
     0
  9
$DIMUPT
 70
     0
  9
$DIMDEC
 70
     4
  9
$DIMTDEC
 70
     4
  9
$DIMALTU
 70
     2
  9
$DIMALTTD
 70
     2
  9
$DIMTXSTY
  7
Standard
  9
$DIMAUNIT
 70
     0
  9
$DIMADEC
 70
     0
  9
$DIMALTRND
 40
0.0
  9
$DIMAZIN
 70
     0
  9
$DIMDSEP
 70
    46
  9
$DIMATFIT
 70
     3
  9
$DIMFRAC
 70
     0
  9
$DIMLDRBLK
  1

  9
$DIMLUNIT
 70
     2
  9
$DIMLWD
 70
    -2
  9
$DIMLWE
 70
    -2
  9
$DIMTMOVE
 70
     2
  9
$LUNITS
 70
     2
  9
$LUPREC
 70
     3
  9
$SKETCHINC
 40
0.1
  9
$FILLETRAD
 40
0.5
  9
$AUNITS
 70
     0
  9
$AUPREC
 70
     0
  9
$MENU
  1
.
  9
$ELEVATION
 40
0.0
  9
$PELEVATION
 40
0.0
  9
$THICKNESS
 40
0.0
  9
$LIMCHECK
 70
     0
  9
$CHAMFERA
 40
0.5
  9
$CHAMFERB
 40
0.5
  9
$CHAMFERC
 40
1.0
  9
$CHAMFERD
 40
0.0
  9
$SKPOLY
 70
     0
  9
$TDCREATE
 40
2455662.77384691
  9
$TDUCREATE
 40
2455663.065513576
  9
$TDUPDATE
 40
2455662.773846922
  9
$TDUUPDATE
 40
2455663.065513588
  9
$TDINDWG
 40
0.0000000116
  9
$TDUSRTIMER
 40
0.0000000116
  9
$USRTIMER
 70
     1
  9
$ANGBASE
 50
0.0
  9
$ANGDIR
 70
     0
  9
$PDMODE
 70
     0
  9
$PDSIZE
 40
0.0
  9
$PLINEWID
 40
0.0
  9
$SPLFRAME
 70
     0
  9
$SPLINETYPE
 70
     6
  9
$SPLINESEGS
 70
     8
  9
$HANDSEED
  5
247
  9
$SURFTAB1
 70
     6
  9
$SURFTAB2
 70
     6
  9
$SURFTYPE
 70
     6
  9
$SURFU
 70
     6
  9
$SURFV
 70
     6
  9
$UCSBASE
  2

  9
$UCSNAME
  2

  9
$UCSORG
 10
0.0
 20
0.0
 30
0.0
  9
$UCSXDIR
 10
1.0
 20
0.0
 30
0.0
  9
$UCSYDIR
 10
0.0
 20
1.0
 30
0.0
  9
$UCSORTHOREF
  2

  9
$UCSORTHOVIEW
 70
     0
  9
$UCSORGTOP
 10
0.0
 20
0.0
 30
0.0
  9
$UCSORGBOTTOM
 10
0.0
 20
0.0
 30
0.0
  9
$UCSORGLEFT
 10
0.0
 20
0.0
 30
0.0
  9
$UCSORGRIGHT
 10
0.0
 20
0.0
 30
0.0
  9
$UCSORGFRONT
 10
0.0
 20
0.0
 30
0.0
  9
$UCSORGBACK
 10
0.0
 20
0.0
 30
0.0
  9
$PUCSBASE
  2

  9
$PUCSNAME
  2

  9
$PUCSORG
 10
0.0
 20
0.0
 30
0.0
  9
$PUCSXDIR
 10
1.0
 20
0.0
 30
0.0
  9
$PUCSYDIR
 10
0.0
 20
1.0
 30
0.0
  9
$PUCSORTHOREF
  2

  9
$PUCSORTHOVIEW
 70
     0
  9
$PUCSORGTOP
 10
0.0
 20
0.0
 30
0.0
  9
$PUCSORGBOTTOM
 10
0.0
 20
0.0
 30
0.0
  9
$PUCSORGLEFT
 10
0.0
 20
0.0
 30
0.0
  9
$PUCSORGRIGHT
 10
0.0
 20
0.0
 30
0.0
  9
$PUCSORGFRONT
 10
0.0
 20
0.0
 30
0.0
  9
$PUCSORGBACK
 10
0.0
 20
0.0
 30
0.0
  9
$USERI1
 70
     0
  9
$USERI2
 70
     0
  9
$USERI3
 70
     0
  9
$USERI4
 70
     0
  9
$USERI5
 70
     0
  9
$USERR1
 40
0.0
  9
$USERR2
 40
0.0
  9
$USERR3
 40
0.0
  9
$USERR4
 40
0.0
  9
$USERR5
 40
0.0
  9
$WORLDVIEW
 70
     1
  9
$SHADEDGE
 70
     3
  9
$SHADEDIF
 70
    70
  9
$TILEMODE
 70
     1
  9
$MAXACTVP
 70
    64
  9
$PINSBASE
 10
0.0
 20
0.0
 30
0.0
  9
$PLIMCHECK
 70
     0
  9
$PEXTMIN
 10
1.000000000000000E+20
 20
1.000000000000000E+20
 30
1.000000000000000E+20
  9
$PEXTMAX
 10
-1.000000000000000E+20
 20
-1.000000000000000E+20
 30
-1.000000000000000E+20
  9
$PLIMMIN
 10
0.0
 20
0.0
  9
$PLIMMAX
 10
12.0
 20
9.0
  9
$UNITMODE
 70
     0
  9
$VISRETAIN
 70
     1
  9
$PLINEGEN
 70
     0
  9
$PSLTSCALE
 70
     1
  9
$TREEDEPTH
 70
  3020
  9
$CMLSTYLE
  2
Standard
  9
$CMLJUST
 70
     0
  9
$CMLSCALE
 40
1.0
  9
$PROXYGRAPHICS
 70
     1
  9
$MEASUREMENT
 70
     0
  9
$CELWEIGHT
370
    -1
  9
$ENDCAPS
280
     0
  9
$JOINSTYLE
280
     0
  9
$LWDISPLAY
290
     0
  9
$INSUNITS
 70
     2
  9
$HYPERLINKBASE
  1

  9
$STYLESHEET
  1

  9
$XEDIT
290
     1
  9
$CEPSNTYPE
380
     0
  9
$PSTYLEMODE
290
     1
  9
$FINGERPRINTGUID
  2
{15F140DF-D1D3-4F0F-BBE7-6780E27D420B}
  9
$VERSIONGUID
  2
{FAEB1C32-E019-11D5-929B-00C0DF256EC4}
  9
$EXTNAMES
290
     1
  9
$PSVPSCALE
 40
0.0
  9
$OLESTARTUP
290
     0
  9
$SORTENTS
280
   127
  9
$INDEXCTL
280
     0
  9
$HIDETEXT
280
     1
  9
$XCLIPFRAME
290
     0
  9
$HALOGAP
280
     0
  9
$OBSCOLOR
 70
   257
  9
$OBSLTYPE
280
     0
  9
$INTERSECTIONDISPLAY
280
     0
  9
$INTERSECTIONCOLOR
 70
   257
  9
$DIMASSOC
280
     2
  9
$PROJECTNAME
  1

  0
ENDSEC
  0
SECTION
  2
CLASSES
  0
CLASS
  1
ACDBDICTIONARYWDFLT
  2
AcDbDictionaryWithDefault
  3
ObjectDBX Classes
 90
        0
 91
        4
280
     0
281
     0
  0
CLASS
  1
VISUALSTYLE
  2
AcDbVisualStyle
  3
ObjectDBX Classes
 90
     4095
 91
        4
280
     0
281
     0
  0
ENDSEC
  0
SECTION
  2
TABLES
  0
TABLE
  2
VPORT
  5
8
330
0
100
AcDbSymbolTable
 70
     1
  0
VPORT
  5
29
330
8
100
AcDbSymbolTableRecord
100
AcDbViewportTableRecord
  2
*Active
 70
     0
 10
0.0
 20
0.0
 11
1.0
 21
1.0
 12
12.83837923740332
 22
12.67067195515086
 13
0.0
 23
0.0
 14
0.5
 24
0.5
 15
0.5
 25
0.5
 16
0.0
 26
0.0
 36
1.0
 17
0.0
 27
0.0
 37
0.0
 40
28.89410144864862
 41
1.091073453051111
 42
50.0
 43
0.0
 44
0.0
 50
0.0
 51
0.0
 71
     0
 72
   100
 73
     1
 74
     3
 75
     0
 76
     0
 77
     0
 78
     0
281
     0
 65
     1
110
0.0
120
0.0
130
0.0
111
1.0
121
0.0
131
0.0
112
0.0
122
1.0
132
0.0
 79
     0
146
0.0
  0
ENDTAB
  0
TABLE
  2
LTYPE
  5
5
330
0
100
AcDbSymbolTable
 70
     1
  0
LTYPE
  5
14
330
5
100
AcDbSymbolTableRecord
100
AcDbLinetypeTableRecord
  2
ByBlock
 70
     0
  3

 72
    65
 73
     0
 40
0.0
  0
LTYPE
  5
15
330
5
100
AcDbSymbolTableRecord
100
AcDbLinetypeTableRecord
  2
ByLayer
 70
     0
  3

 72
    65
 73
     0
 40
0.0
  0
LTYPE
  5
16
330
5
100
AcDbSymbolTableRecord
100
AcDbLinetypeTableRecord
  2
Continuous
 70
     0
  3
Solid line
 72
    65
 73
     0
 40
0.0
  0
ENDTAB
  0
TABLE
  2
LAYER
  5
2
330
0
100
AcDbSymbolTable
 70
     2
  0
LAYER
  5
10
330
2
100
AcDbSymbolTableRecord
100
AcDbLayerTableRecord
  2
0
 70
     0
 62
     7
  6
Continuous
370
    -3
390
F
  0
LAYER
  5
3B
330
2
100
AcDbSymbolTableRecord
100
AcDbLayerTableRecord
  2
Default
 70
     0
 62
     7
  6
Continuous
370
    -3
390
F
  0
ENDTAB
  0
TABLE
  2
STYLE
  5
3
330
0
100
AcDbSymbolTable
 70
     1
  0
STYLE
  5
11
330
3
100
AcDbSymbolTableRecord
100
AcDbTextStyleTableRecord
  2
Standard
 70
     0
 40
0.0
 41
1.0
 50
0.0
 71
     0
 42
0.2
  3
txt
  4

  0
ENDTAB
  0
TABLE
  2
VIEW
  5
6
330
0
100
AcDbSymbolTable
 70
     0
  0
ENDTAB
  0
TABLE
  2
UCS
  5
7
330
0
100
AcDbSymbolTable
 70
     0
  0
ENDTAB
  0
TABLE
  2
APPID
  5
9
330
0
100
AcDbSymbolTable
 70
     1
  0
APPID
  5
12
330
9
100
AcDbSymbolTableRecord
100
AcDbRegAppTableRecord
  2
ACAD
 70
     0
  0
ENDTAB
  0
TABLE
  2
DIMSTYLE
  5
A
330
0
100
AcDbSymbolTable
 70
     1
100
AcDbDimStyleTable
  0
DIMSTYLE
105
27
330
A
100
AcDbSymbolTableRecord
100
AcDbDimStyleTableRecord
  2
Standard
 70
     0
340
11
  0
ENDTAB
  0
TABLE
  2
BLOCK_RECORD
  5
1
330
0
100
AcDbSymbolTable
 70
     1
  0
BLOCK_RECORD
  5
1F
330
1
100
AcDbSymbolTableRecord
100
AcDbBlockTableRecord
  2
*Model_Space
340
22
  0
BLOCK_RECORD
  5
1B
330
1
100
AcDbSymbolTableRecord
100
AcDbBlockTableRecord
  2
*Paper_Space
340
1E
  0
BLOCK_RECORD
  5
23
330
1
100
AcDbSymbolTableRecord
100
AcDbBlockTableRecord
  2
*Paper_Space0
340
26
  0
ENDTAB
  0
ENDSEC
  0
SECTION
  2
BLOCKS
  0
BLOCK
  5
20
330
1F
100
AcDbEntity
  8
0
100
AcDbBlockBegin
  2
*Model_Space
 70
     0
 10
0.0
 20
0.0
 30
0.0
  3
*Model_Space
  1

  0
ENDBLK
  5
21
330
1F
100
AcDbEntity
  8
0
100
AcDbBlockEnd
  0
BLOCK
  5
1C
330
1B
100
AcDbEntity
 67
     1
  8
0
100
AcDbBlockBegin
  2
*Paper_Space
 70
     0
 10
0.0
 20
0.0
 30
0.0
  3
*Paper_Space
  1

  0
ENDBLK
  5
1D
330
1B
100
AcDbEntity
 67
     1
  8
0
100
AcDbBlockEnd
  0
BLOCK
  5
24
330
23
100
AcDbEntity
  8
0
100
AcDbBlockBegin
  2
*Paper_Space0
 70
     0
 10
0.0
 20
0.0
 30
0.0
  3
*Paper_Space0
  1

  0
ENDBLK
  5
25
330
23
100
AcDbEntity
  8
0
100
AcDbBlockEnd
  0
ENDSEC
  0
SECTION
  2
ENTITIES
  0
LINE
  5
3C
330
1F
100
AcDbEntity
  8
Default
100
AcDbLine
 10
26.29272733092769
 20
16.55912780032818
 30
0.7037438631617532
 11
27.19099326432814
 21
17.0398714446472
 31
3.275430195286585
  0
LINE
  5
3D
330
1F
100
AcDbEntity
  8
Default
100
AcDbLine
 10
27.26081177543893
 20
19.33966995128903
 30
0.4198427024951974
 11
26.29272733092769
 21
16.55912780032818
 31
0.7037438631617532
  0
LINE
  5
3E
330
1F
100
AcDbEntity
  8
Default
100
AcDbLine
 10
28.29209837484751
 20
16.523782956511
 30
0.739327156299268
 11
27.26081177543893
 21
19.33966995128903
 31
0.4198427024951974
  0
LINE
  5
3F
330
1F
100
AcDbEntity
  8
Default
100
AcDbLine
 10
27.19099326432814
 20
17.0398714446472
 30
3.275430195286584
 11
28.29209837484751
 21
16.523782956511
 31
0.7393271562992676
  0
LINE
  5
40
330
1F
100
AcDbEntity
  8
Default
100
AcDbLine
 10
26.22851750502386
 20
18.1473751255575
 30
1.789106562735472
 11
27.01162422087931
 21
18.31837075258529
 31
4.459594760201337
  0
LINE
  5
41
330
1F
100
AcDbEntity
  8
Default
100
AcDbLine
 10
27.03177523774948
 20
20.97895535852247
 30
1.93586513605347
 11
26.22851750502386
 21
18.1473751255575
 31
1.789106562735472
  0
LINE
  5
42
330
1F
100
AcDbEntity
  8
Default
100
AcDbLine
 10
28.22328753474319
 20
18.23216627037874
 30
1.906166335046305
 11
27.03177523774948
 21
20.97895535852247
 31
1.935865136053471
  0
LINE
  5
43
330
1F
100
AcDbEntity
  8
Default
100
AcDbLine
 10
27.01162422087931
 20
18.31837075258529
 30
4.459594760201337
 11
28.22328753474319
 21
18.23216627037874
 31
1.906166335046306
  0
LINE
  5
44
330
1F
100
AcDbEntity
  8
Default
100
AcDbLine
 10
26.03036704184496
 20
19.56228031843928
 30
3.098747497747298
 11
26.72984963501242
 21
19.46615786363597
 31
5.816270514775027
  0
LINE
  5
45
330
1F
100
AcDbEntity
  8
Default
100
AcDbLine
 10
26.68795385580655
 20
22.38215725030583
 30
3.592867707081822
 11
26.03036704184496
 21
19.56228031843928
 31
3.098747497747298
  0
LINE
  5
46
330
1F
100
AcDbEntity
  8
Default
100
AcDbLine
 10
28.0130324167838
 20
19.73504579266849
 30
3.296712398507505
 11
26.68795385580656
 21
22.38215725030583
 31
3.592867707081822
  0
LINE
  5
47
330
1F
100
AcDbEntity
  8
Default
100
AcDbLine
 10
26.72984963501242
 20
19.46615786363596
 30
5.816270514775027
 11
28.0130324167838
 21
19.73504579266849
 31
3.296712398507503
  0
LINE
  5
48
330
1F
100
AcDbEntity
  8
Default
100
AcDbLine
 10
25.72513268622647
 20
20.80663301603189
 30
4.56897257531168
 11
26.36585558342665
 21
20.47966092318503
 31
7.294304093935008
  0
LINE
  5
49
330
1F
100
AcDbEntity
  8
Default
100
AcDbLine
 10
26.25619598861174
 20
23.58472538600049
 30
5.346259643811263
 11
25.72513268622647
 21
20.80663301603189
 31
4.56897257531168
  0
LINE
  5
4A
330
1F
100
AcDbEntity
  8
Default
100
AcDbLine
 10
27.69267080459248
 20
21.04168209790991
 30
4.840165646545164
 11
26.25619598861174
 21
23.58472538600049
 31
5.346259643811263
  0
LINE
  5
4B
330
1F
100
AcDbEntity
  8
Default
100
AcDbLine
 10
26.36585558342665
 20
20.47966092318503
 30
7.294304093935008
 11
27.69267080459248
 21
21.04168209790991
 31
4.840165646545165
  0
LINE
  5
4C
330
1F
100
AcDbEntity
  8
Default
100
AcDbLine
 10
25.33551547420529
 20
21.89161196775411
 30
6.151117565748058
 11
25.93294114417571
 21
21.34234294192729
 31
8.85168430044412
  0
LINE
  5
4D
330
1F
100
AcDbEntity
  8
Default
100
AcDbLine
 10
25.74442944156594
 20
24.60469593280122
 30
7.187399461377382
 11
25.33551547420529
 21
21.89161196775411
 31
6.151117565748058
  0
LINE
  5
4E
330
1F
100
AcDbEntity
  8
Default
100
AcDbLine
 10
27.28653609783308
 20
22.1727743414314
 30
6.489446171998207
 11
25.74442944156594
 21
24.60469593280122
 31
7.187399461377382
  0
LINE
  5
4F
330
1F
100
AcDbEntity
  8
Default
100
AcDbLine
 10
25.93294114417571
 20
21.34234294192729
 30
8.85168430044412
 11
27.28653609783308
 21
22.1727743414314
 31
6.489446171998205
  0
LINE
  5
50
330
1F
100
AcDbEntity
  8
Default
100
AcDbLine
 10
24.87278369882683
 20
22.81376487423924
 30
7.815795493988118
 11
25.43641419782651
 21
22.046795924561
 31
10.47125348742263
  0
LINE
  5
51
330
1F
100
AcDbEntity
  8
Default
100
AcDbLine
 10
25.1588456477227
 20
25.43562427748717
 30
9.097526506167167
 11
24.87278369882683
 21
22.81376487423924
 31
7.815795493988119
  0
LINE
  5
52
330
1F
100
AcDbEntity
  8
Default
100
AcDbLine
 10
25.43641419782651
 20
22.046795924561
 30
10.47125348742263
 11
26.8045868869148
 21
23.13327400048927
 31
8.223288267833379
  0
LINE
  5
53
330
1F
100
AcDbEntity
  8
Default
100
AcDbLine
 10
25.1588456477227
 20
25.43562427748717
 30
9.097526506167167
 11
26.8045868869148
 21
23.13327400048927
 31
8.223288267833379
  0
LINE
  5
54
330
1F
100
AcDbEntity
  8
Default
100
AcDbLine
 10
24.34257664292349
 20
23.56604306874812
 30
9.54524622529064
 11
24.50709774136151
 21
26.0728925661094
 31
11.05535055900173
  0
LINE
  5
55
330
1F
100
AcDbEntity
  8
Default
100
AcDbLine
 10
24.88143255443892
 20
22.58930045864989
 30
12.13830355945763
 11
24.34257664292349
 21
23.56604306874812
 31
9.54524622529064
  0
LINE
  5
56
330
1F
100
AcDbEntity
  8
Default
100
AcDbLine
 10
26.2526832026257
 20
23.91637713330005
 30
10.02353376829915
 11
24.88143255443892
 21
22.58930045864989
 31
12.13830355945763
  0
LINE
  5
57
330
1F
100
AcDbEntity
  8
Default
100
AcDbLine
 10
24.50709774136151
 20
26.0728925661094
 30
11.05535055900173
 11
26.2526832026257
 21
23.91637713330005
 31
10.02353376829915
  0
LINE
  5
58
330
1F
100
AcDbEntity
  8
Default
100
AcDbLine
 10
23.75100560663554
 20
24.14437615092068
 30
11.32224201879628
 11
23.79757099849439
 21
26.51722794098317
 31
13.04067452694196
  0
LINE
  5
59
330
1F
100
AcDbEntity
  8
Default
100
AcDbLine
 10
24.2741870772326
 20
22.96949217819113
 30
13.83737760558979
 11
23.75100560663554
 21
24.14437615092068
 31
11.32224201879628
  0
LINE
  5
5A
330
1F
100
AcDbEntity
  8
Default
100
AcDbLine
 10
25.63752468916487
 20
24.51781687383861
 30
11.87141209966308
 11
24.2741870772326
 21
22.96949217819113
 31
13.8373776055898
  0
LINE
  5
5B
330
1F
100
AcDbEntity
  8
Default
100
AcDbLine
 10
23.79757099849439
 20
26.51722794098317
 30
13.04067452694196
 11
25.63752468916487
 21
24.51781687383861
 31
11.87141209966308
  0
LINE
  5
5C
330
1F
100
AcDbEntity
  8
Default
100
AcDbLine
 10
23.10510307493885
 20
24.54880729538145
 30
13.12950170731873
 11
23.0373855979515
 21
26.77095941285891
 31
15.03725940991693
  0
LINE
  5
5D
330
1F
100
AcDbEntity
  8
Default
100
AcDbLine
 10
23.62148788471069
 20
23.18730705485285
 30
15.55164061116034
 11
23.10510307493885
 21
24.54880729538145
 31
13.12950170731873
  0
LINE
  5
5E
330
1F
100
AcDbEntity
  8
Default
100
AcDbLine
 10
24.96665500078812
 20
24.93791282379285
 30
13.74855042521301
 11
23.6214878847107
 21
23.18730705485285
 31
15.55164061116034
  0
LINE
  5
5F
330
1F
100
AcDbEntity
  8
Default
100
AcDbLine
 10
23.0373855979515
 20
26.77095941285891
 30
15.03725940991693
 11
24.96665500078812
 21
24.93791282379285
 31
13.74855042521301
  0
LINE
  5
60
330
1F
100
AcDbEntity
  8
Default
100
AcDbLine
 10
22.41179711465062
 20
24.78018576867941
 30
14.95041887583482
 11
22.23210642832551
 21
26.83444717507665
 31
17.03189556445908
  0
LINE
  5
61
330
1F
100
AcDbEntity
  8
Default
100
AcDbLine
 10
22.93048469014701
 20
23.24180483347544
 30
17.26323197184381
 11
22.41179711465062
 21
24.78018576867941
 31
14.95041887583482
  0
LINE
  5
62
330
1F
100
AcDbEntity
  8
Default
100
AcDbLine
 10
24.24707636801155
 20
25.17808069903234
 30
15.63848114524244
 11
22.930484690147
 21
23.24180483347544
 31
17.26323197184381
  0
LINE
  5
63
330
1F
100
AcDbEntity
  8
Default
100
AcDbLine
 10
22.23210642832551
 20
26.83444717507665
 30
17.03189556445908
 11
24.24707636801155
 21
25.17808069903234
 31
15.63848114524244
  0
LINE
  5
64
330
1F
100
AcDbEntity
  8
Default
100
AcDbLine
 10
21.67757873428835
 20
24.83807786549097
 30
16.76904475611279
 11
21.38735085335563
 21
26.7044926370505
 31
19.00999332944153
  0
LINE
  5
65
330
1F
100
AcDbEntity
  8
Default
100
AcDbLine
 10
22.20770577243831
 20
23.13064318645262
 30
18.95571961729197
 11
21.67757873428835
 21
24.83807786549097
 31
16.76904475611279
  0
LINE
  5
66
330
1F
100
AcDbEntity
  8
Default
100
AcDbLine
 10
23.48501238418415
 20
25.23817414306112
 30
17.52608278019009
 11
22.20770577243831
 21
23.13064318645262
 31
18.95571961729197
  0
LINE
  5
67
330
1F
100
AcDbEntity
  8
Default
100
AcDbLine
 10
21.38735085335563
 20
26.7044926370505
 30
19.00999332944153
 11
23.48501238418415
 21
25.23817414306112
 31
17.52608278019009
  0
LINE
  5
68
330
1F
100
AcDbEntity
  8
Default
100
AcDbLine
 10
20.908595061347
 20
24.71979286206626
 30
18.56971884011266
 11
20.5094633860326
 21
26.37731475536194
 31
20.95491906088253
  0
LINE
  5
69
330
1F
100
AcDbEntity
  8
Default
100
AcDbLine
 10
21.45959995383513
 20
22.85187088965299
 30
20.61313875587381
 11
20.908595061347
 21
24.71979286206626
 31
18.56971884011266
  0
LINE
  5
6A
330
1F
100
AcDbEntity
  8
Default
100
AcDbLine
 10
22.68646156444692
 20
25.11534296143686
 30
19.39599410662083
 11
21.45959995383513
 21
22.85187088965299
 31
20.61313875587381
  0
LINE
  5
6B
330
1F
100
AcDbEntity
  8
Default
100
AcDbLine
 10
20.5094633860326
 20
26.37731475536194
 30
20.95491906088253
 11
22.68646156444692
 21
25.11534296143686
 31
19.39599410662083
  0
LINE
  5
6C
330
1F
100
AcDbEntity
  8
Default
100
AcDbLine
 10
20.11127836491914
 20
24.42266377423546
 30
20.3361540310851
 11
19.60416991404549
 21
25.84836262890169
 31
22.84895601447243
  0
LINE
  5
6D
330
1F
100
AcDbEntity
  8
Default
100
AcDbLine
 10
20.69290052326474
 20
22.40395488612286
 30
22.21725300936108
 11
20.11127836491914
 21
24.42266377423546
 31
20.3361540310851
  0
LINE
  5
6E
330
1F
100
AcDbEntity
  8
Default
100
AcDbLine
 10
21.85778497494857
 20
24.80652187077947
 30
21.23190378567123
 11
20.69290052326474
 21
22.40395488612286
 31
22.21725300936108
  0
LINE
  5
6F
330
1F
100
AcDbEntity
  8
Default
100
AcDbLine
 10
19.60416991404549
 20
25.84836262890169
 30
22.84895601447243
 11
21.85778497494857
 21
24.80652187077948
 31
21.23190378567122
  0
LINE
  5
70
330
1F
100
AcDbEntity
  8
Default
100
AcDbLine
 10
19.29227789499287
 20
23.94416794420047
 30
22.04967639984124
 11
18.67724327008593
 21
25.11212194343705
 31
24.67090409399673
  0
LINE
  5
71
330
1F
100
AcDbEntity
  8
Default
100
AcDbLine
 10
19.914127257062
 20
21.7854503403185
 30
23.74802719408045
 11
19.29227789499286
 21
23.94416794420047
 31
22.04967639984125
  0
LINE
  5
72
330
1F
100
AcDbEntity
  8
Default
100
AcDbLine
 10
21.00479254231734
 20
24.30814957082408
 30
23.01653262399226
 11
19.914127257062
 21
21.7854503403185
 31
23.74802719408045
  0
LINE
  5
73
330
1F
100
AcDbEntity
  8
Default
100
AcDbLine
 10
18.67724327008593
 20
25.11212194343706
 30
24.67090409399673
 11
21.00479254231734
 21
24.30814957082409
 31
23.01653262399226
  0
LINE
  5
74
330
1F
100
AcDbEntity
  8
Default
100
AcDbLine
 10
18.45792073226039
 20
23.28149233036613
 30
23.68969322200865
 11
17.73608653472944
 21
24.16366599276702
 31
26.39678142983091
  0
LINE
  5
75
330
1F
100
AcDbEntity
  8
Default
100
AcDbLine
 10
18.45792073226039
 20
23.28149233036613
 30
23.68969322200865
 11
19.13136120692016
 21
20.99672988331352
 31
25.18349993223236
  0
LINE
  5
76
330
1F
100
AcDbEntity
  8
Default
100
AcDbLine
 10
20.13344979488751
 20
23.61607995338943
 30
24.72923806606853
 11
19.13136120692016
 21
20.99672988331352
 31
25.18349993223236
  0
LINE
  5
77
330
1F
100
AcDbEntity
  8
Default
100
AcDbLine
 10
17.73608653472944
 20
24.16366599276702
 30
26.39678142983091
 11
20.13344979488751
 21
23.61607995338943
 31
24.72923806606853
  0
LINE
  5
78
330
1F
100
AcDbEntity
  8
Default
100
AcDbLine
 10
17.61567245204512
 20
22.4327652957098
 30
25.23421308483943
 11
16.7921154407805
 21
22.9943999046148
 31
28.00274061696498
  0
LINE
  5
79
330
1F
100
AcDbEntity
  8
Default
100
AcDbLine
 10
18.3595646857511
 20
20.04090636895679
 30
26.49665080427129
 11
17.61567245204512
 21
22.4327652957098
 31
25.23421308483944
  0
LINE
  5
7A
330
1F
100
AcDbEntity
  8
Default
100
AcDbLine
 10
19.25177528960445
 20
22.72763058037074
 30
26.34606827722383
 11
18.3595646857511
 21
20.04090636895679
 31
26.49665080427129
  0
LINE
  5
7B
330
1F
100
AcDbEntity
  8
Default
100
AcDbLine
 10
16.7921154407805
 20
22.9943999046148
 30
28.00274061696498
 11
19.25177528960445
 21
22.72763058037074
 31
26.34606827722383
  0
LINE
  5
7C
330
1F
100
AcDbEntity
  8
Default
100
AcDbLine
 10
16.77794967104196
 20
21.39518380908397
 30
26.6594650897849
 11
15.863734312253
 21
21.59511045789105
 31
29.45566781234349
  0
LINE
  5
7D
330
1F
100
AcDbEntity
  8
Default
100
AcDbLine
 10
17.61678137081572
 20
18.92155069527299
 30
27.65921799929372
 11
16.77794967104196
 21
21.39518380908397
 31
26.6594650897849
  0
LINE
  5
7E
330
1F
100
AcDbEntity
  8
Default
100
AcDbLine
 10
18.37373045548961
 20
21.64012246448761
 30
27.83992633145136
 11
17.61678137081573
 21
18.92155069527299
 31
27.65921799929372
  0
LINE
  5
7F
330
1F
100
AcDbEntity
  8
Default
100
AcDbLine
 10
15.863734312253
 20
21.59511045789105
 30
29.45566781234349
 11
18.37373045548961
 21
21.64012246448761
 31
27.83992633145136
  0
LINE
  5
80
330
1F
100
AcDbEntity
  8
Default
100
AcDbLine
 10
15.96289508058305
 20
20.16679734594248
 30
27.93508544778113
 11
14.97396870233151
 21
19.97850525474051
 31
30.70507274734898
  0
LINE
  5
81
330
1F
100
AcDbEntity
  8
Default
100
AcDbLine
 10
16.91077509599748
 20
17.63852766646739
 30
28.65041618128582
 11
15.96289508058305
 21
20.16679734594248
 31
27.93508544778113
  0
LINE
  5
82
330
1F
100
AcDbEntity
  8
Default
100
AcDbLine
 10
17.51762060248566
 20
20.34986380722157
 30
29.17980036385607
 11
16.91077509599748
 21
17.63852766646739
 31
28.65041618128582
  0
LINE
  5
83
330
1F
100
AcDbEntity
  8
Default
100
AcDbLine
 10
14.97396870233151
 20
19.97850525474052
 30
30.70507274734898
 11
17.51762060248566
 21
20.34986380722157
 31
29.17980036385607
  0
LINE
  5
84
330
1F
100
AcDbEntity
  8
Default
100
AcDbLine
 10
14.12548323636456
 20
18.17905529243158
 30
31.70492525568668
 11
15.18781554060285
 21
18.75851093897036
 31
29.02341721472407
  0
LINE
  5
85
330
1F
100
AcDbEntity
  8
Default
100
AcDbLine
 10
16.23630543408846
 20
16.20788804816919
 30
29.44500112656744
 11
15.18781554060285
 21
18.75851093897036
 31
29.02341721472407
  0
LINE
  5
86
330
1F
100
AcDbEntity
  8
Default
100
AcDbLine
 10
16.69692825772612
 20
18.85852198223755
 30
30.3320717139107
 11
16.23630543408846
 21
16.20788804816919
 31
29.44500112656744
  0
LINE
  5
87
330
1F
100
AcDbEntity
  8
Default
100
AcDbLine
 10
14.12548323636456
 20
18.17905529243158
 30
31.70492525568668
 11
16.69692825772612
 21
18.85852198223755
 31
30.3320717139107
  0
LINE
  5
88
330
1F
100
AcDbEntity
  8
Default
100
AcDbLine
 10
14.45277245577488
 20
17.19959099136904
 30
29.88954282188384
 11
13.31459152066153
 21
16.21583434726099
 31
32.42378714056485
  0
LINE
  5
89
330
1F
100
AcDbEntity
  8
Default
100
AcDbLine
 10
15.60194981418323
 20
14.67290672675373
 30
30.00806900312297
 11
14.45277245577488
 21
17.19959099136904
 31
29.88954282188384
  0
LINE
  5
8A
330
1F
100
AcDbEntity
  8
Default
100
AcDbLine
 10
15.90901621467812
 20
17.18735234923174
 30
31.26038356037026
 11
15.60194981418323
 21
14.67290672675373
 31
30.00806900312298
  0
LINE
  5
8B
330
1F
100
AcDbEntity
  8
Default
100
AcDbLine
 10
13.31459152066153
 20
16.21583434726099
 30
32.42378714056485
 11
15.90901621467812
 21
17.18735234923174
 31
31.26038356037026
  0
LINE
  5
8C
330
1F
100
AcDbEntity
  8
Default
100
AcDbLine
 10
13.75624369396134
 20
15.51337686915686
 30
30.50712890800662
 11
12.60242402540577
 21
14.03725735057922
 31
32.83232660965448
  0
LINE
  5
8D
330
1F
100
AcDbEntity
  8
Default
100
AcDbLine
 10
15.09139394624925
 20
13.11455556202903
 30
30.30211360139312
 11
13.75624369396134
 21
15.51337686915686
 31
30.50712890800662
  0
LINE
  5
8E
330
1F
100
AcDbEntity
  8
Default
100
AcDbLine
 10
15.16029764088339
 20
15.37536420485787
 30
31.92472723568119
 11
15.09139394624925
 21
13.11455556202903
 31
30.30211360139312
  0
LINE
  5
8F
330
1F
100
AcDbEntity
  8
Default
100
AcDbLine
 10
12.60242402540577
 20
14.03725735057922
 30
32.83232660965448
 11
15.16029764088339
 21
15.37536420485787
 31
31.92472723568119
  0
LINE
  5
90
330
1F
100
AcDbEntity
  8
Default
100
AcDbLine
 10
13.15937319204637
 20
13.68846085560343
 30
30.84984569876807
 11
12.14988971935508
 21
11.68337714055674
 31
32.84999259119913
  0
LINE
  5
91
330
1F
100
AcDbEntity
  8
Default
100
AcDbLine
 10
14.79255628221765
 20
11.54872538516399
 30
30.3109947442268
 11
13.15937319204637
 21
13.68846085560343
 31
30.84984569876806
  0
LINE
  5
92
330
1F
100
AcDbEntity
  8
Default
100
AcDbLine
 10
14.53444477960863
 20
13.46335205700482
 30
32.28459451227952
 11
14.79255628221765
 21
11.54872538516399
 31
30.3109947442268
  0
LINE
  5
93
330
1F
100
AcDbEntity
  8
Default
100
AcDbLine
 10
12.14988971935508
 20
11.68337714055674
 30
32.84999259119913
 11
14.53444477960863
 21
13.46335205700482
 31
32.28459451227952
  0
LINE
  5
94
330
1F
100
AcDbEntity
  8
Default
100
AcDbLine
 10
12.78965161456149
 20
11.76164343696515
 30
30.86337208505144
 11
11.83579895400731
 21
9.729846352527904
 31
32.56249233014765
  0
LINE
  5
95
330
1F
100
AcDbEntity
  8
Default
100
AcDbLine
 10
14.47019983766543
 20
9.601927211742678
 30
30.01457231526602
 11
12.78965161456149
 21
11.76164343696515
 31
30.86337208505144
  0
LINE
  5
96
330
1F
100
AcDbEntity
  8
Default
100
AcDbLine
 10
14.15279438701122
 20
11.47045908875558
 30
32.29761525037448
 11
14.47019983766543
 21
9.601927211742677
 31
30.01457231526602
  0
LINE
  5
97
330
1F
100
AcDbEntity
  8
Default
100
AcDbLine
 10
11.83579895400731
 20
9.729846352527902
 30
32.56249233014765
 11
14.15279438701121
 21
11.47045908875558
 31
32.29761525037447
  0
LINE
  5
98
330
1F
100
AcDbEntity
  8
Default
100
AcDbLine
 10
12.49942318231936
 20
9.974156491764141
 30
30.59729580801006
 11
11.20319582748527
 21
7.992939837609008
 31
32.08814569536909
  0
LINE
  5
99
330
1F
100
AcDbEntity
  8
Default
100
AcDbLine
 10
13.78481125645695
 20
7.701623637073133
 30
29.4999562948744
 11
12.49942318231936
 21
9.974156491764141
 31
30.59729580801006
  0
LINE
  5
9A
330
1F
100
AcDbEntity
  8
Default
100
AcDbLine
 10
13.80657560935336
 20
9.357617072506446
 30
31.97976883740359
 11
13.78481125645695
 21
7.701623637073133
 31
29.4999562948744
  0
LINE
  5
9B
330
1F
100
AcDbEntity
  8
Default
100
AcDbLine
 10
11.20319582748527
 20
7.992939837609009
 30
32.08814569536909
 11
13.80657560935336
 21
9.357617072506446
 31
31.97976883740359
  0
LINE
  5
9C
330
1F
100
AcDbEntity
  8
Default
100
AcDbLine
 10
11.90520848718454
 20
8.337704714241255
 30
30.15155143310846
 11
10.30864753340291
 21
6.392195952810161
 31
31.40509573383292
  0
LINE
  5
9D
330
1F
100
AcDbEntity
  8
Default
100
AcDbLine
 10
12.85312590842328
 20
6.035035338851071
 30
28.78853428423492
 11
11.90520848718454
 21
8.337704714241255
 31
30.15155143310846
  0
LINE
  5
9E
330
1F
100
AcDbEntity
  8
Default
100
AcDbLine
 10
13.08279859675766
 20
7.356858760440899
 30
31.43655055713502
 11
12.85312590842328
 21
6.03503533885107
 31
28.78853428423492
  0
LINE
  5
9F
330
1F
100
AcDbEntity
  8
Default
100
AcDbLine
 10
10.30864753340291
 20
6.392195952810161
 30
31.40509573383292
 11
13.08279859675766
 21
7.356858760440899
 31
31.43655055713502
  0
LINE
  5
A0
330
1F
100
AcDbEntity
  8
Default
100
AcDbLine
 10
11.07515380017837
 20
6.853064168113982
 30
29.51772969560009
 11
9.205180178396276
 21
5.035041357744094
 31
30.56411063310613
  0
LINE
  5
A1
330
1F
100
AcDbEntity
  8
Default
100
AcDbLine
 10
11.68600849446727
 20
4.59793828857924
 30
27.89901035399104
 11
11.07515380017837
 21
6.853064168113982
 31
29.51772969560009
  0
LINE
  5
A2
330
1F
100
AcDbEntity
  8
Default
100
AcDbLine
 10
12.08661964164781
 20
5.574167123547266
 30
30.67590032246774
 11
11.68600849446727
 21
4.597938288579241
 31
27.89901035399104
  0
LINE
  5
A3
330
1F
100
AcDbEntity
  8
Default
100
AcDbLine
 10
9.205180178396276
 20
5.035041357744094
 30
30.56411063310613
 11
12.08661964164781
 21
5.574167123547266
 31
30.67590032246774
  0
LINE
  5
A4
330
1F
100
AcDbEntity
  8
Default
100
AcDbLine
 10
10.03895900270468
 20
5.578783626209306
 30
28.72801718538151
 11
10.34714485563309
 21
3.444836283593594
 31
26.88073308209932
  0
LINE
  5
A5
330
1F
100
AcDbEntity
  8
Default
100
AcDbLine
 10
10.03895900270468
 20
5.578783626209306
 30
28.72801718538151
 11
8.843438527816796
 21
4.549865752885115
 31
27.8187411219586
  0
LINE
  5
A6
330
1F
100
AcDbEntity
  8
Default
100
AcDbLine
 10
7.920829340870442
 20
3.93076989544679
 30
29.58724176901049
 11
10.03895900270468
 21
5.578783626209306
 31
28.7280171853815
  0
LINE
  5
A7
330
1F
100
AcDbEntity
  8
Default
100
AcDbLine
 10
10.85222967015886
 20
4.054196020114045
 30
29.73510380171565
 11
10.34714485563309
 21
3.444836283593594
 31
26.88073308209932
  0
LINE
  5
A8
330
1F
100
AcDbEntity
  8
Default
100
AcDbLine
 10
7.920829340870442
 20
3.93076989544679
 30
29.58724176901049
 11
10.85222967015886
 21
4.054196020114045
 31
29.73510380171565
  0
LINE
  5
A9
330
1F
100
AcDbEntity
  8
Default
100
AcDbLine
 10
8.843438527816796
 20
4.549865752885114
 30
27.8187411219586
 11
8.861294295195473
 21
2.601254253467338
 31
25.7377591409357
  0
LINE
  5
AA
330
1F
100
AcDbEntity
  8
Default
100
AcDbLine
 10
6.518729404671452
 20
3.133353321395816
 30
28.5086052283657
 11
8.843438527816796
 21
4.549865752885114
 31
27.8187411219586
  0
LINE
  5
AB
330
1F
100
AcDbEntity
  8
Default
100
AcDbLine
 10
9.42453566868673
 20
2.82574042615529
 30
28.6492337291512
 11
6.518729404671452
 21
3.133353321395816
 31
28.5086052283657
  0
LINE
  5
AC
330
1F
100
AcDbEntity
  8
Default
100
AcDbLine
 10
8.861294295195473
 20
2.601254253467339
 30
25.7377591409357
 11
9.424535668686731
 21
2.82574042615529
 31
28.6492337291512
  0
LINE
  5
AD
330
1F
100
AcDbEntity
  8
Default
100
AcDbLine
 10
7.506432279671769
 20
3.792249893811817
 30
26.79035604133472
 11
7.289502514312325
 21
1.936943400051663
 31
24.60265773108603
  0
LINE
  5
AE
330
1F
100
AcDbEntity
  8
Default
100
AcDbLine
 10
5.02225969236166
 20
2.503115833310774
 30
27.42885420103694
 11
7.50643227967177
 21
3.792249893811817
 31
26.79035604133472
  0
LINE
  5
AF
330
1F
100
AcDbEntity
  8
Default
100
AcDbLine
 10
7.873591420195149
 20
1.942357681051359
 30
27.45600832796667
 11
5.022259692361661
 21
2.503115833310773
 31
27.42885420103694
  0
LINE
  5
B0
330
1F
100
AcDbEntity
  8
Default
100
AcDbLine
 10
7.289502514312325
 20
1.936943400051664
 30
24.60265773108603
 11
7.873591420195149
 21
1.942357681051359
 31
27.45600832796667
  0
LINE
  5
B1
330
1F
100
AcDbEntity
  8
Default
100
AcDbLine
 10
6.009346308366913
 20
3.160715849699814
 30
25.70975438947668
 11
5.970605990620723
 21
1.435611006335461
 31
23.5353109400804
  0
LINE
  5
B2
330
1F
100
AcDbEntity
  8
Default
100
AcDbLine
 10
3.365768521300167
 20
1.873974875923044
 30
26.07912433750093
 11
6.009346308366913
 21
3.160715849699814
 31
25.70975438947668
  0
LINE
  5
B3
330
1F
100
AcDbEntity
  8
Default
100
AcDbLine
 10
6.302415898307066
 20
1.279343383662645
 30
26.32175754264629
 11
3.365768521300167
 21
1.873974875923044
 31
26.07912433750093
  0
LINE
  5
B4
330
1F
100
AcDbEntity
  8
Default
100
AcDbLine
 10
5.970605990620723
 20
1.43561100633546
 30
23.5353109400804
 11
6.302415898307067
 21
1.279343383662645
 31
26.32175754264629
  0
LINE
  5
B5
330
1F
100
AcDbEntity
  8
Default
100
AcDbLine
 10
4.565066239278832
 20
2.611962929844626
 30
24.53667805089051
 11
1.904619753622436
 21
1.310365898704237
 31
24.38117519119272
  0
LINE
  5
B6
330
1F
100
AcDbEntity
  8
Default
100
AcDbLine
 10
4.907030115400436
 20
1.025219594355174
 30
22.29489828501835
 11
4.565066239278832
 21
2.611962929844627
 31
24.53667805089051
  0
LINE
  5
B7
330
1F
100
AcDbEntity
  8
Default
100
AcDbLine
 10
4.771308272642052
 20
0.697622952413901
 30
25.07775722669082
 11
4.907030115400436
 21
1.025219594355175
 31
22.29489828501835
  0
LINE
  5
B8
330
1F
100
AcDbEntity
  8
Default
100
AcDbLine
 10
1.904619753622437
 20
1.310365898704238
 30
24.38117519119272
 11
4.771308272642052
 21
0.6976229524139012
 31
25.07775722669082
  0
LINE
  5
B9
330
1F
100
AcDbEntity
  8
Default
100
AcDbLine
 10
3.339915861950415
 20
2.139306165267465
 30
23.1104017861174
 11
0.7545621587155318
 21
0.8531016778273597
 31
22.53248904977087
  0
LINE
  5
BA
330
1F
100
AcDbEntity
  8
Default
100
AcDbLine
 10
3.992224843133321
 20
0.661422280439967
 30
20.82101977596602
 11
3.339915861950415
 21
2.139306165267466
 31
23.1104017861174
  0
LINE
  5
BB
330
1F
100
AcDbEntity
  8
Default
100
AcDbLine
 10
3.471734007072453
 20
0.196279327791969
 30
23.56567169009367
 11
3.992224843133322
 21
0.6614222804399673
 31
20.82101977596602
  0
LINE
  5
BC
330
1F
100
AcDbEntity
  8
Default
100
AcDbLine
 10
0.7545621587155319
 20
0.8531016778273602
 30
22.53248904977087
 11
3.471734007072453
 21
0.1962793277919691
 31
23.56567169009367
  0
LINE
  5
BD
330
1F
100
AcDbEntity
  8
Default
100
AcDbLine
 10
2.330837322296157
 20
1.738055205630708
 30
21.48640310996222
 11
3.201212295645095
 21
0.3426235563546223
 31
19.18276221814419
  0
LINE
  5
BE
330
1F
100
AcDbEntity
  8
Default
100
AcDbLine
 10
-0.1678785923352544
 20
0.4813448718895248
 30
20.62439695335847
 11
2.330837322296157
 21
1.738055205630708
 31
21.48640310996222
  0
LINE
  5
BF
330
1F
100
AcDbEntity
  8
Default
100
AcDbLine
 10
2.415949679552691
 20
-0.2235312473633591
 30
21.86710571577467
 11
-0.1678785923352555
 21
0.4813448718895251
 31
20.62439695335848
  0
LINE
  5
C0
330
1F
100
AcDbEntity
  8
Default
100
AcDbLine
 10
3.201212295645095
 20
0.3426235563546214
 30
19.18276221814419
 11
2.415949679552692
 21
-0.223531247363359
 31
21.86710571577467
  0
LINE
  5
C1
330
1F
100
AcDbEntity
  8
Default
100
AcDbLine
 10
1.488606767248254
 20
1.398618655678818
 30
19.74306444504141
 11
2.515747203703745
 21
0.0690377720389304
 31
17.45384679227944
  0
LINE
  5
C2
330
1F
100
AcDbEntity
  8
Default
100
AcDbLine
 10
-0.9405228019858738
 20
0.1729755797431755
 30
18.6752076335267
 11
1.488606767248255
 21
1.398618655678818
 31
19.74306444504141
  0
LINE
  5
C3
330
1F
100
AcDbEntity
  8
Default
100
AcDbLine
 10
1.544726936061582
 20
-0.5746502274346492
 30
20.06409472646125
 11
-0.940522801985874
 21
0.1729755797431755
 31
18.6752076335267
  0
LINE
  5
C4
330
1F
100
AcDbEntity
  8
Default
100
AcDbLine
 10
2.515747203703745
 20
0.0690377720389305
 30
17.45384679227944
 11
1.544726936061582
 21
-0.5746502274346489
 31
20.06409472646125
  0
LINE
  5
C5
330
1F
100
AcDbEntity
  8
Default
100
AcDbLine
 10
0.7700430038665199
 20
1.111827240952429
 30
17.93049016142654
 11
-1.581663963904776
 21
-0.0791963175686725
 31
16.66229253215215
  0
LINE
  5
C6
330
1F
100
AcDbEntity
  8
Default
100
AcDbLine
 10
1.951657999911368
 20
-0.152825463231274
 30
15.68324075948855
 11
0.7700430038665205
 21
1.111827240952429
 31
17.93049016142654
  0
LINE
  5
C7
330
1F
100
AcDbEntity
  8
Default
100
AcDbLine
 10
0.8051813978513467
 20
-0.8698138891703007
 30
18.19856426437959
 11
1.951657999911368
 21
-0.1528254632312741
 31
15.68324075948855
  0
LINE
  5
C8
330
1F
100
AcDbEntity
  8
Default
100
AcDbLine
 10
-1.581663963904776
 20
-0.079196317568673
 30
16.66229253215216
 11
0.8051813978513469
 21
-0.8698138891703008
 31
18.19856426437959
  0
LINE
  5
C9
330
1F
100
AcDbEntity
  8
Default
100
AcDbLine
 10
0.1763092786142011
 20
0.8783033836328286
 30
16.0666363125553
 11
-2.077573183217234
 21
-0.2721906219986302
 31
14.59491838133196
  0
LINE
  5
CA
330
1F
100
AcDbEntity
  8
Default
100
AcDbLine
 10
1.518513522352222
 20
-0.3213942980110285
 30
13.87793363328929
 11
0.1763092786142015
 21
0.8783033836328282
 31
16.0666363125553
  0
LINE
  5
CB
330
1F
100
AcDbEntity
  8
Default
100
AcDbLine
 10
0.1936847573923854
 20
-1.110325164432753
 30
16.27889697908541
 11
1.518513522352222
 21
-0.3213942980110284
 31
13.87793363328929
  0
LINE
  5
CC
330
1F
100
AcDbEntity
  8
Default
100
AcDbLine
 10
-2.077573183217233
 20
-0.27219062199863
 30
14.59491838133196
 11
0.193684757392385
 21
-1.110325164432753
 31
16.27889697908541
  0
LINE
  5
CD
330
1F
100
AcDbEntity
  8
Default
100
AcDbLine
 10
-0.2812758065878198
 20
0.7002233331376165
 30
14.15924790295565
 11
-2.416778853294391
 21
-0.4039435422123089
 31
12.48732318592395
  0
LINE
  5
CE
330
1F
100
AcDbEntity
  8
Default
100
AcDbLine
 10
1.223496768306486
 20
-0.4359830296470327
 30
12.04494936814584
 11
-0.2812758065878198
 21
0.7002233331376165
 31
14.15924790295565
  0
LINE
  5
CF
330
1F
100
AcDbEntity
  8
Default
100
AcDbLine
 10
-0.2777838542771956
 20
-1.293808253147253
 30
14.31360411166561
 11
1.223496768306486
 21
-0.4359830296470327
 31
12.04494936814584
  0
LINE
  5
D0
330
1F
100
AcDbEntity
  8
Default
100
AcDbLine
 10
-2.416778853294391
 20
-0.4039435422123088
 30
12.48732318592395
 11
-0.277783854277196
 21
-1.293808253147252
 31
14.31360411166561
  0
LINE
  5
D1
330
1F
100
AcDbEntity
  8
Default
100
AcDbLine
 10
-0.5936577910519935
 20
0.5788894665524305
 30
12.2183421448659
 11
-2.595474430695342
 21
-0.4738318090563709
 31
10.3594441136958
  0
LINE
  5
D2
330
1F
100
AcDbEntity
  8
Default
100
AcDbLine
 10
1.067735253670631
 20
-0.4969001544437927
 30
10.19006175203807
 11
-0.5936577910519936
 21
0.5788894665524305
 31
12.21834214486589
  0
LINE
  5
D3
330
1F
100
AcDbEntity
  8
Default
100
AcDbLine
 10
-0.5996242939359162
 20
-1.41881603841175
 30
12.31393040920389
 11
1.067735253670631
 21
-0.4969001544437924
 31
10.19006175203807
  0
LINE
  5
D4
330
1F
100
AcDbEntity
  8
Default
100
AcDbLine
 10
-2.595474430695342
 20
-0.4738318090563708
 30
10.3594441136958
 11
-0.599624293935916
 21
-1.41881603841175
 31
12.31393040920389
  0
LINE
  5
D5
330
1F
100
AcDbEntity
  8
Default
100
AcDbLine
 10
-0.7584301890677579
 20
0.5144475566220816
 30
10.2562245378625
 11
-2.615339900040877
 21
-0.4821702939864717
 31
8.224539576773008
  0
LINE
  5
D6
330
1F
100
AcDbEntity
  8
Default
100
AcDbLine
 10
1.050380162477569
 20
-0.5041832631479182
 30
8.326223287714207
 11
-0.7584301890677585
 21
0.5144475566220816
 31
10.2562245378625
  0
LINE
  5
D7
330
1F
100
AcDbEntity
  8
Default
100
AcDbLine
 10
-0.7693089879569565
 20
-1.485179520122222
 30
10.29328132787138
 11
1.050380162477569
 21
-0.5041832631479181
 31
8.326223287714207
  0
LINE
  5
D8
330
1F
100
AcDbEntity
  8
Default
100
AcDbLine
 10
-2.615339900040877
 20
-0.4821702939864714
 30
8.224539576773008
 11
-0.7693089879569552
 21
-1.485179520122223
 31
10.29328132787138
  0
LINE
  5
D9
330
1F
100
AcDbEntity
  8
Default
100
AcDbLine
 10
-0.7767719689263456
 20
0.5067497076405697
 30
8.286079191796828
 11
-2.477215493169573
 21
-0.4289217384548404
 31
6.094644436598529
  0
LINE
  5
DA
330
1F
100
AcDbEntity
  8
Default
100
AcDbLine
 10
1.170935077978108
 20
-0.4577113903815128
 30
6.466795334500313
 11
-0.7767719689263448
 21
0.5067497076405694
 31
8.286079191796828
  0
LINE
  5
DB
330
1F
100
AcDbEntity
  8
Default
100
AcDbLine
 10
-0.7881877686369667
 20
-1.493103264774937
 30
8.264683672690389
 11
1.170935077978108
 21
-0.4577113903815127
 31
6.466795334500313
  0
LINE
  5
DC
330
1F
100
AcDbEntity
  8
Default
100
AcDbLine
 10
-2.477215493169573
 20
-0.4289217384548401
 30
6.09464443659853
 11
-0.788187768636966
 21
-1.493103264774937
 31
8.264683672690389
  0
LINE
  5
DD
330
1F
100
AcDbEntity
  8
Default
100
AcDbLine
 10
-0.6493381544459835
 20
0.5558748192209971
 30
6.320746417413968
 11
-2.180845170114203
 21
-0.3136308083591443
 31
3.981899138632661
  0
LINE
  5
DE
330
1F
100
AcDbEntity
  8
Default
100
AcDbLine
 10
1.429230227072193
 20
-0.3572296854566576
 30
4.625158409205297
 11
-0.6493381544459833
 21
0.5558748192209968
 31
6.320746417413968
  0
LINE
  5
DF
330
1F
100
AcDbEntity
  8
Default
100
AcDbLine
 10
-0.6569422607454855
 20
-1.442507948057328
 30
6.240693353684875
 11
1.429230227072193
 21
-0.3572296854566577
 31
4.625158409205298
  0
LINE
  5
E0
330
1F
100
AcDbEntity
  8
Default
100
AcDbLine
 10
-2.180845170114203
 20
-0.3136308083591443
 30
3.981899138632661
 11
-0.6569422607454856
 21
-1.442507948057328
 31
6.240693353684875
  0
LINE
  5
E1
330
1F
100
AcDbEntity
  8
Default
100
AcDbLine
 10
-0.3761596417205172
 20
0.6621453547200848
 30
4.373118967285119
 11
-1.725017742186982
 21
-0.1354557278336247
 31
1.899147550764169
  0
LINE
  5
E2
330
1F
100
AcDbEntity
  8
Default
100
AcDbLine
 10
1.825327630000751
 20
-0.2024021376189462
 30
2.815058922586961
 11
-0.3761596417205182
 21
0.6621453547200852
 31
4.373118967285119
  0
LINE
  5
E3
330
1F
100
AcDbEntity
  8
Default
100
AcDbLine
 10
-0.3754553013214965
 20
-1.333005848535864
 30
4.23393858055284
 11
1.825327630000751
 21
-0.2024021376189464
 31
2.815058922586961
  0
LINE
  5
E4
330
1F
100
AcDbEntity
  8
Default
100
AcDbLine
 10
-1.725017742186983
 20
-0.1354557278336248
 30
1.899147550764168
 11
-0.3754553013214967
 21
-1.333005848535864
 31
4.23393858055284
  0
LINE
  5
E5
330
1F
100
AcDbEntity
  8
Default
100
AcDbLine
 10
0.043252463286892
 20
0.8260862490095643
 30
2.456587626790236
 11
-1.107876315675685
 21
0.1067009919574542
 31
-0.1394947273068388
  0
LINE
  5
E6
330
1F
100
AcDbEntity
  8
Default
100
AcDbLine
 10
2.359308098716056
 20
0.0071203513672913
 30
1.050901701304641
 11
0.0432524632868914
 21
0.8260862490095647
 31
2.456587626790237
  0
LINE
  5
E7
330
1F
100
AcDbEntity
  8
Default
100
AcDbLine
 10
0.0570574245268726
 20
-1.163944114462113
 30
2.257618846560894
 11
2.359308098716055
 21
0.0071203513672913
 31
1.050901701304641
  0
LINE
  5
E8
330
1F
100
AcDbEntity
  8
Default
100
AcDbLine
 10
-1.107876315675686
 20
0.106700991957454
 30
-0.1394947273068393
 11
0.0570574245268727
 21
-1.163944114462113
 31
2.257618846560894
  0
LINE
  5
E9
330
1F
100
AcDbEntity
  8
Default
100
AcDbLine
 10
0.043252463286892
 20
0.8260862490095643
 30
2.456587626790236
 11
0.6096475618726123
 21
1.048328966448788
 31
0.5854400413895471
  0
LINE
  5
EA
330
1F
100
AcDbEntity
  8
Default
100
AcDbLine
 10
-0.3761596417205172
 20
0.6621453547200848
 30
4.373118967285119
 11
0.0432524632868921
 21
0.8260862490095642
 31
2.456587626790236
  0
LINE
  5
EB
330
1F
100
AcDbEntity
  8
Default
100
AcDbLine
 10
-0.6493381544459835
 20
0.5558748192209971
 30
6.320746417413968
 11
-0.3761596417205174
 21
0.6621453547200848
 31
4.373118967285119
  0
LINE
  5
EC
330
1F
100
AcDbEntity
  8
Default
100
AcDbLine
 10
-0.7767719689263456
 20
0.5067497076405697
 30
8.286079191796828
 11
-0.6493381544459835
 21
0.555874819220997
 31
6.320746417413968
  0
LINE
  5
ED
330
1F
100
AcDbEntity
  8
Default
100
AcDbLine
 10
-0.7584301890677579
 20
0.5144475566220816
 30
10.2562245378625
 11
-0.7767719689263456
 21
0.5067497076405698
 31
8.286079191796828
  0
LINE
  5
EE
330
1F
100
AcDbEntity
  8
Default
100
AcDbLine
 10
-0.5936577910519935
 20
0.5788894665524305
 30
12.2183421448659
 11
-0.7584301890677579
 21
0.5144475566220815
 31
10.2562245378625
  0
LINE
  5
EF
330
1F
100
AcDbEntity
  8
Default
100
AcDbLine
 10
-0.2812758065878198
 20
0.7002233331376165
 30
14.15924790295565
 11
-0.5936577910519933
 21
0.5788894665524305
 31
12.2183421448659
  0
LINE
  5
F0
330
1F
100
AcDbEntity
  8
Default
100
AcDbLine
 10
0.1763092786142011
 20
0.8783033836328286
 30
16.0666363125553
 11
-0.2812758065878196
 21
0.7002233331376166
 31
14.15924790295565
  0
LINE
  5
F1
330
1F
100
AcDbEntity
  8
Default
100
AcDbLine
 10
0.7700430038665199
 20
1.111827240952429
 30
17.93049016142654
 11
0.1763092786142013
 21
0.8783033836328284
 31
16.0666363125553
  0
LINE
  5
F2
330
1F
100
AcDbEntity
  8
Default
100
AcDbLine
 10
1.488606767248254
 20
1.398618655678818
 30
19.74306444504141
 11
0.7700430038665187
 21
1.111827240952429
 31
17.93049016142654
  0
LINE
  5
F3
330
1F
100
AcDbEntity
  8
Default
100
AcDbLine
 10
2.330837322296157
 20
1.738055205630708
 30
21.48640310996222
 11
1.488606767248255
 21
1.398618655678818
 31
19.74306444504141
  0
LINE
  5
F4
330
1F
100
AcDbEntity
  8
Default
100
AcDbLine
 10
3.339915861950415
 20
2.139306165267465
 30
23.1104017861174
 11
2.330837322296156
 21
1.738055205630708
 31
21.48640310996222
  0
LINE
  5
F5
330
1F
100
AcDbEntity
  8
Default
100
AcDbLine
 10
4.565066239278832
 20
2.611962929844626
 30
24.53667805089051
 11
3.339915861950415
 21
2.139306165267465
 31
23.1104017861174
  0
LINE
  5
F6
330
1F
100
AcDbEntity
  8
Default
100
AcDbLine
 10
6.009346308366913
 20
3.160715849699814
 30
25.70975438947668
 11
4.565066239278833
 21
2.611962929844626
 31
24.53667805089051
  0
LINE
  5
F7
330
1F
100
AcDbEntity
  8
Default
100
AcDbLine
 10
7.506432279671769
 20
3.792249893811817
 30
26.79035604133472
 11
6.009346308366913
 21
3.160715849699814
 31
25.70975438947668
  0
LINE
  5
F8
330
1F
100
AcDbEntity
  8
Default
100
AcDbLine
 10
8.843438527816796
 20
4.549865752885114
 30
27.8187411219586
 11
7.506432279671768
 21
3.792249893811817
 31
26.79035604133472
  0
LINE
  5
F9
330
1F
100
AcDbEntity
  8
Default
100
AcDbLine
 10
10.03895900270468
 20
5.578783626209306
 30
28.72801718538151
 11
8.843438527816796
 21
4.549865752885115
 31
27.8187411219586
  0
LINE
  5
FA
330
1F
100
AcDbEntity
  8
Default
100
AcDbLine
 10
11.07515380017837
 20
6.853064168113982
 30
29.51772969560009
 11
10.03895900270468
 21
5.578783626209306
 31
28.7280171853815
  0
LINE
  5
FB
330
1F
100
AcDbEntity
  8
Default
100
AcDbLine
 10
11.90520848718454
 20
8.337704714241255
 30
30.15155143310846
 11
11.07515380017836
 21
6.853064168113983
 31
29.51772969560009
  0
LINE
  5
FC
330
1F
100
AcDbEntity
  8
Default
100
AcDbLine
 10
12.49942318231936
 20
9.974156491764141
 30
30.59729580801006
 11
11.90520848718454
 21
8.337704714241255
 31
30.15155143310846
  0
LINE
  5
FD
330
1F
100
AcDbEntity
  8
Default
100
AcDbLine
 10
12.78965161456149
 20
11.76164343696515
 30
30.86337208505144
 11
12.49942318231936
 21
9.974156491764141
 31
30.59729580801006
  0
LINE
  5
FE
330
1F
100
AcDbEntity
  8
Default
100
AcDbLine
 10
13.15937319204637
 20
13.68846085560343
 30
30.84984569876807
 11
12.78965161456149
 21
11.76164343696515
 31
30.86337208505144
  0
LINE
  5
FF
330
1F
100
AcDbEntity
  8
Default
100
AcDbLine
 10
13.75624369396134
 20
15.51337686915686
 30
30.50712890800662
 11
13.15937319204637
 21
13.68846085560343
 31
30.84984569876807
  0
LINE
  5
100
330
1F
100
AcDbEntity
  8
Default
100
AcDbLine
 10
14.45277245577488
 20
17.19959099136904
 30
29.88954282188384
 11
13.75624369396134
 21
15.51337686915686
 31
30.50712890800662
  0
LINE
  5
101
330
1F
100
AcDbEntity
  8
Default
100
AcDbLine
 10
15.18781554060285
 20
18.75851093897036
 30
29.02341721472407
 11
14.45277245577488
 21
17.19959099136904
 31
29.88954282188384
  0
LINE
  5
102
330
1F
100
AcDbEntity
  8
Default
100
AcDbLine
 10
15.96289508058305
 20
20.16679734594248
 30
27.93508544778113
 11
15.18781554060285
 21
18.75851093897036
 31
29.02341721472407
  0
LINE
  5
103
330
1F
100
AcDbEntity
  8
Default
100
AcDbLine
 10
16.77794967104196
 20
21.39518380908397
 30
26.6594650897849
 11
15.96289508058305
 21
20.16679734594248
 31
27.93508544778113
  0
LINE
  5
104
330
1F
100
AcDbEntity
  8
Default
100
AcDbLine
 10
17.61567245204512
 20
22.4327652957098
 30
25.23421308483943
 11
16.77794967104196
 21
21.39518380908397
 31
26.6594650897849
  0
LINE
  5
105
330
1F
100
AcDbEntity
  8
Default
100
AcDbLine
 10
18.45792073226039
 20
23.28149233036613
 30
23.68969322200865
 11
17.61567245204512
 21
22.4327652957098
 31
25.23421308483943
  0
LINE
  5
106
330
1F
100
AcDbEntity
  8
Default
100
AcDbLine
 10
19.29227789499287
 20
23.94416794420047
 30
22.04967639984124
 11
18.45792073226039
 21
23.28149233036612
 31
23.68969322200865
  0
LINE
  5
107
330
1F
100
AcDbEntity
  8
Default
100
AcDbLine
 10
20.11127836491914
 20
24.42266377423546
 30
20.3361540310851
 11
19.29227789499287
 21
23.94416794420047
 31
22.04967639984124
  0
LINE
  5
108
330
1F
100
AcDbEntity
  8
Default
100
AcDbLine
 10
20.908595061347
 20
24.71979286206626
 30
18.56971884011266
 11
20.11127836491914
 21
24.42266377423546
 31
20.3361540310851
  0
LINE
  5
109
330
1F
100
AcDbEntity
  8
Default
100
AcDbLine
 10
21.67757873428835
 20
24.83807786549097
 30
16.76904475611279
 11
20.908595061347
 21
24.71979286206626
 31
18.56971884011266
  0
LINE
  5
10A
330
1F
100
AcDbEntity
  8
Default
100
AcDbLine
 10
22.41179711465062
 20
24.78018576867941
 30
14.95041887583482
 11
21.67757873428835
 21
24.83807786549098
 31
16.76904475611279
  0
LINE
  5
10B
330
1F
100
AcDbEntity
  8
Default
100
AcDbLine
 10
23.10510307493885
 20
24.54880729538145
 30
13.12950170731873
 11
22.41179711465062
 21
24.78018576867941
 31
14.95041887583482
  0
LINE
  5
10C
330
1F
100
AcDbEntity
  8
Default
100
AcDbLine
 10
23.75100560663554
 20
24.14437615092068
 30
11.32224201879628
 11
23.10510307493885
 21
24.54880729538145
 31
13.12950170731873
  0
LINE
  5
10D
330
1F
100
AcDbEntity
  8
Default
100
AcDbLine
 10
24.34257664292349
 20
23.56604306874812
 30
9.54524622529064
 11
23.75100560663554
 21
24.14437615092068
 31
11.32224201879628
  0
LINE
  5
10E
330
1F
100
AcDbEntity
  8
Default
100
AcDbLine
 10
24.87278369882683
 20
22.81376487423924
 30
7.815795493988118
 11
24.34257664292349
 21
23.56604306874812
 31
9.54524622529064
  0
LINE
  5
10F
330
1F
100
AcDbEntity
  8
Default
100
AcDbLine
 10
25.33551547420529
 20
21.89161196775411
 30
6.151117565748058
 11
24.87278369882683
 21
22.81376487423924
 31
7.815795493988118
  0
LINE
  5
110
330
1F
100
AcDbEntity
  8
Default
100
AcDbLine
 10
25.72513268622647
 20
20.80663301603189
 30
4.56897257531168
 11
25.33551547420529
 21
21.89161196775411
 31
6.151117565748058
  0
LINE
  5
111
330
1F
100
AcDbEntity
  8
Default
100
AcDbLine
 10
26.03036704184496
 20
19.56228031843928
 30
3.098747497747298
 11
25.72513268622647
 21
20.80663301603189
 31
4.56897257531168
  0
LINE
  5
112
330
1F
100
AcDbEntity
  8
Default
100
AcDbLine
 10
26.22851750502386
 20
18.1473751255575
 30
1.789106562735472
 11
26.03036704184496
 21
19.56228031843928
 31
3.098747497747299
  0
LINE
  5
113
330
1F
100
AcDbEntity
  8
Default
100
AcDbLine
 10
26.29272733092769
 20
16.55912780032818
 30
0.7037438631617532
 11
26.22851750502386
 21
18.1473751255575
 31
1.789106562735472
  0
LINE
  5
114
330
1F
100
AcDbEntity
  8
Default
100
AcDbLine
 10
27.19099326432814
 20
17.0398714446472
 30
3.275430195286584
 11
27.24805515530064
 21
15.6379182492547
 31
2.316444592419348
  0
LINE
  5
115
330
1F
100
AcDbEntity
  8
Default
100
AcDbLine
 10
27.01162422087931
 20
18.31837075258529
 30
4.459594760201337
 11
27.19099326432815
 21
17.0398714446472
 31
3.275430195286584
  0
LINE
  5
116
330
1F
100
AcDbEntity
  8
Default
100
AcDbLine
 10
26.72984963501242
 20
19.46615786363596
 30
5.816270514775027
 11
27.01162422087931
 21
18.31837075258529
 31
4.459594760201337
  0
LINE
  5
117
330
1F
100
AcDbEntity
  8
Default
100
AcDbLine
 10
26.36585558342665
 20
20.47966092318503
 30
7.294304093935008
 11
26.72984963501242
 21
19.46615786363596
 31
5.816270514775027
  0
LINE
  5
118
330
1F
100
AcDbEntity
  8
Default
100
AcDbLine
 10
25.93294114417571
 20
21.34234294192729
 30
8.85168430044412
 11
26.36585558342665
 21
20.47966092318503
 31
7.294304093935007
  0
LINE
  5
119
330
1F
100
AcDbEntity
  8
Default
100
AcDbLine
 10
25.43641419782651
 20
22.046795924561
 30
10.47125348742263
 11
25.93294114417571
 21
21.34234294192729
 31
8.85168430044412
  0
LINE
  5
11A
330
1F
100
AcDbEntity
  8
Default
100
AcDbLine
 10
24.88143255443892
 20
22.58930045864989
 30
12.13830355945763
 11
25.43641419782651
 21
22.046795924561
 31
10.47125348742263
  0
LINE
  5
11B
330
1F
100
AcDbEntity
  8
Default
100
AcDbLine
 10
24.2741870772326
 20
22.96949217819113
 30
13.83737760558979
 11
24.88143255443892
 21
22.58930045864989
 31
12.13830355945763
  0
LINE
  5
11C
330
1F
100
AcDbEntity
  8
Default
100
AcDbLine
 10
23.62148788471069
 20
23.18730705485285
 30
15.55164061116034
 11
24.2741870772326
 21
22.96949217819113
 31
13.83737760558979
  0
LINE
  5
11D
330
1F
100
AcDbEntity
  8
Default
100
AcDbLine
 10
22.93048469014701
 20
23.24180483347544
 30
17.26323197184381
 11
23.6214878847107
 21
23.18730705485284
 31
15.55164061116034
  0
LINE
  5
11E
330
1F
100
AcDbEntity
  8
Default
100
AcDbLine
 10
22.20770577243831
 20
23.13064318645262
 30
18.95571961729197
 11
22.930484690147
 21
23.24180483347544
 31
17.26323197184381
  0
LINE
  5
11F
330
1F
100
AcDbEntity
  8
Default
100
AcDbLine
 10
21.45959995383513
 20
22.85187088965299
 30
20.61313875587381
 11
22.20770577243831
 21
23.13064318645263
 31
18.95571961729197
  0
LINE
  5
120
330
1F
100
AcDbEntity
  8
Default
100
AcDbLine
 10
20.69290052326474
 20
22.40395488612286
 30
22.21725300936108
 11
21.45959995383513
 21
22.85187088965299
 31
20.61313875587381
  0
LINE
  5
121
330
1F
100
AcDbEntity
  8
Default
100
AcDbLine
 10
19.914127257062
 20
21.7854503403185
 30
23.74802719408045
 11
20.69290052326474
 21
22.40395488612287
 31
22.21725300936108
  0
LINE
  5
122
330
1F
100
AcDbEntity
  8
Default
100
AcDbLine
 10
19.13136120692016
 20
20.99672988331352
 30
25.18349993223236
 11
19.914127257062
 21
21.7854503403185
 31
23.74802719408045
  0
LINE
  5
123
330
1F
100
AcDbEntity
  8
Default
100
AcDbLine
 10
18.3595646857511
 20
20.04090636895679
 30
26.49665080427129
 11
19.13136120692016
 21
20.99672988331352
 31
25.18349993223236
  0
LINE
  5
124
330
1F
100
AcDbEntity
  8
Default
100
AcDbLine
 10
17.61678137081572
 20
18.92155069527299
 30
27.65921799929372
 11
18.35956468575109
 21
20.04090636895679
 31
26.49665080427129
  0
LINE
  5
125
330
1F
100
AcDbEntity
  8
Default
100
AcDbLine
 10
16.91077509599748
 20
17.63852766646739
 30
28.65041618128582
 11
17.61678137081572
 21
18.92155069527299
 31
27.65921799929372
  0
LINE
  5
126
330
1F
100
AcDbEntity
  8
Default
100
AcDbLine
 10
16.23630543408846
 20
16.20788804816919
 30
29.44500112656744
 11
16.91077509599748
 21
17.63852766646739
 31
28.65041618128582
  0
LINE
  5
127
330
1F
100
AcDbEntity
  8
Default
100
AcDbLine
 10
15.60194981418323
 20
14.67290672675373
 30
30.00806900312297
 11
16.23630543408846
 21
16.20788804816919
 31
29.44500112656743
  0
LINE
  5
128
330
1F
100
AcDbEntity
  8
Default
100
AcDbLine
 10
15.09139394624925
 20
13.11455556202903
 30
30.30211360139312
 11
15.60194981418323
 21
14.67290672675373
 31
30.00806900312297
  0
LINE
  5
129
330
1F
100
AcDbEntity
  8
Default
100
AcDbLine
 10
14.79255628221765
 20
11.54872538516399
 30
30.3109947442268
 11
15.09139394624925
 21
13.11455556202903
 31
30.30211360139312
  0
LINE
  5
12A
330
1F
100
AcDbEntity
  8
Default
100
AcDbLine
 10
14.47019983766543
 20
9.601927211742678
 30
30.01457231526602
 11
14.79255628221765
 21
11.54872538516399
 31
30.31099474422681
  0
LINE
  5
12B
330
1F
100
AcDbEntity
  8
Default
100
AcDbLine
 10
13.78481125645695
 20
7.701623637073133
 30
29.4999562948744
 11
14.47019983766543
 21
9.60192721174268
 31
30.01457231526602
  0
LINE
  5
12C
330
1F
100
AcDbEntity
  8
Default
100
AcDbLine
 10
12.85312590842328
 20
6.035035338851071
 30
28.78853428423492
 11
13.78481125645695
 21
7.701623637073133
 31
29.4999562948744
  0
LINE
  5
12D
330
1F
100
AcDbEntity
  8
Default
100
AcDbLine
 10
11.68600849446727
 20
4.59793828857924
 30
27.89901035399104
 11
12.85312590842328
 21
6.03503533885107
 31
28.78853428423492
  0
LINE
  5
12E
330
1F
100
AcDbEntity
  8
Default
100
AcDbLine
 10
10.34714485563309
 20
3.444836283593594
 30
26.88073308209932
 11
11.68600849446727
 21
4.597938288579241
 31
27.89901035399104
  0
LINE
  5
12F
330
1F
100
AcDbEntity
  8
Default
100
AcDbLine
 10
8.861294295195473
 20
2.601254253467339
 30
25.7377591409357
 11
10.34714485563309
 21
3.444836283593594
 31
26.88073308209932
  0
LINE
  5
130
330
1F
100
AcDbEntity
  8
Default
100
AcDbLine
 10
7.289502514312325
 20
1.936943400051664
 30
24.60265773108603
 11
8.861294295195473
 21
2.601254253467339
 31
25.7377591409357
  0
LINE
  5
131
330
1F
100
AcDbEntity
  8
Default
100
AcDbLine
 10
5.970605990620723
 20
1.43561100633546
 30
23.5353109400804
 11
7.289502514312324
 21
1.936943400051663
 31
24.60265773108603
  0
LINE
  5
132
330
1F
100
AcDbEntity
  8
Default
100
AcDbLine
 10
4.907030115400436
 20
1.025219594355174
 30
22.29489828501835
 11
5.970605990620724
 21
1.435611006335461
 31
23.5353109400804
  0
LINE
  5
133
330
1F
100
AcDbEntity
  8
Default
100
AcDbLine
 10
3.992224843133321
 20
0.661422280439967
 30
20.82101977596602
 11
4.907030115400436
 21
1.025219594355174
 31
22.29489828501835
  0
LINE
  5
134
330
1F
100
AcDbEntity
  8
Default
100
AcDbLine
 10
3.201212295645095
 20
0.3426235563546214
 30
19.18276221814419
 11
3.99222484313332
 21
0.6614222804399665
 31
20.82101977596602
  0
LINE
  5
135
330
1F
100
AcDbEntity
  8
Default
100
AcDbLine
 10
2.515747203703745
 20
0.0690377720389305
 30
17.45384679227944
 11
3.201212295645095
 21
0.3426235563546215
 31
19.18276221814419
  0
LINE
  5
136
330
1F
100
AcDbEntity
  8
Default
100
AcDbLine
 10
1.951657999911368
 20
-0.152825463231274
 30
15.68324075948855
 11
2.515747203703746
 21
0.0690377720389306
 31
17.45384679227944
  0
LINE
  5
137
330
1F
100
AcDbEntity
  8
Default
100
AcDbLine
 10
1.518513522352222
 20
-0.3213942980110285
 30
13.87793363328929
 11
1.951657999911367
 21
-0.152825463231274
 31
15.68324075948855
  0
LINE
  5
138
330
1F
100
AcDbEntity
  8
Default
100
AcDbLine
 10
1.223496768306486
 20
-0.4359830296470327
 30
12.04494936814584
 11
1.518513522352222
 21
-0.3213942980110285
 31
13.87793363328929
  0
LINE
  5
139
330
1F
100
AcDbEntity
  8
Default
100
AcDbLine
 10
1.067735253670631
 20
-0.4969001544437927
 30
10.19006175203807
 11
1.223496768306486
 21
-0.4359830296470327
 31
12.04494936814584
  0
LINE
  5
13A
330
1F
100
AcDbEntity
  8
Default
100
AcDbLine
 10
1.050380162477569
 20
-0.5041832631479182
 30
8.326223287714207
 11
1.067735253670631
 21
-0.4969001544437927
 31
10.19006175203807
  0
LINE
  5
13B
330
1F
100
AcDbEntity
  8
Default
100
AcDbLine
 10
1.170935077978108
 20
-0.4577113903815128
 30
6.466795334500313
 11
1.050380162477569
 21
-0.5041832631479182
 31
8.326223287714207
  0
LINE
  5
13C
330
1F
100
AcDbEntity
  8
Default
100
AcDbLine
 10
1.429230227072193
 20
-0.3572296854566576
 30
4.625158409205297
 11
1.170935077978108
 21
-0.4577113903815128
 31
6.466795334500313
  0
LINE
  5
13D
330
1F
100
AcDbEntity
  8
Default
100
AcDbLine
 10
1.825327630000751
 20
-0.2024021376189462
 30
2.815058922586961
 11
1.429230227072193
 21
-0.3572296854566576
 31
4.625158409205297
  0
LINE
  5
13E
330
1F
100
AcDbEntity
  8
Default
100
AcDbLine
 10
2.359308098716056
 20
0.0071203513672913
 30
1.050901701304641
 11
1.825327630000751
 21
-0.2024021376189462
 31
2.815058922586961
  0
LINE
  5
13F
330
1F
100
AcDbEntity
  8
Default
100
AcDbLine
 10
28.22328753474319
 20
18.23216627037874
 30
1.906166335046305
 11
28.29209837484751
 21
16.523782956511
 31
0.739327156299268
  0
LINE
  5
140
330
1F
100
AcDbEntity
  8
Default
100
AcDbLine
 10
28.0130324167838
 20
19.73504579266849
 30
3.296712398507505
 11
28.22328753474319
 21
18.23216627037874
 31
1.906166335046304
  0
LINE
  5
141
330
1F
100
AcDbEntity
  8
Default
100
AcDbLine
 10
27.69267080459248
 20
21.04168209790991
 30
4.840165646545164
 11
28.0130324167838
 21
19.73504579266849
 31
3.296712398507506
  0
LINE
  5
142
330
1F
100
AcDbEntity
  8
Default
100
AcDbLine
 10
27.28653609783308
 20
22.1727743414314
 30
6.489446171998207
 11
27.69267080459248
 21
21.04168209790991
 31
4.840165646545165
  0
LINE
  5
143
330
1F
100
AcDbEntity
  8
Default
100
AcDbLine
 10
26.8045868869148
 20
23.13327400048927
 30
8.22328826783338
 11
27.28653609783308
 21
22.1727743414314
 31
6.489446171998207
  0
LINE
  5
144
330
1F
100
AcDbEntity
  8
Default
100
AcDbLine
 10
26.2526832026257
 20
23.91637713330005
 30
10.02353376829915
 11
26.8045868869148
 21
23.13327400048927
 31
8.22328826783338
  0
LINE
  5
145
330
1F
100
AcDbEntity
  8
Default
100
AcDbLine
 10
25.63752468916487
 20
24.51781687383861
 30
11.87141209966308
 11
26.2526832026257
 21
23.91637713330005
 31
10.02353376829915
  0
LINE
  5
146
330
1F
100
AcDbEntity
  8
Default
100
AcDbLine
 10
24.96665500078812
 20
24.93791282379285
 30
13.74855042521301
 11
25.63752468916487
 21
24.51781687383861
 31
11.87141209966308
  0
LINE
  5
147
330
1F
100
AcDbEntity
  8
Default
100
AcDbLine
 10
24.24707636801155
 20
25.17808069903234
 30
15.63848114524244
 11
24.96665500078812
 21
24.93791282379284
 31
13.74855042521301
  0
LINE
  5
148
330
1F
100
AcDbEntity
  8
Default
100
AcDbLine
 10
23.48501238418415
 20
25.23817414306112
 30
17.52608278019009
 11
24.24707636801155
 21
25.17808069903234
 31
15.63848114524244
  0
LINE
  5
149
330
1F
100
AcDbEntity
  8
Default
100
AcDbLine
 10
22.68646156444692
 20
25.11534296143686
 30
19.39599410662083
 11
23.48501238418415
 21
25.23817414306112
 31
17.52608278019009
  0
LINE
  5
14A
330
1F
100
AcDbEntity
  8
Default
100
AcDbLine
 10
21.85778497494857
 20
24.80652187077947
 30
21.23190378567123
 11
22.68646156444692
 21
25.11534296143686
 31
19.39599410662083
  0
LINE
  5
14B
330
1F
100
AcDbEntity
  8
Default
100
AcDbLine
 10
21.00479254231734
 20
24.30814957082408
 30
23.01653262399226
 11
21.85778497494857
 21
24.80652187077947
 31
21.23190378567123
  0
LINE
  5
14C
330
1F
100
AcDbEntity
  8
Default
100
AcDbLine
 10
20.13344979488751
 20
23.61607995338943
 30
24.72923806606853
 11
21.00479254231734
 21
24.30814957082409
 31
23.01653262399226
  0
LINE
  5
14D
330
1F
100
AcDbEntity
  8
Default
100
AcDbLine
 10
19.25177528960445
 20
22.72763058037074
 30
26.34606827722383
 11
20.13344979488751
 21
23.61607995338943
 31
24.72923806606853
  0
LINE
  5
14E
330
1F
100
AcDbEntity
  8
Default
100
AcDbLine
 10
18.37373045548961
 20
21.64012246448761
 30
27.83992633145136
 11
19.25177528960445
 21
22.72763058037074
 31
26.34606827722383
  0
LINE
  5
14F
330
1F
100
AcDbEntity
  8
Default
100
AcDbLine
 10
17.51762060248566
 20
20.34986380722157
 30
29.17980036385607
 11
18.37373045548961
 21
21.64012246448761
 31
27.83992633145136
  0
LINE
  5
150
330
1F
100
AcDbEntity
  8
Default
100
AcDbLine
 10
16.69692825772612
 20
18.85852198223755
 30
30.3320717139107
 11
17.51762060248566
 21
20.34986380722157
 31
29.17980036385607
  0
LINE
  5
151
330
1F
100
AcDbEntity
  8
Default
100
AcDbLine
 10
15.90901621467812
 20
17.18735234923174
 30
31.26038356037026
 11
16.69692825772612
 21
18.85852198223755
 31
30.3320717139107
  0
LINE
  5
152
330
1F
100
AcDbEntity
  8
Default
100
AcDbLine
 10
15.16029764088339
 20
15.37536420485787
 30
31.92472723568119
 11
15.90901621467812
 21
17.18735234923174
 31
31.26038356037026
  0
LINE
  5
153
330
1F
100
AcDbEntity
  8
Default
100
AcDbLine
 10
14.53444477960863
 20
13.46335205700482
 30
32.28459451227952
 11
15.16029764088339
 21
15.37536420485787
 31
31.92472723568118
  0
LINE
  5
154
330
1F
100
AcDbEntity
  8
Default
100
AcDbLine
 10
14.15279438701122
 20
11.47045908875558
 30
32.29761525037448
 11
14.53444477960863
 21
13.46335205700482
 31
32.28459451227953
  0
LINE
  5
155
330
1F
100
AcDbEntity
  8
Default
100
AcDbLine
 10
13.80657560935336
 20
9.357617072506446
 30
31.97976883740359
 11
14.15279438701122
 21
11.47045908875558
 31
32.29761525037447
  0
LINE
  5
156
330
1F
100
AcDbEntity
  8
Default
100
AcDbLine
 10
13.08279859675766
 20
7.356858760440899
 30
31.43655055713502
 11
13.80657560935336
 21
9.357617072506446
 31
31.97976883740359
  0
LINE
  5
157
330
1F
100
AcDbEntity
  8
Default
100
AcDbLine
 10
12.08661964164781
 20
5.574167123547266
 30
30.67590032246774
 11
13.08279859675766
 21
7.3568587604409
 31
31.43655055713502
  0
LINE
  5
158
330
1F
100
AcDbEntity
  8
Default
100
AcDbLine
 10
10.85222967015886
 20
4.054196020114045
 30
29.73510380171565
 11
12.08661964164781
 21
5.574167123547264
 31
30.67590032246775
  0
LINE
  5
159
330
1F
100
AcDbEntity
  8
Default
100
AcDbLine
 10
9.42453566868673
 20
2.82574042615529
 30
28.6492337291512
 11
10.85222967015886
 21
4.054196020114045
 31
29.73510380171565
  0
LINE
  5
15A
330
1F
100
AcDbEntity
  8
Default
100
AcDbLine
 10
7.873591420195149
 20
1.942357681051359
 30
27.45600832796667
 11
9.42453566868673
 21
2.825740426155289
 31
28.6492337291512
  0
LINE
  5
15B
330
1F
100
AcDbEntity
  8
Default
100
AcDbLine
 10
6.302415898307066
 20
1.279343383662645
 30
26.32175754264629
 11
7.873591420195149
 21
1.942357681051359
 31
27.45600832796667
  0
LINE
  5
15C
330
1F
100
AcDbEntity
  8
Default
100
AcDbLine
 10
4.771308272642052
 20
0.697622952413901
 30
25.07775722669082
 11
6.302415898307066
 21
1.279343383662645
 31
26.32175754264629
  0
LINE
  5
15D
330
1F
100
AcDbEntity
  8
Default
100
AcDbLine
 10
3.471734007072453
 20
0.196279327791969
 30
23.56567169009367
 11
4.771308272642053
 21
0.6976229524139013
 31
25.07775722669082
  0
LINE
  5
15E
330
1F
100
AcDbEntity
  8
Default
100
AcDbLine
 10
2.415949679552691
 20
-0.2235312473633591
 30
21.86710571577467
 11
3.471734007072452
 21
0.196279327791969
 31
23.56567169009367
  0
LINE
  5
15F
330
1F
100
AcDbEntity
  8
Default
100
AcDbLine
 10
1.544726936061582
 20
-0.5746502274346492
 30
20.06409472646125
 11
2.415949679552693
 21
-0.2235312473633586
 31
21.86710571577467
  0
LINE
  5
160
330
1F
100
AcDbEntity
  8
Default
100
AcDbLine
 10
0.8051813978513467
 20
-0.8698138891703007
 30
18.19856426437959
 11
1.544726936061581
 21
-0.5746502274346494
 31
20.06409472646125
  0
LINE
  5
161
330
1F
100
AcDbEntity
  8
Default
100
AcDbLine
 10
0.1936847573923854
 20
-1.110325164432753
 30
16.27889697908541
 11
0.8051813978513466
 21
-0.8698138891703008
 31
18.19856426437959
  0
LINE
  5
162
330
1F
100
AcDbEntity
  8
Default
100
AcDbLine
 10
-0.2777838542771956
 20
-1.293808253147253
 30
14.31360411166561
 11
0.1936847573923857
 21
-1.110325164432753
 31
16.27889697908541
  0
LINE
  5
163
330
1F
100
AcDbEntity
  8
Default
100
AcDbLine
 10
-0.5996242939359162
 20
-1.41881603841175
 30
12.31393040920389
 11
-0.2777838542771958
 21
-1.293808253147253
 31
14.31360411166561
  0
LINE
  5
164
330
1F
100
AcDbEntity
  8
Default
100
AcDbLine
 10
-0.7693089879569565
 20
-1.485179520122222
 30
10.29328132787138
 11
-0.5996242939359161
 21
-1.418816038411749
 31
12.31393040920389
  0
LINE
  5
165
330
1F
100
AcDbEntity
  8
Default
100
AcDbLine
 10
-0.7881877686369667
 20
-1.493103264774937
 30
8.264683672690389
 11
-0.7693089879569565
 21
-1.485179520122223
 31
10.29328132787138
  0
LINE
  5
166
330
1F
100
AcDbEntity
  8
Default
100
AcDbLine
 10
-0.6569422607454855
 20
-1.442507948057328
 30
6.240693353684875
 11
-0.7881877686369667
 21
-1.493103264774937
 31
8.264683672690389
  0
LINE
  5
167
330
1F
100
AcDbEntity
  8
Default
100
AcDbLine
 10
-0.3754553013214965
 20
-1.333005848535864
 30
4.23393858055284
 11
-0.6569422607454856
 21
-1.442507948057328
 31
6.240693353684875
  0
LINE
  5
168
330
1F
100
AcDbEntity
  8
Default
100
AcDbLine
 10
0.0570574245268726
 20
-1.163944114462113
 30
2.257618846560894
 11
-0.3754553013214965
 21
-1.333005848535864
 31
4.23393858055284
  0
LINE
  5
169
330
1F
100
AcDbEntity
  8
Default
100
AcDbLine
 10
0.6417842211677535
 20
-0.9345076231240202
 30
0.3259669326082561
 11
0.0570574245268726
 21
-1.163944114462113
 31
2.257618846560894
  0
LINE
  5
16A
330
1F
100
AcDbEntity
  8
Default
100
AcDbLine
 10
23.0373855979515
 20
26.77095941285891
 30
15.03725940991693
 11
23.79757099849439
 21
26.51722794098317
 31
13.04067452694196
  0
LINE
  5
16B
330
1F
100
AcDbEntity
  8
Default
100
AcDbLine
 10
27.26081177543893
 20
19.33966995128903
 30
0.4198427024951974
 11
27.33677055047458
 21
17.44499250758447
 31
-0.8733735729583232
  0
LINE
  5
16C
330
1F
100
AcDbEntity
  8
Default
100
AcDbLine
 10
27.03177523774948
 20
20.97895535852247
 30
1.93586513605347
 11
27.26081177543893
 21
19.33966995128903
 31
0.4198427024951983
  0
LINE
  5
16D
330
1F
100
AcDbEntity
  8
Default
100
AcDbLine
 10
26.68795385580655
 20
22.38215725030583
 30
3.592867707081822
 11
27.03177523774948
 21
20.97895535852247
 31
1.93586513605347
  0
LINE
  5
16E
330
1F
100
AcDbEntity
  8
Default
100
AcDbLine
 10
26.25619598861174
 20
23.58472538600049
 30
5.346259643811263
 11
26.68795385580655
 21
22.38215725030583
 31
3.592867707081821
  0
LINE
  5
16F
330
1F
100
AcDbEntity
  8
Default
100
AcDbLine
 10
25.74442944156594
 20
24.60469593280122
 30
7.187399461377382
 11
26.25619598861174
 21
23.58472538600049
 31
5.346259643811264
  0
LINE
  5
170
330
1F
100
AcDbEntity
  8
Default
100
AcDbLine
 10
25.1588456477227
 20
25.43562427748717
 30
9.097526506167167
 11
25.74442944156594
 21
24.60469593280122
 31
7.187399461377381
  0
LINE
  5
171
330
1F
100
AcDbEntity
  8
Default
100
AcDbLine
 10
24.50709774136151
 20
26.0728925661094
 30
11.05535055900173
 11
25.1588456477227
 21
25.43562427748717
 31
9.097526506167167
  0
LINE
  5
172
330
1F
100
AcDbEntity
  8
Default
100
AcDbLine
 10
23.79757099849439
 20
26.51722794098317
 30
13.04067452694196
 11
24.50709774136151
 21
26.0728925661094
 31
11.05535055900173
  0
LINE
  5
173
330
1F
100
AcDbEntity
  8
Default
100
AcDbLine
 10
22.23210642832551
 20
26.83444717507665
 30
17.03189556445908
 11
23.0373855979515
 21
26.77095941285891
 31
15.03725940991693
  0
LINE
  5
174
330
1F
100
AcDbEntity
  8
Default
100
AcDbLine
 10
21.38735085335563
 20
26.7044926370505
 30
19.00999332944153
 11
22.23210642832551
 21
26.83444717507665
 31
17.03189556445908
  0
LINE
  5
175
330
1F
100
AcDbEntity
  8
Default
100
AcDbLine
 10
20.5094633860326
 20
26.37731475536194
 30
20.95491906088253
 11
21.38735085335563
 21
26.7044926370505
 31
19.00999332944153
  0
LINE
  5
176
330
1F
100
AcDbEntity
  8
Default
100
AcDbLine
 10
19.60416991404549
 20
25.84836262890169
 30
22.84895601447243
 11
20.5094633860326
 21
26.37731475536194
 31
20.95491906088253
  0
LINE
  5
177
330
1F
100
AcDbEntity
  8
Default
100
AcDbLine
 10
18.67724327008593
 20
25.11212194343706
 30
24.67090409399673
 11
19.60416991404549
 21
25.84836262890169
 31
22.84895601447243
  0
LINE
  5
178
330
1F
100
AcDbEntity
  8
Default
100
AcDbLine
 10
17.73608653472944
 20
24.16366599276702
 30
26.39678142983091
 11
18.67724327008593
 21
25.11212194343706
 31
24.67090409399673
  0
LINE
  5
179
330
1F
100
AcDbEntity
  8
Default
100
AcDbLine
 10
16.7921154407805
 20
22.9943999046148
 30
28.00274061696498
 11
17.73608653472944
 21
24.16366599276702
 31
26.39678142983091
  0
LINE
  5
17A
330
1F
100
AcDbEntity
  8
Default
100
AcDbLine
 10
15.863734312253
 20
21.59511045789105
 30
29.45566781234349
 11
16.7921154407805
 21
22.9943999046148
 31
28.00274061696498
  0
LINE
  5
17B
330
1F
100
AcDbEntity
  8
Default
100
AcDbLine
 10
14.97396870233151
 20
19.97850525474052
 30
30.70507274734898
 11
15.863734312253
 21
21.59511045789105
 31
29.45566781234349
  0
LINE
  5
17C
330
1F
100
AcDbEntity
  8
Default
100
AcDbLine
 10
14.12548323636456
 20
18.17905529243158
 30
31.70492525568668
 11
14.97396870233151
 21
19.97850525474052
 31
30.70507274734898
  0
LINE
  5
17D
330
1F
100
AcDbEntity
  8
Default
100
AcDbLine
 10
12.60242402540577
 20
14.03725735057922
 30
32.83232660965448
 11
13.31459152066153
 21
16.21583434726099
 31
32.42378714056485
  0
LINE
  5
17E
330
1F
100
AcDbEntity
  8
Default
100
AcDbLine
 10
12.14988971935508
 20
11.68337714055674
 30
32.84999259119913
 11
12.60242402540577
 21
14.03725735057922
 31
32.83232660965448
  0
LINE
  5
17F
330
1F
100
AcDbEntity
  8
Default
100
AcDbLine
 10
13.31459152066153
 20
16.21583434726099
 30
32.42378714056485
 11
14.12548323636456
 21
18.17905529243158
 31
31.70492525568668
  0
LINE
  5
180
330
1F
100
AcDbEntity
  8
Default
100
AcDbLine
 10
11.83579895400731
 20
9.729846352527902
 30
32.56249233014765
 11
12.14988971935508
 21
11.68337714055674
 31
32.84999259119913
  0
LINE
  5
181
330
1F
100
AcDbEntity
  8
Default
100
AcDbLine
 10
11.20319582748527
 20
7.992939837609009
 30
32.08814569536909
 11
11.83579895400731
 21
9.729846352527902
 31
32.56249233014766
  0
LINE
  5
182
330
1F
100
AcDbEntity
  8
Default
100
AcDbLine
 10
10.30864753340291
 20
6.392195952810161
 30
31.40509573383292
 11
11.20319582748527
 21
7.99293983760901
 31
32.08814569536909
  0
LINE
  5
183
330
1F
100
AcDbEntity
  8
Default
100
AcDbLine
 10
9.205180178396276
 20
5.035041357744094
 30
30.56411063310613
 11
10.30864753340292
 21
6.392195952810161
 31
31.40509573383292
  0
LINE
  5
184
330
1F
100
AcDbEntity
  8
Default
100
AcDbLine
 10
7.920829340870442
 20
3.93076989544679
 30
29.58724176901049
 11
9.205180178396276
 21
5.035041357744094
 31
30.56411063310613
  0
LINE
  5
185
330
1F
100
AcDbEntity
  8
Default
100
AcDbLine
 10
6.518729404671452
 20
3.133353321395816
 30
28.5086052283657
 11
7.920829340870442
 21
3.93076989544679
 31
29.58724176901049
  0
LINE
  5
186
330
1F
100
AcDbEntity
  8
Default
100
AcDbLine
 10
5.02225969236166
 20
2.503115833310774
 30
27.42885420103694
 11
6.518729404671452
 21
3.133353321395816
 31
28.5086052283657
  0
LINE
  5
187
330
1F
100
AcDbEntity
  8
Default
100
AcDbLine
 10
3.365768521300167
 20
1.873974875923044
 30
26.07912433750093
 11
5.022259692361661
 21
2.503115833310774
 31
27.42885420103694
  0
LINE
  5
188
330
1F
100
AcDbEntity
  8
Default
100
AcDbLine
 10
1.904619753622437
 20
1.310365898704238
 30
24.38117519119272
 11
3.365768521300167
 21
1.873974875923044
 31
26.07912433750093
  0
LINE
  5
189
330
1F
100
AcDbEntity
  8
Default
100
AcDbLine
 10
0.7545621587155319
 20
0.8531016778273602
 30
22.53248904977087
 11
1.904619753622437
 21
1.310365898704238
 31
24.38117519119272
  0
LINE
  5
18A
330
1F
100
AcDbEntity
  8
Default
100
AcDbLine
 10
-0.1678785923352544
 20
0.4813448718895248
 30
20.62439695335847
 11
0.7545621587155321
 21
0.8531016778273603
 31
22.53248904977087
  0
LINE
  5
18B
330
1F
100
AcDbEntity
  8
Default
100
AcDbLine
 10
-0.9405228019858738
 20
0.1729755797431755
 30
18.6752076335267
 11
-0.1678785923352544
 21
0.4813448718895248
 31
20.62439695335847
  0
LINE
  5
18C
330
1F
100
AcDbEntity
  8
Default
100
AcDbLine
 10
-1.581663963904776
 20
-0.079196317568673
 30
16.66229253215216
 11
-0.9405228019858743
 21
0.1729755797431753
 31
18.6752076335267
  0
LINE
  5
18D
330
1F
100
AcDbEntity
  8
Default
100
AcDbLine
 10
-2.077573183217233
 20
-0.27219062199863
 30
14.59491838133196
 11
-1.581663963904776
 21
-0.0791963175686728
 31
16.66229253215216
  0
LINE
  5
18E
330
1F
100
AcDbEntity
  8
Default
100
AcDbLine
 10
-2.416778853294391
 20
-0.4039435422123088
 30
12.48732318592395
 11
-2.077573183217233
 21
-0.2721906219986301
 31
14.59491838133196
  0
LINE
  5
18F
330
1F
100
AcDbEntity
  8
Default
100
AcDbLine
 10
-2.595474430695342
 20
-0.4738318090563708
 30
10.3594441136958
 11
-2.416778853294391
 21
-0.4039435422123088
 31
12.48732318592395
  0
LINE
  5
190
330
1F
100
AcDbEntity
  8
Default
100
AcDbLine
 10
-2.615339900040877
 20
-0.4821702939864714
 30
8.224539576773008
 11
-2.595474430695341
 21
-0.4738318090563708
 31
10.3594441136958
  0
LINE
  5
191
330
1F
100
AcDbEntity
  8
Default
100
AcDbLine
 10
-2.477215493169573
 20
-0.4289217384548401
 30
6.09464443659853
 11
-2.615339900040877
 21
-0.4821702939864714
 31
8.224539576773008
  0
LINE
  5
192
330
1F
100
AcDbEntity
  8
Default
100
AcDbLine
 10
-1.725017742186983
 20
-0.1354557278336248
 30
1.899147550764168
 11
-2.180845170114203
 21
-0.3136308083591443
 31
3.98189913863266
  0
LINE
  5
193
330
1F
100
AcDbEntity
  8
Default
100
AcDbLine
 10
-2.180845170114203
 20
-0.3136308083591443
 30
3.981899138632661
 11
-2.477215493169573
 21
-0.4289217384548401
 31
6.09464443659853
  0
LINE
  5
194
330
1F
100
AcDbEntity
  8
Default
100
AcDbLine
 10
-1.107876315675686
 20
0.106700991957454
 30
-0.1394947273068393
 11
-1.725017742186983
 21
-0.1354557278336249
 31
1.899147550764169
  0
LINE
  5
195
330
1F
100
AcDbEntity
  8
Default
100
AcDbLine
 10
28.29209837484751
 20
16.523782956511
 30
0.739327156299268
 11
27.33677055047458
 21
17.44499250758447
 31
-0.8733735729583223
  0
LINE
  5
196
330
1F
100
AcDbEntity
  8
Default
100
AcDbLine
 10
27.24805515530064
 20
15.6379182492547
 30
2.316444592419348
 11
28.29209837484751
 21
16.523782956511
 31
0.7393271562992689
  0
LINE
  5
197
330
1F
100
AcDbEntity
  8
Default
100
AcDbLine
 10
26.29272733092769
 20
16.55912780032818
 30
0.7037438631617532
 11
27.24805515530064
 21
15.6379182492547
 31
2.316444592419349
  0
LINE
  5
198
330
1F
100
AcDbEntity
  8
Default
100
AcDbLine
 10
27.33677055047458
 20
17.44499250758447
 30
-0.8733735729583224
 11
26.29272733092769
 21
16.55912780032818
 31
0.7037438631617522
  0
LINE
  5
199
330
1F
100
AcDbEntity
  8
Default
100
AcDbLine
 10
28.22328753474319
 20
18.23216627037874
 30
1.906166335046305
 11
27.26081177543893
 21
19.33966995128903
 31
0.4198427024951974
  0
LINE
  5
19A
330
1F
100
AcDbEntity
  8
Default
100
AcDbLine
 10
27.19099326432814
 20
17.0398714446472
 30
3.275430195286584
 11
28.22328753474319
 21
18.23216627037874
 31
1.906166335046305
  0
LINE
  5
19B
330
1F
100
AcDbEntity
  8
Default
100
AcDbLine
 10
26.22851750502386
 20
18.1473751255575
 30
1.789106562735472
 11
27.19099326432814
 21
17.0398714446472
 31
3.275430195286584
  0
LINE
  5
19C
330
1F
100
AcDbEntity
  8
Default
100
AcDbLine
 10
27.26081177543893
 20
19.33966995128903
 30
0.4198427024951974
 11
26.22851750502386
 21
18.1473751255575
 31
1.789106562735473
  0
LINE
  5
19D
330
1F
100
AcDbEntity
  8
Default
100
AcDbLine
 10
28.0130324167838
 20
19.73504579266849
 30
3.296712398507505
 11
27.03177523774948
 21
20.97895535852247
 31
1.935865136053471
  0
LINE
  5
19E
330
1F
100
AcDbEntity
  8
Default
100
AcDbLine
 10
27.01162422087931
 20
18.31837075258529
 30
4.459594760201337
 11
28.0130324167838
 21
19.73504579266849
 31
3.296712398507505
  0
LINE
  5
19F
330
1F
100
AcDbEntity
  8
Default
100
AcDbLine
 10
26.03036704184496
 20
19.56228031843928
 30
3.098747497747298
 11
27.01162422087931
 21
18.31837075258529
 31
4.459594760201338
  0
LINE
  5
1A0
330
1F
100
AcDbEntity
  8
Default
100
AcDbLine
 10
27.03177523774948
 20
20.97895535852247
 30
1.93586513605347
 11
26.03036704184496
 21
19.56228031843928
 31
3.098747497747298
  0
LINE
  5
1A1
330
1F
100
AcDbEntity
  8
Default
100
AcDbLine
 10
27.69267080459248
 20
21.04168209790991
 30
4.840165646545164
 11
26.68795385580655
 21
22.38215725030583
 31
3.592867707081821
  0
LINE
  5
1A2
330
1F
100
AcDbEntity
  8
Default
100
AcDbLine
 10
26.72984963501242
 20
19.46615786363596
 30
5.816270514775027
 11
27.69267080459248
 21
21.04168209790991
 31
4.840165646545163
  0
LINE
  5
1A3
330
1F
100
AcDbEntity
  8
Default
100
AcDbLine
 10
25.72513268622647
 20
20.80663301603189
 30
4.56897257531168
 11
26.72984963501242
 21
19.46615786363597
 31
5.816270514775028
  0
LINE
  5
1A4
330
1F
100
AcDbEntity
  8
Default
100
AcDbLine
 10
26.68795385580655
 20
22.38215725030583
 30
3.592867707081822
 11
25.72513268622647
 21
20.80663301603189
 31
4.568972575311678
  0
LINE
  5
1A5
330
1F
100
AcDbEntity
  8
Default
100
AcDbLine
 10
27.28653609783308
 20
22.1727743414314
 30
6.489446171998207
 11
26.25619598861174
 21
23.58472538600049
 31
5.346259643811262
  0
LINE
  5
1A6
330
1F
100
AcDbEntity
  8
Default
100
AcDbLine
 10
26.36585558342665
 20
20.47966092318503
 30
7.294304093935008
 11
27.28653609783308
 21
22.1727743414314
 31
6.489446171998207
  0
LINE
  5
1A7
330
1F
100
AcDbEntity
  8
Default
100
AcDbLine
 10
25.33551547420529
 20
21.89161196775411
 30
6.151117565748058
 11
26.36585558342665
 21
20.47966092318503
 31
7.294304093935009
  0
LINE
  5
1A8
330
1F
100
AcDbEntity
  8
Default
100
AcDbLine
 10
26.25619598861174
 20
23.58472538600049
 30
5.346259643811263
 11
25.33551547420529
 21
21.89161196775411
 31
6.151117565748058
  0
LINE
  5
1A9
330
1F
100
AcDbEntity
  8
Default
100
AcDbLine
 10
26.8045868869148
 20
23.13327400048927
 30
8.22328826783338
 11
25.74442944156594
 21
24.60469593280122
 31
7.187399461377383
  0
LINE
  5
1AA
330
1F
100
AcDbEntity
  8
Default
100
AcDbLine
 10
25.93294114417571
 20
21.34234294192729
 30
8.85168430044412
 11
26.8045868869148
 21
23.13327400048927
 31
8.223288267833379
  0
LINE
  5
1AB
330
1F
100
AcDbEntity
  8
Default
100
AcDbLine
 10
24.87278369882683
 20
22.81376487423924
 30
7.815795493988118
 11
25.93294114417571
 21
21.34234294192729
 31
8.851684300444122
  0
LINE
  5
1AC
330
1F
100
AcDbEntity
  8
Default
100
AcDbLine
 10
25.74442944156594
 20
24.60469593280122
 30
7.187399461377382
 11
24.87278369882683
 21
22.81376487423924
 31
7.815795493988118
  0
LINE
  5
1AD
330
1F
100
AcDbEntity
  8
Default
100
AcDbLine
 10
26.2526832026257
 20
23.91637713330005
 30
10.02353376829915
 11
25.1588456477227
 21
25.43562427748717
 31
9.097526506167167
  0
LINE
  5
1AE
330
1F
100
AcDbEntity
  8
Default
100
AcDbLine
 10
25.43641419782651
 20
22.046795924561
 30
10.47125348742263
 11
26.2526832026257
 21
23.91637713330005
 31
10.02353376829915
  0
LINE
  5
1AF
330
1F
100
AcDbEntity
  8
Default
100
AcDbLine
 10
24.34257664292349
 20
23.56604306874812
 30
9.54524622529064
 11
25.43641419782651
 21
22.046795924561
 31
10.47125348742263
  0
LINE
  5
1B0
330
1F
100
AcDbEntity
  8
Default
100
AcDbLine
 10
25.1588456477227
 20
25.43562427748717
 30
9.097526506167167
 11
24.34257664292349
 21
23.56604306874812
 31
9.54524622529064
  0
LINE
  5
1B1
330
1F
100
AcDbEntity
  8
Default
100
AcDbLine
 10
25.63752468916487
 20
24.51781687383861
 30
11.87141209966308
 11
24.50709774136151
 21
26.0728925661094
 31
11.05535055900173
  0
LINE
  5
1B2
330
1F
100
AcDbEntity
  8
Default
100
AcDbLine
 10
24.88143255443892
 20
22.58930045864989
 30
12.13830355945763
 11
25.63752468916487
 21
24.51781687383861
 31
11.87141209966308
  0
LINE
  5
1B3
330
1F
100
AcDbEntity
  8
Default
100
AcDbLine
 10
23.75100560663554
 20
24.14437615092068
 30
11.32224201879628
 11
24.88143255443892
 21
22.58930045864989
 31
12.13830355945763
  0
LINE
  5
1B4
330
1F
100
AcDbEntity
  8
Default
100
AcDbLine
 10
24.50709774136151
 20
26.0728925661094
 30
11.05535055900173
 11
23.75100560663554
 21
24.14437615092068
 31
11.32224201879628
  0
LINE
  5
1B5
330
1F
100
AcDbEntity
  8
Default
100
AcDbLine
 10
24.96665500078812
 20
24.93791282379285
 30
13.74855042521301
 11
23.79757099849439
 21
26.51722794098317
 31
13.04067452694196
  0
LINE
  5
1B6
330
1F
100
AcDbEntity
  8
Default
100
AcDbLine
 10
24.2741870772326
 20
22.96949217819113
 30
13.83737760558979
 11
24.96665500078812
 21
24.93791282379285
 31
13.74855042521301
  0
LINE
  5
1B7
330
1F
100
AcDbEntity
  8
Default
100
AcDbLine
 10
23.10510307493885
 20
24.54880729538145
 30
13.12950170731873
 11
24.2741870772326
 21
22.96949217819113
 31
13.83737760558979
  0
LINE
  5
1B8
330
1F
100
AcDbEntity
  8
Default
100
AcDbLine
 10
23.79757099849439
 20
26.51722794098317
 30
13.04067452694196
 11
23.10510307493885
 21
24.54880729538145
 31
13.12950170731873
  0
LINE
  5
1B9
330
1F
100
AcDbEntity
  8
Default
100
AcDbLine
 10
24.24707636801155
 20
25.17808069903234
 30
15.63848114524244
 11
23.03738559795149
 21
26.77095941285891
 31
15.03725940991693
  0
LINE
  5
1BA
330
1F
100
AcDbEntity
  8
Default
100
AcDbLine
 10
23.62148788471069
 20
23.18730705485285
 30
15.55164061116034
 11
24.24707636801155
 21
25.17808069903234
 31
15.63848114524244
  0
LINE
  5
1BB
330
1F
100
AcDbEntity
  8
Default
100
AcDbLine
 10
22.41179711465062
 20
24.78018576867941
 30
14.95041887583482
 11
23.6214878847107
 21
23.18730705485285
 31
15.55164061116034
  0
LINE
  5
1BC
330
1F
100
AcDbEntity
  8
Default
100
AcDbLine
 10
23.0373855979515
 20
26.77095941285891
 30
15.03725940991693
 11
22.41179711465062
 21
24.78018576867941
 31
14.95041887583482
  0
LINE
  5
1BD
330
1F
100
AcDbEntity
  8
Default
100
AcDbLine
 10
23.48501238418415
 20
25.23817414306112
 30
17.52608278019009
 11
22.23210642832551
 21
26.83444717507665
 31
17.03189556445909
  0
LINE
  5
1BE
330
1F
100
AcDbEntity
  8
Default
100
AcDbLine
 10
22.93048469014701
 20
23.24180483347544
 30
17.26323197184381
 11
23.48501238418415
 21
25.23817414306112
 31
17.52608278019009
  0
LINE
  5
1BF
330
1F
100
AcDbEntity
  8
Default
100
AcDbLine
 10
21.67757873428835
 20
24.83807786549097
 30
16.76904475611279
 11
22.93048469014701
 21
23.24180483347544
 31
17.26323197184381
  0
LINE
  5
1C0
330
1F
100
AcDbEntity
  8
Default
100
AcDbLine
 10
22.23210642832551
 20
26.83444717507665
 30
17.03189556445908
 11
21.67757873428835
 21
24.83807786549097
 31
16.76904475611279
  0
LINE
  5
1C1
330
1F
100
AcDbEntity
  8
Default
100
AcDbLine
 10
22.68646156444692
 20
25.11534296143686
 30
19.39599410662083
 11
21.38735085335563
 21
26.7044926370505
 31
19.00999332944153
  0
LINE
  5
1C2
330
1F
100
AcDbEntity
  8
Default
100
AcDbLine
 10
22.20770577243831
 20
23.13064318645262
 30
18.95571961729197
 11
22.68646156444692
 21
25.11534296143686
 31
19.39599410662083
  0
LINE
  5
1C3
330
1F
100
AcDbEntity
  8
Default
100
AcDbLine
 10
20.908595061347
 20
24.71979286206626
 30
18.56971884011266
 11
22.20770577243831
 21
23.13064318645262
 31
18.95571961729197
  0
LINE
  5
1C4
330
1F
100
AcDbEntity
  8
Default
100
AcDbLine
 10
21.38735085335563
 20
26.7044926370505
 30
19.00999332944153
 11
20.908595061347
 21
24.71979286206626
 31
18.56971884011266
  0
LINE
  5
1C5
330
1F
100
AcDbEntity
  8
Default
100
AcDbLine
 10
21.85778497494857
 20
24.80652187077947
 30
21.23190378567123
 11
20.5094633860326
 21
26.37731475536194
 31
20.95491906088253
  0
LINE
  5
1C6
330
1F
100
AcDbEntity
  8
Default
100
AcDbLine
 10
21.45959995383513
 20
22.85187088965299
 30
20.61313875587381
 11
21.85778497494857
 21
24.80652187077947
 31
21.23190378567122
  0
LINE
  5
1C7
330
1F
100
AcDbEntity
  8
Default
100
AcDbLine
 10
20.11127836491914
 20
24.42266377423546
 30
20.3361540310851
 11
21.45959995383513
 21
22.85187088965299
 31
20.61313875587381
  0
LINE
  5
1C8
330
1F
100
AcDbEntity
  8
Default
100
AcDbLine
 10
20.5094633860326
 20
26.37731475536194
 30
20.95491906088253
 11
20.11127836491913
 21
24.42266377423546
 31
20.33615403108511
  0
LINE
  5
1C9
330
1F
100
AcDbEntity
  8
Default
100
AcDbLine
 10
21.00479254231734
 20
24.30814957082408
 30
23.01653262399226
 11
19.60416991404549
 21
25.84836262890169
 31
22.84895601447243
  0
LINE
  5
1CA
330
1F
100
AcDbEntity
  8
Default
100
AcDbLine
 10
20.69290052326474
 20
22.40395488612286
 30
22.21725300936108
 11
21.00479254231734
 21
24.30814957082408
 31
23.01653262399226
  0
LINE
  5
1CB
330
1F
100
AcDbEntity
  8
Default
100
AcDbLine
 10
19.29227789499287
 20
23.94416794420047
 30
22.04967639984124
 11
20.69290052326474
 21
22.40395488612286
 31
22.21725300936108
  0
LINE
  5
1CC
330
1F
100
AcDbEntity
  8
Default
100
AcDbLine
 10
19.60416991404549
 20
25.84836262890169
 30
22.84895601447243
 11
19.29227789499286
 21
23.94416794420047
 31
22.04967639984124
  0
LINE
  5
1CD
330
1F
100
AcDbEntity
  8
Default
100
AcDbLine
 10
20.13344979488751
 20
23.61607995338943
 30
24.72923806606853
 11
18.67724327008593
 21
25.11212194343706
 31
24.67090409399673
  0
LINE
  5
1CE
330
1F
100
AcDbEntity
  8
Default
100
AcDbLine
 10
19.914127257062
 20
21.7854503403185
 30
23.74802719408045
 11
20.13344979488751
 21
23.61607995338943
 31
24.72923806606853
  0
LINE
  5
1CF
330
1F
100
AcDbEntity
  8
Default
100
AcDbLine
 10
18.45792073226039
 20
23.28149233036613
 30
23.68969322200865
 11
19.914127257062
 21
21.7854503403185
 31
23.74802719408045
  0
LINE
  5
1D0
330
1F
100
AcDbEntity
  8
Default
100
AcDbLine
 10
18.67724327008593
 20
25.11212194343706
 30
24.67090409399673
 11
18.45792073226039
 21
23.28149233036613
 31
23.68969322200865
  0
LINE
  5
1D1
330
1F
100
AcDbEntity
  8
Default
100
AcDbLine
 10
19.25177528960445
 20
22.72763058037074
 30
26.34606827722383
 11
17.73608653472944
 21
24.16366599276702
 31
26.39678142983091
  0
LINE
  5
1D2
330
1F
100
AcDbEntity
  8
Default
100
AcDbLine
 10
19.13136120692016
 20
20.99672988331352
 30
25.18349993223236
 11
19.25177528960445
 21
22.72763058037074
 31
26.34606827722383
  0
LINE
  5
1D3
330
1F
100
AcDbEntity
  8
Default
100
AcDbLine
 10
17.61567245204512
 20
22.4327652957098
 30
25.23421308483943
 11
19.13136120692016
 21
20.99672988331352
 31
25.18349993223236
  0
LINE
  5
1D4
330
1F
100
AcDbEntity
  8
Default
100
AcDbLine
 10
17.73608653472944
 20
24.16366599276702
 30
26.39678142983091
 11
17.61567245204512
 21
22.4327652957098
 31
25.23421308483943
  0
LINE
  5
1D5
330
1F
100
AcDbEntity
  8
Default
100
AcDbLine
 10
18.37373045548961
 20
21.64012246448761
 30
27.83992633145136
 11
16.7921154407805
 21
22.9943999046148
 31
28.00274061696498
  0
LINE
  5
1D6
330
1F
100
AcDbEntity
  8
Default
100
AcDbLine
 10
18.3595646857511
 20
20.04090636895679
 30
26.49665080427129
 11
18.37373045548961
 21
21.64012246448761
 31
27.83992633145136
  0
LINE
  5
1D7
330
1F
100
AcDbEntity
  8
Default
100
AcDbLine
 10
16.77794967104196
 20
21.39518380908397
 30
26.6594650897849
 11
18.3595646857511
 21
20.04090636895679
 31
26.49665080427129
  0
LINE
  5
1D8
330
1F
100
AcDbEntity
  8
Default
100
AcDbLine
 10
16.7921154407805
 20
22.9943999046148
 30
28.00274061696498
 11
16.77794967104196
 21
21.39518380908397
 31
26.6594650897849
  0
LINE
  5
1D9
330
1F
100
AcDbEntity
  8
Default
100
AcDbLine
 10
17.51762060248566
 20
20.34986380722157
 30
29.17980036385607
 11
15.863734312253
 21
21.59511045789105
 31
29.4556678123435
  0
LINE
  5
1DA
330
1F
100
AcDbEntity
  8
Default
100
AcDbLine
 10
17.61678137081572
 20
18.92155069527299
 30
27.65921799929372
 11
17.51762060248566
 21
20.34986380722157
 31
29.17980036385607
  0
LINE
  5
1DB
330
1F
100
AcDbEntity
  8
Default
100
AcDbLine
 10
15.96289508058305
 20
20.16679734594248
 30
27.93508544778113
 11
17.61678137081572
 21
18.92155069527299
 31
27.65921799929372
  0
LINE
  5
1DC
330
1F
100
AcDbEntity
  8
Default
100
AcDbLine
 10
15.863734312253
 20
21.59511045789105
 30
29.45566781234349
 11
15.96289508058305
 21
20.16679734594248
 31
27.93508544778113
  0
LINE
  5
1DD
330
1F
100
AcDbEntity
  8
Default
100
AcDbLine
 10
16.69692825772612
 20
18.85852198223755
 30
30.3320717139107
 11
14.97396870233151
 21
19.97850525474052
 31
30.70507274734898
  0
LINE
  5
1DE
330
1F
100
AcDbEntity
  8
Default
100
AcDbLine
 10
16.91077509599748
 20
17.63852766646739
 30
28.65041618128582
 11
16.69692825772612
 21
18.85852198223754
 31
30.3320717139107
  0
LINE
  5
1DF
330
1F
100
AcDbEntity
  8
Default
100
AcDbLine
 10
15.18781554060285
 20
18.75851093897036
 30
29.02341721472407
 11
16.91077509599748
 21
17.63852766646739
 31
28.65041618128581
  0
LINE
  5
1E0
330
1F
100
AcDbEntity
  8
Default
100
AcDbLine
 10
14.97396870233151
 20
19.97850525474052
 30
30.70507274734898
 11
15.18781554060285
 21
18.75851093897036
 31
29.02341721472407
  0
LINE
  5
1E1
330
1F
100
AcDbEntity
  8
Default
100
AcDbLine
 10
15.90901621467812
 20
17.18735234923174
 30
31.26038356037026
 11
14.12548323636456
 21
18.17905529243158
 31
31.70492525568668
  0
LINE
  5
1E2
330
1F
100
AcDbEntity
  8
Default
100
AcDbLine
 10
16.23630543408846
 20
16.20788804816919
 30
29.44500112656744
 11
15.90901621467812
 21
17.18735234923174
 31
31.26038356037026
  0
LINE
  5
1E3
330
1F
100
AcDbEntity
  8
Default
100
AcDbLine
 10
14.45277245577488
 20
17.19959099136904
 30
29.88954282188384
 11
16.23630543408846
 21
16.20788804816919
 31
29.44500112656744
  0
LINE
  5
1E4
330
1F
100
AcDbEntity
  8
Default
100
AcDbLine
 10
14.12548323636456
 20
18.17905529243158
 30
31.70492525568668
 11
14.45277245577488
 21
17.19959099136904
 31
29.88954282188384
  0
LINE
  5
1E5
330
1F
100
AcDbEntity
  8
Default
100
AcDbLine
 10
15.16029764088339
 20
15.37536420485787
 30
31.92472723568119
 11
13.31459152066153
 21
16.21583434726099
 31
32.42378714056485
  0
LINE
  5
1E6
330
1F
100
AcDbEntity
  8
Default
100
AcDbLine
 10
15.60194981418323
 20
14.67290672675373
 30
30.00806900312297
 11
15.16029764088339
 21
15.37536420485787
 31
31.92472723568119
  0
LINE
  5
1E7
330
1F
100
AcDbEntity
  8
Default
100
AcDbLine
 10
13.75624369396134
 20
15.51337686915686
 30
30.50712890800662
 11
15.60194981418323
 21
14.67290672675373
 31
30.00806900312298
  0
LINE
  5
1E8
330
1F
100
AcDbEntity
  8
Default
100
AcDbLine
 10
13.31459152066153
 20
16.21583434726099
 30
32.42378714056485
 11
13.75624369396134
 21
15.51337686915686
 31
30.50712890800662
  0
LINE
  5
1E9
330
1F
100
AcDbEntity
  8
Default
100
AcDbLine
 10
14.53444477960863
 20
13.46335205700482
 30
32.28459451227952
 11
12.60242402540577
 21
14.03725735057922
 31
32.83232660965447
  0
LINE
  5
1EA
330
1F
100
AcDbEntity
  8
Default
100
AcDbLine
 10
15.09139394624925
 20
13.11455556202903
 30
30.30211360139312
 11
14.53444477960863
 21
13.46335205700482
 31
32.28459451227952
  0
LINE
  5
1EB
330
1F
100
AcDbEntity
  8
Default
100
AcDbLine
 10
13.15937319204637
 20
13.68846085560343
 30
30.84984569876807
 11
15.09139394624925
 21
13.11455556202903
 31
30.30211360139312
  0
LINE
  5
1EC
330
1F
100
AcDbEntity
  8
Default
100
AcDbLine
 10
12.60242402540577
 20
14.03725735057922
 30
32.83232660965448
 11
13.15937319204637
 21
13.68846085560343
 31
30.84984569876807
  0
LINE
  5
1ED
330
1F
100
AcDbEntity
  8
Default
100
AcDbLine
 10
14.15279438701122
 20
11.47045908875558
 30
32.29761525037448
 11
12.14988971935508
 21
11.68337714055674
 31
32.84999259119913
  0
LINE
  5
1EE
330
1F
100
AcDbEntity
  8
Default
100
AcDbLine
 10
14.79255628221765
 20
11.54872538516399
 30
30.3109947442268
 11
14.15279438701122
 21
11.47045908875558
 31
32.29761525037448
  0
LINE
  5
1EF
330
1F
100
AcDbEntity
  8
Default
100
AcDbLine
 10
12.78965161456149
 20
11.76164343696515
 30
30.86337208505144
 11
14.79255628221765
 21
11.54872538516399
 31
30.3109947442268
  0
LINE
  5
1F0
330
1F
100
AcDbEntity
  8
Default
100
AcDbLine
 10
12.14988971935508
 20
11.68337714055674
 30
32.84999259119913
 11
12.78965161456149
 21
11.76164343696515
 31
30.86337208505144
  0
LINE
  5
1F1
330
1F
100
AcDbEntity
  8
Default
100
AcDbLine
 10
13.80657560935336
 20
9.357617072506446
 30
31.97976883740359
 11
11.83579895400731
 21
9.729846352527902
 31
32.56249233014765
  0
LINE
  5
1F2
330
1F
100
AcDbEntity
  8
Default
100
AcDbLine
 10
14.47019983766543
 20
9.601927211742678
 30
30.01457231526602
 11
13.80657560935336
 21
9.357617072506446
 31
31.97976883740359
  0
LINE
  5
1F3
330
1F
100
AcDbEntity
  8
Default
100
AcDbLine
 10
12.49942318231936
 20
9.974156491764141
 30
30.59729580801006
 11
14.47019983766543
 21
9.601927211742678
 31
30.01457231526602
  0
LINE
  5
1F4
330
1F
100
AcDbEntity
  8
Default
100
AcDbLine
 10
11.83579895400731
 20
9.729846352527902
 30
32.56249233014765
 11
12.49942318231936
 21
9.974156491764141
 31
30.59729580801006
  0
LINE
  5
1F5
330
1F
100
AcDbEntity
  8
Default
100
AcDbLine
 10
13.08279859675766
 20
7.356858760440899
 30
31.43655055713502
 11
11.20319582748527
 21
7.992939837609009
 31
32.08814569536909
  0
LINE
  5
1F6
330
1F
100
AcDbEntity
  8
Default
100
AcDbLine
 10
13.78481125645695
 20
7.701623637073133
 30
29.4999562948744
 11
13.08279859675766
 21
7.356858760440899
 31
31.43655055713502
  0
LINE
  5
1F7
330
1F
100
AcDbEntity
  8
Default
100
AcDbLine
 10
11.90520848718454
 20
8.337704714241255
 30
30.15155143310846
 11
13.78481125645695
 21
7.701623637073134
 31
29.4999562948744
  0
LINE
  5
1F8
330
1F
100
AcDbEntity
  8
Default
100
AcDbLine
 10
11.20319582748527
 20
7.992939837609009
 30
32.08814569536909
 11
11.90520848718454
 21
8.337704714241255
 31
30.15155143310846
  0
LINE
  5
1F9
330
1F
100
AcDbEntity
  8
Default
100
AcDbLine
 10
12.08661964164781
 20
5.574167123547266
 30
30.67590032246774
 11
10.30864753340291
 21
6.392195952810162
 31
31.40509573383292
  0
LINE
  5
1FA
330
1F
100
AcDbEntity
  8
Default
100
AcDbLine
 10
12.85312590842328
 20
6.035035338851071
 30
28.78853428423492
 11
12.08661964164781
 21
5.574167123547265
 31
30.67590032246774
  0
LINE
  5
1FB
330
1F
100
AcDbEntity
  8
Default
100
AcDbLine
 10
11.07515380017837
 20
6.853064168113982
 30
29.51772969560009
 11
12.85312590842328
 21
6.035035338851072
 31
28.78853428423492
  0
LINE
  5
1FC
330
1F
100
AcDbEntity
  8
Default
100
AcDbLine
 10
10.30864753340291
 20
6.392195952810161
 30
31.40509573383292
 11
11.07515380017837
 21
6.853064168113982
 31
29.51772969560009
  0
LINE
  5
1FD
330
1F
100
AcDbEntity
  8
Default
100
AcDbLine
 10
10.85222967015886
 20
4.054196020114045
 30
29.73510380171565
 11
9.205180178396276
 21
5.035041357744094
 31
30.56411063310613
  0
LINE
  5
1FE
330
1F
100
AcDbEntity
  8
Default
100
AcDbLine
 10
11.68600849446727
 20
4.59793828857924
 30
27.89901035399104
 11
10.85222967015886
 21
4.054196020114045
 31
29.73510380171565
  0
LINE
  5
1FF
330
1F
100
AcDbEntity
  8
Default
100
AcDbLine
 10
10.03895900270468
 20
5.578783626209306
 30
28.72801718538151
 11
11.68600849446727
 21
4.597938288579239
 31
27.89901035399104
  0
LINE
  5
200
330
1F
100
AcDbEntity
  8
Default
100
AcDbLine
 10
9.205180178396276
 20
5.035041357744094
 30
30.56411063310613
 11
10.03895900270468
 21
5.578783626209305
 31
28.72801718538151
  0
LINE
  5
201
330
1F
100
AcDbEntity
  8
Default
100
AcDbLine
 10
9.42453566868673
 20
2.82574042615529
 30
28.6492337291512
 11
7.920829340870442
 21
3.930769895446789
 31
29.58724176901049
  0
LINE
  5
202
330
1F
100
AcDbEntity
  8
Default
100
AcDbLine
 10
10.34714485563309
 20
3.444836283593594
 30
26.88073308209932
 11
9.42453566868673
 21
2.825740426155289
 31
28.6492337291512
  0
LINE
  5
203
330
1F
100
AcDbEntity
  8
Default
100
AcDbLine
 10
8.843438527816796
 20
4.549865752885114
 30
27.8187411219586
 11
10.3471448556331
 21
3.444836283593594
 31
26.88073308209932
  0
LINE
  5
204
330
1F
100
AcDbEntity
  8
Default
100
AcDbLine
 10
7.920829340870442
 20
3.93076989544679
 30
29.58724176901049
 11
8.843438527816794
 21
4.549865752885114
 31
27.8187411219586
  0
LINE
  5
205
330
1F
100
AcDbEntity
  8
Default
100
AcDbLine
 10
7.873591420195149
 20
1.942357681051359
 30
27.45600832796667
 11
6.518729404671452
 21
3.133353321395816
 31
28.5086052283657
  0
LINE
  5
206
330
1F
100
AcDbEntity
  8
Default
100
AcDbLine
 10
8.861294295195473
 20
2.601254253467339
 30
25.7377591409357
 11
7.873591420195148
 21
1.942357681051358
 31
27.45600832796667
  0
LINE
  5
207
330
1F
100
AcDbEntity
  8
Default
100
AcDbLine
 10
7.506432279671769
 20
3.792249893811817
 30
26.79035604133472
 11
8.861294295195473
 21
2.601254253467339
 31
25.7377591409357
  0
LINE
  5
208
330
1F
100
AcDbEntity
  8
Default
100
AcDbLine
 10
6.518729404671452
 20
3.133353321395816
 30
28.5086052283657
 11
7.50643227967177
 21
3.792249893811818
 31
26.79035604133472
  0
LINE
  5
209
330
1F
100
AcDbEntity
  8
Default
100
AcDbLine
 10
6.302415898307066
 20
1.279343383662645
 30
26.32175754264629
 11
5.02225969236166
 21
2.503115833310773
 31
27.42885420103694
  0
LINE
  5
20A
330
1F
100
AcDbEntity
  8
Default
100
AcDbLine
 10
7.289502514312325
 20
1.936943400051664
 30
24.60265773108603
 11
6.302415898307065
 21
1.279343383662645
 31
26.32175754264629
  0
LINE
  5
20B
330
1F
100
AcDbEntity
  8
Default
100
AcDbLine
 10
6.009346308366913
 20
3.160715849699814
 30
25.70975438947668
 11
7.289502514312325
 21
1.936943400051663
 31
24.60265773108603
  0
LINE
  5
20C
330
1F
100
AcDbEntity
  8
Default
100
AcDbLine
 10
5.02225969236166
 20
2.503115833310774
 30
27.42885420103694
 11
6.009346308366915
 21
3.160715849699815
 31
25.70975438947668
  0
LINE
  5
20D
330
1F
100
AcDbEntity
  8
Default
100
AcDbLine
 10
4.771308272642052
 20
0.697622952413901
 30
25.07775722669082
 11
3.365768521300168
 21
1.873974875923044
 31
26.07912433750093
  0
LINE
  5
20E
330
1F
100
AcDbEntity
  8
Default
100
AcDbLine
 10
5.970605990620723
 20
1.43561100633546
 30
23.5353109400804
 11
4.771308272642051
 21
0.6976229524139005
 31
25.07775722669082
  0
LINE
  5
20F
330
1F
100
AcDbEntity
  8
Default
100
AcDbLine
 10
4.565066239278832
 20
2.611962929844626
 30
24.53667805089051
 11
5.970605990620723
 21
1.43561100633546
 31
23.5353109400804
  0
LINE
  5
210
330
1F
100
AcDbEntity
  8
Default
100
AcDbLine
 10
3.365768521300167
 20
1.873974875923044
 30
26.07912433750093
 11
4.565066239278831
 21
2.611962929844625
 31
24.53667805089051
  0
LINE
  5
211
330
1F
100
AcDbEntity
  8
Default
100
AcDbLine
 10
3.471734007072453
 20
0.196279327791969
 30
23.56567169009367
 11
1.904619753622437
 21
1.310365898704237
 31
24.38117519119272
  0
LINE
  5
212
330
1F
100
AcDbEntity
  8
Default
100
AcDbLine
 10
4.907030115400436
 20
1.025219594355174
 30
22.29489828501835
 11
3.471734007072452
 21
0.1962793277919682
 31
23.56567169009367
  0
LINE
  5
213
330
1F
100
AcDbEntity
  8
Default
100
AcDbLine
 10
3.339915861950415
 20
2.139306165267465
 30
23.1104017861174
 11
4.907030115400437
 21
1.025219594355174
 31
22.29489828501835
  0
LINE
  5
214
330
1F
100
AcDbEntity
  8
Default
100
AcDbLine
 10
1.904619753622437
 20
1.310365898704238
 30
24.38117519119272
 11
3.339915861950415
 21
2.139306165267465
 31
23.1104017861174
  0
LINE
  5
215
330
1F
100
AcDbEntity
  8
Default
100
AcDbLine
 10
2.415949679552691
 20
-0.2235312473633591
 30
21.86710571577467
 11
0.7545621587155324
 21
0.8531016778273599
 31
22.53248904977087
  0
LINE
  5
216
330
1F
100
AcDbEntity
  8
Default
100
AcDbLine
 10
3.992224843133321
 20
0.661422280439967
 30
20.82101977596602
 11
2.41594967955269
 21
-0.2235312473633595
 31
21.86710571577467
  0
LINE
  5
217
330
1F
100
AcDbEntity
  8
Default
100
AcDbLine
 10
2.330837322296157
 20
1.738055205630708
 30
21.48640310996222
 11
3.992224843133322
 21
0.661422280439967
 31
20.82101977596602
  0
LINE
  5
218
330
1F
100
AcDbEntity
  8
Default
100
AcDbLine
 10
0.7545621587155319
 20
0.8531016778273602
 30
22.53248904977087
 11
2.330837322296157
 21
1.738055205630708
 31
21.48640310996222
  0
LINE
  5
219
330
1F
100
AcDbEntity
  8
Default
100
AcDbLine
 10
1.544726936061582
 20
-0.5746502274346492
 30
20.06409472646125
 11
-0.1678785923352544
 21
0.4813448718895246
 31
20.62439695335847
  0
LINE
  5
21A
330
1F
100
AcDbEntity
  8
Default
100
AcDbLine
 10
3.201212295645095
 20
0.3426235563546214
 30
19.18276221814419
 11
1.544726936061583
 21
-0.5746502274346486
 31
20.06409472646125
  0
LINE
  5
21B
330
1F
100
AcDbEntity
  8
Default
100
AcDbLine
 10
1.488606767248254
 20
1.398618655678818
 30
19.74306444504141
 11
3.201212295645095
 21
0.3426235563546214
 31
19.18276221814419
  0
LINE
  5
21C
330
1F
100
AcDbEntity
  8
Default
100
AcDbLine
 10
-0.1678785923352544
 20
0.4813448718895248
 30
20.62439695335847
 11
1.488606767248254
 21
1.398618655678817
 31
19.74306444504141
  0
LINE
  5
21D
330
1F
100
AcDbEntity
  8
Default
100
AcDbLine
 10
0.8051813978513467
 20
-0.8698138891703007
 30
18.19856426437959
 11
-0.9405228019858733
 21
0.1729755797431753
 31
18.6752076335267
  0
LINE
  5
21E
330
1F
100
AcDbEntity
  8
Default
100
AcDbLine
 10
2.515747203703745
 20
0.0690377720389305
 30
17.45384679227944
 11
0.8051813978513471
 21
-0.8698138891703004
 31
18.19856426437959
  0
LINE
  5
21F
330
1F
100
AcDbEntity
  8
Default
100
AcDbLine
 10
0.7700430038665199
 20
1.111827240952429
 30
17.93049016142654
 11
2.515747203703745
 21
0.0690377720389304
 31
17.45384679227944
  0
LINE
  5
220
330
1F
100
AcDbEntity
  8
Default
100
AcDbLine
 10
-0.9405228019858738
 20
0.1729755797431755
 30
18.6752076335267
 11
0.77004300386652
 21
1.111827240952429
 31
17.93049016142654
  0
LINE
  5
221
330
1F
100
AcDbEntity
  8
Default
100
AcDbLine
 10
0.1936847573923854
 20
-1.110325164432753
 30
16.27889697908541
 11
-1.581663963904776
 21
-0.0791963175686732
 31
16.66229253215216
  0
LINE
  5
222
330
1F
100
AcDbEntity
  8
Default
100
AcDbLine
 10
1.951657999911368
 20
-0.152825463231274
 30
15.68324075948855
 11
0.1936847573923857
 21
-1.110325164432753
 31
16.27889697908541
  0
LINE
  5
223
330
1F
100
AcDbEntity
  8
Default
100
AcDbLine
 10
0.1763092786142011
 20
0.8783033836328286
 30
16.0666363125553
 11
1.951657999911367
 21
-0.1528254632312741
 31
15.68324075948855
  0
LINE
  5
224
330
1F
100
AcDbEntity
  8
Default
100
AcDbLine
 10
-1.581663963904776
 20
-0.079196317568673
 30
16.66229253215216
 11
0.176309278614202
 21
0.8783033836328288
 31
16.0666363125553
  0
LINE
  5
225
330
1F
100
AcDbEntity
  8
Default
100
AcDbLine
 10
-0.2777838542771956
 20
-1.293808253147253
 30
14.31360411166561
 11
-2.077573183217233
 21
-0.2721906219986301
 31
14.59491838133196
  0
LINE
  5
226
330
1F
100
AcDbEntity
  8
Default
100
AcDbLine
 10
1.518513522352222
 20
-0.3213942980110285
 30
13.87793363328929
 11
-0.2777838542771958
 21
-1.293808253147253
 31
14.31360411166561
  0
LINE
  5
227
330
1F
100
AcDbEntity
  8
Default
100
AcDbLine
 10
-0.2812758065878198
 20
0.7002233331376165
 30
14.15924790295565
 11
1.518513522352221
 21
-0.3213942980110284
 31
13.87793363328929
  0
LINE
  5
228
330
1F
100
AcDbEntity
  8
Default
100
AcDbLine
 10
-2.077573183217233
 20
-0.27219062199863
 30
14.59491838133196
 11
-0.2812758065878198
 21
0.7002233331376166
 31
14.15924790295565
  0
LINE
  5
229
330
1F
100
AcDbEntity
  8
Default
100
AcDbLine
 10
-0.5996242939359162
 20
-1.41881603841175
 30
12.31393040920389
 11
-2.416778853294391
 21
-0.403943542212309
 31
12.48732318592395
  0
LINE
  5
22A
330
1F
100
AcDbEntity
  8
Default
100
AcDbLine
 10
1.223496768306486
 20
-0.4359830296470327
 30
12.04494936814584
 11
-0.5996242939359158
 21
-1.418816038411749
 31
12.31393040920389
  0
LINE
  5
22B
330
1F
100
AcDbEntity
  8
Default
100
AcDbLine
 10
-0.5936577910519935
 20
0.5788894665524305
 30
12.2183421448659
 11
1.223496768306486
 21
-0.4359830296470326
 31
12.04494936814584
  0
LINE
  5
22C
330
1F
100
AcDbEntity
  8
Default
100
AcDbLine
 10
-2.416778853294391
 20
-0.4039435422123088
 30
12.48732318592395
 11
-0.5936577910519931
 21
0.5788894665524307
 31
12.2183421448659
  0
LINE
  5
22D
330
1F
100
AcDbEntity
  8
Default
100
AcDbLine
 10
-0.7693089879569565
 20
-1.485179520122222
 30
10.29328132787138
 11
-2.595474430695341
 21
-0.4738318090563707
 31
10.3594441136958
  0
LINE
  5
22E
330
1F
100
AcDbEntity
  8
Default
100
AcDbLine
 10
1.067735253670631
 20
-0.4969001544437927
 30
10.19006175203807
 11
-0.7693089879569559
 21
-1.485179520122222
 31
10.29328132787138
  0
LINE
  5
22F
330
1F
100
AcDbEntity
  8
Default
100
AcDbLine
 10
-0.7584301890677579
 20
0.5144475566220816
 30
10.2562245378625
 11
1.067735253670631
 21
-0.496900154443793
 31
10.19006175203808
  0
LINE
  5
230
330
1F
100
AcDbEntity
  8
Default
100
AcDbLine
 10
-2.595474430695342
 20
-0.4738318090563708
 30
10.3594441136958
 11
-0.7584301890677585
 21
0.5144475566220813
 31
10.2562245378625
  0
LINE
  5
231
330
1F
100
AcDbEntity
  8
Default
100
AcDbLine
 10
-0.7881877686369667
 20
-1.493103264774937
 30
8.264683672690389
 11
-2.615339900040877
 21
-0.4821702939864716
 31
8.22453957677301
  0
LINE
  5
232
330
1F
100
AcDbEntity
  8
Default
100
AcDbLine
 10
1.050380162477569
 20
-0.5041832631479182
 30
8.326223287714207
 11
-0.788187768636966
 21
-1.493103264774937
 31
8.264683672690387
  0
LINE
  5
233
330
1F
100
AcDbEntity
  8
Default
100
AcDbLine
 10
-0.7767719689263456
 20
0.5067497076405697
 30
8.286079191796828
 11
1.050380162477568
 21
-0.5041832631479181
 31
8.326223287714207
  0
LINE
  5
234
330
1F
100
AcDbEntity
  8
Default
100
AcDbLine
 10
-2.615339900040877
 20
-0.4821702939864714
 30
8.224539576773008
 11
-0.7767719689263453
 21
0.50674970764057
 31
8.286079191796828
  0
LINE
  5
235
330
1F
100
AcDbEntity
  8
Default
100
AcDbLine
 10
-0.6569422607454855
 20
-1.442507948057328
 30
6.240693353684875
 11
-2.477215493169573
 21
-0.4289217384548403
 31
6.09464443659853
  0
LINE
  5
236
330
1F
100
AcDbEntity
  8
Default
100
AcDbLine
 10
1.170935077978108
 20
-0.4577113903815128
 30
6.466795334500313
 11
-0.6569422607454853
 21
-1.442507948057327
 31
6.240693353684875
  0
LINE
  5
237
330
1F
100
AcDbEntity
  8
Default
100
AcDbLine
 10
-0.6493381544459835
 20
0.5558748192209971
 30
6.320746417413968
 11
1.170935077978108
 21
-0.4577113903815128
 31
6.466795334500313
  0
LINE
  5
238
330
1F
100
AcDbEntity
  8
Default
100
AcDbLine
 10
-2.477215493169573
 20
-0.4289217384548401
 30
6.09464443659853
 11
-0.6493381544459838
 21
0.555874819220997
 31
6.320746417413968
  0
LINE
  5
239
330
1F
100
AcDbEntity
  8
Default
100
AcDbLine
 10
-0.3754553013214965
 20
-1.333005848535864
 30
4.23393858055284
 11
-2.180845170114202
 21
-0.3136308083591446
 31
3.981899138632661
  0
LINE
  5
23A
330
1F
100
AcDbEntity
  8
Default
100
AcDbLine
 10
1.429230227072193
 20
-0.3572296854566576
 30
4.625158409205297
 11
-0.3754553013214963
 21
-1.333005848535864
 31
4.233938580552841
  0
LINE
  5
23B
330
1F
100
AcDbEntity
  8
Default
100
AcDbLine
 10
-0.3761596417205172
 20
0.6621453547200848
 30
4.373118967285119
 11
1.429230227072193
 21
-0.3572296854566575
 31
4.625158409205297
  0
LINE
  5
23C
330
1F
100
AcDbEntity
  8
Default
100
AcDbLine
 10
-2.180845170114203
 20
-0.3136308083591443
 30
3.981899138632661
 11
-0.3761596417205171
 21
0.6621453547200848
 31
4.373118967285119
  0
LINE
  5
23D
330
1F
100
AcDbEntity
  8
Default
100
AcDbLine
 10
-1.107876315675686
 20
0.106700991957454
 30
-0.1394947273068393
 11
0.6417842211677534
 21
-0.9345076231240204
 31
0.3259669326082561
  0
LINE
  5
23E
330
1F
100
AcDbEntity
  8
Default
100
AcDbLine
 10
2.359308098716056
 20
0.0071203513672913
 30
1.050901701304641
 11
0.6096475618726123
 21
1.048328966448788
 31
0.585440041389547
  0
LINE
  5
23F
330
1F
100
AcDbEntity
  8
Default
100
AcDbLine
 10
0.6417842211677535
 20
-0.9345076231240202
 30
0.3259669326082561
 11
2.359308098716056
 21
0.0071203513672914
 31
1.050901701304641
  0
LINE
  5
240
330
1F
100
AcDbEntity
  8
Default
100
AcDbLine
 10
0.6096475618726123
 20
1.048328966448788
 30
0.585440041389547
 11
-1.107876315675686
 21
0.1067009919574538
 31
-0.1394947273068393
  0
LINE
  5
241
330
1F
100
AcDbEntity
  8
Default
100
AcDbLine
 10
1.825327630000751
 20
-0.2024021376189462
 30
2.815058922586961
 11
0.0432524632868923
 21
0.826086249009564
 31
2.456587626790236
  0
LINE
  5
242
330
1F
100
AcDbEntity
  8
Default
100
AcDbLine
 10
0.043252463286892
 20
0.8260862490095643
 30
2.456587626790236
 11
-1.725017742186983
 21
-0.1354557278336248
 31
1.899147550764168
  0
LINE
  5
243
330
1F
100
AcDbEntity
  8
Default
100
AcDbLine
 10
-1.725017742186983
 20
-0.1354557278336248
 30
1.899147550764168
 11
0.0570574245268722
 21
-1.163944114462112
 31
2.257618846560894
  0
LINE
  5
244
330
1F
100
AcDbEntity
  8
Default
100
AcDbLine
 10
0.0570574245268726
 20
-1.163944114462113
 30
2.257618846560894
 11
1.825327630000751
 21
-0.202402137618946
 31
2.815058922586961
  0
ENDSEC
  0
SECTION
  2
OBJECTS
  0
DICTIONARY
  5
C
330
0
100
AcDbDictionary
281
     1
  3
ACAD_GROUP
350
D
  3
ACAD_LAYOUT
350
1A
  3
ACAD_MLEADERSTYLE
350
246
  3
ACAD_MLINESTYLE
350
17
  3
ACAD_PLOTSETTINGS
350
19
  3
ACAD_PLOTSTYLENAME
350
E
  3
ACAD_TABLESTYLE
350
245
  3
ACAD_VISUALSTYLE
350
2A
  0
DICTIONARY
  5
D
102
{ACAD_REACTORS
330
C
102
}
330
C
100
AcDbDictionary
281
     1
  0
DICTIONARY
  5
1A
102
{ACAD_REACTORS
330
C
102
}
330
C
100
AcDbDictionary
281
     1
  3
Layout1
350
1E
  3
Layout2
350
26
  3
Model
350
22
  0
DICTIONARY
  5
246
102
{ACAD_REACTORS
330
C
102
}
330
C
100
AcDbDictionary
281
     1
  0
DICTIONARY
  5
17
102
{ACAD_REACTORS
330
C
102
}
330
C
100
AcDbDictionary
281
     1
  3
Standard
350
18
  0
DICTIONARY
  5
19
102
{ACAD_REACTORS
330
C
102
}
330
C
100
AcDbDictionary
281
     1
  0
ACDBDICTIONARYWDFLT
  5
E
102
{ACAD_REACTORS
330
C
102
}
330
C
100
AcDbDictionary
281
     1
  3
Normal
350
F
100
AcDbDictionaryWithDefault
340
F
  0
DICTIONARY
  5
245
102
{ACAD_REACTORS
330
C
102
}
330
C
100
AcDbDictionary
281
     1
  0
DICTIONARY
  5
2A
102
{ACAD_REACTORS
330
C
102
}
330
C
100
AcDbDictionary
281
     1
  3
2dWireframe
350
2F
  3
3D Hidden
350
31
  3
3dWireframe
350
30
  3
Basic
350
32
  3
Brighten
350
36
  3
ColorChange
350
3A
  3
Conceptual
350
34
  3
Dim
350
35
  3
Facepattern
350
39
  3
Flat
350
2B
  3
FlatWithEdges
350
2C
  3
Gouraud
350
2D
  3
GouraudWithEdges
350
2E
  3
Linepattern
350
38
  3
Realistic
350
33
  3
Thicken
350
37
  0
LAYOUT
  5
1E
102
{ACAD_REACTORS
330
1A
102
}
330
1A
100
AcDbPlotSettings
  1

  2
none_device
  4

  6

 40
0.0
 41
0.0
 42
0.0
 43
0.0
 44
0.0
 45
0.0
 46
0.0
 47
0.0
 48
0.0
 49
0.0
140
0.0
141
0.0
142
1.0
143
1.0
 70
   688
 72
     0
 73
     0
 74
     5
  7

 75
    16
 76
     0
 77
     2
 78
   300
147
1.0
148
0.0
149
0.0
100
AcDbLayout
  1
Layout1
 70
     1
 71
     1
 10
0.0
 20
0.0
 11
12.0
 21
9.0
 12
0.0
 22
0.0
 32
0.0
 14
1.000000000000000E+20
 24
1.000000000000000E+20
 34
1.000000000000000E+20
 15
-1.000000000000000E+20
 25
-1.000000000000000E+20
 35
-1.000000000000000E+20
146
0.0
 13
0.0
 23
0.0
 33
0.0
 16
1.0
 26
0.0
 36
0.0
 17
0.0
 27
1.0
 37
0.0
 76
     0
330
1B
  0
LAYOUT
  5
26
102
{ACAD_REACTORS
330
1A
102
}
330
1A
100
AcDbPlotSettings
  1

  2
none_device
  4

  6

 40
0.0
 41
0.0
 42
0.0
 43
0.0
 44
0.0
 45
0.0
 46
0.0
 47
0.0
 48
0.0
 49
0.0
140
0.0
141
0.0
142
1.0
143
1.0
 70
   688
 72
     0
 73
     0
 74
     5
  7

 75
    16
 76
     0
 77
     2
 78
   300
147
1.0
148
0.0
149
0.0
100
AcDbLayout
  1
Layout2
 70
     1
 71
     2
 10
0.0
 20
0.0
 11
0.0
 21
0.0
 12
0.0
 22
0.0
 32
0.0
 14
0.0
 24
0.0
 34
0.0
 15
0.0
 25
0.0
 35
0.0
146
0.0
 13
0.0
 23
0.0
 33
0.0
 16
1.0
 26
0.0
 36
0.0
 17
0.0
 27
1.0
 37
0.0
 76
     0
330
23
  0
LAYOUT
  5
22
102
{ACAD_REACTORS
330
1A
102
}
330
1A
100
AcDbPlotSettings
  1

  2
none_device
  4

  6

 40
0.0
 41
0.0
 42
0.0
 43
0.0
 44
0.0
 45
0.0
 46
0.0
 47
0.0
 48
0.0
 49
0.0
140
0.0
141
0.0
142
1.0
143
1.0
 70
  1712
 72
     0
 73
     0
 74
     0
  7

 75
     0
 76
     0
 77
     2
 78
   300
147
1.0
148
0.0
149
0.0
100
AcDbLayout
  1
Model
 70
     1
 71
     0
 10
0.0
 20
0.0
 11
12.0
 21
9.0
 12
0.0
 22
0.0
 32
0.0
 14
-2.615339900040877
 24
-1.493103264774937
 34
-0.8733735729583232
 15
28.29209837484751
 25
26.83444717507665
 35
32.84999259119913
146
0.0
 13
0.0
 23
0.0
 33
0.0
 16
1.0
 26
0.0
 36
0.0
 17
0.0
 27
1.0
 37
0.0
 76
     0
330
1F
331
29
  0
MLINESTYLE
  5
18
102
{ACAD_REACTORS
330
17
102
}
330
17
100
AcDbMlineStyle
  2
Standard
 70
     0
  3

 62
   256
 51
90.0
 52
90.0
 71
     2
 49
0.5
 62
   256
  6
BYLAYER
 49
-0.5
 62
   256
  6
BYLAYER
  0
ACDBPLACEHOLDER
  5
F
102
{ACAD_REACTORS
330
E
102
}
330
E
  0
VISUALSTYLE
  5
2F
102
{ACAD_REACTORS
330
2A
102
}
330
2A
100
AcDbVisualStyle
  2
2dWireframe
 70
     4
 71
     0
 72
     2
 73
     0
 90
        0
 40
-0.6
 41
-30.0
 62
     5
 63
     7
421
 16777215
 74
     1
 91
        4
 64
     7
 65
   257
 75
     1
175
     1
 42
1.0
 92
        0
 66
   257
 43
1.0
 76
     1
 77
     6
 78
     2
 67
     7
 79
     5
170
     0
171
     0
290
     0
174
     0
 93
        1
 44
0.0
173
     0
291
     0
 45
0.0
1001
ACAD
1000
AcDbSavedByObjectVersion
1070
     0
  0
VISUALSTYLE
  5
31
102
{ACAD_REACTORS
330
2A
102
}
330
2A
100
AcDbVisualStyle
  2
3D Hidden
 70
     6
 71
     1
 72
     2
 73
     2
 90
        0
 40
-0.6
 41
-30.0
 62
     5
 63
     7
421
 16777215
 74
     2
 91
        2
 64
     7
 65
   257
 75
     2
175
     1
 42
40.0
 92
        0
 66
   257
 43
1.0
 76
     1
 77
     6
 78
     2
 67
     7
 79
     3
170
     0
171
     0
290
     0
174
     0
 93
        1
 44
0.0
173
     0
291
     0
 45
0.0
1001
ACAD
1000
AcDbSavedByObjectVersion
1070
     0
  0
VISUALSTYLE
  5
30
102
{ACAD_REACTORS
330
2A
102
}
330
2A
100
AcDbVisualStyle
  2
3dWireframe
 70
     5
 71
     0
 72
     2
 73
     0
 90
        0
 40
-0.6
 41
-30.0
 62
     5
 63
     7
421
 16777215
 74
     1
 91
        4
 64
     7
 65
   257
 75
     1
175
     1
 42
1.0
 92
        0
 66
   257
 43
1.0
 76
     1
 77
     6
 78
     2
 67
     7
 79
     5
170
     0
171
     0
290
     0
174
     0
 93
        1
 44
0.0
173
     0
291
     0
 45
0.0
1001
ACAD
1000
AcDbSavedByObjectVersion
1070
     0
  0
VISUALSTYLE
  5
32
102
{ACAD_REACTORS
330
2A
102
}
330
2A
100
AcDbVisualStyle
  2
Basic
 70
     7
 71
     1
 72
     0
 73
     1
 90
        0
 40
-0.6
 41
-30.0
 62
     5
 63
     7
421
 16777215
 74
     0
 91
        4
 64
     7
 65
   257
 75
     1
175
     1
 42
1.0
 92
        8
 66
     7
 43
1.0
 76
     1
 77
     6
 78
     2
 67
     7
 79
     5
170
     0
171
     0
290
     0
174
     0
 93
        1
 44
0.0
173
     0
291
     1
 45
0.0
1001
ACAD
1000
AcDbSavedByObjectVersion
1070
     0
  0
VISUALSTYLE
  5
36
102
{ACAD_REACTORS
330
2A
102
}
330
2A
100
AcDbVisualStyle
  2
Brighten
 70
    12
 71
     2
 72
     2
 73
     0
 90
        0
 40
-0.6
 41
-30.0
 62
     5
 63
     7
421
 16777215
 74
     1
 91
        4
 64
     7
 65
   257
 75
     1
175
     1
 42
1.0
 92
        8
 66
     7
 43
1.0
 76
     1
 77
     6
 78
     2
 67
     7
 79
     5
170
     0
171
     0
290
     0
174
     0
 93
        1
 44
50.0
173
     0
291
     1
 45
0.0
1001
ACAD
1000
AcDbSavedByObjectVersion
1070
     0
  0
VISUALSTYLE
  5
3A
102
{ACAD_REACTORS
330
2A
102
}
330
2A
100
AcDbVisualStyle
  2
ColorChange
 70
    16
 71
     2
 72
     2
 73
     3
 90
        0
 40
-0.6
 41
-30.0
 62
     5
 63
     8
421
  8421504
 74
     1
 91
        4
 64
     7
 65
   257
 75
     1
175
     1
 42
1.0
 92
        8
 66
     8
424
  8421504
 43
1.0
 76
     1
 77
     6
 78
     2
 67
     7
 79
     5
170
     0
171
     0
290
     0
174
     0
 93
        1
 44
0.0
173
     0
291
     1
 45
0.0
1001
ACAD
1000
AcDbSavedByObjectVersion
1070
     0
  0
VISUALSTYLE
  5
34
102
{ACAD_REACTORS
330
2A
102
}
330
2A
100
AcDbVisualStyle
  2
Conceptual
 70
     9
 71
     3
 72
     2
 73
     0
 90
        0
 40
-0.6
 41
-30.0
 62
     5
 63
     7
421
 16777215
 74
     2
 91
        2
 64
     7
 65
   257
 75
     1
175
     1
 42
40.0
 92
        8
 66
     7
 43
1.0
 76
     1
 77
     6
 78
     2
 67
     7
 79
     3
170
     0
171
     0
290
     0
174
     0
 93
        1
 44
0.0
173
     0
291
     0
 45
0.0
1001
ACAD
1000
AcDbSavedByObjectVersion
1070
     0
  0
VISUALSTYLE
  5
35
102
{ACAD_REACTORS
330
2A
102
}
330
2A
100
AcDbVisualStyle
  2
Dim
 70
    11
 71
     2
 72
     2
 73
     0
 90
        0
 40
-0.6
 41
-30.0
 62
     5
 63
     7
421
 16777215
 74
     1
 91
        4
 64
     7
 65
   257
 75
     1
175
     1
 42
1.0
 92
        8
 66
     7
 43
1.0
 76
     1
 77
     6
 78
     2
 67
     7
 79
     5
170
     0
171
     0
290
     0
174
     0
 93
        1
 44
-50.0
173
     0
291
     1
 45
0.0
1001
ACAD
1000
AcDbSavedByObjectVersion
1070
     0
  0
VISUALSTYLE
  5
39
102
{ACAD_REACTORS
330
2A
102
}
330
2A
100
AcDbVisualStyle
  2
Facepattern
 70
    15
 71
     2
 72
     2
 73
     0
 90
        0
 40
-0.6
 41
-30.0
 62
     5
 63
     7
421
 16777215
 74
     1
 91
        4
 64
     7
 65
   257
 75
     1
175
     1
 42
1.0
 92
        8
 66
     7
 43
1.0
 76
     1
 77
     6
 78
     2
 67
     7
 79
     5
170
     0
171
     0
290
     0
174
     0
 93
        1
 44
0.0
173
     0
291
     1
 45
0.0
1001
ACAD
1000
AcDbSavedByObjectVersion
1070
     0
  0
VISUALSTYLE
  5
2B
102
{ACAD_REACTORS
330
2A
102
}
330
2A
100
AcDbVisualStyle
  2
Flat
 70
     0
 71
     2
 72
     1
 73
     1
 90
        2
 40
-0.6
 41
30.0
 62
     5
 63
     7
421
 16777215
 74
     0
 91
        4
 64
     7
 65
   257
 75
     1
175
     1
 42
1.0
 92
        8
 66
     7
 43
1.0
 76
     1
 77
     6
 78
     2
 67
     7
 79
     5
170
     0
171
     0
290
     0
174
     0
 93
       13
 44
0.0
173
     0
291
     1
 45
0.0
1001
ACAD
1000
AcDbSavedByObjectVersion
1070
     0
  0
VISUALSTYLE
  5
2C
102
{ACAD_REACTORS
330
2A
102
}
330
2A
100
AcDbVisualStyle
  2
FlatWithEdges
 70
     1
 71
     2
 72
     1
 73
     1
 90
        2
 40
-0.6
 41
30.0
 62
     5
 63
     7
421
 16777215
 74
     1
 91
        4
 64
     7
 65
   257
 75
     1
175
     1
 42
1.0
 92
        0
 66
   257
 43
1.0
 76
     1
 77
     6
 78
     2
 67
     7
 79
     5
170
     0
171
     0
290
     0
174
     0
 93
       13
 44
0.0
173
     0
291
     1
 45
0.0
1001
ACAD
1000
AcDbSavedByObjectVersion
1070
     0
  0
VISUALSTYLE
  5
2D
102
{ACAD_REACTORS
330
2A
102
}
330
2A
100
AcDbVisualStyle
  2
Gouraud
 70
     2
 71
     2
 72
     2
 73
     1
 90
        2
 40
-0.6
 41
30.0
 62
     5
 63
     7
421
 16777215
 74
     0
 91
        4
 64
     7
 65
   257
 75
     1
175
     1
 42
1.0
 92
        0
 66
     7
 43
1.0
 76
     1
 77
     6
 78
     2
 67
     7
 79
     5
170
     0
171
     0
290
     0
174
     0
 93
       13
 44
0.0
173
     0
291
     1
 45
0.0
1001
ACAD
1000
AcDbSavedByObjectVersion
1070
     0
  0
VISUALSTYLE
  5
2E
102
{ACAD_REACTORS
330
2A
102
}
330
2A
100
AcDbVisualStyle
  2
GouraudWithEdges
 70
     3
 71
     2
 72
     2
 73
     1
 90
        2
 40
-0.6
 41
30.0
 62
     5
 63
     7
421
 16777215
 74
     1
 91
        4
 64
     7
 65
   257
 75
     1
175
     1
 42
1.0
 92
        0
 66
   257
 43
1.0
 76
     1
 77
     6
 78
     2
 67
     7
 79
     5
170
     0
171
     0
290
     0
174
     0
 93
       13
 44
0.0
173
     0
291
     1
 45
0.0
1001
ACAD
1000
AcDbSavedByObjectVersion
1070
     0
  0
VISUALSTYLE
  5
38
102
{ACAD_REACTORS
330
2A
102
}
330
2A
100
AcDbVisualStyle
  2
Linepattern
 70
    14
 71
     2
 72
     2
 73
     0
 90
        0
 40
-0.6
 41
-30.0
 62
     5
 63
     7
421
 16777215
 74
     1
 91
        4
 64
     7
 65
   257
 75
     7
175
     7
 42
1.0
 92
        8
 66
     7
 43
1.0
 76
     1
 77
     6
 78
     2
 67
     7
 79
     5
170
     0
171
     0
290
     0
174
     0
 93
        1
 44
0.0
173
     0
291
     1
 45
0.0
1001
ACAD
1000
AcDbSavedByObjectVersion
1070
     0
  0
VISUALSTYLE
  5
33
102
{ACAD_REACTORS
330
2A
102
}
330
2A
100
AcDbVisualStyle
  2
Realistic
 70
     8
 71
     2
 72
     2
 73
     0
 90
        0
 40
-0.6
 41
-30.0
 62
     5
 63
     7
421
 16777215
 74
     1
 91
        0
 64
     7
 65
   257
 75
     1
175
     1
 42
1.0
 92
        8
 66
     8
424
  7895160
 43
1.0
 76
     1
 77
     6
 78
     2
 67
     7
 79
     5
170
     0
171
     0
290
     0
174
     0
 93
       13
 44
0.0
173
     0
291
     0
 45
0.0
1001
ACAD
1000
AcDbSavedByObjectVersion
1070
     0
  0
VISUALSTYLE
  5
37
102
{ACAD_REACTORS
330
2A
102
}
330
2A
100
AcDbVisualStyle
  2
Thicken
 70
    13
 71
     2
 72
     2
 73
     0
 90
        0
 40
-0.6
 41
-30.0
 62
     5
 63
     7
421
 16777215
 74
     1
 91
        4
 64
     7
 65
   257
 75
     1
175
     1
 42
1.0
 92
       12
 66
     7
 43
1.0
 76
     1
 77
     6
 78
     2
 67
     7
 79
     5
170
     0
171
     0
290
     0
174
     0
 93
        1
 44
0.0
173
     0
291
     1
 45
0.0
1001
ACAD
1000
AcDbSavedByObjectVersion
1070
     0
  0
ENDSEC
  0
EOF
