  0
SECTION
  2
HEADER
  9
$ACADVER
  1
AC1012
  9
$DWGCODEPAGE
  3
ansi_1252
  9
$INSBASE
 10
0.0
 20
0.0
 30
0.0
  9
$EXTMIN
 10
0.0
 20
0.0
 30
0.0
  9
$EXTMAX
 10
48.0
 20
240.0
 30
0.0
  9
$LIMMIN
 10
0.0
 20
0.0
  9
$LIMMAX
 10
0.0
 20
0.0
  9
$ORTHOMODE
 70
         0
  9
$REGENMODE
 70
         1
  9
$FILLMODE
 70
         1
  9
$QTEXTMODE
 70
         0
  9
$MIRRTEXT
 70
         1
  9
$DRAGMODE
 70
         2
  9
$LTSCALE
 40
1.0
  9
$OSMODE
 70
         0
  9
$ATTMODE
 70
         1
  9
$TEXTSIZE
 40
0.1377952756
  9
$TRACEWID
 40
0.05
  9
$TEXTSTYLE
  7
STANDARD
  9
$CLAYER
  8
0
  9
$CELTYPE
  6
CONTINUOUS
  9
$CECOLOR
 62
       256
  9
$CELTSCALE
 40
1.0
  9
$DELOBJ
 70
         1
  9
$DISPSILH
 70
         0
  9
$DIMSCALE
 40
1.0
  9
$DIMASZ
 40
0.2362204724
  9
$DIMEXO
 40
0.0393700787
  9
$DIMDLI
 40
0.38
  9
$DIMRND
 40
0.0
  9
$DIMDLE
 40
0.0393700787
  9
$DIMEXE
 40
0.18
  9
$DIMTP
 40
0.0
  9
$DIMTM
 40
0.0
  9
$DIMTXT
 40
0.1377952756
  9
$DIMCEN
 40
0.09
  9
$DIMTSZ
 40
0.0
  9
$DIMTOL
 70
         0
  9
$DIMLIM
 70
         0
  9
$DIMTIH
 70
         1
  9
$DIMTOH
 70
         1
  9
$DIMSE1
 70
         0
  9
$DIMSE2
 70
         0
  9
$DIMTAD
 70
         1
  9
$DIMZIN
 70
         0
  9
$DIMBLK
  1

  9
$DIMASO
 70
         1
  9
$DIMSHO
 70
         1
  9
$DIMPOST
  1

  9
$DIMAPOST
  1

  9
$DIMALT
 70
         0
  9
$DIMALTD
 70
         2
  9
$DIMALTF
 40
25.4
  9
$DIMLFAC
 40
1.0
  9
$DIMTOFL
 70
         0
  9
$DIMTVP
 40
0.0
  9
$DIMTIX
 70
         0
  9
$DIMSOXD
 70
         0
  9
$DIMSAH
 70
         0
  9
$DIMBLK1
  1

  9
$DIMBLK2
  1

  9
$DIMSTYLE
  2
STANDARD
  9
$DIMCLRD
 70
         0
  9
$DIMCLRE
 70
         0
  9
$DIMCLRT
 70
         0
  9
$DIMTFAC
 40
1.0
  9
$DIMGAP
 40
0.0393700787
  9
$DIMJUST
 70
         0
  9
$DIMSD1
 70
         0
  9
$DIMSD2
 70
         0
  9
$DIMTOLJ
 70
         1
  9
$DIMTZIN
 70
         0
  9
$DIMALTZ
 70
         0
  9
$DIMALTTZ
 70
         0
  9
$DIMFIT
 70
         3
  9
$DIMUPT
 70
         0
  9
$DIMUNIT
 70
         2
  9
$DIMDEC
 70
         4
  9
$DIMTDEC
 70
         4
  9
$DIMALTU
 70
         2
  9
$DIMALTTD
 70
         2
  9
$DIMTXSTY
  7
STANDARD
  9
$DIMAUNIT
 70
         0
  9
$LUNITS
 70
         2
  9
$LUPREC
 70
         2
  9
$SKETCHINC
 40
0.1
  9
$FILLETRAD
 40
0.0
  9
$AUNITS
 70
         0
  9
$AUPREC
 70
         2
  9
$MENU
  1
acad
  9
$ELEVATION
 40
0.0
  9
$PELEVATION
 40
0.0
  9
$THICKNESS
 40
0.0
  9
$LIMCHECK
 70
         0
  9
$BLIPMODE
 70
         1
  9
$CHAMFERA
 40
0.0
  9
$CHAMFERB
 40
0.0
  9
$CHAMFERC
 40
0.0
  9
$CHAMFERD
 40
0.0
  9
$SKPOLY
 70
         0
  9
$TDCREATE
 40
0.000000000
  9
$TDUPDATE
 40
0.000000000
  9
$TDINDWG
 40
0.0000000000
  9
$TDUSRTIMER
 40
0.0000000000
  9
$USRTIMER
 70
         1
  9
$ANGBASE
 50
0.0
  9
$ANGDIR
 70
         0
  9
$PDMODE
 70
         0
  9
$PDSIZE
 40
-1.0
  9
$PLINEWID
 40
0.0
  9
$COORDS
 70
         0
  9
$SPLFRAME
 70
         0
  9
$SPLINETYPE
 70
         6
  9
$SPLINESEGS
 70
         8
  9
$ATTDIA
 70
         0
  9
$ATTREQ
 70
         1
  9
$HANDLING
 70
         1
  9
$HANDSEED
  5
C8
  9
$SURFTAB1
 70
         6
  9
$SURFTAB2
 70
         6
  9
$SURFTYPE
 70
         6
  9
$SURFU
 70
         6
  9
$SURFV
 70
         6
  9
$UCSNAME
  2

  9
$UCSORG
 10
0.0
 20
0.0
 30
0.0
  9
$UCSXDIR
 10
1.0
 20
0.0
 30
0.0
  9
$UCSYDIR
 10
0.0
 20
1.0
 30
0.0
  9
$PUCSNAME
  2

  9
$PUCSORG
 10
0.0
 20
0.0
 30
0.0
  9
$PUCSXDIR
 10
1.0
 20
0.0
 30
0.0
  9
$PUCSYDIR
 10
0.0
 20
1.0
 30
0.0
  9
$USERI1
 70
         0
  9
$USERI2
 70
         0
  9
$USERI3
 70
         0
  9
$USERI4
 70
         0
  9
$USERI5
 70
         0
  9
$USERR1
 40
0.0
  9
$USERR2
 40
0.0
  9
$USERR3
 40
0.0
  9
$USERR4
 40
0.0
  9
$USERR5
 40
0.0
  9
$WORLDVIEW
 70
         1
  9
$SHADEDGE
 70
         3
  9
$SHADEDIF
 70
        70
  9
$TILEMODE
 70
         1
  9
$MAXACTVP
 70
        16
  9
$PINSBASE
 10
0.0
 20
0.0
 30
0.0
  9
$PLIMCHECK
 70
         0
  9
$PEXTMIN
 10
1.0000000000E+20
 20
1.0000000000E+20
 30
1.0000000000E+20
  9
$PEXTMAX
 10
-1.0000000000E+20
 20
-1.0000000000E+20
 30
-1.0000000000E+20
  9
$PLIMMIN
 10
0.0
 20
0.0
  9
$PLIMMAX
 10
12.0
 20
9.0
  9
$UNITMODE
 70
         0
  9
$VISRETAIN
 70
         0
  9
$PLINEGEN
 70
         1
  9
$PSLTSCALE
 70
         1
  9
$TREEDEPTH
 70
      3020
  9
$PICKSTYLE
 70
         1
  9
$CMLSTYLE
  2
STANDARD
  9
$CMLJUST
 70
         0
  9
$CMLSCALE
 40
1.0
  9
$SAVEIMAGES
 70
         0
  0
ENDSEC
  0
SECTION
  2
CLASSES
  0
CLASS
  1
LWPOLYLINE
  2
AcDbPolyline
  3
"AutoCAD"
 90
        0
280
         0
281
         1
  0
CLASS
  1
IMAGE
  2
AcDbRasterImage
  3
ISM
 90
      127
280
         0
281
         1
  0
CLASS
  1
OLE2FRAME
  2
AcDbOle2Frame
  3
""
 90
        0
280
         0
281
         1
  0
CLASS
  1
HATCH
  2
AcDbHatch
  3
"ACAD_SEDONA"
 90
        0
280
         0
281
         1
  0
CLASS
  1
DICTIONARYVAR
  2
AcDbDictionaryVar
  3
"AutoCAD"
 90
        0
280
         0
281
         0
  0
CLASS
  1
RASTERVARIABLES
  2
AcDbRasterVariables
  3
ISM
 90
        0
280
         0
281
         0
  0
CLASS
  1
IMAGEDEF
  2
AcDbRasterImageDef
  3
ISM
 90
        0
280
         0
281
         0
  0
CLASS
  1
IMAGEDEF_REACTOR
  2
AcDbRasterImageDefReactor
  3
ISM
 90
        1
280
         0
281
         0
  0
CLASS
  1
IDBUFFER
  2
AcDbIdBuffer
  3
"Acad"
 90
        0
280
         0
281
         0
  0
CLASS
  1
SPATIAL_FILTER
  2
AcDbSpatialFilter
  3
"Acad"
 90
        0
280
         0
281
         0
  0
CLASS
  1
XRECORD
  2
AcDbXrecord
  3
"<Built In>"
 90
        0
280
         0
281
         0
  0
CLASS
  1
SORTENTSTABLE
  2
AcDbSortentsTable
  3
"AutoCAD"
 90
        0
280
         0
281
         0
  0
CLASS
  1
LAYER_INDEX
  2
AcDbLayerIndex
  3
"Acad"
 90
        0
280
         0
281
         0
  0
CLASS
  1
SPATIAL_INDEX
  2
AcDbSpatialIndex
  3
"Acad"
 90
        0
280
         0
281
         0
  0
CLASS
  1
OBJECT_PTR
  2
CAseDLPNTableRecord
  3
"ASE-LPNTableRecord"
 90
        1
280
         0
281
         0
  0
CLASS
  1
LAYOUT
  2
AcDbLayout
  3
"AutoCAD 2000"
 90
        1
280
         0
281
         0
  0
CLASS
  1
PLOTSETTINGS
  2
AcDbPlotSettings
  3
"AutoCAD 2000"
 90
        1
280
         0
281
         0
  0
CLASS
  1
ACDBDICTIONARYWDFLT
  2
AcDbDictionaryWithDefault
  3
"AutoCAD 2000"
 90
        1
280
         0
281
         0
  0
CLASS
  1
ACDBPLACEHOLDER
  2
AcDbPlaceHolder
  3
"AutoCAD 2000"
 90
        1
280
         0
281
         0
  0
CLASS
  1
VBA_PROJECT
  2
AcDbVbaProject
  3
"acadvba"
 90
        1
280
         0
281
         0
  0
CLASS
  1
WIPEOUT
  2
AcDbWipeout
  3
WipeOut|AutoCAD Express Tool|expresstools@autodesk.com
 90
      127
280
         0
281
         1
  0
CLASS
  1
WIPEOUTVARIABLES
  2
AcDbWipeoutVariables
  3
WipeOut|AutoCAD Express Tool|expresstools@autodesk.com
 90
        0
280
         0
281
         0
  0
CLASS
  1
RTEXT
  2
RText
  3
RText|AutoCAD Express Tool|expresstools@autodesk.com
 90
        0
280
         0
281
         1
  0
CLASS
  1
ARCALIGNEDTEXT
  2
AcDbArcAlignedText
  3
ATEXT|AutoCAD Express Tool|expresstools@autodesk.com
 90
        0
280
         0
281
         1
  0
ENDSEC
  0
SECTION
  2
TABLES
  0
TABLE
  2
VPORT
  5
7
100
AcDbSymbolTable
 70
         1
  0
VPORT
  5
15
100
AcDbSymbolTableRecord
100
AcDbViewportTableRecord
  2
*ACTIVE
 70
         0
 10
0.0
 20
0.0
 11
1.0
 21
1.0
 12
24.0
 22
120.0
 13
0.0
 23
0.0
 14
1.0
 24
1.0
 15
0.0
 25
0.0
 16
0.0
 26
0.0
 36
1.0
 17
0.0
 27
0.0
 37
0.0
 40
240.0
 41
5.0
 42
50.0
 43
0.0
 44
0.0
 50
0.0
 51
0.0
 71
         0
 72
      2000
 73
         1
 74
         1
 75
         0
 76
         0
 77
         0
 78
         0
  0
ENDTAB
  0
TABLE
  2
LTYPE
  5
4
100
AcDbSymbolTable
 70
         8
  0
LTYPE
  5
11
100
AcDbSymbolTableRecord
100
AcDbLinetypeTableRecord
  2
BYBLOCK
 70
        64
  3

 72
        65
 73
         0
 40
0.0
  0
LTYPE
  5
12
100
AcDbSymbolTableRecord
100
AcDbLinetypeTableRecord
  2
BYLAYER
 70
        64
  3

 72
        65
 73
         0
 40
0.0
  0
LTYPE
  5
13
100
AcDbSymbolTableRecord
100
AcDbLinetypeTableRecord
  2
CONTINUOUS
 70
        64
  3
Solid line
 72
        65
 73
         0
 40
0.0
  0
LTYPE
  5
1E
100
AcDbSymbolTableRecord
100
AcDbLinetypeTableRecord
  2
HIDDEN
 70
        64
  3
Hidden __ __ __ __ __ __ __ __ __ __ __ __ __ __
 72
        65
 73
         2
 40
0.075
 49
0.05
 74
         0
 49
-0.025
 74
         0
  0
LTYPE
  5
1F
100
AcDbSymbolTableRecord
100
AcDbLinetypeTableRecord
  2
PHANTOM
 70
        64
  3
Phantom ______  __  __  ______  __  __  ______
 72
        65
 73
         6
 40
0.5
 49
0.25
 74
         0
 49
-0.05
 74
         0
 49
0.05
 74
         0
 49
-0.05
 74
         0
 49
0.05
 74
         0
 49
-0.05
 74
         0
  0
LTYPE
  5
20
100
AcDbSymbolTableRecord
100
AcDbLinetypeTableRecord
  2
CENTER
 70
        64
  3
Center ____ _ ____ _ ____ _ ____ _ ____ _ ____
 72
        65
 73
         4
 40
0.4
 49
0.25
 74
         0
 49
-0.05
 74
         0
 49
0.05
 74
         0
 49
-0.05
 74
         0
  0
LTYPE
  5
21
100
AcDbSymbolTableRecord
100
AcDbLinetypeTableRecord
  2
CENTERX2
 70
        64
  3
Center (2x) ________  __  ________  __  _____
 72
        65
 73
         4
 40
0.8
 49
0.5
 74
         0
 49
-0.1
 74
         0
 49
0.1
 74
         0
 49
-0.1
 74
         0
  0
LTYPE
  5
22
100
AcDbSymbolTableRecord
100
AcDbLinetypeTableRecord
  2
DOT2
 70
        64
  3
Dot (.5x) ........................................
 72
        65
 73
         2
 40
0.025
 49
0.0
 74
         0
 49
-0.025
 74
         0
  0
ENDTAB
  0
TABLE
  2
LAYER
  5
2
100
AcDbSymbolTable
 70
         2
  0
LAYER
  5
14
100
AcDbSymbolTableRecord
100
AcDbLayerTableRecord
  2
0
 70
         0
 62
         7
  6
CONTINUOUS
  0
LAYER
  5
26
100
AcDbSymbolTableRecord
100
AcDbLayerTableRecord
  2
DEFPOINTS
 70
         0
 62
         7
  6
CONTINUOUS
  0
ENDTAB
  0
TABLE
  2
STYLE
  5
3
100
AcDbSymbolTable
 70
         1
  0
STYLE
  5
17
100
AcDbSymbolTableRecord
100
AcDbTextStyleTableRecord
  2
STANDARD
 70
         0
 40
0.0
 41
1.0
 50
0.0
 71
         0
 42
0.0
  3
txt
  4

  0
ENDTAB
  0
TABLE
  2
VIEW
  5
5
100
AcDbSymbolTable
 70
         0
  0
ENDTAB
  0
TABLE
  2
UCS
  5
6
100
AcDbSymbolTable
 70
         0
  0
ENDTAB
  0
TABLE
  2
APPID
  5
8
100
AcDbSymbolTable
 70
         1
  0
APPID
  5
16
100
AcDbSymbolTableRecord
100
AcDbRegAppTableRecord
  2
ACAD
 70
         0
  0
ENDTAB
  0
TABLE
  2
DIMSTYLE
  5
9
100
AcDbSymbolTable
 70
         1
  0
DIMSTYLE
105
18
100
AcDbSymbolTableRecord
100
AcDbDimStyleTableRecord
  2
STANDARD
 70
         0
  3

  4

  5

  6

  7

 40
1.0
 41
0.18
 42
0.0625
 43
0.38
 44
0.18
 45
0.0
 46
0.0
 47
0.0
 48
0.0
 71
         0
 72
         0
 73
         1
 74
         1
 75
         0
 76
         0
 77
         0
 78
         0
140
0.18
141
0.09
142
0.0
143
25.4
144
1.0
145
0.0
146
1.0
147
0.09
170
         0
171
         2
172
         0
173
         0
174
         0
175
         0
176
         0
177
         0
178
         0
270
         2
271
         4
272
         4
273
         2
274
         2
275
         0
280
         0
281
         0
282
         0
283
         1
284
         0
285
         0
286
         0
287
         0
288
         0
340
17
  0
ENDTAB
  0
TABLE
  2
BLOCK_RECORD
  5
1
100
AcDbSymbolTable
 70
         0
  0
BLOCK_RECORD
  5
A
100
AcDbSymbolTableRecord
100
AcDbBlockTableRecord
  2
*MODEL_SPACE
  0
BLOCK_RECORD
  5
B
100
AcDbSymbolTableRecord
100
AcDbBlockTableRecord
  2
*PAPER_SPACE
  0
ENDTAB
  0
ENDSEC
  0
SECTION
  2
BLOCKS
  0
BLOCK
  5
D
100
AcDbEntity
  8
0
100
AcDbBlockBegin
  2
*MODEL_SPACE
 70
         0
 10
0.0
 20
0.0
 30
0.0
  3
*MODEL_SPACE
  1

  0
ENDBLK
  5
E
100
AcDbEntity
  8
0
100
AcDbBlockEnd
  0
BLOCK
  5
F
100
AcDbEntity
 67
         1
  8
0
100
AcDbBlockBegin
  2
*PAPER_SPACE
 70
         0
 10
0.0
 20
0.0
 30
0.0
  3
*PAPER_SPACE
  1

  0
ENDBLK
  5
10
100
AcDbEntity
 67
         1
  8
0
100
AcDbBlockEnd
  0
ENDSEC
  0
SECTION
  2
ENTITIES
  0
LINE
  5
27
100
AcDbEntity
  8
0
  6
CONTINUOUS
 62
         7
100
AcDbLine
 10
24.424021599
 20
234.3623478819
 30
0.0
 11
24.4791212252
 21
234.3623478819
 31
0.0
  0
POLYLINE
  5
28
100
AcDbEntity
  8
0
  6
CONTINUOUS
 62
         7
100
AcDb2dPolyline
 66
         1
 10
0.0
 20
0.0
 30
0.0
 70
       128
  0
VERTEX
  5
29
100
AcDbEntity
  8
0
100
AcDbVertex
100
AcDb2dVertex
 10
42.4701081257
 20
52.582716442
 30
0.0
  0
VERTEX
  5
2A
100
AcDbEntity
  8
0
100
AcDbVertex
100
AcDb2dVertex
 10
42.4696563819
 20
52.8866348911
 30
0.0
  0
VERTEX
  5
2B
100
AcDbEntity
  8
0
100
AcDbVertex
100
AcDb2dVertex
 10
42.469212175
 20
53.1526220573
 30
0.0
  0
VERTEX
  5
2C
100
AcDbEntity
  8
0
100
AcDbVertex
100
AcDb2dVertex
 10
42.4687739809
 20
53.3814462414
 30
0.0
  0
VERTEX
  5
2D
100
AcDbEntity
  8
0
100
AcDbVertex
100
AcDb2dVertex
 10
42.4682761841
 20
53.606187371
 30
0.0
  0
VERTEX
  5
2E
100
AcDbEntity
  8
0
100
AcDbVertex
100
AcDb2dVertex
 10
42.4676838701
 20
53.8444473272
 30
0.0
  0
VERTEX
  5
2F
100
AcDbEntity
  8
0
100
AcDbVertex
100
AcDb2dVertex
 10
42.4669986588
 20
54.0954094923
 30
0.0
  0
VERTEX
  5
30
100
AcDbEntity
  8
0
100
AcDbVertex
100
AcDb2dVertex
 10
42.46624024
 20
54.3491460683
 30
0.0
  0
VERTEX
  5
31
100
AcDbEntity
  8
0
100
AcDbVertex
100
AcDb2dVertex
 10
42.4608639953
 20
55.742066411
 30
0.0
  0
VERTEX
  5
32
100
AcDbEntity
  8
0
100
AcDbVertex
100
AcDb2dVertex
 10
42.4461819158
 20
58.2259524111
 30
0.0
  0
VERTEX
  5
33
100
AcDbEntity
  8
0
100
AcDbVertex
100
AcDb2dVertex
 10
42.4037208114
 20
62.660151662
 30
0.0
  0
VERTEX
  5
34
100
AcDbEntity
  8
0
100
AcDbVertex
100
AcDb2dVertex
 10
42.3481765592
 20
66.6196339363
 30
0.0
  0
VERTEX
  5
35
100
AcDbEntity
  8
0
100
AcDbVertex
100
AcDb2dVertex
 10
42.2759442315
 20
70.5798343881
 30
0.0
  0
VERTEX
  5
36
100
AcDbEntity
  8
0
100
AcDbVertex
100
AcDb2dVertex
 10
42.1054284288
 20
77.6531886914
 30
0.0
  0
VERTEX
  5
37
100
AcDbEntity
  8
0
100
AcDbVertex
100
AcDb2dVertex
 10
41.8815017444
 20
84.7243194118
 30
0.0
  0
VERTEX
  5
38
100
AcDbEntity
  8
0
100
AcDbVertex
100
AcDb2dVertex
 10
41.636385428
 20
91.034734371
 30
0.0
  0
VERTEX
  5
39
100
AcDbEntity
  8
0
100
AcDbVertex
100
AcDb2dVertex
 10
41.3486447937
 20
97.3422298842
 30
0.0
  0
VERTEX
  5
3A
100
AcDbEntity
  8
0
100
AcDbVertex
100
AcDb2dVertex
 10
41.0183110685
 20
103.6463358997
 30
0.0
  0
VERTEX
  5
3B
100
AcDbEntity
  8
0
100
AcDbVertex
100
AcDb2dVertex
 10
40.6454396921
 20
109.9462178917
 30
0.0
  0
VERTEX
  5
3C
100
AcDbEntity
  8
0
100
AcDbVertex
100
AcDb2dVertex
 10
40.2211111181
 20
116.370298063
 30
0.0
  0
VERTEX
  5
3D
100
AcDbEntity
  8
0
100
AcDbVertex
100
AcDb2dVertex
 10
39.7524945943
 20
122.7899804928
 30
0.0
  0
VERTEX
  5
3E
100
AcDbEntity
  8
0
100
AcDbVertex
100
AcDb2dVertex
 10
39.2396436095
 20
129.2056294724
 30
0.0
  0
VERTEX
  5
3F
100
AcDbEntity
  8
0
100
AcDbVertex
100
AcDb2dVertex
 10
38.6825796273
 20
135.6173911835
 30
0.0
  0
VERTEX
  5
40
100
AcDbEntity
  8
0
100
AcDbVertex
100
AcDb2dVertex
 10
38.0813026479
 20
142.0252656262
 30
0.0
  0
VERTEX
  5
41
100
AcDbEntity
  8
0
100
AcDbVertex
100
AcDb2dVertex
 10
37.4359021745
 20
148.4290085185
 30
0.0
  0
VERTEX
  5
42
100
AcDbEntity
  8
0
100
AcDbVertex
100
AcDb2dVertex
 10
36.7466335852
 20
154.8279228566
 30
0.0
  0
VERTEX
  5
43
100
AcDbEntity
  8
0
100
AcDbVertex
100
AcDb2dVertex
 10
36.0135126198
 20
161.2219656813
 30
0.0
  0
VERTEX
  5
44
100
AcDbEntity
  8
0
100
AcDbVertex
100
AcDb2dVertex
 10
35.2365460514
 20
167.6111248351
 30
0.0
  0
VERTEX
  5
45
100
AcDbEntity
  8
0
100
AcDbVertex
100
AcDb2dVertex
 10
34.4160964224
 20
173.9947495377
 30
0.0
  0
VERTEX
  5
46
100
AcDbEntity
  8
0
100
AcDbVertex
100
AcDb2dVertex
 10
33.552369996
 20
180.3724695372
 30
0.0
  0
VERTEX
  5
47
100
AcDbEntity
  8
0
100
AcDbVertex
100
AcDb2dVertex
 10
32.6453667722
 20
186.7442848337
 30
0.0
  0
VERTEX
  5
48
100
AcDbEntity
  8
0
100
AcDbVertex
100
AcDb2dVertex
 10
31.6951333276
 20
193.1105505191
 30
0.0
  0
VERTEX
  5
49
100
AcDbEntity
  8
0
100
AcDbVertex
100
AcDb2dVertex
 10
30.7018595827
 20
199.4727145199
 30
0.0
  0
VERTEX
  5
4A
100
AcDbEntity
  8
0
100
AcDbVertex
100
AcDb2dVertex
 10
29.6373424542
 20
206.0004301211
 30
0.0
  0
VERTEX
  5
4B
100
AcDbEntity
  8
0
100
AcDbVertex
100
AcDb2dVertex
 10
28.5274872165
 20
212.5239613426
 30
0.0
  0
VERTEX
  5
4C
100
AcDbEntity
  8
0
100
AcDbVertex
100
AcDb2dVertex
 10
27.373078721
 20
219.0405385058
 30
0.0
  0
VERTEX
  5
4D
100
AcDbEntity
  8
0
100
AcDbVertex
100
AcDb2dVertex
 10
26.5870565338
 20
223.3366338193
 30
0.0
  0
VERTEX
  5
4E
100
AcDbEntity
  8
0
100
AcDbVertex
100
AcDb2dVertex
 10
25.7820488531
 20
227.6283225386
 30
0.0
  0
VERTEX
  5
4F
100
AcDbEntity
  8
0
100
AcDbVertex
100
AcDb2dVertex
 10
25.057922307
 20
231.4018097418
 30
0.0
  0
VERTEX
  5
50
100
AcDbEntity
  8
0
100
AcDbVertex
100
AcDb2dVertex
 10
24.9503775861
 20
231.9555446394
 30
0.0
  0
VERTEX
  5
51
100
AcDbEntity
  8
0
100
AcDbVertex
100
AcDb2dVertex
 10
24.8422530742
 20
232.5105644683
 30
0.0
  0
VERTEX
  5
52
100
AcDbEntity
  8
0
100
AcDbVertex
100
AcDb2dVertex
 10
24.7337718122
 20
233.0657332387
 30
0.0
  0
VERTEX
  5
53
100
AcDbEntity
  8
0
100
AcDbVertex
100
AcDb2dVertex
 10
24.6851242312
 20
233.3141756367
 30
0.0
  0
VERTEX
  5
54
100
AcDbEntity
  8
0
100
AcDbVertex
100
AcDb2dVertex
 10
24.6395251018
 20
233.5467195696
 30
0.0
  0
VERTEX
  5
55
100
AcDbEntity
  8
0
100
AcDbVertex
100
AcDb2dVertex
 10
24.5942081581
 20
233.7774539515
 30
0.0
  0
VERTEX
  5
56
100
AcDbEntity
  8
0
100
AcDbVertex
100
AcDb2dVertex
 10
24.5409235169
 20
234.0483963979
 30
0.0
  0
VERTEX
  5
57
100
AcDbEntity
  8
0
100
AcDbVertex
100
AcDb2dVertex
 10
24.4791212252
 20
234.3623478819
 30
0.0
  0
SEQEND
  5
58
100
AcDbEntity
  8
0
  0
POLYLINE
  5
59
100
AcDbEntity
  8
0
  6
CONTINUOUS
 62
         7
100
AcDb2dPolyline
 66
         1
 10
0.0
 20
0.0
 30
0.0
 70
       128
  0
VERTEX
  5
5A
100
AcDbEntity
  8
0
100
AcDbVertex
100
AcDb2dVertex
 10
24.424021599
 20
234.3623478819
 30
0.0
  0
VERTEX
  5
5B
100
AcDbEntity
  8
0
100
AcDbVertex
100
AcDb2dVertex
 10
24.3719451668
 20
234.0978213357
 30
0.0
  0
VERTEX
  5
5C
100
AcDbEntity
  8
0
100
AcDbVertex
100
AcDb2dVertex
 10
24.3257796841
 20
233.8631415295
 30
0.0
  0
VERTEX
  5
5D
100
AcDbEntity
  8
0
100
AcDbVertex
100
AcDb2dVertex
 10
24.2855251509
 20
233.6583084635
 30
0.0
  0
VERTEX
  5
5E
100
AcDbEntity
  8
0
100
AcDbVertex
100
AcDb2dVertex
 10
24.2488087054
 20
233.4712368825
 30
0.0
  0
VERTEX
  5
5F
100
AcDbEntity
  8
0
100
AcDbVertex
100
AcDb2dVertex
 10
24.21019102
 20
233.2742236733
 30
0.0
  0
VERTEX
  5
60
100
AcDbEntity
  8
0
100
AcDbVertex
100
AcDb2dVertex
 10
24.1694578227
 20
233.066177524
 30
0.0
  0
VERTEX
  5
61
100
AcDbEntity
  8
0
100
AcDbVertex
100
AcDb2dVertex
 10
24.1269282932
 20
232.8487242194
 30
0.0
  0
VERTEX
  5
62
100
AcDbEntity
  8
0
100
AcDbVertex
100
AcDb2dVertex
 10
24.0842541771
 20
232.6302771526
 30
0.0
  0
VERTEX
  5
63
100
AcDbEntity
  8
0
100
AcDbVertex
100
AcDb2dVertex
 10
23.8180636441
 20
231.2617149922
 30
0.0
  0
VERTEX
  5
64
100
AcDbEntity
  8
0
100
AcDbVertex
100
AcDb2dVertex
 10
23.3485490372
 20
228.8222135377
 30
0.0
  0
VERTEX
  5
65
100
AcDbEntity
  8
0
100
AcDbVertex
100
AcDb2dVertex
 10
22.5255202556
 20
224.4633651125
 30
0.0
  0
VERTEX
  5
66
100
AcDbEntity
  8
0
100
AcDbVertex
100
AcDb2dVertex
 10
21.8071580409
 20
220.567473645
 30
0.0
  0
VERTEX
  5
67
100
AcDbEntity
  8
0
100
AcDbVertex
100
AcDb2dVertex
 10
21.1045560525
 20
216.6683604928
 30
0.0
  0
VERTEX
  5
68
100
AcDbEntity
  8
0
100
AcDbVertex
100
AcDb2dVertex
 10
19.8892236541
 20
209.6980249148
 30
0.0
  0
VERTEX
  5
69
100
AcDbEntity
  8
0
100
AcDbVertex
100
AcDb2dVertex
 10
18.7253578936
 20
202.7216631938
 30
0.0
  0
VERTEX
  5
6A
100
AcDbEntity
  8
0
100
AcDbVertex
100
AcDb2dVertex
 10
17.7299881937
 20
196.4887563268
 30
0.0
  0
VERTEX
  5
6B
100
AcDbEntity
  8
0
100
AcDbVertex
100
AcDb2dVertex
 10
16.7759356238
 20
190.2520641076
 30
0.0
  0
VERTEX
  5
6C
100
AcDbEntity
  8
0
100
AcDbVertex
100
AcDb2dVertex
 10
15.8632875968
 20
184.0109147226
 30
0.0
  0
VERTEX
  5
6D
100
AcDbEntity
  8
0
100
AcDbVertex
100
AcDb2dVertex
 10
14.9921993049
 20
177.7641154406
 30
0.0
  0
VERTEX
  5
6E
100
AcDbEntity
  8
0
100
AcDbVertex
100
AcDb2dVertex
 10
14.1461774202
 20
171.3839826594
 30
0.0
  0
VERTEX
  5
6F
100
AcDbEntity
  8
0
100
AcDbVertex
100
AcDb2dVertex
 10
13.3434508428
 20
164.9979768471
 30
0.0
  0
VERTEX
  5
70
100
AcDbEntity
  8
0
100
AcDbVertex
100
AcDb2dVertex
 10
12.5844170971
 20
158.6068126072
 30
0.0
  0
VERTEX
  5
71
100
AcDbEntity
  8
0
100
AcDbVertex
100
AcDb2dVertex
 10
11.8692357005
 20
152.2107766935
 30
0.0
  0
VERTEX
  5
72
100
AcDbEntity
  8
0
100
AcDbVertex
100
AcDb2dVertex
 10
11.197906653
 20
145.8098691059
 30
0.0
  0
VERTEX
  5
73
100
AcDbEntity
  8
0
100
AcDbVertex
100
AcDb2dVertex
 10
10.5705194691
 20
139.4043341553
 30
0.0
  0
VERTEX
  5
74
100
AcDbEntity
  8
0
100
AcDbVertex
100
AcDb2dVertex
 10
9.9873295585
 20
132.9948689285
 30
0.0
  0
VERTEX
  5
75
100
AcDbEntity
  8
0
100
AcDbVertex
100
AcDb2dVertex
 10
9.4483526632
 20
126.5815163897
 30
0.0
  0
VERTEX
  5
76
100
AcDbEntity
  8
0
100
AcDbVertex
100
AcDb2dVertex
 10
8.9535896948
 20
120.1642703342
 30
0.0
  0
VERTEX
  5
77
100
AcDbEntity
  8
0
100
AcDbVertex
100
AcDb2dVertex
 10
8.5030894575
 20
113.7427986426
 30
0.0
  0
VERTEX
  5
78
100
AcDbEntity
  8
0
100
AcDbVertex
100
AcDb2dVertex
 10
8.0968797175
 20
107.3169123601
 30
0.0
  0
VERTEX
  5
79
100
AcDbEntity
  8
0
100
AcDbVertex
100
AcDb2dVertex
 10
7.7349604748
 20
100.8866114869
 30
0.0
  0
VERTEX
  5
7A
100
AcDbEntity
  8
0
100
AcDbVertex
100
AcDb2dVertex
 10
7.4173482762
 20
94.4521446571
 30
0.0
  0
VERTEX
  5
7B
100
AcDbEntity
  8
0
100
AcDbVertex
100
AcDb2dVertex
 10
7.1441105933
 20
88.0145257031
 30
0.0
  0
VERTEX
  5
7C
100
AcDbEntity
  8
0
100
AcDbVertex
100
AcDb2dVertex
 10
6.9097593532
 20
81.4020703852
 30
0.0
  0
VERTEX
  5
7D
100
AcDbEntity
  8
0
100
AcDbVertex
100
AcDb2dVertex
 10
6.7221873458
 20
74.7864343753
 30
0.0
  0
VERTEX
  5
7E
100
AcDbEntity
  8
0
100
AcDbVertex
100
AcDb2dVertex
 10
6.5812706279
 20
68.1707588598
 30
0.0
  0
VERTEX
  5
7F
100
AcDbEntity
  8
0
100
AcDbVertex
100
AcDb2dVertex
 10
6.5137769414
 20
63.8055644392
 30
0.0
  0
VERTEX
  5
80
100
AcDbEntity
  8
0
100
AcDbVertex
100
AcDb2dVertex
 10
6.4665212625
 20
59.4409514935
 30
0.0
  0
VERTEX
  5
81
100
AcDbEntity
  8
0
100
AcDbVertex
100
AcDb2dVertex
 10
6.4416329321
 20
55.5993688244
 30
0.0
  0
VERTEX
  5
82
100
AcDbEntity
  8
0
100
AcDbVertex
100
AcDb2dVertex
 10
6.4392941493
 20
55.0354753174
 30
0.0
  0
VERTEX
  5
83
100
AcDbEntity
  8
0
100
AcDbVertex
100
AcDb2dVertex
 10
6.4372900123
 20
54.4708513507
 30
0.0
  0
VERTEX
  5
84
100
AcDbEntity
  8
0
100
AcDbVertex
100
AcDb2dVertex
 10
6.4356226831
 20
53.9065777032
 30
0.0
  0
VERTEX
  5
85
100
AcDbEntity
  8
0
100
AcDbVertex
100
AcDb2dVertex
 10
6.4349780939
 20
53.653099695
 30
0.0
  0
VERTEX
  5
86
100
AcDbEntity
  8
0
100
AcDbVertex
100
AcDb2dVertex
 10
6.43443778
 20
53.4145359106
 30
0.0
  0
VERTEX
  5
87
100
AcDbEntity
  8
0
100
AcDbVertex
100
AcDb2dVertex
 10
6.4339748169
 20
53.1773107046
 30
0.0
  0
VERTEX
  5
88
100
AcDbEntity
  8
0
100
AcDbVertex
100
AcDb2dVertex
 10
6.4335089073
 20
52.9009371923
 30
0.0
  0
VERTEX
  5
89
100
AcDbEntity
  8
0
100
AcDbVertex
100
AcDb2dVertex
 10
6.4330346985
 20
52.582716442
 30
0.0
  0
SEQEND
  5
8A
100
AcDbEntity
  8
0
  0
POLYLINE
  5
8B
100
AcDbEntity
  8
0
  6
CONTINUOUS
 62
         7
100
AcDb2dPolyline
 66
         1
 10
0.0
 20
0.0
 30
0.0
 70
       128
  0
VERTEX
  5
8C
100
AcDbEntity
  8
0
100
AcDbVertex
100
AcDb2dVertex
 10
42.470698543
 20
3.7965410737
 30
0.0
  0
VERTEX
  5
8D
100
AcDbEntity
  8
0
100
AcDbVertex
100
AcDb2dVertex
 10
42.4707588044
 20
4.979848602
 30
0.0
  0
VERTEX
  5
8E
100
AcDbEntity
  8
0
100
AcDbVertex
100
AcDb2dVertex
 10
42.4709032177
 20
6.2160514619
 30
0.0
  0
VERTEX
  5
8F
100
AcDbEntity
  8
0
100
AcDbVertex
100
AcDb2dVertex
 10
42.471131783
 20
7.5051496531
 30
0.0
  0
VERTEX
  5
90
100
AcDbEntity
  8
0
100
AcDbVertex
100
AcDb2dVertex
 10
42.4714445001
 20
8.8471431759
 30
0.0
  0
VERTEX
  5
91
100
AcDbEntity
  8
0
100
AcDbVertex
100
AcDb2dVertex
 10
42.4718413691
 20
10.2420320301
 30
0.0
  0
VERTEX
  5
92
100
AcDbEntity
  8
0
100
AcDbVertex
100
AcDb2dVertex
 10
42.4723223901
 20
11.6898162158
 30
0.0
  0
VERTEX
  5
93
100
AcDbEntity
  8
0
100
AcDbVertex
100
AcDb2dVertex
 10
42.4728530004
 20
13.1033176822
 30
0.0
  0
VERTEX
  5
94
100
AcDbEntity
  8
0
100
AcDbVertex
100
AcDb2dVertex
 10
42.4734584201
 20
14.5638420187
 30
0.0
  0
VERTEX
  5
95
100
AcDbEntity
  8
0
100
AcDbVertex
100
AcDb2dVertex
 10
42.474134238
 20
16.0678994747
 30
0.0
  0
VERTEX
  5
96
100
AcDbEntity
  8
0
100
AcDbVertex
100
AcDb2dVertex
 10
42.4748127758
 20
17.5619480223
 30
0.0
  0
VERTEX
  5
97
100
AcDbEntity
  8
0
100
AcDbVertex
100
AcDb2dVertex
 10
42.4754710458
 20
19.0278014448
 30
0.0
  0
VERTEX
  5
98
100
AcDbEntity
  8
0
100
AcDbVertex
100
AcDb2dVertex
 10
42.4762812628
 20
20.856595163
 30
0.0
  0
VERTEX
  5
99
100
AcDbEntity
  8
0
100
AcDbVertex
100
AcDb2dVertex
 10
42.4770574314
 20
22.6410942055
 30
0.0
  0
VERTEX
  5
9A
100
AcDbEntity
  8
0
100
AcDbVertex
100
AcDb2dVertex
 10
42.4777768672
 20
24.4145972193
 30
0.0
  0
VERTEX
  5
9B
100
AcDbEntity
  8
0
100
AcDbVertex
100
AcDb2dVertex
 10
42.4784304676
 20
26.1904661761
 30
0.0
  0
VERTEX
  5
9C
100
AcDbEntity
  8
0
100
AcDbVertex
100
AcDb2dVertex
 10
42.4790182325
 20
27.9687010759
 30
0.0
  0
VERTEX
  5
9D
100
AcDbEntity
  8
0
100
AcDbVertex
100
AcDb2dVertex
 10
42.4795199295
 20
29.744985069
 30
0.0
  0
VERTEX
  5
9E
100
AcDbEntity
  8
0
100
AcDbVertex
100
AcDb2dVertex
 10
42.4798778301
 20
31.5070009839
 30
0.0
  0
VERTEX
  5
9F
100
AcDbEntity
  8
0
100
AcDbVertex
100
AcDb2dVertex
 10
42.4801420529
 20
34.2300670352
 30
0.0
  0
VERTEX
  5
A0
100
AcDbEntity
  8
0
100
AcDbVertex
100
AcDb2dVertex
 10
42.4800465234
 20
36.9164455063
 30
0.0
  0
VERTEX
  5
A1
100
AcDbEntity
  8
0
100
AcDbVertex
100
AcDb2dVertex
 10
42.4795912418
 20
39.5661363971
 30
0.0
  0
VERTEX
  5
A2
100
AcDbEntity
  8
0
100
AcDbVertex
100
AcDb2dVertex
 10
42.4787501378
 20
42.1837252336
 30
0.0
  0
VERTEX
  5
A3
100
AcDbEntity
  8
0
100
AcDbVertex
100
AcDb2dVertex
 10
42.4773921368
 20
44.7922670205
 30
0.0
  0
VERTEX
  5
A4
100
AcDbEntity
  8
0
100
AcDbVertex
100
AcDb2dVertex
 10
42.4754991344
 20
47.3949461509
 30
0.0
  0
VERTEX
  5
A5
100
AcDbEntity
  8
0
100
AcDbVertex
100
AcDb2dVertex
 10
42.4730711307
 20
49.9917626247
 30
0.0
  0
VERTEX
  5
A6
100
AcDbEntity
  8
0
100
AcDbVertex
100
AcDb2dVertex
 10
42.4701081257
 20
52.582716442
 30
0.0
  0
SEQEND
  5
A7
100
AcDbEntity
  8
0
  0
LINE
  5
A8
100
AcDbEntity
  8
0
  6
CONTINUOUS
 62
         7
100
AcDbLine
 10
6.4324442812
 20
3.7965410737
 30
0.0
 11
42.470698543
 21
3.7965410737
 31
0.0
  0
POLYLINE
  5
A9
100
AcDbEntity
  8
0
  6
CONTINUOUS
 62
         7
100
AcDb2dPolyline
 66
         1
 10
0.0
 20
0.0
 30
0.0
 70
       128
  0
VERTEX
  5
AA
100
AcDbEntity
  8
0
100
AcDbVertex
100
AcDb2dVertex
 10
6.4330346985
 20
52.582716442
 30
0.0
  0
VERTEX
  5
AB
100
AcDbEntity
  8
0
100
AcDbVertex
100
AcDb2dVertex
 10
6.4302063188
 20
50.1206886203
 30
0.0
  0
VERTEX
  5
AC
100
AcDbEntity
  8
0
100
AcDbVertex
100
AcDb2dVertex
 10
6.4278610834
 20
47.6533561929
 30
0.0
  0
VERTEX
  5
AD
100
AcDbEntity
  8
0
100
AcDbVertex
100
AcDb2dVertex
 10
6.4259989923
 20
45.1807191597
 30
0.0
  0
VERTEX
  5
AE
100
AcDbEntity
  8
0
100
AcDbVertex
100
AcDb2dVertex
 10
6.4246200455
 20
42.7027775207
 30
0.0
  0
VERTEX
  5
AF
100
AcDbEntity
  8
0
100
AcDbVertex
100
AcDb2dVertex
 10
6.4237205223
 20
40.2188771638
 30
0.0
  0
VERTEX
  5
B0
100
AcDbEntity
  8
0
100
AcDbVertex
100
AcDb2dVertex
 10
6.4231944181
 20
37.7103811892
 30
0.0
  0
VERTEX
  5
B1
100
AcDbEntity
  8
0
100
AcDbVertex
100
AcDb2dVertex
 10
6.4229959454
 20
35.3148849239
 30
0.0
  0
VERTEX
  5
B2
100
AcDbEntity
  8
0
100
AcDbVertex
100
AcDb2dVertex
 10
6.4230862891
 20
32.8899381793
 30
0.0
  0
VERTEX
  5
B3
100
AcDbEntity
  8
0
100
AcDbVertex
100
AcDb2dVertex
 10
6.4234654492
 20
30.4355409556
 30
0.0
  0
VERTEX
  5
B4
100
AcDbEntity
  8
0
100
AcDbVertex
100
AcDb2dVertex
 10
6.4241296451
 20
27.9524999037
 30
0.0
  0
VERTEX
  5
B5
100
AcDbEntity
  8
0
100
AcDbVertex
100
AcDb2dVertex
 10
6.4249717893
 20
25.4636646858
 30
0.0
  0
VERTEX
  5
B6
100
AcDbEntity
  8
0
100
AcDbVertex
100
AcDb2dVertex
 10
6.4256380658
 20
23.7242424407
 30
0.0
  0
VERTEX
  5
B7
100
AcDbEntity
  8
0
100
AcDbVertex
100
AcDb2dVertex
 10
6.426367358
 20
21.9867848471
 30
0.0
  0
VERTEX
  5
B8
100
AcDbEntity
  8
0
100
AcDbVertex
100
AcDb2dVertex
 10
6.4271406589
 20
20.2233815721
 30
0.0
  0
VERTEX
  5
B9
100
AcDbEntity
  8
0
100
AcDbVertex
100
AcDb2dVertex
 10
6.4279456313
 20
18.4159160667
 30
0.0
  0
VERTEX
  5
BA
100
AcDbEntity
  8
0
100
AcDbVertex
100
AcDb2dVertex
 10
6.4286003282
 20
16.9648535949
 30
0.0
  0
VERTEX
  5
BB
100
AcDbEntity
  8
0
100
AcDbVertex
100
AcDb2dVertex
 10
6.4292742773
 20
15.4868267449
 30
0.0
  0
VERTEX
  5
BC
100
AcDbEntity
  8
0
100
AcDbVertex
100
AcDb2dVertex
 10
6.4299148036
 20
14.0235115355
 30
0.0
  0
VERTEX
  5
BD
100
AcDbEntity
  8
0
100
AcDbVertex
100
AcDb2dVertex
 10
6.4304831667
 20
12.6055588349
 30
0.0
  0
VERTEX
  5
BE
100
AcDbEntity
  8
0
100
AcDbVertex
100
AcDb2dVertex
 10
6.4309887419
 20
11.2054289275
 30
0.0
  0
VERTEX
  5
BF
100
AcDbEntity
  8
0
100
AcDbVertex
100
AcDb2dVertex
 10
6.4314191783
 20
9.8525319531
 30
0.0
  0
VERTEX
  5
C0
100
AcDbEntity
  8
0
100
AcDbVertex
100
AcDb2dVertex
 10
6.4317744762
 20
8.5468679115
 30
0.0
  0
VERTEX
  5
C1
100
AcDbEntity
  8
0
100
AcDbVertex
100
AcDb2dVertex
 10
6.4320546354
 20
7.2884368027
 30
0.0
  0
VERTEX
  5
C2
100
AcDbEntity
  8
0
100
AcDbVertex
100
AcDb2dVertex
 10
6.432259656
 20
6.0772386268
 30
0.0
  0
VERTEX
  5
C3
100
AcDbEntity
  8
0
100
AcDbVertex
100
AcDb2dVertex
 10
6.4323895379
 20
4.9132733838
 30
0.0
  0
VERTEX
  5
C4
100
AcDbEntity
  8
0
100
AcDbVertex
100
AcDb2dVertex
 10
6.4324442812
 20
3.7965410737
 30
0.0
  0
SEQEND
  5
C5
100
AcDbEntity
  8
0
  0
ENDSEC
  0
SECTION
  2
OBJECTS
  0
DICTIONARY
  5
19
100
AcDbDictionary
  3
ACAD_GROUP
350
1A
  3
ACAD_MLINESTYLE
350
1B
  0
DICTIONARY
  5
1A
102
{ACAD_REACTORS
330
19
102
}
100
AcDbDictionary
  0
DICTIONARY
  5
1B
102
{ACAD_REACTORS
330
19
102
}
100
AcDbDictionary
  3
STANDARD
350
1C
  0
MLINESTYLE
  5
1C
102
{ACAD_REACTORS
330
1B
102
}
100
AcDbMlineStyle
  2
STANDARD
 70
         0
  3

 62
         0
 51
90.0
 52
90.0
 71
         2
 49
0.5
 62
       256
  6
BYLAYER
 49
-0.5
 62
       256
  6
BYLAYER
  0
ENDSEC
  0
EOF
