  0
SECTION
  2
HEADER
  9
$ACADVER
  1
AC1012
  9
$DWGCODEPAGE
  3
ansi_1252
  9
$INSBASE
 10
0.0
 20
0.0
 30
0.0
  9
$EXTMIN
 10
0.0
 20
0.0
 30
0.0
  9
$EXTMAX
 10
48.0
 20
240.0
 30
0.0
  9
$LIMMIN
 10
0.0
 20
0.0
  9
$LIMMAX
 10
0.0
 20
0.0
  9
$ORTHOMODE
 70
         0
  9
$REGENMODE
 70
         1
  9
$FILLMODE
 70
         1
  9
$QTEXTMODE
 70
         0
  9
$MIRRTEXT
 70
         1
  9
$DRAGMODE
 70
         2
  9
$LTSCALE
 40
1.0
  9
$OSMODE
 70
         0
  9
$ATTMODE
 70
         1
  9
$TEXTSIZE
 40
0.1377952756
  9
$TRACEWID
 40
0.05
  9
$TEXTSTYLE
  7
STANDARD
  9
$CLAYER
  8
0
  9
$CELTYPE
  6
CONTINUOUS
  9
$CECOLOR
 62
       256
  9
$CELTSCALE
 40
1.0
  9
$DELOBJ
 70
         1
  9
$DISPSILH
 70
         0
  9
$DIMSCALE
 40
1.0
  9
$DIMASZ
 40
0.2362204724
  9
$DIMEXO
 40
0.0393700787
  9
$DIMDLI
 40
0.38
  9
$DIMRND
 40
0.0
  9
$DIMDLE
 40
0.0393700787
  9
$DIMEXE
 40
0.18
  9
$DIMTP
 40
0.0
  9
$DIMTM
 40
0.0
  9
$DIMTXT
 40
0.1377952756
  9
$DIMCEN
 40
0.09
  9
$DIMTSZ
 40
0.0
  9
$DIMTOL
 70
         0
  9
$DIMLIM
 70
         0
  9
$DIMTIH
 70
         1
  9
$DIMTOH
 70
         1
  9
$DIMSE1
 70
         0
  9
$DIMSE2
 70
         0
  9
$DIMTAD
 70
         1
  9
$DIMZIN
 70
         0
  9
$DIMBLK
  1

  9
$DIMASO
 70
         1
  9
$DIMSHO
 70
         1
  9
$DIMPOST
  1

  9
$DIMAPOST
  1

  9
$DIMALT
 70
         0
  9
$DIMALTD
 70
         2
  9
$DIMALTF
 40
25.4
  9
$DIMLFAC
 40
1.0
  9
$DIMTOFL
 70
         0
  9
$DIMTVP
 40
0.0
  9
$DIMTIX
 70
         0
  9
$DIMSOXD
 70
         0
  9
$DIMSAH
 70
         0
  9
$DIMBLK1
  1

  9
$DIMBLK2
  1

  9
$DIMSTYLE
  2
STANDARD
  9
$DIMCLRD
 70
         0
  9
$DIMCLRE
 70
         0
  9
$DIMCLRT
 70
         0
  9
$DIMTFAC
 40
1.0
  9
$DIMGAP
 40
0.0393700787
  9
$DIMJUST
 70
         0
  9
$DIMSD1
 70
         0
  9
$DIMSD2
 70
         0
  9
$DIMTOLJ
 70
         1
  9
$DIMTZIN
 70
         0
  9
$DIMALTZ
 70
         0
  9
$DIMALTTZ
 70
         0
  9
$DIMFIT
 70
         3
  9
$DIMUPT
 70
         0
  9
$DIMUNIT
 70
         2
  9
$DIMDEC
 70
         4
  9
$DIMTDEC
 70
         4
  9
$DIMALTU
 70
         2
  9
$DIMALTTD
 70
         2
  9
$DIMTXSTY
  7
STANDARD
  9
$DIMAUNIT
 70
         0
  9
$LUNITS
 70
         2
  9
$LUPREC
 70
         2
  9
$SKETCHINC
 40
0.1
  9
$FILLETRAD
 40
0.0
  9
$AUNITS
 70
         0
  9
$AUPREC
 70
         2
  9
$MENU
  1
acad
  9
$ELEVATION
 40
0.0
  9
$PELEVATION
 40
0.0
  9
$THICKNESS
 40
0.0
  9
$LIMCHECK
 70
         0
  9
$BLIPMODE
 70
         1
  9
$CHAMFERA
 40
0.0
  9
$CHAMFERB
 40
0.0
  9
$CHAMFERC
 40
0.0
  9
$CHAMFERD
 40
0.0
  9
$SKPOLY
 70
         0
  9
$TDCREATE
 40
0.000000000
  9
$TDUPDATE
 40
0.000000000
  9
$TDINDWG
 40
0.0000000000
  9
$TDUSRTIMER
 40
0.0000000000
  9
$USRTIMER
 70
         1
  9
$ANGBASE
 50
0.0
  9
$ANGDIR
 70
         0
  9
$PDMODE
 70
         0
  9
$PDSIZE
 40
-1.0
  9
$PLINEWID
 40
0.0
  9
$COORDS
 70
         0
  9
$SPLFRAME
 70
         0
  9
$SPLINETYPE
 70
         6
  9
$SPLINESEGS
 70
         8
  9
$ATTDIA
 70
         0
  9
$ATTREQ
 70
         1
  9
$HANDLING
 70
         1
  9
$HANDSEED
  5
A1
  9
$SURFTAB1
 70
         6
  9
$SURFTAB2
 70
         6
  9
$SURFTYPE
 70
         6
  9
$SURFU
 70
         6
  9
$SURFV
 70
         6
  9
$UCSNAME
  2

  9
$UCSORG
 10
0.0
 20
0.0
 30
0.0
  9
$UCSXDIR
 10
1.0
 20
0.0
 30
0.0
  9
$UCSYDIR
 10
0.0
 20
1.0
 30
0.0
  9
$PUCSNAME
  2

  9
$PUCSORG
 10
0.0
 20
0.0
 30
0.0
  9
$PUCSXDIR
 10
1.0
 20
0.0
 30
0.0
  9
$PUCSYDIR
 10
0.0
 20
1.0
 30
0.0
  9
$USERI1
 70
         0
  9
$USERI2
 70
         0
  9
$USERI3
 70
         0
  9
$USERI4
 70
         0
  9
$USERI5
 70
         0
  9
$USERR1
 40
0.0
  9
$USERR2
 40
0.0
  9
$USERR3
 40
0.0
  9
$USERR4
 40
0.0
  9
$USERR5
 40
0.0
  9
$WORLDVIEW
 70
         1
  9
$SHADEDGE
 70
         3
  9
$SHADEDIF
 70
        70
  9
$TILEMODE
 70
         1
  9
$MAXACTVP
 70
        16
  9
$PINSBASE
 10
0.0
 20
0.0
 30
0.0
  9
$PLIMCHECK
 70
         0
  9
$PEXTMIN
 10
1.0000000000E+20
 20
1.0000000000E+20
 30
1.0000000000E+20
  9
$PEXTMAX
 10
-1.0000000000E+20
 20
-1.0000000000E+20
 30
-1.0000000000E+20
  9
$PLIMMIN
 10
0.0
 20
0.0
  9
$PLIMMAX
 10
12.0
 20
9.0
  9
$UNITMODE
 70
         0
  9
$VISRETAIN
 70
         0
  9
$PLINEGEN
 70
         1
  9
$PSLTSCALE
 70
         1
  9
$TREEDEPTH
 70
      3020
  9
$PICKSTYLE
 70
         1
  9
$CMLSTYLE
  2
STANDARD
  9
$CMLJUST
 70
         0
  9
$CMLSCALE
 40
1.0
  9
$SAVEIMAGES
 70
         0
  0
ENDSEC
  0
SECTION
  2
CLASSES
  0
CLASS
  1
LWPOLYLINE
  2
AcDbPolyline
  3
"AutoCAD"
 90
        0
280
         0
281
         1
  0
CLASS
  1
IMAGE
  2
AcDbRasterImage
  3
ISM
 90
      127
280
         0
281
         1
  0
CLASS
  1
OLE2FRAME
  2
AcDbOle2Frame
  3
""
 90
        0
280
         0
281
         1
  0
CLASS
  1
HATCH
  2
AcDbHatch
  3
"ACAD_SEDONA"
 90
        0
280
         0
281
         1
  0
CLASS
  1
DICTIONARYVAR
  2
AcDbDictionaryVar
  3
"AutoCAD"
 90
        0
280
         0
281
         0
  0
CLASS
  1
RASTERVARIABLES
  2
AcDbRasterVariables
  3
ISM
 90
        0
280
         0
281
         0
  0
CLASS
  1
IMAGEDEF
  2
AcDbRasterImageDef
  3
ISM
 90
        0
280
         0
281
         0
  0
CLASS
  1
IMAGEDEF_REACTOR
  2
AcDbRasterImageDefReactor
  3
ISM
 90
        1
280
         0
281
         0
  0
CLASS
  1
IDBUFFER
  2
AcDbIdBuffer
  3
"Acad"
 90
        0
280
         0
281
         0
  0
CLASS
  1
SPATIAL_FILTER
  2
AcDbSpatialFilter
  3
"Acad"
 90
        0
280
         0
281
         0
  0
CLASS
  1
XRECORD
  2
AcDbXrecord
  3
"<Built In>"
 90
        0
280
         0
281
         0
  0
CLASS
  1
SORTENTSTABLE
  2
AcDbSortentsTable
  3
"AutoCAD"
 90
        0
280
         0
281
         0
  0
CLASS
  1
LAYER_INDEX
  2
AcDbLayerIndex
  3
"Acad"
 90
        0
280
         0
281
         0
  0
CLASS
  1
SPATIAL_INDEX
  2
AcDbSpatialIndex
  3
"Acad"
 90
        0
280
         0
281
         0
  0
CLASS
  1
OBJECT_PTR
  2
CAseDLPNTableRecord
  3
"ASE-LPNTableRecord"
 90
        1
280
         0
281
         0
  0
CLASS
  1
LAYOUT
  2
AcDbLayout
  3
"AutoCAD 2000"
 90
        1
280
         0
281
         0
  0
CLASS
  1
PLOTSETTINGS
  2
AcDbPlotSettings
  3
"AutoCAD 2000"
 90
        1
280
         0
281
         0
  0
CLASS
  1
ACDBDICTIONARYWDFLT
  2
AcDbDictionaryWithDefault
  3
"AutoCAD 2000"
 90
        1
280
         0
281
         0
  0
CLASS
  1
ACDBPLACEHOLDER
  2
AcDbPlaceHolder
  3
"AutoCAD 2000"
 90
        1
280
         0
281
         0
  0
CLASS
  1
VBA_PROJECT
  2
AcDbVbaProject
  3
"acadvba"
 90
        1
280
         0
281
         0
  0
CLASS
  1
WIPEOUT
  2
AcDbWipeout
  3
WipeOut|AutoCAD Express Tool|expresstools@autodesk.com
 90
      127
280
         0
281
         1
  0
CLASS
  1
WIPEOUTVARIABLES
  2
AcDbWipeoutVariables
  3
WipeOut|AutoCAD Express Tool|expresstools@autodesk.com
 90
        0
280
         0
281
         0
  0
CLASS
  1
RTEXT
  2
RText
  3
RText|AutoCAD Express Tool|expresstools@autodesk.com
 90
        0
280
         0
281
         1
  0
CLASS
  1
ARCALIGNEDTEXT
  2
AcDbArcAlignedText
  3
ATEXT|AutoCAD Express Tool|expresstools@autodesk.com
 90
        0
280
         0
281
         1
  0
ENDSEC
  0
SECTION
  2
TABLES
  0
TABLE
  2
VPORT
  5
7
100
AcDbSymbolTable
 70
         1
  0
VPORT
  5
15
100
AcDbSymbolTableRecord
100
AcDbViewportTableRecord
  2
*ACTIVE
 70
         0
 10
0.0
 20
0.0
 11
1.0
 21
1.0
 12
24.0
 22
120.0
 13
0.0
 23
0.0
 14
1.0
 24
1.0
 15
0.0
 25
0.0
 16
0.0
 26
0.0
 36
1.0
 17
0.0
 27
0.0
 37
0.0
 40
240.0
 41
5.0
 42
50.0
 43
0.0
 44
0.0
 50
0.0
 51
0.0
 71
         0
 72
      2000
 73
         1
 74
         1
 75
         0
 76
         0
 77
         0
 78
         0
  0
ENDTAB
  0
TABLE
  2
LTYPE
  5
4
100
AcDbSymbolTable
 70
         8
  0
LTYPE
  5
11
100
AcDbSymbolTableRecord
100
AcDbLinetypeTableRecord
  2
BYBLOCK
 70
        64
  3

 72
        65
 73
         0
 40
0.0
  0
LTYPE
  5
12
100
AcDbSymbolTableRecord
100
AcDbLinetypeTableRecord
  2
BYLAYER
 70
        64
  3

 72
        65
 73
         0
 40
0.0
  0
LTYPE
  5
13
100
AcDbSymbolTableRecord
100
AcDbLinetypeTableRecord
  2
CONTINUOUS
 70
        64
  3
Solid line
 72
        65
 73
         0
 40
0.0
  0
LTYPE
  5
1E
100
AcDbSymbolTableRecord
100
AcDbLinetypeTableRecord
  2
HIDDEN
 70
        64
  3
Hidden __ __ __ __ __ __ __ __ __ __ __ __ __ __
 72
        65
 73
         2
 40
0.075
 49
0.05
 74
         0
 49
-0.025
 74
         0
  0
LTYPE
  5
1F
100
AcDbSymbolTableRecord
100
AcDbLinetypeTableRecord
  2
PHANTOM
 70
        64
  3
Phantom ______  __  __  ______  __  __  ______
 72
        65
 73
         6
 40
0.5
 49
0.25
 74
         0
 49
-0.05
 74
         0
 49
0.05
 74
         0
 49
-0.05
 74
         0
 49
0.05
 74
         0
 49
-0.05
 74
         0
  0
LTYPE
  5
20
100
AcDbSymbolTableRecord
100
AcDbLinetypeTableRecord
  2
CENTER
 70
        64
  3
Center ____ _ ____ _ ____ _ ____ _ ____ _ ____
 72
        65
 73
         4
 40
0.4
 49
0.25
 74
         0
 49
-0.05
 74
         0
 49
0.05
 74
         0
 49
-0.05
 74
         0
  0
LTYPE
  5
21
100
AcDbSymbolTableRecord
100
AcDbLinetypeTableRecord
  2
CENTERX2
 70
        64
  3
Center (2x) ________  __  ________  __  _____
 72
        65
 73
         4
 40
0.8
 49
0.5
 74
         0
 49
-0.1
 74
         0
 49
0.1
 74
         0
 49
-0.1
 74
         0
  0
LTYPE
  5
22
100
AcDbSymbolTableRecord
100
AcDbLinetypeTableRecord
  2
DOT2
 70
        64
  3
Dot (.5x) ........................................
 72
        65
 73
         2
 40
0.025
 49
0.0
 74
         0
 49
-0.025
 74
         0
  0
ENDTAB
  0
TABLE
  2
LAYER
  5
2
100
AcDbSymbolTable
 70
         2
  0
LAYER
  5
14
100
AcDbSymbolTableRecord
100
AcDbLayerTableRecord
  2
0
 70
         0
 62
         7
  6
CONTINUOUS
  0
LAYER
  5
26
100
AcDbSymbolTableRecord
100
AcDbLayerTableRecord
  2
DEFPOINTS
 70
         0
 62
         7
  6
CONTINUOUS
  0
ENDTAB
  0
TABLE
  2
STYLE
  5
3
100
AcDbSymbolTable
 70
         1
  0
STYLE
  5
17
100
AcDbSymbolTableRecord
100
AcDbTextStyleTableRecord
  2
STANDARD
 70
         0
 40
0.0
 41
1.0
 50
0.0
 71
         0
 42
0.0
  3
txt
  4

  0
ENDTAB
  0
TABLE
  2
VIEW
  5
5
100
AcDbSymbolTable
 70
         0
  0
ENDTAB
  0
TABLE
  2
UCS
  5
6
100
AcDbSymbolTable
 70
         0
  0
ENDTAB
  0
TABLE
  2
APPID
  5
8
100
AcDbSymbolTable
 70
         1
  0
APPID
  5
16
100
AcDbSymbolTableRecord
100
AcDbRegAppTableRecord
  2
ACAD
 70
         0
  0
ENDTAB
  0
TABLE
  2
DIMSTYLE
  5
9
100
AcDbSymbolTable
 70
         1
  0
DIMSTYLE
105
18
100
AcDbSymbolTableRecord
100
AcDbDimStyleTableRecord
  2
STANDARD
 70
         0
  3

  4

  5

  6

  7

 40
1.0
 41
0.18
 42
0.0625
 43
0.38
 44
0.18
 45
0.0
 46
0.0
 47
0.0
 48
0.0
 71
         0
 72
         0
 73
         1
 74
         1
 75
         0
 76
         0
 77
         0
 78
         0
140
0.18
141
0.09
142
0.0
143
25.4
144
1.0
145
0.0
146
1.0
147
0.09
170
         0
171
         2
172
         0
173
         0
174
         0
175
         0
176
         0
177
         0
178
         0
270
         2
271
         4
272
         4
273
         2
274
         2
275
         0
280
         0
281
         0
282
         0
283
         1
284
         0
285
         0
286
         0
287
         0
288
         0
340
17
  0
ENDTAB
  0
TABLE
  2
BLOCK_RECORD
  5
1
100
AcDbSymbolTable
 70
         0
  0
BLOCK_RECORD
  5
A
100
AcDbSymbolTableRecord
100
AcDbBlockTableRecord
  2
*MODEL_SPACE
  0
BLOCK_RECORD
  5
B
100
AcDbSymbolTableRecord
100
AcDbBlockTableRecord
  2
*PAPER_SPACE
  0
ENDTAB
  0
ENDSEC
  0
SECTION
  2
BLOCKS
  0
BLOCK
  5
D
100
AcDbEntity
  8
0
100
AcDbBlockBegin
  2
*MODEL_SPACE
 70
         0
 10
0.0
 20
0.0
 30
0.0
  3
*MODEL_SPACE
  1

  0
ENDBLK
  5
E
100
AcDbEntity
  8
0
100
AcDbBlockEnd
  0
BLOCK
  5
F
100
AcDbEntity
 67
         1
  8
0
100
AcDbBlockBegin
  2
*PAPER_SPACE
 70
         0
 10
0.0
 20
0.0
 30
0.0
  3
*PAPER_SPACE
  1

  0
ENDBLK
  5
10
100
AcDbEntity
 67
         1
  8
0
100
AcDbBlockEnd
  0
ENDSEC
  0
SECTION
  2
ENTITIES
  0
LINE
  5
27
100
AcDbEntity
  8
0
  6
CONTINUOUS
 62
         7
100
AcDbLine
 10
6.8745342003
 20
27.1407589643
 30
0.0
 11
6.8745342003
 21
27.1324767548
 31
0.0
  0
LINE
  5
28
100
AcDbEntity
  8
0
  6
CONTINUOUS
 62
         7
100
AcDbLine
 10
42.9317514422
 20
27.1324628232
 30
0.0
 11
42.9317514422
 21
27.1407450326
 31
0.0
  0
POLYLINE
  5
29
100
AcDbEntity
  8
0
  6
CONTINUOUS
 62
         7
100
AcDb2dPolyline
 66
         1
 10
0.0
 20
0.0
 30
0.0
 70
       128
  0
VERTEX
  5
2A
100
AcDbEntity
  8
0
100
AcDbVertex
100
AcDb2dVertex
 10
6.8745527106
 20
27.1324767553
 30
0.0
  0
VERTEX
  5
2B
100
AcDbEntity
  8
0
100
AcDbVertex
100
AcDb2dVertex
 10
6.874588871
 20
25.7589566698
 30
0.0
  0
VERTEX
  5
2C
100
AcDbEntity
  8
0
100
AcDbVertex
100
AcDb2dVertex
 10
6.8747951902
 20
23.9426350775
 30
0.0
  0
VERTEX
  5
2D
100
AcDbEntity
  8
0
100
AcDbVertex
100
AcDb2dVertex
 10
6.875147522
 20
22.1407063563
 30
0.0
  0
VERTEX
  5
2E
100
AcDbEntity
  8
0
100
AcDbVertex
100
AcDb2dVertex
 10
6.8756446522
 20
20.3521459965
 30
0.0
  0
VERTEX
  5
2F
100
AcDbEntity
  8
0
100
AcDbVertex
100
AcDb2dVertex
 10
6.876251513
 20
18.5473606895
 30
0.0
  0
VERTEX
  5
30
100
AcDbEntity
  8
0
100
AcDbVertex
100
AcDb2dVertex
 10
6.8769519595
 20
16.7127259973
 30
0.0
  0
VERTEX
  5
31
100
AcDbEntity
  8
0
100
AcDbVertex
100
AcDb2dVertex
 10
6.8777461007
 20
14.8479105088
 30
0.0
  0
SEQEND
  5
32
100
AcDbEntity
  8
0
  0
POLYLINE
  5
33
100
AcDbEntity
  8
0
  6
CONTINUOUS
 62
         7
100
AcDb2dPolyline
 66
         1
 10
0.0
 20
0.0
 30
0.0
 70
       128
  0
VERTEX
  5
34
100
AcDbEntity
  8
0
100
AcDbVertex
100
AcDb2dVertex
 10
6.8846061073
 20
43.9800194724
 30
0.0
  0
VERTEX
  5
35
100
AcDbEntity
  8
0
100
AcDbVertex
100
AcDb2dVertex
 10
6.8808572625
 20
40.7219115148
 30
0.0
  0
VERTEX
  5
36
100
AcDbEntity
  8
0
100
AcDbVertex
100
AcDb2dVertex
 10
6.8780412248
 20
37.4357454737
 30
0.0
  0
VERTEX
  5
37
100
AcDbEntity
  8
0
100
AcDbVertex
100
AcDb2dVertex
 10
6.8760934717
 20
34.1454562716
 30
0.0
  0
VERTEX
  5
38
100
AcDbEntity
  8
0
100
AcDbVertex
100
AcDb2dVertex
 10
6.8749684981
 20
30.862505734
 30
0.0
  0
VERTEX
  5
39
100
AcDbEntity
  8
0
100
AcDbVertex
100
AcDb2dVertex
 10
6.8745405971
 20
27.5915469769
 30
0.0
  0
VERTEX
  5
3A
100
AcDbEntity
  8
0
100
AcDbVertex
100
AcDb2dVertex
 10
6.8745892342
 20
25.7622779968
 30
0.0
  0
VERTEX
  5
3B
100
AcDbEntity
  8
0
100
AcDbVertex
100
AcDb2dVertex
 10
6.8747960275
 20
23.9454988787
 30
0.0
  0
VERTEX
  5
3C
100
AcDbEntity
  8
0
100
AcDbVertex
100
AcDb2dVertex
 10
6.8751489135
 20
22.1431205358
 30
0.0
  0
VERTEX
  5
3D
100
AcDbEntity
  8
0
100
AcDbVertex
100
AcDb2dVertex
 10
6.8756466378
 20
20.3540844358
 30
0.0
  0
VERTEX
  5
3E
100
AcDbEntity
  8
0
100
AcDbVertex
100
AcDb2dVertex
 10
6.8762540098
 20
18.5486937077
 30
0.0
  0
VERTEX
  5
3F
100
AcDbEntity
  8
0
100
AcDbVertex
100
AcDb2dVertex
 10
6.876955019
 20
16.713437202
 30
0.0
  0
VERTEX
  5
40
100
AcDbEntity
  8
0
100
AcDbVertex
100
AcDb2dVertex
 10
6.8777497981
 20
14.8479105088
 30
0.0
  0
SEQEND
  5
41
100
AcDbEntity
  8
0
  0
LINE
  5
42
100
AcDbEntity
  8
0
  6
CONTINUOUS
 62
         7
100
AcDbLine
 10
6.8777497981
 20
14.8479105088
 30
0.0
 11
6.8777461007
 21
14.8479105088
 31
0.0
  0
POLYLINE
  5
43
100
AcDbEntity
  8
0
  6
CONTINUOUS
 62
         7
100
AcDb2dPolyline
 66
         1
 10
0.0
 20
0.0
 30
0.0
 70
       128
  0
VERTEX
  5
44
100
AcDbEntity
  8
0
100
AcDbVertex
100
AcDb2dVertex
 10
42.9317329336
 20
27.1324628236
 30
0.0
  0
VERTEX
  5
45
100
AcDbEntity
  8
0
100
AcDbVertex
100
AcDb2dVertex
 10
42.9316967658
 20
25.7588834809
 30
0.0
  0
VERTEX
  5
46
100
AcDbEntity
  8
0
100
AcDbVertex
100
AcDb2dVertex
 10
42.9314904408
 20
23.9425697643
 30
0.0
  0
VERTEX
  5
47
100
AcDbEntity
  8
0
100
AcDbVertex
100
AcDb2dVertex
 10
42.9311381064
 20
22.1406500277
 30
0.0
  0
VERTEX
  5
48
100
AcDbEntity
  8
0
100
AcDbVertex
100
AcDb2dVertex
 10
42.9306409763
 20
20.3521001848
 30
0.0
  0
VERTEX
  5
49
100
AcDbEntity
  8
0
100
AcDbVertex
100
AcDb2dVertex
 10
42.9300341169
 20
18.5473283122
 30
0.0
  0
VERTEX
  5
4A
100
AcDbEntity
  8
0
100
AcDbVertex
100
AcDb2dVertex
 10
42.9293336749
 20
16.7127085984
 30
0.0
  0
VERTEX
  5
4B
100
AcDbEntity
  8
0
100
AcDbVertex
100
AcDb2dVertex
 10
42.9285395417
 20
14.8479105088
 30
0.0
  0
SEQEND
  5
4C
100
AcDbEntity
  8
0
  0
POLYLINE
  5
4D
100
AcDbEntity
  8
0
  6
CONTINUOUS
 62
         7
100
AcDb2dPolyline
 66
         1
 10
0.0
 20
0.0
 30
0.0
 70
       128
  0
VERTEX
  5
4E
100
AcDbEntity
  8
0
100
AcDbVertex
100
AcDb2dVertex
 10
42.9216795345
 20
43.9800194724
 30
0.0
  0
VERTEX
  5
4F
100
AcDbEntity
  8
0
100
AcDbVertex
100
AcDb2dVertex
 10
42.9254283979
 20
40.721906311
 30
0.0
  0
VERTEX
  5
50
100
AcDbEntity
  8
0
100
AcDbVertex
100
AcDb2dVertex
 10
42.9282444561
 20
37.4356872069
 30
0.0
  0
VERTEX
  5
51
100
AcDbEntity
  8
0
100
AcDbVertex
100
AcDb2dVertex
 10
42.9301922121
 20
34.1453607608
 30
0.0
  0
VERTEX
  5
52
100
AcDbEntity
  8
0
100
AcDbVertex
100
AcDb2dVertex
 10
42.931317165
 20
30.8624136924
 30
0.0
  0
VERTEX
  5
53
100
AcDbEntity
  8
0
100
AcDbVertex
100
AcDb2dVertex
 10
42.9317450473
 20
27.5914666169
 30
0.0
  0
VERTEX
  5
54
100
AcDbEntity
  8
0
100
AcDbVertex
100
AcDb2dVertex
 10
42.9316964025
 20
25.7622047267
 30
0.0
  0
VERTEX
  5
55
100
AcDbEntity
  8
0
100
AcDbVertex
100
AcDb2dVertex
 10
42.9314896035
 20
23.9454334804
 30
0.0
  0
VERTEX
  5
56
100
AcDbEntity
  8
0
100
AcDbVertex
100
AcDb2dVertex
 10
42.9311367149
 20
22.1430641189
 30
0.0
  0
VERTEX
  5
57
100
AcDbEntity
  8
0
100
AcDbVertex
100
AcDb2dVertex
 10
42.9306389907
 20
20.3540385399
 30
0.0
  0
VERTEX
  5
58
100
AcDbEntity
  8
0
100
AcDbVertex
100
AcDb2dVertex
 10
42.9300316201
 20
18.5486612433
 30
0.0
  0
VERTEX
  5
59
100
AcDbEntity
  8
0
100
AcDbVertex
100
AcDb2dVertex
 10
42.9293306155
 20
16.7134197134
 30
0.0
  0
VERTEX
  5
5A
100
AcDbEntity
  8
0
100
AcDbVertex
100
AcDb2dVertex
 10
42.9285358442
 20
14.8479105092
 30
0.0
  0
SEQEND
  5
5B
100
AcDbEntity
  8
0
  0
LINE
  5
5C
100
AcDbEntity
  8
0
  6
CONTINUOUS
 62
         7
100
AcDbLine
 10
42.9285358442
 20
14.8479105092
 30
0.0
 11
42.9285395417
 21
14.8479105088
 31
0.0
  0
LINE
  5
5D
100
AcDbEntity
  8
0
  6
CONTINUOUS
 62
         7
100
AcDbLine
 10
6.8777497981
 20
14.8479105088
 30
0.0
 11
42.9285358442
 21
14.8479105092
 31
0.0
  0
POLYLINE
  5
5E
100
AcDbEntity
  8
0
  6
CONTINUOUS
 62
         7
100
AcDb2dPolyline
 66
         1
 10
0.0
 20
0.0
 30
0.0
 70
       128
  0
VERTEX
  5
5F
100
AcDbEntity
  8
0
100
AcDbVertex
100
AcDb2dVertex
 10
24.8755930078
 20
219.5656601735
 30
0.0
  0
VERTEX
  5
60
100
AcDbEntity
  8
0
100
AcDbVertex
100
AcDb2dVertex
 10
23.6458924037
 20
213.4332025196
 30
0.0
  0
VERTEX
  5
61
100
AcDbEntity
  8
0
100
AcDbVertex
100
AcDb2dVertex
 10
22.4601388035
 20
207.3045782382
 30
0.0
  0
VERTEX
  5
62
100
AcDbEntity
  8
0
100
AcDbVertex
100
AcDb2dVertex
 10
21.318332207
 20
201.1797873293
 30
0.0
  0
VERTEX
  5
63
100
AcDbEntity
  8
0
100
AcDbVertex
100
AcDb2dVertex
 10
20.2204339511
 20
195.0585942953
 30
0.0
  0
VERTEX
  5
64
100
AcDbEntity
  8
0
100
AcDbVertex
100
AcDb2dVertex
 10
19.1661473452
 20
188.9391919947
 30
0.0
  0
VERTEX
  5
65
100
AcDbEntity
  8
0
100
AcDbVertex
100
AcDb2dVertex
 10
18.1730773008
 20
182.9304397739
 30
0.0
  0
VERTEX
  5
66
100
AcDbEntity
  8
0
100
AcDbVertex
100
AcDb2dVertex
 10
17.2220153793
 20
176.9230502042
 30
0.0
  0
VERTEX
  5
67
100
AcDbEntity
  8
0
100
AcDbVertex
100
AcDb2dVertex
 10
16.3128412919
 20
170.9158629849
 30
0.0
  0
VERTEX
  5
68
100
AcDbEntity
  8
0
100
AcDbVertex
100
AcDb2dVertex
 10
15.4453414793
 20
164.9068181293
 30
0.0
  0
VERTEX
  5
69
100
AcDbEntity
  8
0
100
AcDbVertex
100
AcDb2dVertex
 10
14.6030920291
 20
158.7731837626
 30
0.0
  0
VERTEX
  5
6A
100
AcDbEntity
  8
0
100
AcDbVertex
100
AcDb2dVertex
 10
13.8042272139
 20
152.6374613853
 30
0.0
  0
VERTEX
  5
6B
100
AcDbEntity
  8
0
100
AcDbVertex
100
AcDb2dVertex
 10
13.0486691355
 20
146.4972791041
 30
0.0
  0
VERTEX
  5
6C
100
AcDbEntity
  8
0
100
AcDbVertex
100
AcDb2dVertex
 10
12.3363865353
 20
140.3516851333
 30
0.0
  0
VERTEX
  5
6D
100
AcDbEntity
  8
0
100
AcDbVertex
100
AcDb2dVertex
 10
11.6673794131
 20
134.2006794731
 30
0.0
  0
VERTEX
  5
6E
100
AcDbEntity
  8
0
100
AcDbVertex
100
AcDb2dVertex
 10
11.0416786644
 20
128.0433856201
 30
0.0
  0
VERTEX
  5
6F
100
AcDbEntity
  8
0
100
AcDbVertex
100
AcDb2dVertex
 10
10.4593724421
 20
121.8773026673
 30
0.0
  0
VERTEX
  5
70
100
AcDbEntity
  8
0
100
AcDbVertex
100
AcDb2dVertex
 10
9.9204661794
 20
115.7022764741
 30
0.0
  0
VERTEX
  5
71
100
AcDbEntity
  8
0
100
AcDbVertex
100
AcDb2dVertex
 10
9.4249645364
 20
109.5182704687
 30
0.0
  0
VERTEX
  5
72
100
AcDbEntity
  8
0
100
AcDbVertex
100
AcDb2dVertex
 10
8.9731169531
 20
103.3233270223
 30
0.0
  0
VERTEX
  5
73
100
AcDbEntity
  8
0
100
AcDbVertex
100
AcDb2dVertex
 10
8.5650653448
 20
97.1163323706
 30
0.0
  0
VERTEX
  5
74
100
AcDbEntity
  8
0
100
AcDbVertex
100
AcDb2dVertex
 10
8.2008097114
 20
90.8972865136
 30
0.0
  0
VERTEX
  5
75
100
AcDbEntity
  8
0
100
AcDbVertex
100
AcDb2dVertex
 10
7.8804874713
 20
84.6668445543
 30
0.0
  0
VERTEX
  5
76
100
AcDbEntity
  8
0
100
AcDbVertex
100
AcDb2dVertex
 10
7.604658962
 20
78.4276777452
 30
0.0
  0
VERTEX
  5
77
100
AcDbEntity
  8
0
100
AcDbVertex
100
AcDb2dVertex
 10
7.3909553135
 20
72.7010279355
 30
0.0
  0
VERTEX
  5
78
100
AcDbEntity
  8
0
100
AcDbVertex
100
AcDb2dVertex
 10
7.2146891142
 20
66.9672868868
 30
0.0
  0
VERTEX
  5
79
100
AcDbEntity
  8
0
100
AcDbVertex
100
AcDb2dVertex
 10
7.0758912729
 20
61.2274017196
 30
0.0
  0
VERTEX
  5
7A
100
AcDbEntity
  8
0
100
AcDbVertex
100
AcDb2dVertex
 10
6.9746111699
 20
55.4828855799
 30
0.0
  0
VERTEX
  5
7B
100
AcDbEntity
  8
0
100
AcDbVertex
100
AcDb2dVertex
 10
6.9108494481
 20
49.7337581642
 30
0.0
  0
VERTEX
  5
7C
100
AcDbEntity
  8
0
100
AcDbVertex
100
AcDb2dVertex
 10
6.8846061073
 20
43.9800194724
 30
0.0
  0
SEQEND
  5
7D
100
AcDbEntity
  8
0
  0
LINE
  5
7E
100
AcDbEntity
  8
0
  6
CONTINUOUS
 62
         7
100
AcDbLine
 10
24.930692634
 20
219.5656601735
 30
0.0
 11
24.8755930078
 21
219.5656601735
 31
0.0
  0
POLYLINE
  5
7F
100
AcDbEntity
  8
0
  6
CONTINUOUS
 62
         7
100
AcDb2dPolyline
 66
         1
 10
0.0
 20
0.0
 30
0.0
 70
       128
  0
VERTEX
  5
80
100
AcDbEntity
  8
0
100
AcDbVertex
100
AcDb2dVertex
 10
24.930692634
 20
219.5656601735
 30
0.0
  0
VERTEX
  5
81
100
AcDbEntity
  8
0
100
AcDbVertex
100
AcDb2dVertex
 10
26.160395434
 20
213.4331935687
 30
0.0
  0
VERTEX
  5
82
100
AcDbEntity
  8
0
100
AcDbVertex
100
AcDb2dVertex
 10
27.3461520012
 20
207.3045534318
 30
0.0
  0
VERTEX
  5
83
100
AcDbEntity
  8
0
100
AcDbVertex
100
AcDb2dVertex
 10
28.4879623359
 20
201.1797397629
 30
0.0
  0
VERTEX
  5
84
100
AcDbEntity
  8
0
100
AcDbVertex
100
AcDb2dVertex
 10
29.58586489
 20
195.0585184859
 30
0.0
  0
VERTEX
  5
85
100
AcDbEntity
  8
0
100
AcDbVertex
100
AcDb2dVertex
 10
30.6401547346
 20
188.9390933671
 30
0.0
  0
VERTEX
  5
86
100
AcDbEntity
  8
0
100
AcDbVertex
100
AcDb2dVertex
 10
31.6332265989
 20
182.9303262376
 30
0.0
  0
VERTEX
  5
87
100
AcDbEntity
  8
0
100
AcDbVertex
100
AcDb2dVertex
 10
32.5842889914
 20
176.9229291933
 30
0.0
  0
VERTEX
  5
88
100
AcDbEntity
  8
0
100
AcDbVertex
100
AcDb2dVertex
 10
33.493462695
 20
170.9157390254
 30
0.0
  0
VERTEX
  5
89
100
AcDbEntity
  8
0
100
AcDbVertex
100
AcDb2dVertex
 10
34.3609621462
 20
164.9066905841
 30
0.0
  0
VERTEX
  5
8A
100
AcDbEntity
  8
0
100
AcDbVertex
100
AcDb2dVertex
 10
35.2032112677
 20
158.7730517985
 30
0.0
  0
VERTEX
  5
8B
100
AcDbEntity
  8
0
100
AcDbVertex
100
AcDb2dVertex
 10
36.0020757939
 20
152.6373242337
 30
0.0
  0
VERTEX
  5
8C
100
AcDbEntity
  8
0
100
AcDbVertex
100
AcDb2dVertex
 10
36.7576335981
 20
146.4971359717
 30
0.0
  0
VERTEX
  5
8D
100
AcDbEntity
  8
0
100
AcDbVertex
100
AcDb2dVertex
 10
37.4699159292
 20
140.3515352167
 30
0.0
  0
VERTEX
  5
8E
100
AcDbEntity
  8
0
100
AcDbVertex
100
AcDb2dVertex
 10
38.1389227871
 20
134.2005219689
 30
0.0
  0
VERTEX
  5
8F
100
AcDbEntity
  8
0
100
AcDbVertex
100
AcDb2dVertex
 10
38.7646232419
 20
128.0432199107
 30
0.0
  0
VERTEX
  5
90
100
AcDbEntity
  8
0
100
AcDbVertex
100
AcDb2dVertex
 10
39.3469290415
 20
121.8771286645
 30
0.0
  0
VERTEX
  5
91
100
AcDbEntity
  8
0
100
AcDbVertex
100
AcDb2dVertex
 10
39.8858347467
 20
115.7020941225
 30
0.0
  0
VERTEX
  5
92
100
AcDbEntity
  8
0
100
AcDbVertex
100
AcDb2dVertex
 10
40.3813356973
 20
109.518079722
 30
0.0
  0
VERTEX
  5
93
100
AcDbEntity
  8
0
100
AcDbVertex
100
AcDb2dVertex
 10
40.8331824493
 20
103.3231283339
 30
0.0
  0
VERTEX
  5
94
100
AcDbEntity
  8
0
100
AcDbVertex
100
AcDb2dVertex
 10
41.2412330852
 20
97.1161264781
 30
0.0
  0
VERTEX
  5
95
100
AcDbEntity
  8
0
100
AcDbVertex
100
AcDb2dVertex
 10
41.6054876049
 20
90.8970741545
 30
0.0
  0
VERTEX
  5
96
100
AcDbEntity
  8
0
100
AcDbVertex
100
AcDb2dVertex
 10
41.9258086006
 20
84.6666263428
 30
0.0
  0
VERTEX
  5
97
100
AcDbEntity
  8
0
100
AcDbVertex
100
AcDb2dVertex
 10
42.2016357772
 20
78.4274537923
 30
0.0
  0
VERTEX
  5
98
100
AcDbEntity
  8
0
100
AcDbVertex
100
AcDb2dVertex
 10
42.4153381308
 20
72.7007987699
 30
0.0
  0
VERTEX
  5
99
100
AcDbEntity
  8
0
100
AcDbVertex
100
AcDb2dVertex
 10
42.5916029647
 20
66.9670525564
 30
0.0
  0
VERTEX
  5
9A
100
AcDbEntity
  8
0
100
AcDbVertex
100
AcDb2dVertex
 10
42.7303993566
 20
61.2271752258
 30
0.0
  0
VERTEX
  5
9B
100
AcDbEntity
  8
0
100
AcDbVertex
100
AcDb2dVertex
 10
42.8316779037
 20
55.4827006187
 30
0.0
  0
VERTEX
  5
9C
100
AcDbEntity
  8
0
100
AcDbVertex
100
AcDb2dVertex
 10
42.895437963
 20
49.7336487009
 30
0.0
  0
VERTEX
  5
9D
100
AcDbEntity
  8
0
100
AcDbVertex
100
AcDb2dVertex
 10
42.9216795345
 20
43.9800194724
 30
0.0
  0
SEQEND
  5
9E
100
AcDbEntity
  8
0
  0
ENDSEC
  0
SECTION
  2
OBJECTS
  0
DICTIONARY
  5
19
100
AcDbDictionary
  3
ACAD_GROUP
350
1A
  3
ACAD_MLINESTYLE
350
1B
  0
DICTIONARY
  5
1A
102
{ACAD_REACTORS
330
19
102
}
100
AcDbDictionary
  0
DICTIONARY
  5
1B
102
{ACAD_REACTORS
330
19
102
}
100
AcDbDictionary
  3
STANDARD
350
1C
  0
MLINESTYLE
  5
1C
102
{ACAD_REACTORS
330
1B
102
}
100
AcDbMlineStyle
  2
STANDARD
 70
         0
  3

 62
         0
 51
90.0
 52
90.0
 71
         2
 49
0.5
 62
       256
  6
BYLAYER
 49
-0.5
 62
       256
  6
BYLAYER
  0
ENDSEC
  0
EOF
