  0
SECTION
  2
HEADER
  9
$ACADVER
  1
AC1012
  9
$DWGCODEPAGE
  3
ansi_1252
  9
$INSBASE
 10
0.0
 20
0.0
 30
0.0
  9
$EXTMIN
 10
0.0
 20
0.0
 30
0.0
  9
$EXTMAX
 10
48.0
 20
240.0
 30
0.0
  9
$LIMMIN
 10
0.0
 20
0.0
  9
$LIMMAX
 10
0.0
 20
0.0
  9
$ORTHOMODE
 70
         0
  9
$REGENMODE
 70
         1
  9
$FILLMODE
 70
         1
  9
$QTEXTMODE
 70
         0
  9
$MIRRTEXT
 70
         1
  9
$DRAGMODE
 70
         2
  9
$LTSCALE
 40
1.0
  9
$OSMODE
 70
         0
  9
$ATTMODE
 70
         1
  9
$TEXTSIZE
 40
3.0
  9
$TRACEWID
 40
0.05
  9
$TEXTSTYLE
  7
STANDARD
  9
$CLAYER
  8
0
  9
$CELTYPE
  6
CONTINUOUS
  9
$CECOLOR
 62
       256
  9
$CELTSCALE
 40
1.0
  9
$DELOBJ
 70
         1
  9
$DISPSILH
 70
         0
  9
$DIMSCALE
 40
1.0
  9
$DIMASZ
 40
2.0
  9
$DIMEXO
 40
0.0393700787
  9
$DIMDLI
 40
0.38
  9
$DIMRND
 40
0.0
  9
$DIMDLE
 40
0.0393700787
  9
$DIMEXE
 40
0.18
  9
$DIMTP
 40
0.0
  9
$DIMTM
 40
0.0
  9
$DIMTXT
 40
6.0
  9
$DIMCEN
 40
0.09
  9
$DIMTSZ
 40
0.0
  9
$DIMTOL
 70
         0
  9
$DIMLIM
 70
         0
  9
$DIMTIH
 70
         1
  9
$DIMTOH
 70
         1
  9
$DIMSE1
 70
         0
  9
$DIMSE2
 70
         0
  9
$DIMTAD
 70
         1
  9
$DIMZIN
 70
         0
  9
$DIMBLK
  1

  9
$DIMASO
 70
         1
  9
$DIMSHO
 70
         1
  9
$DIMPOST
  1

  9
$DIMAPOST
  1

  9
$DIMALT
 70
         0
  9
$DIMALTD
 70
         2
  9
$DIMALTF
 40
304.8
  9
$DIMLFAC
 40
1.0
  9
$DIMTOFL
 70
         0
  9
$DIMTVP
 40
0.0
  9
$DIMTIX
 70
         0
  9
$DIMSOXD
 70
         0
  9
$DIMSAH
 70
         0
  9
$DIMBLK1
  1

  9
$DIMBLK2
  1

  9
$DIMSTYLE
  2
STANDARD
  9
$DIMCLRD
 70
         0
  9
$DIMCLRE
 70
         0
  9
$DIMCLRT
 70
         0
  9
$DIMTFAC
 40
1.0
  9
$DIMGAP
 40
0.0393700787
  9
$DIMJUST
 70
         0
  9
$DIMSD1
 70
         0
  9
$DIMSD2
 70
         0
  9
$DIMTOLJ
 70
         1
  9
$DIMTZIN
 70
         0
  9
$DIMALTZ
 70
         0
  9
$DIMALTTZ
 70
         0
  9
$DIMFIT
 70
         3
  9
$DIMUPT
 70
         0
  9
$DIMUNIT
 70
         3
  9
$DIMDEC
 70
         4
  9
$DIMTDEC
 70
         4
  9
$DIMALTU
 70
         2
  9
$DIMALTTD
 70
         2
  9
$DIMTXSTY
  7
STANDARD
  9
$DIMAUNIT
 70
         0
  9
$LUNITS
 70
         2
  9
$LUPREC
 70
         2
  9
$SKETCHINC
 40
0.1
  9
$FILLETRAD
 40
0.0
  9
$AUNITS
 70
         0
  9
$AUPREC
 70
         2
  9
$MENU
  1
acad
  9
$ELEVATION
 40
0.0
  9
$PELEVATION
 40
0.0
  9
$THICKNESS
 40
0.0
  9
$LIMCHECK
 70
         0
  9
$BLIPMODE
 70
         1
  9
$CHAMFERA
 40
0.0
  9
$CHAMFERB
 40
0.0
  9
$CHAMFERC
 40
0.0
  9
$CHAMFERD
 40
0.0
  9
$SKPOLY
 70
         0
  9
$TDCREATE
 40
0.000000000
  9
$TDUPDATE
 40
0.000000000
  9
$TDINDWG
 40
0.0000000000
  9
$TDUSRTIMER
 40
0.0000000000
  9
$USRTIMER
 70
         1
  9
$ANGBASE
 50
0.0
  9
$ANGDIR
 70
         0
  9
$PDMODE
 70
         0
  9
$PDSIZE
 40
-1.0
  9
$PLINEWID
 40
0.0
  9
$COORDS
 70
         0
  9
$SPLFRAME
 70
         0
  9
$SPLINETYPE
 70
         6
  9
$SPLINESEGS
 70
         8
  9
$ATTDIA
 70
         0
  9
$ATTREQ
 70
         1
  9
$HANDLING
 70
         1
  9
$HANDSEED
  5
198
  9
$SURFTAB1
 70
         6
  9
$SURFTAB2
 70
         6
  9
$SURFTYPE
 70
         6
  9
$SURFU
 70
         6
  9
$SURFV
 70
         6
  9
$UCSNAME
  2

  9
$UCSORG
 10
0.0
 20
0.0
 30
0.0
  9
$UCSXDIR
 10
1.0
 20
0.0
 30
0.0
  9
$UCSYDIR
 10
0.0
 20
1.0
 30
0.0
  9
$PUCSNAME
  2

  9
$PUCSORG
 10
0.0
 20
0.0
 30
0.0
  9
$PUCSXDIR
 10
1.0
 20
0.0
 30
0.0
  9
$PUCSYDIR
 10
0.0
 20
1.0
 30
0.0
  9
$USERI1
 70
         0
  9
$USERI2
 70
         0
  9
$USERI3
 70
         0
  9
$USERI4
 70
         0
  9
$USERI5
 70
         0
  9
$USERR1
 40
0.0
  9
$USERR2
 40
0.0
  9
$USERR3
 40
0.0
  9
$USERR4
 40
0.0
  9
$USERR5
 40
0.0
  9
$WORLDVIEW
 70
         1
  9
$SHADEDGE
 70
         3
  9
$SHADEDIF
 70
        70
  9
$TILEMODE
 70
         1
  9
$MAXACTVP
 70
        16
  9
$PINSBASE
 10
0.0
 20
0.0
 30
0.0
  9
$PLIMCHECK
 70
         0
  9
$PEXTMIN
 10
1.0000000000E+20
 20
1.0000000000E+20
 30
1.0000000000E+20
  9
$PEXTMAX
 10
-1.0000000000E+20
 20
-1.0000000000E+20
 30
-1.0000000000E+20
  9
$PLIMMIN
 10
0.0
 20
0.0
  9
$PLIMMAX
 10
12.0
 20
9.0
  9
$UNITMODE
 70
         0
  9
$VISRETAIN
 70
         0
  9
$PLINEGEN
 70
         1
  9
$PSLTSCALE
 70
         1
  9
$TREEDEPTH
 70
      3020
  9
$PICKSTYLE
 70
         1
  9
$CMLSTYLE
  2
STANDARD
  9
$CMLJUST
 70
         0
  9
$CMLSCALE
 40
1.0
  9
$SAVEIMAGES
 70
         0
  0
ENDSEC
  0
SECTION
  2
CLASSES
  0
CLASS
  1
LWPOLYLINE
  2
AcDbPolyline
  3
"AutoCAD"
 90
        0
280
         0
281
         1
  0
CLASS
  1
IMAGE
  2
AcDbRasterImage
  3
ISM
 90
      127
280
         0
281
         1
  0
CLASS
  1
OLE2FRAME
  2
AcDbOle2Frame
  3
""
 90
        0
280
         0
281
         1
  0
CLASS
  1
HATCH
  2
AcDbHatch
  3
"ACAD_SEDONA"
 90
        0
280
         0
281
         1
  0
CLASS
  1
DICTIONARYVAR
  2
AcDbDictionaryVar
  3
"AutoCAD"
 90
        0
280
         0
281
         0
  0
CLASS
  1
RASTERVARIABLES
  2
AcDbRasterVariables
  3
ISM
 90
        0
280
         0
281
         0
  0
CLASS
  1
IMAGEDEF
  2
AcDbRasterImageDef
  3
ISM
 90
        0
280
         0
281
         0
  0
CLASS
  1
IMAGEDEF_REACTOR
  2
AcDbRasterImageDefReactor
  3
ISM
 90
        1
280
         0
281
         0
  0
CLASS
  1
IDBUFFER
  2
AcDbIdBuffer
  3
"Acad"
 90
        0
280
         0
281
         0
  0
CLASS
  1
SPATIAL_FILTER
  2
AcDbSpatialFilter
  3
"Acad"
 90
        0
280
         0
281
         0
  0
CLASS
  1
XRECORD
  2
AcDbXrecord
  3
"<Built In>"
 90
        0
280
         0
281
         0
  0
CLASS
  1
SORTENTSTABLE
  2
AcDbSortentsTable
  3
"AutoCAD"
 90
        0
280
         0
281
         0
  0
CLASS
  1
LAYER_INDEX
  2
AcDbLayerIndex
  3
"Acad"
 90
        0
280
         0
281
         0
  0
CLASS
  1
SPATIAL_INDEX
  2
AcDbSpatialIndex
  3
"Acad"
 90
        0
280
         0
281
         0
  0
CLASS
  1
OBJECT_PTR
  2
CAseDLPNTableRecord
  3
"ASE-LPNTableRecord"
 90
        1
280
         0
281
         0
  0
CLASS
  1
LAYOUT
  2
AcDbLayout
  3
"AutoCAD 2000"
 90
        1
280
         0
281
         0
  0
CLASS
  1
PLOTSETTINGS
  2
AcDbPlotSettings
  3
"AutoCAD 2000"
 90
        1
280
         0
281
         0
  0
CLASS
  1
ACDBDICTIONARYWDFLT
  2
AcDbDictionaryWithDefault
  3
"AutoCAD 2000"
 90
        1
280
         0
281
         0
  0
CLASS
  1
ACDBPLACEHOLDER
  2
AcDbPlaceHolder
  3
"AutoCAD 2000"
 90
        1
280
         0
281
         0
  0
CLASS
  1
VBA_PROJECT
  2
AcDbVbaProject
  3
"acadvba"
 90
        1
280
         0
281
         0
  0
CLASS
  1
WIPEOUT
  2
AcDbWipeout
  3
WipeOut|AutoCAD Express Tool|expresstools@autodesk.com
 90
      127
280
         0
281
         1
  0
CLASS
  1
WIPEOUTVARIABLES
  2
AcDbWipeoutVariables
  3
WipeOut|AutoCAD Express Tool|expresstools@autodesk.com
 90
        0
280
         0
281
         0
  0
CLASS
  1
RTEXT
  2
RText
  3
RText|AutoCAD Express Tool|expresstools@autodesk.com
 90
        0
280
         0
281
         1
  0
CLASS
  1
ARCALIGNEDTEXT
  2
AcDbArcAlignedText
  3
ATEXT|AutoCAD Express Tool|expresstools@autodesk.com
 90
        0
280
         0
281
         1
  0
ENDSEC
  0
SECTION
  2
TABLES
  0
TABLE
  2
VPORT
  5
7
100
AcDbSymbolTable
 70
         1
  0
VPORT
  5
15
100
AcDbSymbolTableRecord
100
AcDbViewportTableRecord
  2
*ACTIVE
 70
         0
 10
0.0
 20
0.0
 11
1.0
 21
1.0
 12
24.0
 22
120.0
 13
0.0
 23
0.0
 14
1.0
 24
1.0
 15
0.0
 25
0.0
 16
0.0
 26
0.0
 36
1.0
 17
0.0
 27
0.0
 37
0.0
 40
240.0
 41
5.0
 42
50.0
 43
0.0
 44
0.0
 50
0.0
 51
0.0
 71
         0
 72
      2000
 73
         1
 74
         1
 75
         0
 76
         0
 77
         0
 78
         0
  0
ENDTAB
  0
TABLE
  2
LTYPE
  5
4
100
AcDbSymbolTable
 70
         8
  0
LTYPE
  5
11
100
AcDbSymbolTableRecord
100
AcDbLinetypeTableRecord
  2
BYBLOCK
 70
        64
  3

 72
        65
 73
         0
 40
0.0
  0
LTYPE
  5
12
100
AcDbSymbolTableRecord
100
AcDbLinetypeTableRecord
  2
BYLAYER
 70
        64
  3

 72
        65
 73
         0
 40
0.0
  0
LTYPE
  5
13
100
AcDbSymbolTableRecord
100
AcDbLinetypeTableRecord
  2
CONTINUOUS
 70
        64
  3
Solid line
 72
        65
 73
         0
 40
0.0
  0
LTYPE
  5
1E
100
AcDbSymbolTableRecord
100
AcDbLinetypeTableRecord
  2
HIDDEN
 70
        64
  3
Hidden __ __ __ __ __ __ __ __ __ __ __ __ __ __
 72
        65
 73
         2
 40
0.075
 49
0.05
 74
         0
 49
-0.025
 74
         0
  0
LTYPE
  5
1F
100
AcDbSymbolTableRecord
100
AcDbLinetypeTableRecord
  2
PHANTOM
 70
        64
  3
Phantom ______  __  __  ______  __  __  ______
 72
        65
 73
         6
 40
0.5
 49
0.25
 74
         0
 49
-0.05
 74
         0
 49
0.05
 74
         0
 49
-0.05
 74
         0
 49
0.05
 74
         0
 49
-0.05
 74
         0
  0
LTYPE
  5
20
100
AcDbSymbolTableRecord
100
AcDbLinetypeTableRecord
  2
CENTER
 70
        64
  3
Center ____ _ ____ _ ____ _ ____ _ ____ _ ____
 72
        65
 73
         4
 40
0.4
 49
0.25
 74
         0
 49
-0.05
 74
         0
 49
0.05
 74
         0
 49
-0.05
 74
         0
  0
LTYPE
  5
21
100
AcDbSymbolTableRecord
100
AcDbLinetypeTableRecord
  2
CENTERX2
 70
        64
  3
Center (2x) ________  __  ________  __  _____
 72
        65
 73
         4
 40
0.8
 49
0.5
 74
         0
 49
-0.1
 74
         0
 49
0.1
 74
         0
 49
-0.1
 74
         0
  0
LTYPE
  5
22
100
AcDbSymbolTableRecord
100
AcDbLinetypeTableRecord
  2
DOT2
 70
        64
  3
Dot (.5x) ........................................
 72
        65
 73
         2
 40
0.025
 49
0.0
 74
         0
 49
-0.025
 74
         0
  0
ENDTAB
  0
TABLE
  2
LAYER
  5
2
100
AcDbSymbolTable
 70
         2
  0
LAYER
  5
14
100
AcDbSymbolTableRecord
100
AcDbLayerTableRecord
  2
0
 70
         0
 62
         7
  6
CONTINUOUS
  0
LAYER
  5
26
100
AcDbSymbolTableRecord
100
AcDbLayerTableRecord
  2
DEFPOINTS
 70
         0
 62
         7
  6
CONTINUOUS
  0
ENDTAB
  0
TABLE
  2
STYLE
  5
3
100
AcDbSymbolTable
 70
         2
  0
STYLE
  5
17
100
AcDbSymbolTableRecord
100
AcDbTextStyleTableRecord
  2
STANDARD
 70
         0
 40
0.0
 41
1.0
 50
0.0
 71
         0
 42
0.0
  3
txt
  4

  0
STYLE
  5
D9
100
AcDbSymbolTableRecord
100
AcDbTextStyleTableRecord
  2
SLDTEXTSTYLE0
 70
         0
 40
0.0
 41
0.75
 50
0.0
 71
         0
 42
0.0
  3
txt
  4

  0
ENDTAB
  0
TABLE
  2
VIEW
  5
5
100
AcDbSymbolTable
 70
         0
  0
ENDTAB
  0
TABLE
  2
UCS
  5
6
100
AcDbSymbolTable
 70
         0
  0
ENDTAB
  0
TABLE
  2
APPID
  5
8
100
AcDbSymbolTable
 70
         1
  0
APPID
  5
16
100
AcDbSymbolTableRecord
100
AcDbRegAppTableRecord
  2
ACAD
 70
         0
  0
ENDTAB
  0
TABLE
  2
DIMSTYLE
  5
9
100
AcDbSymbolTable
 70
         3
  0
DIMSTYLE
105
18
100
AcDbSymbolTableRecord
100
AcDbDimStyleTableRecord
  2
STANDARD
 70
         0
  3

  4

  5

  6

  7

 40
1.0
 41
0.18
 42
0.0625
 43
0.38
 44
0.18
 45
0.0
 46
0.0
 47
0.0
 48
0.0
 71
         0
 72
         0
 73
         1
 74
         1
 75
         0
 76
         0
 77
         0
 78
         0
140
0.18
141
0.09
142
0.0
143
25.4
144
1.0
145
0.0
146
1.0
147
0.09
170
         0
171
         2
172
         0
173
         0
174
         0
175
         0
176
         0
177
         0
178
         0
270
         3
271
         4
272
         4
273
         2
274
         2
275
         0
280
         0
281
         0
282
         0
283
         1
284
         0
285
         0
286
         0
287
         0
288
         0
340
17
  0
DIMSTYLE
105
E8
100
AcDbSymbolTableRecord
100
AcDbDimStyleTableRecord
  2
SLDDIMSTYLE0
 70
         0
  3

  4

  5

  6
_CLOSED
  7
_CLOSED
 40
1.0
 41
2.0
 42
0.0625
 43
0.38
 44
0.0393700787
 45
0.0
 46
0.0
 47
0.0
 48
0.0
 71
         0
 72
         0
 73
         1
 74
         1
 75
         0
 76
         0
 77
         0
 78
        12
140
6.0
141
0.09
142
0.0
143
25.4
144
1.0
145
0.0
146
1.0
147
1.5
170
         0
171
         2
172
         0
173
         1
174
         0
175
         0
176
         7
177
         7
178
         7
270
         3
271
         2
272
         4
273
         2
274
         2
275
         0
280
         0
281
         0
282
         0
283
         1
284
        12
285
         0
286
         0
287
         0
288
         0
340
17
  0
DIMSTYLE
105
F5
100
AcDbSymbolTableRecord
100
AcDbDimStyleTableRecord
  2
SLDDIMSTYLE1
 70
         0
  3

  4

  5

  6
_CLOSED
  7
_CLOSED
 40
1.0
 41
2.0
 42
0.0625
 43
0.38
 44
0.0393700787
 45
0.0
 46
0.0
 47
0.0
 48
0.0
 71
         0
 72
         0
 73
         1
 74
         1
 75
         0
 76
         0
 77
         0
 78
         4
140
6.0
141
0.09
142
0.0
143
25.4
144
1.0
145
0.0
146
1.0
147
1.5
170
         0
171
         2
172
         0
173
         1
174
         0
175
         0
176
         7
177
         7
178
         7
270
         3
271
         2
272
         4
273
         2
274
         2
275
         0
280
         0
281
         0
282
         0
283
         1
284
        12
285
         0
286
         0
287
         0
288
         0
340
17
  0
ENDTAB
  0
TABLE
  2
BLOCK_RECORD
  5
1
100
AcDbSymbolTable
 70
        16
  0
BLOCK_RECORD
  5
A
100
AcDbSymbolTableRecord
100
AcDbBlockTableRecord
  2
*MODEL_SPACE
  0
BLOCK_RECORD
  5
B
100
AcDbSymbolTableRecord
100
AcDbBlockTableRecord
  2
*PAPER_SPACE
  0
BLOCK_RECORD
  5
D7
100
AcDbSymbolTableRecord
100
AcDbBlockTableRecord
  2
*D0
  0
BLOCK_RECORD
  5
DF
100
AcDbSymbolTableRecord
100
AcDbBlockTableRecord
  2
_CLOSED
  0
BLOCK_RECORD
  5
ED
100
AcDbSymbolTableRecord
100
AcDbBlockTableRecord
  2
*D2
  0
BLOCK_RECORD
  5
FA
100
AcDbSymbolTableRecord
100
AcDbBlockTableRecord
  2
*D3
  0
BLOCK_RECORD
  5
106
100
AcDbSymbolTableRecord
100
AcDbBlockTableRecord
  2
*D4
  0
BLOCK_RECORD
  5
112
100
AcDbSymbolTableRecord
100
AcDbBlockTableRecord
  2
*D5
  0
BLOCK_RECORD
  5
11E
100
AcDbSymbolTableRecord
100
AcDbBlockTableRecord
  2
*D6
  0
BLOCK_RECORD
  5
12A
100
AcDbSymbolTableRecord
100
AcDbBlockTableRecord
  2
*D7
  0
BLOCK_RECORD
  5
135
100
AcDbSymbolTableRecord
100
AcDbBlockTableRecord
  2
*D8
  0
BLOCK_RECORD
  5
141
100
AcDbSymbolTableRecord
100
AcDbBlockTableRecord
  2
*D9
  0
BLOCK_RECORD
  5
14C
100
AcDbSymbolTableRecord
100
AcDbBlockTableRecord
  2
*D10
  0
BLOCK_RECORD
  5
158
100
AcDbSymbolTableRecord
100
AcDbBlockTableRecord
  2
*D11
  0
BLOCK_RECORD
  5
163
100
AcDbSymbolTableRecord
100
AcDbBlockTableRecord
  2
*D12
  0
BLOCK_RECORD
  5
16F
100
AcDbSymbolTableRecord
100
AcDbBlockTableRecord
  2
*D13
  0
BLOCK_RECORD
  5
17A
100
AcDbSymbolTableRecord
100
AcDbBlockTableRecord
  2
*D14
  0
BLOCK_RECORD
  5
186
100
AcDbSymbolTableRecord
100
AcDbBlockTableRecord
  2
*D15
  0
ENDTAB
  0
ENDSEC
  0
SECTION
  2
BLOCKS
  0
BLOCK
  5
D
100
AcDbEntity
  8
0
100
AcDbBlockBegin
  2
*MODEL_SPACE
 70
         0
 10
0.0
 20
0.0
 30
0.0
  3
*MODEL_SPACE
  1

  0
ENDBLK
  5
E
100
AcDbEntity
  8
0
100
AcDbBlockEnd
  0
BLOCK
  5
F
100
AcDbEntity
 67
         1
  8
0
100
AcDbBlockBegin
  2
*PAPER_SPACE
 70
         0
 10
0.0
 20
0.0
 30
0.0
  3
*PAPER_SPACE
  1

  0
ENDBLK
  5
10
100
AcDbEntity
 67
         1
  8
0
100
AcDbBlockEnd
  0
BLOCK
  5
D8
100
AcDbEntity
  8
0
 62
         7
100
AcDbBlockBegin
  2
*D0
 70
         1
 10
0.0
 20
0.0
 30
0.0
  3
*D0
  1

  0
MTEXT
  5
DA
100
AcDbEntity
  8
0
 62
         7
100
AcDbMText
 10
58.4728079167
 20
19.3670664154
 30
0.0
 40
6.0
 41
0.0
 71
         7
 72
         1
  1
1'-6.12"
  7
SLDTEXTSTYLE0
 11
0.0
 21
1.0
 31
0.0
  0
LINE
  5
DB
100
AcDbEntity
  8
0
 62
         7
100
AcDbLine
 10
42.9388204557
 20
20.5756004688
 30
0.0
 11
60.525301355
 21
20.5756004688
 31
0.0
  0
LINE
  5
DC
100
AcDbEntity
  8
0
 62
         7
100
AcDbLine
 10
46.562256718
 20
2.4539056558
 30
0.0
 11
60.525301355
 21
2.4539056558
 31
0.0
  0
LINE
  5
DD
100
AcDbEntity
  8
0
 62
         7
100
AcDbLine
 10
60.4859312763
 20
20.5756004688
 30
0.0
 11
60.4859312763
 21
46.0727895193
 31
0.0
  0
LINE
  5
DE
100
AcDbEntity
  8
0
 62
         7
100
AcDbLine
 10
60.4859312763
 20
20.5756004688
 30
0.0
 11
60.4859312763
 21
2.4539056558
 31
0.0
  0
INSERT
  5
E6
100
AcDbEntity
  8
0
100
AcDbBlockReference
  2
_CLOSED
 10
60.4859312763
 20
20.5756004688
 30
0.0
 41
2.0
 42
2.0
 50
90.0
  0
INSERT
  5
E7
100
AcDbEntity
  8
0
100
AcDbBlockReference
  2
_CLOSED
 10
60.4859312763
 20
2.4539056558
 30
0.0
 41
2.0
 42
2.0
 50
270.0
  0
POINT
  5
E9
100
AcDbEntity
  8
DEFPOINTS
 62
         7
100
AcDbPoint
 10
42.899450377
 20
20.5756004688
 30
0.0
  0
POINT
  5
EA
100
AcDbEntity
  8
DEFPOINTS
 62
         7
100
AcDbPoint
 10
46.5228866392
 20
2.4539056558
 30
0.0
  0
ENDBLK
  5
EB
100
AcDbEntity
  8
0
 62
         7
100
AcDbBlockEnd
  0
BLOCK
  5
E0
100
AcDbEntity
  8
0
100
AcDbBlockBegin
  2
_CLOSED
 70
         0
 10
0.0
 20
0.0
 30
0.0
  3
_CLOSED
  1

  0
LINE
  5
E1
100
AcDbEntity
  8
0
  6
BYBLOCK
 62
         0
100
AcDbLine
 10
-1.0
 20
0.166667
 30
0.0
 11
0.0
 21
0.0
 31
0.0
  0
LINE
  5
E2
100
AcDbEntity
  8
0
  6
BYBLOCK
 62
         0
100
AcDbLine
 10
0.0
 20
0.0
 30
0.0
 11
-1.0
 21
-0.166667
 31
0.0
  0
LINE
  5
E3
100
AcDbEntity
  8
0
  6
BYBLOCK
 62
         0
100
AcDbLine
 10
-1.0
 20
0.166667
 30
0.0
 11
-1.0
 21
-0.166667
 31
0.0
  0
LINE
  5
E4
100
AcDbEntity
  8
0
  6
BYBLOCK
 62
         0
100
AcDbLine
 10
0.0
 20
0.0
 30
0.0
 11
-1.0
 21
0.0
 31
0.0
  0
ENDBLK
  5
E5
100
AcDbEntity
  8
0
100
AcDbBlockEnd
  0
BLOCK
  5
EE
100
AcDbEntity
  8
0
 62
         7
100
AcDbBlockBegin
  2
*D2
 70
         1
 10
0.0
 20
0.0
 30
0.0
  3
*D2
  1

  0
MTEXT
  5
EF
100
AcDbEntity
  8
0
 62
         7
100
AcDbMText
 10
70.7995303499
 20
26.0301698133
 30
0.0
 40
6.0
 41
0.0
 71
         7
 72
         1
  1
4'-0.20"
  7
SLDTEXTSTYLE0
 11
0.0
 21
1.0
 31
0.0
  0
LINE
  5
F0
100
AcDbEntity
  8
0
 62
         7
100
AcDbLine
 10
46.562256718
 20
2.4539056558
 30
0.0
 11
72.8520237882
 21
2.4539056558
 31
0.0
  0
LINE
  5
F1
100
AcDbEntity
  8
0
 62
         7
100
AcDbLine
 10
39.3094147919
 20
50.6515707312
 30
0.0
 11
72.8520237882
 21
50.6515707312
 31
0.0
  0
LINE
  5
F2
100
AcDbEntity
  8
0
 62
         7
100
AcDbLine
 10
72.8126537095
 20
2.4539056558
 30
0.0
 11
72.8126537095
 21
50.6515707312
 31
0.0
  0
INSERT
  5
F3
100
AcDbEntity
  8
0
100
AcDbBlockReference
  2
_CLOSED
 10
72.8126537095
 20
2.4539056558
 30
0.0
 41
2.0
 42
2.0
 50
270.0
  0
INSERT
  5
F4
100
AcDbEntity
  8
0
100
AcDbBlockReference
  2
_CLOSED
 10
72.8126537095
 20
50.6515707312
 30
0.0
 41
2.0
 42
2.0
 50
90.0
  0
POINT
  5
F6
100
AcDbEntity
  8
DEFPOINTS
 62
         7
100
AcDbPoint
 10
46.5228866392
 20
2.4539056558
 30
0.0
  0
POINT
  5
F7
100
AcDbEntity
  8
DEFPOINTS
 62
         7
100
AcDbPoint
 10
39.2700447131
 20
50.6515707312
 30
0.0
  0
ENDBLK
  5
F8
100
AcDbEntity
  8
0
 62
         7
100
AcDbBlockEnd
  0
BLOCK
  5
FB
100
AcDbEntity
  8
0
 62
         7
100
AcDbBlockBegin
  2
*D3
 70
         1
 10
0.0
 20
0.0
 30
0.0
  3
*D3
  1

  0
MTEXT
  5
FC
100
AcDbEntity
  8
0
 62
         7
100
AcDbMText
 10
76.9345892142
 20
65.0594664365
 30
0.0
 40
6.0
 41
0.0
 71
         7
 72
         1
  1
10'-0.00"
  7
SLDTEXTSTYLE0
 11
0.0
 21
1.0
 31
0.0
  0
LINE
  5
FD
100
AcDbEntity
  8
0
 62
         7
100
AcDbLine
 10
37.1076325642
 20
122.4539056558
 30
0.0
 11
78.9870826525
 21
122.4539056558
 31
0.0
  0
LINE
  5
FE
100
AcDbEntity
  8
0
 62
         7
100
AcDbLine
 10
46.562256718
 20
2.4539056558
 30
0.0
 11
78.9870826525
 21
2.4539056558
 31
0.0
  0
LINE
  5
FF
100
AcDbEntity
  8
0
 62
         7
100
AcDbLine
 10
78.9477125737
 20
122.4539056558
 30
0.0
 11
78.9477125737
 21
2.4539056558
 31
0.0
  0
INSERT
  5
100
100
AcDbEntity
  8
0
100
AcDbBlockReference
  2
_CLOSED
 10
78.9477125737
 20
122.4539056558
 30
0.0
 41
2.0
 42
2.0
 50
90.0
  0
INSERT
  5
101
100
AcDbEntity
  8
0
100
AcDbBlockReference
  2
_CLOSED
 10
78.9477125737
 20
2.4539056558
 30
0.0
 41
2.0
 42
2.0
 50
270.0
  0
POINT
  5
102
100
AcDbEntity
  8
DEFPOINTS
 62
         7
100
AcDbPoint
 10
37.0682624854
 20
122.4539056558
 30
0.0
  0
POINT
  5
103
100
AcDbEntity
  8
DEFPOINTS
 62
         7
100
AcDbPoint
 10
46.5228866392
 20
2.4539056558
 30
0.0
  0
ENDBLK
  5
104
100
AcDbEntity
  8
0
 62
         7
100
AcDbBlockEnd
  0
BLOCK
  5
107
100
AcDbEntity
  8
0
 62
         7
100
AcDbBlockBegin
  2
*D4
 70
         1
 10
0.0
 20
0.0
 30
0.0
  3
*D4
  1

  0
MTEXT
  5
108
100
AcDbEntity
  8
0
 62
         7
100
AcDbMText
 10
93.037986875
 20
84.5741542886
 30
0.0
 40
6.0
 41
0.0
 71
         7
 72
         1
  1
15'-0.00"
  7
SLDTEXTSTYLE0
 11
0.0
 21
1.0
 31
0.0
  0
LINE
  5
109
100
AcDbEntity
  8
0
 62
         7
100
AcDbLine
 10
39.8714007139
 20
182.4539056558
 30
0.0
 11
95.0904803134
 21
182.4539056558
 31
0.0
  0
LINE
  5
10A
100
AcDbEntity
  8
0
 62
         7
100
AcDbLine
 10
46.562256718
 20
2.4539056558
 30
0.0
 11
95.0904803134
 21
2.4539056558
 31
0.0
  0
LINE
  5
10B
100
AcDbEntity
  8
0
 62
         7
100
AcDbLine
 10
95.0511102346
 20
182.4539056558
 30
0.0
 11
95.0511102346
 21
2.4539056558
 31
0.0
  0
INSERT
  5
10C
100
AcDbEntity
  8
0
100
AcDbBlockReference
  2
_CLOSED
 10
95.0511102346
 20
182.4539056558
 30
0.0
 41
2.0
 42
2.0
 50
90.0
  0
INSERT
  5
10D
100
AcDbEntity
  8
0
100
AcDbBlockReference
  2
_CLOSED
 10
95.0511102346
 20
2.4539056558
 30
0.0
 41
2.0
 42
2.0
 50
270.0
  0
POINT
  5
10E
100
AcDbEntity
  8
DEFPOINTS
 62
         7
100
AcDbPoint
 10
39.8320306352
 20
182.4539056558
 30
0.0
  0
POINT
  5
10F
100
AcDbEntity
  8
DEFPOINTS
 62
         7
100
AcDbPoint
 10
46.5228866392
 20
2.4539056558
 30
0.0
  0
ENDBLK
  5
110
100
AcDbEntity
  8
0
 62
         7
100
AcDbBlockEnd
  0
BLOCK
  5
113
100
AcDbEntity
  8
0
 62
         7
100
AcDbBlockBegin
  2
*D5
 70
         1
 10
0.0
 20
0.0
 30
0.0
  3
*D5
  1

  0
MTEXT
  5
114
100
AcDbEntity
  8
0
 62
         7
100
AcDbMText
 10
-44.7164891207
 20
4.6029549436
 30
0.0
 40
6.0
 41
0.0
 71
         7
 72
         1
  1
2'-0.00"
  7
SLDTEXTSTYLE0
 11
1.0
 21
0.0
 31
0.0
  0
LINE
  5
115
100
AcDbEntity
  8
0
 62
         7
100
AcDbLine
 10
10.5228866392
 20
2.4932757346
 30
0.0
 11
10.5228866392
 21
2.6292016628
 31
0.0
  0
LINE
  5
116
100
AcDbEntity
  8
0
 62
         7
100
AcDbLine
 10
10.5228866392
 20
2.589831584
 30
0.0
 11
-13.4771133608
 21
2.589831584
 31
0.0
  0
LINE
  5
117
100
AcDbEntity
  8
0
 62
         7
100
AcDbLine
 10
-13.4771133608
 20
2.589831584
 30
0.0
 11
-44.7789891207
 21
2.589831584
 31
0.0
  0
INSERT
  5
118
100
AcDbEntity
  8
0
100
AcDbBlockReference
  2
_CLOSED
 10
10.5228866392
 20
2.589831584
 30
0.0
 41
2.0
 42
2.0
 50
360.0
  0
INSERT
  5
119
100
AcDbEntity
  8
0
100
AcDbBlockReference
  2
_CLOSED
 10
-13.4771133608
 20
2.589831584
 30
0.0
 41
2.0
 42
2.0
 50
180.0
  0
POINT
  5
11A
100
AcDbEntity
  8
DEFPOINTS
 62
         7
100
AcDbPoint
 10
10.5228866392
 20
2.4539056558
 30
0.0
  0
POINT
  5
11B
100
AcDbEntity
  8
DEFPOINTS
 62
         7
100
AcDbPoint
 10
-13.4771133608
 20
2.4539056558
 30
0.0
  0
ENDBLK
  5
11C
100
AcDbEntity
  8
0
 62
         7
100
AcDbBlockEnd
  0
BLOCK
  5
11F
100
AcDbEntity
  8
0
 62
         7
100
AcDbBlockBegin
  2
*D6
 70
         1
 10
0.0
 20
0.0
 30
0.0
  3
*D6
  1

  0
MTEXT
  5
120
100
AcDbEntity
  8
0
 62
         7
100
AcDbMText
 10
-44.7164891207
 20
18.8482104838
 30
0.0
 40
6.0
 41
0.0
 71
         7
 72
         1
  1
1'-8.37"
  7
SLDTEXTSTYLE0
 11
1.0
 21
0.0
 31
0.0
  0
LINE
  5
121
100
AcDbEntity
  8
0
 62
         7
100
AcDbLine
 10
6.8950431723
 20
20.5362303901
 30
0.0
 11
6.8950431723
 21
16.7957170455
 31
0.0
  0
LINE
  5
122
100
AcDbEntity
  8
0
 62
         7
100
AcDbLine
 10
6.8950431723
 20
16.8350871242
 30
0.0
 11
-13.4771133608
 21
16.8350871242
 31
0.0
  0
LINE
  5
123
100
AcDbEntity
  8
0
 62
         7
100
AcDbLine
 10
-13.4771133608
 20
16.8350871242
 30
0.0
 11
-44.7789891207
 21
16.8350871242
 31
0.0
  0
INSERT
  5
124
100
AcDbEntity
  8
0
100
AcDbBlockReference
  2
_CLOSED
 10
6.8950431723
 20
16.8350871242
 30
0.0
 41
2.0
 42
2.0
 50
360.0
  0
INSERT
  5
125
100
AcDbEntity
  8
0
100
AcDbBlockReference
  2
_CLOSED
 10
-13.4771133608
 20
16.8350871242
 30
0.0
 41
2.0
 42
2.0
 50
180.0
  0
POINT
  5
126
100
AcDbEntity
  8
DEFPOINTS
 62
         7
100
AcDbPoint
 10
6.8950431723
 20
20.5756004688
 30
0.0
  0
POINT
  5
127
100
AcDbEntity
  8
DEFPOINTS
 62
         7
100
AcDbPoint
 10
-13.4771133608
 20
2.4539056558
 30
0.0
  0
ENDBLK
  5
128
100
AcDbEntity
  8
0
 62
         7
100
AcDbBlockEnd
  0
BLOCK
  5
12B
100
AcDbEntity
  8
0
 62
         7
100
AcDbBlockBegin
  2
*D7
 70
         1
 10
0.0
 20
0.0
 30
0.0
  3
*D7
  1

  0
MTEXT
  5
12C
100
AcDbEntity
  8
0
 62
         7
100
AcDbMText
 10
8.1288136897
 20
29.8767954182
 30
0.0
 40
6.0
 41
0.0
 71
         7
 72
         1
  1
4'-8.38"
  7
SLDTEXTSTYLE0
 11
1.0
 21
0.0
 31
0.0
  0
LINE
  5
12D
100
AcDbEntity
  8
0
 62
         7
100
AcDbLine
 10
42.899450377
 20
20.6149705476
 30
0.0
 11
42.899450377
 21
27.9030421373
 31
0.0
  0
LINE
  5
12E
100
AcDbEntity
  8
0
 62
         7
100
AcDbLine
 10
42.899450377
 20
27.8636720586
 30
0.0
 11
-13.4771133608
 21
27.8636720586
 31
0.0
  0
INSERT
  5
12F
100
AcDbEntity
  8
0
100
AcDbBlockReference
  2
_CLOSED
 10
42.899450377
 20
27.8636720586
 30
0.0
 41
2.0
 42
2.0
 50
360.0
  0
INSERT
  5
130
100
AcDbEntity
  8
0
100
AcDbBlockReference
  2
_CLOSED
 10
-13.4771133608
 20
27.8636720586
 30
0.0
 41
2.0
 42
2.0
 50
180.0
  0
POINT
  5
131
100
AcDbEntity
  8
DEFPOINTS
 62
         7
100
AcDbPoint
 10
42.899450377
 20
20.5756004688
 30
0.0
  0
POINT
  5
132
100
AcDbEntity
  8
DEFPOINTS
 62
         7
100
AcDbPoint
 10
-13.4771133608
 20
2.4539056558
 30
0.0
  0
ENDBLK
  5
133
100
AcDbEntity
  8
0
 62
         7
100
AcDbBlockEnd
  0
BLOCK
  5
136
100
AcDbEntity
  8
0
 62
         7
100
AcDbBlockBegin
  2
*D8
 70
         1
 10
0.0
 20
0.0
 30
0.0
  3
*D8
  1

  0
MTEXT
  5
137
100
AcDbEntity
  8
0
 62
         7
100
AcDbMText
 10
-45.6355378653
 20
46.4196728197
 30
0.0
 40
6.0
 41
0.0
 71
         7
 72
         1
  1
1'-4.75"
  7
SLDTEXTSTYLE0
 11
1.0
 21
0.0
 31
0.0
  0
LINE
  5
138
100
AcDbEntity
  8
0
 62
         7
100
AcDbLine
 10
3.2700894568
 20
50.6122006525
 30
0.0
 11
3.2700894568
 21
44.3671793814
 31
0.0
  0
LINE
  5
139
100
AcDbEntity
  8
0
 62
         7
100
AcDbLine
 10
3.2700894568
 20
44.4065494601
 30
0.0
 11
-13.4771133608
 21
44.4065494601
 31
0.0
  0
LINE
  5
13A
100
AcDbEntity
  8
0
 62
         7
100
AcDbLine
 10
-13.4771133608
 20
44.4065494601
 30
0.0
 11
-45.6980378653
 21
44.4065494601
 31
0.0
  0
INSERT
  5
13B
100
AcDbEntity
  8
0
100
AcDbBlockReference
  2
_CLOSED
 10
3.2700894568
 20
44.4065494601
 30
0.0
 41
2.0
 42
2.0
 50
360.0
  0
INSERT
  5
13C
100
AcDbEntity
  8
0
100
AcDbBlockReference
  2
_CLOSED
 10
-13.4771133608
 20
44.4065494601
 30
0.0
 41
2.0
 42
2.0
 50
180.0
  0
POINT
  5
13D
100
AcDbEntity
  8
DEFPOINTS
 62
         7
100
AcDbPoint
 10
3.2700894568
 20
50.6515707312
 30
0.0
  0
POINT
  5
13E
100
AcDbEntity
  8
DEFPOINTS
 62
         7
100
AcDbPoint
 10
-13.4771133608
 20
2.4539056558
 30
0.0
  0
ENDBLK
  5
13F
100
AcDbEntity
  8
0
 62
         7
100
AcDbBlockEnd
  0
BLOCK
  5
142
100
AcDbEntity
  8
0
 62
         7
100
AcDbBlockBegin
  2
*D9
 70
         1
 10
0.0
 20
0.0
 30
0.0
  3
*D9
  1

  0
MTEXT
  5
143
100
AcDbEntity
  8
0
 62
         7
100
AcDbMText
 10
9.0478624342
 20
62.503025849
 30
0.0
 40
6.0
 41
0.0
 71
         7
 72
         1
  1
4'-4.75"
  7
SLDTEXTSTYLE0
 11
1.0
 21
0.0
 31
0.0
  0
LINE
  5
144
100
AcDbEntity
  8
0
 62
         7
100
AcDbLine
 10
39.2700447131
 20
50.6909408099
 30
0.0
 11
39.2700447131
 21
60.5292725681
 31
0.0
  0
LINE
  5
145
100
AcDbEntity
  8
0
 62
         7
100
AcDbLine
 10
39.2700447131
 20
60.4899024894
 30
0.0
 11
-13.4771133608
 21
60.4899024894
 31
0.0
  0
INSERT
  5
146
100
AcDbEntity
  8
0
100
AcDbBlockReference
  2
_CLOSED
 10
39.2700447131
 20
60.4899024894
 30
0.0
 41
2.0
 42
2.0
 50
360.0
  0
INSERT
  5
147
100
AcDbEntity
  8
0
100
AcDbBlockReference
  2
_CLOSED
 10
-13.4771133608
 20
60.4899024894
 30
0.0
 41
2.0
 42
2.0
 50
180.0
  0
POINT
  5
148
100
AcDbEntity
  8
DEFPOINTS
 62
         7
100
AcDbPoint
 10
39.2700447131
 20
50.6515707312
 30
0.0
  0
POINT
  5
149
100
AcDbEntity
  8
DEFPOINTS
 62
         7
100
AcDbPoint
 10
-13.4771133608
 20
2.4539056558
 30
0.0
  0
ENDBLK
  5
14A
100
AcDbEntity
  8
0
 62
         7
100
AcDbBlockEnd
  0
BLOCK
  5
14D
100
AcDbEntity
  8
0
 62
         7
100
AcDbBlockBegin
  2
*D10
 70
         1
 10
0.0
 20
0.0
 30
0.0
  3
*D10
  1

  0
MTEXT
  5
14E
100
AcDbEntity
  8
0
 62
         7
100
AcDbMText
 10
-45.6355378653
 20
117.1864261484
 30
0.0
 40
6.0
 41
0.0
 71
         7
 72
         1
  1
1'-8.23"
  7
SLDTEXTSTYLE0
 11
1.0
 21
0.0
 31
0.0
  0
LINE
  5
14F
100
AcDbEntity
  8
0
 62
         7
100
AcDbLine
 10
6.7479918309
 20
122.4145355771
 30
0.0
 11
6.7479918309
 21
115.1339327101
 31
0.0
  0
LINE
  5
150
100
AcDbEntity
  8
0
 62
         7
100
AcDbLine
 10
6.7479918309
 20
115.1733027889
 30
0.0
 11
-13.4771133608
 21
115.1733027889
 31
0.0
  0
LINE
  5
151
100
AcDbEntity
  8
0
 62
         7
100
AcDbLine
 10
-13.4771133608
 20
115.1733027889
 30
0.0
 11
-45.6980378653
 21
115.1733027889
 31
0.0
  0
INSERT
  5
152
100
AcDbEntity
  8
0
100
AcDbBlockReference
  2
_CLOSED
 10
6.7479918309
 20
115.1733027889
 30
0.0
 41
2.0
 42
2.0
 50
360.0
  0
INSERT
  5
153
100
AcDbEntity
  8
0
100
AcDbBlockReference
  2
_CLOSED
 10
-13.4771133608
 20
115.1733027889
 30
0.0
 41
2.0
 42
2.0
 50
180.0
  0
POINT
  5
154
100
AcDbEntity
  8
DEFPOINTS
 62
         7
100
AcDbPoint
 10
6.7479918309
 20
122.4539056558
 30
0.0
  0
POINT
  5
155
100
AcDbEntity
  8
DEFPOINTS
 62
         7
100
AcDbPoint
 10
-13.4771133608
 20
2.4539056558
 30
0.0
  0
ENDBLK
  5
156
100
AcDbEntity
  8
0
 62
         7
100
AcDbBlockEnd
  0
BLOCK
  5
159
100
AcDbEntity
  8
0
 62
         7
100
AcDbBlockBegin
  2
*D11
 70
         1
 10
0.0
 20
0.0
 30
0.0
  3
*D11
  1

  0
MTEXT
  5
15A
100
AcDbEntity
  8
0
 62
         7
100
AcDbMText
 10
10.426435551
 20
132.3507304332
 30
0.0
 40
6.0
 41
0.0
 71
         7
 72
         1
  1
4'-2.55"
  7
SLDTEXTSTYLE0
 11
1.0
 21
0.0
 31
0.0
  0
LINE
  5
15B
100
AcDbEntity
  8
0
 62
         7
100
AcDbLine
 10
37.0682624854
 20
122.4932757346
 30
0.0
 11
37.0682624854
 21
130.3769771523
 31
0.0
  0
LINE
  5
15C
100
AcDbEntity
  8
0
 62
         7
100
AcDbLine
 10
37.0682624854
 20
130.3376070736
 30
0.0
 11
-13.4771133608
 21
130.3376070736
 31
0.0
  0
INSERT
  5
15D
100
AcDbEntity
  8
0
100
AcDbBlockReference
  2
_CLOSED
 10
37.0682624854
 20
130.3376070736
 30
0.0
 41
2.0
 42
2.0
 50
360.0
  0
INSERT
  5
15E
100
AcDbEntity
  8
0
100
AcDbBlockReference
  2
_CLOSED
 10
-13.4771133608
 20
130.3376070736
 30
0.0
 41
2.0
 42
2.0
 50
180.0
  0
POINT
  5
15F
100
AcDbEntity
  8
DEFPOINTS
 62
         7
100
AcDbPoint
 10
37.0682624854
 20
122.4539056558
 30
0.0
  0
POINT
  5
160
100
AcDbEntity
  8
DEFPOINTS
 62
         7
100
AcDbPoint
 10
-13.4771133608
 20
233.2060759053
 30
0.0
  0
ENDBLK
  5
161
100
AcDbEntity
  8
0
 62
         7
100
AcDbBlockEnd
  0
BLOCK
  5
164
100
AcDbEntity
  8
0
 62
         7
100
AcDbBlockBegin
  2
*D12
 70
         1
 10
0.0
 20
0.0
 30
0.0
  3
*D12
  1

  0
MTEXT
  5
165
100
AcDbEntity
  8
0
 62
         7
100
AcDbMText
 10
-42.8783916317
 20
176.9245945428
 30
0.0
 40
6.0
 41
0.0
 71
         7
 72
         1
  1
3'-0.19"
  7
SLDTEXTSTYLE0
 11
1.0
 21
0.0
 31
0.0
  0
LINE
  5
166
100
AcDbEntity
  8
0
 62
         7
100
AcDbLine
 10
22.7130201769
 20
182.4145355771
 30
0.0
 11
22.7130201769
 21
174.8721011045
 31
0.0
  0
LINE
  5
167
100
AcDbEntity
  8
0
 62
         7
100
AcDbLine
 10
22.7130201769
 20
174.9114711832
 30
0.0
 11
-13.4771133608
 21
174.9114711832
 31
0.0
  0
LINE
  5
168
100
AcDbEntity
  8
0
 62
         7
100
AcDbLine
 10
-13.4771133608
 20
174.9114711832
 30
0.0
 11
-42.9408916317
 21
174.9114711832
 31
0.0
  0
INSERT
  5
169
100
AcDbEntity
  8
0
100
AcDbBlockReference
  2
_CLOSED
 10
22.7130201769
 20
174.9114711832
 30
0.0
 41
2.0
 42
2.0
 50
360.0
  0
INSERT
  5
16A
100
AcDbEntity
  8
0
100
AcDbBlockReference
  2
_CLOSED
 10
-13.4771133608
 20
174.9114711832
 30
0.0
 41
2.0
 42
2.0
 50
180.0
  0
POINT
  5
16B
100
AcDbEntity
  8
DEFPOINTS
 62
         7
100
AcDbPoint
 10
22.7130201769
 20
182.4539056558
 30
0.0
  0
POINT
  5
16C
100
AcDbEntity
  8
DEFPOINTS
 62
         7
100
AcDbPoint
 10
-13.4771133608
 20
233.2060759053
 30
0.0
  0
ENDBLK
  5
16D
100
AcDbEntity
  8
0
 62
         7
100
AcDbBlockEnd
  0
BLOCK
  5
170
100
AcDbEntity
  8
0
 62
         7
100
AcDbBlockBegin
  2
*D13
 70
         1
 10
0.0
 20
0.0
 30
0.0
  3
*D13
  1

  0
MTEXT
  5
171
100
AcDbEntity
  8
0
 62
         7
100
AcDbMText
 10
-4.2783443615
 20
190.7103257108
 30
0.0
 40
6.0
 41
0.0
 71
         7
 72
         1
  1
4'-5.31"
  7
SLDTEXTSTYLE0
 11
1.0
 21
0.0
 31
0.0
  0
LINE
  5
172
100
AcDbEntity
  8
0
 62
         7
100
AcDbLine
 10
39.8320306352
 20
182.4932757346
 30
0.0
 11
39.8320306352
 21
188.7365724299
 31
0.0
  0
LINE
  5
173
100
AcDbEntity
  8
0
 62
         7
100
AcDbLine
 10
39.8320306352
 20
188.6972023512
 30
0.0
 11
-13.4771133608
 21
188.6972023512
 31
0.0
  0
INSERT
  5
174
100
AcDbEntity
  8
0
100
AcDbBlockReference
  2
_CLOSED
 10
39.8320306352
 20
188.6972023512
 30
0.0
 41
2.0
 42
2.0
 50
360.0
  0
INSERT
  5
175
100
AcDbEntity
  8
0
100
AcDbBlockReference
  2
_CLOSED
 10
-13.4771133608
 20
188.6972023512
 30
0.0
 41
2.0
 42
2.0
 50
180.0
  0
POINT
  5
176
100
AcDbEntity
  8
DEFPOINTS
 62
         7
100
AcDbPoint
 10
39.8320306352
 20
182.4539056558
 30
0.0
  0
POINT
  5
177
100
AcDbEntity
  8
DEFPOINTS
 62
         7
100
AcDbPoint
 10
-13.4771133608
 20
233.2060759053
 30
0.0
  0
ENDBLK
  5
178
100
AcDbEntity
  8
0
 62
         7
100
AcDbBlockEnd
  0
BLOCK
  5
17B
100
AcDbEntity
  8
0
 62
         7
100
AcDbBlockBegin
  2
*D14
 70
         1
 10
0.0
 20
0.0
 30
0.0
  3
*D14
  1

  0
MTEXT
  5
17C
100
AcDbEntity
  8
0
 62
         7
100
AcDbMText
 10
1.3186624927
 20
244.934201638
 30
0.0
 40
6.0
 41
0.0
 71
         7
 72
         1
  1
4'-10.82"
  7
SLDTEXTSTYLE0
  0
LINE
  5
17D
100
AcDbEntity
  8
0
 62
         7
100
AcDbLine
 10
-13.4771133608
 20
233.245445984
 30
0.0
 11
-13.4771133608
 21
242.9604483571
 31
0.0
  0
LINE
  5
17E
100
AcDbEntity
  8
0
 62
         7
100
AcDbLine
 10
45.3393174392
 20
233.245445984
 30
0.0
 11
45.3393174392
 21
242.9604483571
 31
0.0
  0
LINE
  5
17F
100
AcDbEntity
  8
0
 62
         7
100
AcDbLine
 10
-13.4771133608
 20
242.9210782784
 30
0.0
 11
45.3393174392
 21
242.9210782784
 31
0.0
  0
INSERT
  5
180
100
AcDbEntity
  8
0
100
AcDbBlockReference
  2
_CLOSED
 10
-13.4771133608
 20
242.9210782784
 30
0.0
 41
2.0
 42
2.0
 50
180.0
  0
INSERT
  5
181
100
AcDbEntity
  8
0
100
AcDbBlockReference
  2
_CLOSED
 10
45.3393174392
 20
242.9210782784
 30
0.0
 41
2.0
 42
2.0
 50
360.0
  0
POINT
  5
182
100
AcDbEntity
  8
DEFPOINTS
 62
         7
100
AcDbPoint
 10
-13.4771133608
 20
233.2060759053
 30
0.0
  0
POINT
  5
183
100
AcDbEntity
  8
DEFPOINTS
 62
         7
100
AcDbPoint
 10
45.3393174392
 20
233.2060759053
 30
0.0
  0
ENDBLK
  5
184
100
AcDbEntity
  8
0
 62
         7
100
AcDbBlockEnd
  0
BLOCK
  5
187
100
AcDbEntity
  8
0
 62
         7
100
AcDbBlockBegin
  2
*D15
 70
         1
 10
0.0
 20
0.0
 30
0.0
  3
*D15
  1

  0
MTEXT
  5
188
100
AcDbEntity
  8
0
 62
         7
100
AcDbMText
 10
105.723382642
 20
112.9629905583
 30
0.0
 40
6.0
 41
0.0
 71
         7
 72
         1
  1
19'-2.75"
  7
SLDTEXTSTYLE0
 11
0.0
 21
1.0
 31
0.0
  0
LINE
  5
189
100
AcDbEntity
  8
0
 62
         7
100
AcDbLine
 10
45.3786875179
 20
233.2060759053
 30
0.0
 11
107.7758760803
 21
233.2060759053
 31
0.0
  0
LINE
  5
18A
100
AcDbEntity
  8
0
 62
         7
100
AcDbLine
 10
46.562256718
 20
2.4539056558
 30
0.0
 11
107.7758760803
 21
2.4539056558
 31
0.0
  0
LINE
  5
18B
100
AcDbEntity
  8
0
 62
         7
100
AcDbLine
 10
107.7365060016
 20
233.2060759053
 30
0.0
 11
107.7365060016
 21
2.4539056558
 31
0.0
  0
INSERT
  5
18C
100
AcDbEntity
  8
0
100
AcDbBlockReference
  2
_CLOSED
 10
107.7365060016
 20
233.2060759053
 30
0.0
 41
2.0
 42
2.0
 50
90.0
  0
INSERT
  5
18D
100
AcDbEntity
  8
0
100
AcDbBlockReference
  2
_CLOSED
 10
107.7365060016
 20
2.4539056558
 30
0.0
 41
2.0
 42
2.0
 50
270.0
  0
POINT
  5
18E
100
AcDbEntity
  8
DEFPOINTS
 62
         7
100
AcDbPoint
 10
45.3393174392
 20
233.2060759053
 30
0.0
  0
POINT
  5
18F
100
AcDbEntity
  8
DEFPOINTS
 62
         7
100
AcDbPoint
 10
46.5228866392
 20
2.4539056558
 30
0.0
  0
ENDBLK
  5
190
100
AcDbEntity
  8
0
 62
         7
100
AcDbBlockEnd
  0
ENDSEC
  0
SECTION
  2
ENTITIES
  0
LINE
  5
27
100
AcDbEntity
  8
0
  6
CONTINUOUS
 62
         7
100
AcDbLine
 10
39.2700447131
 20
50.6515707312
 30
0.0
 11
3.2700894568
 21
50.6515707312
 31
0.0
  0
LINE
  5
28
100
AcDbEntity
  8
0
  6
CONTINUOUS
 62
         7
100
AcDbLine
 10
42.899450377
 20
20.5756004688
 30
0.0
 11
6.8950431723
 21
20.5756004688
 31
0.0
  0
LINE
  5
29
100
AcDbEntity
  8
0
  6
CONTINUOUS
 62
         7
100
AcDbLine
 10
6.7479918309
 20
122.4539056558
 30
0.0
 11
37.0682624854
 21
122.4539056558
 31
0.0
  0
LINE
  5
2A
100
AcDbEntity
  8
0
  6
CONTINUOUS
 62
         7
100
AcDbLine
 10
22.7130201769
 20
182.4539056558
 30
0.0
 11
39.8320306352
 21
182.4539056558
 31
0.0
  0
LINE
  5
2B
100
AcDbEntity
  8
0
  6
CONTINUOUS
 62
         7
100
AcDbLine
 10
-13.4771133608
 20
2.4539056558
 30
0.0
 11
-13.4771133608
 21
233.2060759053
 31
0.0
  0
LINE
  5
2C
100
AcDbEntity
  8
0
  6
CONTINUOUS
 62
         7
100
AcDbLine
 10
42.8994503617
 20
20.5756004561
 30
0.0
 11
42.909666249
 21
20.5662484864
 31
0.0
  0
POLYLINE
  5
2D
100
AcDbEntity
  8
0
  6
CONTINUOUS
 62
         7
100
AcDb2dPolyline
 66
         1
 10
0.0
 20
0.0
 30
0.0
 70
       128
  0
VERTEX
  5
2E
100
AcDbEntity
  8
0
100
AcDbVertex
100
AcDb2dVertex
 10
46.5228866392
 20
2.4539056558
 30
0.0
  0
VERTEX
  5
2F
100
AcDbEntity
  8
0
100
AcDbVertex
100
AcDb2dVertex
 10
46.4774056477
 20
2.6520380664
 30
0.0
  0
VERTEX
  5
30
100
AcDbEntity
  8
0
100
AcDbVertex
100
AcDb2dVertex
 10
46.4400256548
 20
2.815154859
 30
0.0
  0
VERTEX
  5
31
100
AcDbEntity
  8
0
100
AcDbVertex
100
AcDb2dVertex
 10
46.4076088231
 20
2.9569789293
 30
0.0
  0
VERTEX
  5
32
100
AcDbEntity
  8
0
100
AcDbVertex
100
AcDb2dVertex
 10
46.372531186
 20
3.1108526323
 30
0.0
  0
VERTEX
  5
33
100
AcDbEntity
  8
0
100
AcDbVertex
100
AcDb2dVertex
 10
46.3348556711
 20
3.2764998248
 30
0.0
  0
VERTEX
  5
34
100
AcDbEntity
  8
0
100
AcDbVertex
100
AcDb2dVertex
 10
46.296977853
 20
3.443438243
 30
0.0
  0
VERTEX
  5
35
100
AcDbEntity
  8
0
100
AcDbVertex
100
AcDb2dVertex
 10
46.1208362883
 20
4.2252923741
 30
0.0
  0
VERTEX
  5
36
100
AcDbEntity
  8
0
100
AcDbVertex
100
AcDb2dVertex
 10
45.8120456528
 20
5.6188265071
 30
0.0
  0
VERTEX
  5
37
100
AcDbEntity
  8
0
100
AcDbVertex
100
AcDb2dVertex
 10
45.2763317531
 20
8.1104269113
 30
0.0
  0
VERTEX
  5
38
100
AcDbEntity
  8
0
100
AcDbVertex
100
AcDb2dVertex
 10
44.8149867999
 20
10.3386446277
 30
0.0
  0
VERTEX
  5
39
100
AcDbEntity
  8
0
100
AcDbVertex
100
AcDb2dVertex
 10
44.3696106309
 20
12.5704368947
 30
0.0
  0
VERTEX
  5
3A
100
AcDbEntity
  8
0
100
AcDbVertex
100
AcDb2dVertex
 10
43.6140540737
 20
16.5641720451
 30
0.0
  0
VERTEX
  5
3B
100
AcDbEntity
  8
0
100
AcDbVertex
100
AcDb2dVertex
 10
42.9096662491
 20
20.5662484865
 30
0.0
  0
SEQEND
  5
3C
100
AcDbEntity
  8
0
  0
LINE
  5
3D
100
AcDbEntity
  8
0
  6
CONTINUOUS
 62
         7
100
AcDbLine
 10
10.5228866392
 20
2.4539056558
 30
0.0
 11
46.5228866392
 21
2.4539056558
 31
0.0
  0
POLYLINE
  5
3E
100
AcDbEntity
  8
0
  6
CONTINUOUS
 62
         7
100
AcDb2dPolyline
 66
         1
 10
0.0
 20
0.0
 30
0.0
 70
       128
  0
VERTEX
  5
3F
100
AcDbEntity
  8
0
100
AcDbVertex
100
AcDb2dVertex
 10
45.339317466
 20
233.2060759562
 30
0.0
  0
VERTEX
  5
40
100
AcDbEntity
  8
0
100
AcDbVertex
100
AcDb2dVertex
 10
45.248193397
 20
233.0330089528
 30
0.0
  0
VERTEX
  5
41
100
AcDbEntity
  8
0
100
AcDbVertex
100
AcDb2dVertex
 10
45.17552922
 20
232.8949288741
 30
0.0
  0
VERTEX
  5
42
100
AcDbEntity
  8
0
100
AcDbVertex
100
AcDb2dVertex
 10
45.1090516999
 20
232.7684905191
 30
0.0
  0
VERTEX
  5
43
100
AcDbEntity
  8
0
100
AcDbVertex
100
AcDb2dVertex
 10
45.0395977554
 20
232.6362645819
 30
0.0
  0
VERTEX
  5
44
100
AcDbEntity
  8
0
100
AcDbVertex
100
AcDb2dVertex
 10
44.9671673867
 20
232.4982510626
 30
0.0
  0
VERTEX
  5
45
100
AcDbEntity
  8
0
100
AcDbVertex
100
AcDb2dVertex
 10
44.8918458871
 20
232.3546122812
 30
0.0
  0
VERTEX
  5
46
100
AcDbEntity
  8
0
100
AcDbVertex
100
AcDb2dVertex
 10
44.8158125536
 20
232.2094956038
 30
0.0
  0
VERTEX
  5
47
100
AcDbEntity
  8
0
100
AcDbVertex
100
AcDb2dVertex
 10
44.7400207518
 20
232.0647153569
 30
0.0
  0
VERTEX
  5
48
100
AcDbEntity
  8
0
100
AcDbVertex
100
AcDb2dVertex
 10
44.2684315379
 20
231.161008101
 30
0.0
  0
VERTEX
  5
49
100
AcDbEntity
  8
0
100
AcDbVertex
100
AcDb2dVertex
 10
43.4335391037
 20
229.5487907339
 30
0.0
  0
VERTEX
  5
4A
100
AcDbEntity
  8
0
100
AcDbVertex
100
AcDb2dVertex
 10
41.9581217062
 20
226.6598932114
 30
0.0
  0
VERTEX
  5
4B
100
AcDbEntity
  8
0
100
AcDbVertex
100
AcDb2dVertex
 10
40.6574371487
 20
224.0689386784
 30
0.0
  0
VERTEX
  5
4C
100
AcDbEntity
  8
0
100
AcDbVertex
100
AcDb2dVertex
 10
39.3726650205
 20
221.4668319925
 30
0.0
  0
VERTEX
  5
4D
100
AcDbEntity
  8
0
100
AcDbVertex
100
AcDb2dVertex
 10
37.8641570792
 20
218.3546574684
 30
0.0
  0
VERTEX
  5
4E
100
AcDbEntity
  8
0
100
AcDbVertex
100
AcDb2dVertex
 10
36.3799329462
 20
215.227507675
 30
0.0
  0
VERTEX
  5
4F
100
AcDbEntity
  8
0
100
AcDbVertex
100
AcDb2dVertex
 10
34.9202572816
 20
212.0855094895
 30
0.0
  0
VERTEX
  5
50
100
AcDbEntity
  8
0
100
AcDbVertex
100
AcDb2dVertex
 10
33.3835603545
 20
208.7026056924
 30
0.0
  0
VERTEX
  5
51
100
AcDbEntity
  8
0
100
AcDbVertex
100
AcDb2dVertex
 10
31.8752855475
 20
205.302964106
 30
0.0
  0
VERTEX
  5
52
100
AcDbEntity
  8
0
100
AcDbVertex
100
AcDb2dVertex
 10
30.3998926073
 20
201.8922648366
 30
0.0
  0
VERTEX
  5
53
100
AcDbEntity
  8
0
100
AcDbVertex
100
AcDb2dVertex
 10
28.9590561469
 20
198.4726407359
 30
0.0
  0
VERTEX
  5
54
100
AcDbEntity
  8
0
100
AcDbVertex
100
AcDb2dVertex
 10
27.5527761662
 20
195.0440918038
 30
0.0
  0
VERTEX
  5
55
100
AcDbEntity
  8
0
100
AcDbVertex
100
AcDb2dVertex
 10
26.0240730512
 20
191.2070474708
 30
0.0
  0
VERTEX
  5
56
100
AcDbEntity
  8
0
100
AcDbVertex
100
AcDb2dVertex
 10
24.5384140207
 20
187.3588862301
 30
0.0
  0
VERTEX
  5
57
100
AcDbEntity
  8
0
100
AcDbVertex
100
AcDb2dVertex
 10
23.0957990747
 20
183.4996080818
 30
0.0
  0
VERTEX
  5
58
100
AcDbEntity
  8
0
100
AcDbVertex
100
AcDb2dVertex
 10
21.6962282131
 20
179.6292130258
 30
0.0
  0
VERTEX
  5
59
100
AcDbEntity
  8
0
100
AcDbVertex
100
AcDb2dVertex
 10
20.3404716414
 20
175.7470538177
 30
0.0
  0
VERTEX
  5
5A
100
AcDbEntity
  8
0
100
AcDbVertex
100
AcDb2dVertex
 10
19.0308599997
 20
171.851171897
 30
0.0
  0
VERTEX
  5
5B
100
AcDbEntity
  8
0
100
AcDbVertex
100
AcDb2dVertex
 10
17.7675525931
 20
167.9414333913
 30
0.0
  0
VERTEX
  5
5C
100
AcDbEntity
  8
0
100
AcDbVertex
100
AcDb2dVertex
 10
16.5505494216
 20
164.0178383006
 30
0.0
  0
VERTEX
  5
5D
100
AcDbEntity
  8
0
100
AcDbVertex
100
AcDb2dVertex
 10
15.4994457676
 20
160.4905272051
 30
0.0
  0
VERTEX
  5
5E
100
AcDbEntity
  8
0
100
AcDbVertex
100
AcDb2dVertex
 10
14.4855158943
 20
156.9520918213
 30
0.0
  0
VERTEX
  5
5F
100
AcDbEntity
  8
0
100
AcDbVertex
100
AcDb2dVertex
 10
13.5087598019
 20
153.4025321494
 30
0.0
  0
VERTEX
  5
60
100
AcDbEntity
  8
0
100
AcDbVertex
100
AcDb2dVertex
 10
12.5691788872
 20
149.8418491644
 30
0.0
  0
VERTEX
  5
61
100
AcDbEntity
  8
0
100
AcDbVertex
100
AcDb2dVertex
 10
11.6687942605
 20
146.2714534906
 30
0.0
  0
VERTEX
  5
62
100
AcDbEntity
  8
0
100
AcDbVertex
100
AcDb2dVertex
 10
10.824410279
 20
142.7565959685
 30
0.0
  0
VERTEX
  5
63
100
AcDbEntity
  8
0
100
AcDbVertex
100
AcDb2dVertex
 10
10.0195889851
 20
139.2335935767
 30
0.0
  0
VERTEX
  5
64
100
AcDbEntity
  8
0
100
AcDbVertex
100
AcDb2dVertex
 10
9.2543303787
 20
135.7024463153
 30
0.0
  0
VERTEX
  5
65
100
AcDbEntity
  8
0
100
AcDbVertex
100
AcDb2dVertex
 10
8.5286344599
 20
132.1631541842
 30
0.0
  0
VERTEX
  5
66
100
AcDbEntity
  8
0
100
AcDbVertex
100
AcDb2dVertex
 10
7.8289104494
 20
128.5432357028
 30
0.0
  0
VERTEX
  5
67
100
AcDbEntity
  8
0
100
AcDbVertex
100
AcDb2dVertex
 10
7.1703804075
 20
124.9148365159
 30
0.0
  0
VERTEX
  5
68
100
AcDbEntity
  8
0
100
AcDbVertex
100
AcDb2dVertex
 10
6.5530443344
 20
121.2779566233
 30
0.0
  0
VERTEX
  5
69
100
AcDbEntity
  8
0
100
AcDbVertex
100
AcDb2dVertex
 10
5.9779642989
 20
117.6339764654
 30
0.0
  0
VERTEX
  5
6A
100
AcDbEntity
  8
0
100
AcDbVertex
100
AcDb2dVertex
 10
5.4468370921
 20
113.9851014721
 30
0.0
  0
VERTEX
  5
6B
100
AcDbEntity
  8
0
100
AcDbVertex
100
AcDb2dVertex
 10
4.9596848006
 20
110.331360351
 30
0.0
  0
VERTEX
  5
6C
100
AcDbEntity
  8
0
100
AcDbVertex
100
AcDb2dVertex
 10
4.5165074244
 20
106.672753102
 30
0.0
  0
VERTEX
  5
6D
100
AcDbEntity
  8
0
100
AcDbVertex
100
AcDb2dVertex
 10
4.1181280828
 20
103.0172780549
 30
0.0
  0
VERTEX
  5
6E
100
AcDbEntity
  8
0
100
AcDbVertex
100
AcDb2dVertex
 10
3.7635319754
 20
99.3569580908
 30
0.0
  0
VERTEX
  5
6F
100
AcDbEntity
  8
0
100
AcDbVertex
100
AcDb2dVertex
 10
3.4527191021
 20
95.6917932097
 30
0.0
  0
VERTEX
  5
70
100
AcDbEntity
  8
0
100
AcDbVertex
100
AcDb2dVertex
 10
3.185689463
 20
92.0217834117
 30
0.0
  0
VERTEX
  5
71
100
AcDbEntity
  8
0
100
AcDbVertex
100
AcDb2dVertex
 10
2.962816438
 20
88.3482508673
 30
0.0
  0
VERTEX
  5
72
100
AcDbEntity
  8
0
100
AcDbVertex
100
AcDb2dVertex
 10
2.7876689614
 20
84.739596338
 30
0.0
  0
VERTEX
  5
73
100
AcDbEntity
  8
0
100
AcDbVertex
100
AcDb2dVertex
 10
2.6558975065
 20
81.1303141159
 30
0.0
  0
VERTEX
  5
74
100
AcDbEntity
  8
0
100
AcDbVertex
100
AcDb2dVertex
 10
2.5675020735
 20
77.520404201
 30
0.0
  0
VERTEX
  5
75
100
AcDbEntity
  8
0
100
AcDbVertex
100
AcDb2dVertex
 10
2.5224826622
 20
73.9098665933
 30
0.0
  0
VERTEX
  5
76
100
AcDbEntity
  8
0
100
AcDbVertex
100
AcDb2dVertex
 10
2.5212573796
 20
70.224997506
 30
0.0
  0
VERTEX
  5
77
100
AcDbEntity
  8
0
100
AcDbVertex
100
AcDb2dVertex
 10
2.5651966344
 20
66.5394748444
 30
0.0
  0
VERTEX
  5
78
100
AcDbEntity
  8
0
100
AcDbVertex
100
AcDb2dVertex
 10
2.6543004267
 20
62.8532986085
 30
0.0
  0
VERTEX
  5
79
100
AcDbEntity
  8
0
100
AcDbVertex
100
AcDb2dVertex
 10
2.7884846603
 20
59.1669836283
 30
0.0
  0
VERTEX
  5
7A
100
AcDbEntity
  8
0
100
AcDbVertex
100
AcDb2dVertex
 10
2.9674510177
 20
55.4823561786
 30
0.0
  0
VERTEX
  5
7B
100
AcDbEntity
  8
0
100
AcDbVertex
100
AcDb2dVertex
 10
3.1911732416
 20
51.7995770054
 30
0.0
  0
VERTEX
  5
7C
100
AcDbEntity
  8
0
100
AcDbVertex
100
AcDb2dVertex
 10
3.4596513319
 20
48.1186461085
 30
0.0
  0
VERTEX
  5
7D
100
AcDbEntity
  8
0
100
AcDbVertex
100
AcDb2dVertex
 10
3.7728852886
 20
44.439563488
 30
0.0
  0
VERTEX
  5
7E
100
AcDbEntity
  8
0
100
AcDbVertex
100
AcDb2dVertex
 10
4.1308751118
 20
40.7623291439
 30
0.0
  0
VERTEX
  5
7F
100
AcDbEntity
  8
0
100
AcDbVertex
100
AcDb2dVertex
 10
4.5336208014
 20
37.0869430761
 30
0.0
  0
VERTEX
  5
80
100
AcDbEntity
  8
0
100
AcDbVertex
100
AcDb2dVertex
 10
4.9811223574
 20
33.4134052847
 30
0.0
  0
VERTEX
  5
81
100
AcDbEntity
  8
0
100
AcDbVertex
100
AcDb2dVertex
 10
5.4731030336
 20
29.7425434798
 30
0.0
  0
VERTEX
  5
82
100
AcDbEntity
  8
0
100
AcDbVertex
100
AcDb2dVertex
 10
6.0082970744
 20
26.0781433619
 30
0.0
  0
VERTEX
  5
83
100
AcDbEntity
  8
0
100
AcDbVertex
100
AcDb2dVertex
 10
6.5865479638
 20
22.4206730494
 30
0.0
  0
VERTEX
  5
84
100
AcDbEntity
  8
0
100
AcDbVertex
100
AcDb2dVertex
 10
7.2250133083
 20
18.6728796568
 30
0.0
  0
VERTEX
  5
85
100
AcDbEntity
  8
0
100
AcDbVertex
100
AcDb2dVertex
 10
7.9086123554
 20
14.9328722035
 30
0.0
  0
VERTEX
  5
86
100
AcDbEntity
  8
0
100
AcDbVertex
100
AcDb2dVertex
 10
8.636212259
 20
11.2028319489
 30
0.0
  0
VERTEX
  5
87
100
AcDbEntity
  8
0
100
AcDbVertex
100
AcDb2dVertex
 10
9.1404232162
 20
8.7466651875
 30
0.0
  0
VERTEX
  5
88
100
AcDbEntity
  8
0
100
AcDbVertex
100
AcDb2dVertex
 10
9.6634130574
 20
6.2954929466
 30
0.0
  0
VERTEX
  5
89
100
AcDbEntity
  8
0
100
AcDbVertex
100
AcDb2dVertex
 10
10.1391358938
 20
4.1424116293
 30
0.0
  0
VERTEX
  5
8A
100
AcDbEntity
  8
0
100
AcDbVertex
100
AcDb2dVertex
 10
10.2100593558
 20
3.8272110844
 30
0.0
  0
VERTEX
  5
8B
100
AcDbEntity
  8
0
100
AcDbVertex
100
AcDb2dVertex
 10
10.2812153828
 20
3.5124293481
 30
0.0
  0
VERTEX
  5
8C
100
AcDbEntity
  8
0
100
AcDbVertex
100
AcDb2dVertex
 10
10.3518321146
 20
3.2014394463
 30
0.0
  0
VERTEX
  5
8D
100
AcDbEntity
  8
0
100
AcDbVertex
100
AcDb2dVertex
 10
10.4040661585
 20
2.9723018205
 30
0.0
  0
VERTEX
  5
8E
100
AcDbEntity
  8
0
100
AcDbVertex
100
AcDb2dVertex
 10
10.4580265404
 20
2.736493868
 30
0.0
  0
VERTEX
  5
8F
100
AcDbEntity
  8
0
100
AcDbVertex
100
AcDb2dVertex
 10
10.5228866392
 20
2.4539056558
 30
0.0
  0
SEQEND
  5
90
100
AcDbEntity
  8
0
  0
POLYLINE
  5
91
100
AcDbEntity
  8
0
  6
CONTINUOUS
 62
         7
100
AcDb2dPolyline
 66
         1
 10
0.0
 20
0.0
 30
0.0
 70
       128
  0
VERTEX
  5
92
100
AcDbEntity
  8
0
100
AcDbVertex
100
AcDb2dVertex
 10
39.2700447131
 20
50.6515707312
 30
0.0
  0
VERTEX
  5
93
100
AcDbEntity
  8
0
100
AcDbVertex
100
AcDb2dVertex
 10
39.2479380642
 20
50.9546331557
 30
0.0
  0
VERTEX
  5
94
100
AcDbEntity
  8
0
100
AcDbVertex
100
AcDb2dVertex
 10
39.2286396537
 20
51.2199497767
 30
0.0
  0
VERTEX
  5
95
100
AcDbEntity
  8
0
100
AcDbVertex
100
AcDb2dVertex
 10
39.2120941496
 20
51.4482850007
 30
0.0
  0
VERTEX
  5
96
100
AcDbEntity
  8
0
100
AcDbVertex
100
AcDb2dVertex
 10
39.1959191795
 20
51.6725510838
 30
0.0
  0
VERTEX
  5
97
100
AcDbEntity
  8
0
100
AcDbVertex
100
AcDb2dVertex
 10
39.1788470793
 20
51.9102606893
 30
0.0
  0
VERTEX
  5
98
100
AcDbEntity
  8
0
100
AcDbVertex
100
AcDb2dVertex
 10
39.1609365909
 20
52.160602295
 30
0.0
  0
VERTEX
  5
99
100
AcDbEntity
  8
0
100
AcDbVertex
100
AcDb2dVertex
 10
39.1429018541
 20
52.4137100498
 30
0.0
  0
VERTEX
  5
9A
100
AcDbEntity
  8
0
100
AcDbVertex
100
AcDb2dVertex
 10
39.045246609
 20
53.8033464451
 30
0.0
  0
VERTEX
  5
9B
100
AcDbEntity
  8
0
100
AcDbVertex
100
AcDb2dVertex
 10
38.8767913295
 20
56.2817724225
 30
0.0
  0
VERTEX
  5
9C
100
AcDbEntity
  8
0
100
AcDbVertex
100
AcDb2dVertex
 10
38.5942052785
 20
60.7071810267
 30
0.0
  0
VERTEX
  5
9D
100
AcDbEntity
  8
0
100
AcDbVertex
100
AcDb2dVertex
 10
38.3615179514
 20
64.6600426449
 30
0.0
  0
VERTEX
  5
9E
100
AcDbEntity
  8
0
100
AcDbVertex
100
AcDb2dVertex
 10
38.1473042294
 20
68.6154620337
 30
0.0
  0
VERTEX
  5
9F
100
AcDbEntity
  8
0
100
AcDbVertex
100
AcDb2dVertex
 10
37.9163709055
 20
73.3277383211
 30
0.0
  0
VERTEX
  5
A0
100
AcDbEntity
  8
0
100
AcDbVertex
100
AcDb2dVertex
 10
37.7116555295
 20
78.0419951265
 30
0.0
  0
VERTEX
  5
A1
100
AcDbEntity
  8
0
100
AcDbVertex
100
AcDb2dVertex
 10
37.5332048062
 20
82.7562128385
 30
0.0
  0
VERTEX
  5
A2
100
AcDbEntity
  8
0
100
AcDbVertex
100
AcDb2dVertex
 10
37.3353515951
 20
89.0698324319
 30
0.0
  0
VERTEX
  5
A3
100
AcDbEntity
  8
0
100
AcDbVertex
100
AcDb2dVertex
 10
37.184609025
 20
95.3833777784
 30
0.0
  0
VERTEX
  5
A4
100
AcDbEntity
  8
0
100
AcDbVertex
100
AcDb2dVertex
 10
37.0808054903
 20
101.6964121051
 30
0.0
  0
VERTEX
  5
A5
100
AcDbEntity
  8
0
100
AcDbVertex
100
AcDb2dVertex
 10
37.0236363238
 20
108.0081599699
 30
0.0
  0
VERTEX
  5
A6
100
AcDbEntity
  8
0
100
AcDbVertex
100
AcDb2dVertex
 10
37.0133660302
 20
114.4473774506
 30
0.0
  0
VERTEX
  5
A7
100
AcDbEntity
  8
0
100
AcDbVertex
100
AcDb2dVertex
 10
37.051628442
 20
120.8852504061
 30
0.0
  0
VERTEX
  5
A8
100
AcDbEntity
  8
0
100
AcDbVertex
100
AcDb2dVertex
 10
37.1380350494
 20
127.3220025079
 30
0.0
  0
VERTEX
  5
A9
100
AcDbEntity
  8
0
100
AcDbVertex
100
AcDb2dVertex
 10
37.2724299524
 20
133.7577235101
 30
0.0
  0
VERTEX
  5
AA
100
AcDbEntity
  8
0
100
AcDbVertex
100
AcDb2dVertex
 10
37.454813151
 20
140.1924134127
 30
0.0
  0
VERTEX
  5
AB
100
AcDbEntity
  8
0
100
AcDbVertex
100
AcDb2dVertex
 10
37.6850064265
 20
146.6257783296
 30
0.0
  0
VERTEX
  5
AC
100
AcDbEntity
  8
0
100
AcDbVertex
100
AcDb2dVertex
 10
37.9625012716
 20
153.0569797214
 30
0.0
  0
VERTEX
  5
AD
100
AcDbEntity
  8
0
100
AcDbVertex
100
AcDb2dVertex
 10
38.2872663449
 20
159.4859659058
 30
0.0
  0
VERTEX
  5
AE
100
AcDbEntity
  8
0
100
AcDbVertex
100
AcDb2dVertex
 10
38.6592909243
 20
165.9127227518
 30
0.0
  0
VERTEX
  5
AF
100
AcDbEntity
  8
0
100
AcDbVertex
100
AcDb2dVertex
 10
39.0780010681
 20
172.3364938613
 30
0.0
  0
VERTEX
  5
B0
100
AcDbEntity
  8
0
100
AcDbVertex
100
AcDb2dVertex
 10
39.5430702406
 20
178.7568488924
 30
0.0
  0
VERTEX
  5
B1
100
AcDbEntity
  8
0
100
AcDbVertex
100
AcDb2dVertex
 10
40.0544984417
 20
185.1737878451
 30
0.0
  0
VERTEX
  5
B2
100
AcDbEntity
  8
0
100
AcDbVertex
100
AcDb2dVertex
 10
40.6121458568
 20
191.5876187992
 30
0.0
  0
VERTEX
  5
B3
100
AcDbEntity
  8
0
100
AcDbVertex
100
AcDb2dVertex
 10
41.2154423758
 20
197.9995979837
 30
0.0
  0
VERTEX
  5
B4
100
AcDbEntity
  8
0
100
AcDbVertex
100
AcDb2dVertex
 10
41.8822546674
 20
204.5807765559
 30
0.0
  0
VERTEX
  5
B5
100
AcDbEntity
  8
0
100
AcDbVertex
100
AcDb2dVertex
 10
42.5971122508
 20
211.1601252284
 30
0.0
  0
VERTEX
  5
B6
100
AcDbEntity
  8
0
100
AcDbVertex
100
AcDb2dVertex
 10
43.3592583871
 20
217.7353974678
 30
0.0
  0
VERTEX
  5
B7
100
AcDbEntity
  8
0
100
AcDbVertex
100
AcDb2dVertex
 10
43.8878962582
 20
222.0720026008
 30
0.0
  0
VERTEX
  5
B8
100
AcDbEntity
  8
0
100
AcDbVertex
100
AcDb2dVertex
 10
44.4366926408
 20
226.4052527442
 30
0.0
  0
VERTEX
  5
B9
100
AcDbEntity
  8
0
100
AcDbVertex
100
AcDb2dVertex
 10
44.9362518141
 20
230.2159418778
 30
0.0
  0
VERTEX
  5
BA
100
AcDbEntity
  8
0
100
AcDbVertex
100
AcDb2dVertex
 10
45.0108981396
 20
230.775191358
 30
0.0
  0
VERTEX
  5
BB
100
AcDbEntity
  8
0
100
AcDbVertex
100
AcDb2dVertex
 10
45.0860643155
 20
231.3357697755
 30
0.0
  0
VERTEX
  5
BC
100
AcDbEntity
  8
0
100
AcDbVertex
100
AcDb2dVertex
 10
45.1615944083
 20
231.8965276923
 30
0.0
  0
VERTEX
  5
BD
100
AcDbEntity
  8
0
100
AcDbVertex
100
AcDb2dVertex
 10
45.1954969796
 20
232.1474503275
 30
0.0
  0
VERTEX
  5
BE
100
AcDbEntity
  8
0
100
AcDbVertex
100
AcDb2dVertex
 10
45.2272927217
 20
232.3822838036
 30
0.0
  0
VERTEX
  5
BF
100
AcDbEntity
  8
0
100
AcDbVertex
100
AcDb2dVertex
 10
45.2589147522
 20
232.6152780588
 30
0.0
  0
VERTEX
  5
C0
100
AcDbEntity
  8
0
100
AcDbVertex
100
AcDb2dVertex
 10
45.2961282629
 20
232.8889310861
 30
0.0
  0
VERTEX
  5
C1
100
AcDbEntity
  8
0
100
AcDbVertex
100
AcDb2dVertex
 10
45.3393175747
 20
233.206075899
 30
0.0
  0
SEQEND
  5
C2
100
AcDbEntity
  8
0
  0
POLYLINE
  5
C3
100
AcDbEntity
  8
0
  6
CONTINUOUS
 62
         7
100
AcDb2dPolyline
 66
         1
 10
0.0
 20
0.0
 30
0.0
 70
       128
  0
VERTEX
  5
C4
100
AcDbEntity
  8
0
100
AcDbVertex
100
AcDb2dVertex
 10
42.907018645
 20
20.5818764473
 30
0.0
  0
VERTEX
  5
C5
100
AcDbEntity
  8
0
100
AcDbVertex
100
AcDb2dVertex
 10
42.3581616689
 20
23.9303224025
 30
0.0
  0
VERTEX
  5
C6
100
AcDbEntity
  8
0
100
AcDbVertex
100
AcDb2dVertex
 10
41.8450901437
 20
27.2839346941
 30
0.0
  0
VERTEX
  5
C7
100
AcDbEntity
  8
0
100
AcDbVertex
100
AcDb2dVertex
 10
41.3676784221
 20
30.6428361168
 30
0.0
  0
VERTEX
  5
C8
100
AcDbEntity
  8
0
100
AcDbVertex
100
AcDb2dVertex
 10
40.9258766918
 20
34.0070753519
 30
0.0
  0
VERTEX
  5
C9
100
AcDbEntity
  8
0
100
AcDbVertex
100
AcDb2dVertex
 10
40.5196849526
 20
37.3766523995
 30
0.0
  0
VERTEX
  5
CA
100
AcDbEntity
  8
0
100
AcDbVertex
100
AcDb2dVertex
 10
40.1140678945
 20
41.0887307418
 30
0.0
  0
VERTEX
  5
CB
100
AcDbEntity
  8
0
100
AcDbVertex
100
AcDb2dVertex
 10
39.7517922351
 20
44.8048184259
 30
0.0
  0
VERTEX
  5
CC
100
AcDbEntity
  8
0
100
AcDbVertex
100
AcDb2dVertex
 10
39.4688253862
 20
48.0781630522
 30
0.0
  0
VERTEX
  5
CD
100
AcDbEntity
  8
0
100
AcDbVertex
100
AcDb2dVertex
 10
39.3548391949
 20
49.5206673569
 30
0.0
  0
VERTEX
  5
CE
100
AcDbEntity
  8
0
100
AcDbVertex
100
AcDb2dVertex
 10
39.3423733349
 20
49.6836303046
 30
0.0
  0
VERTEX
  5
CF
100
AcDbEntity
  8
0
100
AcDbVertex
100
AcDb2dVertex
 10
39.3299597431
 20
49.846991447
 30
0.0
  0
VERTEX
  5
D0
100
AcDbEntity
  8
0
100
AcDbVertex
100
AcDb2dVertex
 10
39.317832865
 20
50.0076058104
 30
0.0
  0
VERTEX
  5
D1
100
AcDbEntity
  8
0
100
AcDbVertex
100
AcDb2dVertex
 10
39.3066757772
 20
50.1563102479
 30
0.0
  0
VERTEX
  5
D2
100
AcDbEntity
  8
0
100
AcDbVertex
100
AcDb2dVertex
 10
39.2963279932
 20
50.2952612303
 30
0.0
  0
VERTEX
  5
D3
100
AcDbEntity
  8
0
100
AcDbVertex
100
AcDb2dVertex
 10
39.2843540233
 20
50.457172878
 30
0.0
  0
VERTEX
  5
D4
100
AcDbEntity
  8
0
100
AcDbVertex
100
AcDb2dVertex
 10
39.2700447131
 20
50.6515707312
 30
0.0
  0
SEQEND
  5
D5
100
AcDbEntity
  8
0
  0
LINE
  5
D6
100
AcDbEntity
  8
0
  6
CONTINUOUS
 62
         7
100
AcDbLine
 10
42.9070186451
 20
20.5818764473
 30
0.0
 11
42.8994503617
 21
20.5756004561
 31
0.0
  0
DIMENSION
  5
EC
100
AcDbEntity
  8
0
 62
         7
100
AcDbDimension
  2
*D0
 10
60.4859312763
 20
2.4539056558
 30
0.0
 11
60.4859312763
 21
32.6886779674
 31
0.0
 70
       160
  3
SLDDIMSTYLE0
100
AcDbAlignedDimension
 13
42.899450377
 23
20.5756004688
 33
0.0
 14
46.5228866392
 24
2.4539056558
 34
0.0
 50
90.0
100
AcDbRotatedDimension
  0
DIMENSION
  5
F9
100
AcDbEntity
  8
0
 62
         7
100
AcDbDimension
  2
*D2
 10
72.8126537095
 20
50.6515707312
 30
0.0
 11
72.8126537095
 21
39.3517813652
 31
0.0
 70
       160
  3
SLDDIMSTYLE1
100
AcDbAlignedDimension
 13
46.5228866392
 23
2.4539056558
 33
0.0
 14
39.2700447131
 24
50.6515707312
 34
0.0
 50
-90.0
100
AcDbRotatedDimension
  0
DIMENSION
  5
105
100
AcDbEntity
  8
0
 62
         7
100
AcDbDimension
  2
*D3
 10
78.9477125737
 20
2.4539056558
 30
0.0
 11
78.9477125737
 21
80.5959854628
 31
0.0
 70
       160
  3
SLDDIMSTYLE1
100
AcDbAlignedDimension
 13
37.0682624854
 23
122.4539056558
 33
0.0
 14
46.5228866392
 24
2.4539056558
 34
0.0
 50
90.0
100
AcDbRotatedDimension
  0
DIMENSION
  5
111
100
AcDbEntity
  8
0
 62
         7
100
AcDbDimension
  2
*D4
 10
95.0511102346
 20
2.4539056558
 30
0.0
 11
95.0511102346
 21
100.1106733149
 31
0.0
 70
       160
  3
SLDDIMSTYLE1
100
AcDbAlignedDimension
 13
39.8320306352
 23
182.4539056558
 33
0.0
 14
46.5228866392
 24
2.4539056558
 34
0.0
 50
90.0
100
AcDbRotatedDimension
  0
DIMENSION
  5
11D
100
AcDbEntity
  8
0
 62
         7
100
AcDbDimension
  2
*D5
 10
-13.4771133608
 20
2.589831584
 30
0.0
 11
-31.3948775688
 21
2.589831584
 31
0.0
 70
       160
  3
SLDDIMSTYLE1
100
AcDbAlignedDimension
 13
10.5228866392
 23
2.4539056558
 33
0.0
 14
-13.4771133608
 24
2.4539056558
 34
0.0
100
AcDbRotatedDimension
  0
DIMENSION
  5
129
100
AcDbEntity
  8
0
 62
         7
100
AcDbDimension
  2
*D6
 10
-13.4771133608
 20
16.8350871242
 30
0.0
 11
-31.3948775688
 21
16.8350871242
 31
0.0
 70
       160
  3
SLDDIMSTYLE0
100
AcDbAlignedDimension
 13
6.8950431723
 23
20.5756004688
 33
0.0
 14
-13.4771133608
 24
2.4539056558
 34
0.0
100
AcDbRotatedDimension
  0
DIMENSION
  5
134
100
AcDbEntity
  8
0
 62
         7
100
AcDbDimension
  2
*D7
 10
-13.4771133608
 20
27.8636720586
 30
0.0
 11
21.4504252416
 21
27.8636720586
 31
0.0
 70
       160
  3
SLDDIMSTYLE0
100
AcDbAlignedDimension
 13
42.899450377
 23
20.5756004688
 33
0.0
 14
-13.4771133608
 24
2.4539056558
 34
0.0
100
AcDbRotatedDimension
  0
DIMENSION
  5
140
100
AcDbEntity
  8
0
 62
         7
100
AcDbDimension
  2
*D8
 10
-13.4771133608
 20
44.4065494601
 30
0.0
 11
-32.3139263133
 21
44.4065494601
 31
0.0
 70
       160
  3
SLDDIMSTYLE0
100
AcDbAlignedDimension
 13
3.2700894568
 23
50.6515707312
 33
0.0
 14
-13.4771133608
 24
2.4539056558
 34
0.0
100
AcDbRotatedDimension
  0
DIMENSION
  5
14B
100
AcDbEntity
  8
0
 62
         7
100
AcDbDimension
  2
*D9
 10
-13.4771133608
 20
60.4899024894
 30
0.0
 11
22.3694739862
 21
60.4899024894
 31
0.0
 70
       160
  3
SLDDIMSTYLE0
100
AcDbAlignedDimension
 13
39.2700447131
 23
50.6515707312
 33
0.0
 14
-13.4771133608
 24
2.4539056558
 34
0.0
100
AcDbRotatedDimension
  0
DIMENSION
  5
157
100
AcDbEntity
  8
0
 62
         7
100
AcDbDimension
  2
*D10
 10
-13.4771133608
 20
115.1733027889
 30
0.0
 11
-32.3139263133
 21
115.1733027889
 31
0.0
 70
       160
  3
SLDDIMSTYLE0
100
AcDbAlignedDimension
 13
6.7479918309
 23
122.4539056558
 33
0.0
 14
-13.4771133608
 24
2.4539056558
 34
0.0
100
AcDbRotatedDimension
  0
DIMENSION
  5
162
100
AcDbEntity
  8
0
 62
         7
100
AcDbDimension
  2
*D11
 10
-13.4771133608
 20
130.3376070736
 30
0.0
 11
23.7480471029
 21
130.3376070736
 31
0.0
 70
       160
  3
SLDDIMSTYLE0
100
AcDbAlignedDimension
 13
37.0682624854
 23
122.4539056558
 33
0.0
 14
-13.4771133608
 24
233.2060759053
 34
0.0
100
AcDbRotatedDimension
  0
DIMENSION
  5
16E
100
AcDbEntity
  8
0
 62
         7
100
AcDbDimension
  2
*D12
 10
-13.4771133608
 20
174.9114711832
 30
0.0
 11
-29.5567800797
 21
174.9114711832
 31
0.0
 70
       160
  3
SLDDIMSTYLE0
100
AcDbAlignedDimension
 13
22.7130201769
 23
182.4539056558
 33
0.0
 14
-13.4771133608
 24
233.2060759053
 34
0.0
100
AcDbRotatedDimension
  0
DIMENSION
  5
179
100
AcDbEntity
  8
0
 62
         7
100
AcDbDimension
  2
*D13
 10
-13.4771133608
 20
188.6972023512
 30
0.0
 11
9.0432671905
 21
188.6972023512
 31
0.0
 70
       160
  3
SLDDIMSTYLE0
100
AcDbAlignedDimension
 13
39.8320306352
 23
182.4539056558
 33
0.0
 14
-13.4771133608
 24
233.2060759053
 34
0.0
100
AcDbRotatedDimension
  0
DIMENSION
  5
185
100
AcDbEntity
  8
0
 62
         7
100
AcDbDimension
  2
*D14
 10
45.3393174392
 20
242.9210782784
 30
0.0
 11
16.855181519
 21
242.9210782784
 31
0.0
 70
       160
  3
SLDDIMSTYLE0
100
AcDbAlignedDimension
 13
-13.4771133608
 23
233.2060759053
 33
0.0
 14
45.3393174392
 24
233.2060759053
 34
0.0
100
AcDbRotatedDimension
  0
DIMENSION
  5
191
100
AcDbEntity
  8
0
 62
         7
100
AcDbDimension
  2
*D15
 10
107.7365060016
 20
2.4539056558
 30
0.0
 11
107.7365060016
 21
128.4995095845
 31
0.0
 70
       160
  3
SLDDIMSTYLE0
100
AcDbAlignedDimension
 13
45.3393174392
 23
233.2060759053
 33
0.0
 14
46.5228866392
 24
2.4539056558
 34
0.0
 50
90.0
100
AcDbRotatedDimension
  0
MTEXT
  5
192
100
AcDbEntity
  8
0
 62
         7
100
AcDbMText
 10
25.586144592
 20
6.2660265622
 30
0.0
 40
3.0
 41
0.0
 71
         1
 72
         1
  1
A
  7
SLDTEXTSTYLE0
  0
MTEXT
  5
193
100
AcDbEntity
  8
0
 62
         7
100
AcDbMText
 10
24.6670958475
 20
24.6470014527
 30
0.0
 40
3.0
 41
0.0
 71
         1
 72
         1
  1
B
  7
SLDTEXTSTYLE0
  0
MTEXT
  5
194
100
AcDbEntity
  8
0
 62
         7
100
AcDbMText
 10
-97.5663871749
 20
162.5043131321
 30
0.0
 40
3.0
 41
0.0
 71
         1
 72
         1
  1
B
  7
SLDTEXTSTYLE0
  0
MTEXT
  5
195
100
AcDbEntity
  8
0
 62
         7
100
AcDbMText
 10
20.0755283198
 20
54.6888668139
 30
0.0
 40
3.0
 41
0.0
 71
         1
 72
         1
  1
C
  7
SLDTEXTSTYLE0
  0
ENDSEC
  0
SECTION
  2
OBJECTS
  0
DICTIONARY
  5
19
100
AcDbDictionary
  3
ACAD_GROUP
350
1A
  3
ACAD_MLINESTYLE
350
1B
  0
DICTIONARY
  5
1A
102
{ACAD_REACTORS
330
19
102
}
100
AcDbDictionary
  0
DICTIONARY
  5
1B
102
{ACAD_REACTORS
330
19
102
}
100
AcDbDictionary
  3
STANDARD
350
1C
  0
MLINESTYLE
  5
1C
102
{ACAD_REACTORS
330
1B
102
}
100
AcDbMlineStyle
  2
STANDARD
 70
         0
  3

 62
         0
 51
90.0
 52
90.0
 71
         2
 49
0.5
 62
       256
  6
BYLAYER
 49
-0.5
 62
       256
  6
BYLAYER
  0
ENDSEC
  0
EOF
